<svg width="160" height="320" viewBox="0 0 160 320" fill="none" xmlns="http://www.w3.org/2000/svg">
<path d="M161.285 159.999C161.285 160.71 160.71 161.285 159.999 161.285C159.289 161.285 158.712 160.71 158.712 159.999C158.712 159.29 159.288 158.713 159.999 158.713C160.71 158.712 161.285 159.29 161.285 159.999Z" fill="#2A81DD" fill-opacity="0.1"/>
<path d="M160.611 154.857C160.611 155.194 160.337 155.469 159.999 155.469C159.662 155.469 159.386 155.195 159.386 154.857C159.386 154.518 159.661 154.244 159.999 154.244C160.337 154.243 160.611 154.518 160.611 154.857Z" fill="#2A81DD" fill-opacity="0.1"/>
<path d="M155.851 156.897C156.144 157.066 156.245 157.441 156.076 157.733C155.907 158.026 155.532 158.127 155.239 157.958C154.947 157.789 154.845 157.413 155.015 157.121C155.186 156.828 155.559 156.727 155.851 156.897Z" fill="#2A81DD" fill-opacity="0.1"/>
<path d="M155.24 162.04C155.532 161.87 155.907 161.971 156.076 162.264C156.245 162.556 156.144 162.932 155.851 163.101C155.559 163.27 155.186 163.168 155.016 162.876C154.845 162.584 154.947 162.21 155.24 162.04Z" fill="#2A81DD" fill-opacity="0.1"/>
<path d="M159.386 165.142C159.385 164.804 159.661 164.531 159.999 164.53C160.337 164.532 160.612 164.804 160.612 165.142C160.612 165.48 160.338 165.754 159.999 165.754C159.661 165.754 159.386 165.48 159.386 165.142Z" fill="#2A81DD" fill-opacity="0.1"/>
<path d="M160.611 152.28C160.611 152.617 160.337 152.891 159.999 152.891C159.662 152.891 159.386 152.617 159.386 152.28C159.386 151.941 159.661 151.667 159.999 151.667C160.337 151.666 160.611 151.941 160.611 152.28Z" fill="#2A81DD" fill-opacity="0.1"/>
<path d="M155.353 153.747C155.569 154.007 155.536 154.394 155.276 154.611C155.018 154.828 154.632 154.794 154.412 154.535C154.196 154.275 154.229 153.89 154.488 153.672C154.746 153.455 155.134 153.488 155.353 153.747Z" fill="#2A81DD" fill-opacity="0.1"/>
<path d="M152.266 158.254C152.598 158.313 152.821 158.629 152.762 158.963C152.704 159.295 152.386 159.519 152.052 159.459C151.72 159.4 151.499 159.082 151.558 158.749C151.615 158.417 151.933 158.195 152.266 158.254Z" fill="#2A81DD" fill-opacity="0.1"/>
<path d="M152.797 163.689C153.093 163.52 153.465 163.62 153.635 163.913C153.803 164.205 153.703 164.58 153.41 164.75C153.118 164.916 152.744 164.817 152.575 164.525C152.405 164.232 152.507 163.859 152.797 163.689Z" fill="#2A81DD" fill-opacity="0.1"/>
<path d="M156.701 167.51C156.818 167.192 157.168 167.027 157.486 167.145C157.803 167.26 157.966 167.611 157.851 167.929C157.735 168.246 157.384 168.412 157.066 168.293C156.749 168.179 156.586 167.828 156.701 167.51Z" fill="#2A81DD" fill-opacity="0.1"/>
<path d="M160.82 145.696C160.82 146.149 160.453 146.518 159.998 146.518C159.545 146.518 159.176 146.15 159.176 145.696C159.176 145.241 159.544 144.872 159.998 144.872C160.453 144.873 160.82 145.241 160.82 145.696Z" fill="#2A81DD" fill-opacity="0.1"/>
<path d="M155.88 146.278C156.034 146.703 155.814 147.175 155.389 147.331C154.962 147.485 154.489 147.265 154.335 146.839C154.18 146.413 154.399 145.941 154.825 145.786C155.252 145.63 155.724 145.849 155.88 146.278Z" fill="#2A81DD" fill-opacity="0.1"/>
<path d="M151.434 148.514C151.727 148.861 151.681 149.379 151.334 149.672C150.985 149.962 150.468 149.918 150.176 149.571C149.885 149.223 149.93 148.703 150.278 148.412C150.625 148.119 151.144 148.165 151.434 148.514Z" fill="#2A81DD" fill-opacity="0.1"/>
<path d="M148.024 152.134C148.416 152.362 148.551 152.864 148.325 153.258C148.097 153.65 147.596 153.784 147.203 153.559C146.809 153.331 146.674 152.827 146.901 152.435C147.127 152.043 147.63 151.909 148.024 152.134Z" fill="#2A81DD" fill-opacity="0.1"/>
<path d="M146.055 156.705C146.502 156.784 146.8 157.21 146.722 157.656C146.642 158.104 146.217 158.401 145.771 158.323C145.325 158.245 145.024 157.818 145.103 157.37C145.182 156.926 145.609 156.627 146.055 156.705Z" fill="#2A81DD" fill-opacity="0.1"/>
<path d="M145.771 161.673C146.216 161.594 146.642 161.893 146.722 162.339C146.8 162.785 146.503 163.211 146.055 163.29C145.61 163.37 145.182 163.07 145.103 162.623C145.024 162.178 145.324 161.752 145.771 161.673Z" fill="#2A81DD" fill-opacity="0.1"/>
<path d="M147.2 166.438C147.594 166.21 148.097 166.346 148.324 166.739C148.55 167.133 148.415 167.633 148.023 167.86C147.63 168.089 147.126 167.954 146.899 167.56C146.673 167.168 146.808 166.666 147.2 166.438Z" fill="#2A81DD" fill-opacity="0.1"/>
<path d="M150.175 170.427C150.468 170.079 150.986 170.033 151.334 170.324C151.682 170.618 151.727 171.134 151.435 171.482C151.146 171.831 150.625 171.878 150.276 171.585C149.929 171.294 149.885 170.775 150.175 170.427Z" fill="#2A81DD" fill-opacity="0.1"/>
<path d="M154.335 173.158C154.489 172.731 154.962 172.511 155.387 172.667C155.815 172.823 156.035 173.293 155.879 173.72C155.725 174.147 155.252 174.369 154.825 174.212C154.398 174.056 154.18 173.586 154.335 173.158Z" fill="#2A81DD" fill-opacity="0.1"/>
<path d="M159.177 174.302C159.177 173.848 159.545 173.479 159.999 173.481C160.454 173.479 160.821 173.847 160.821 174.301C160.822 174.756 160.454 175.125 159.999 175.125C159.543 175.123 159.177 174.756 159.177 174.302Z" fill="#2A81DD" fill-opacity="0.1"/>
<path d="M161.13 135.923C161.13 136.546 160.624 137.052 160.001 137.052C159.376 137.052 158.87 136.546 158.87 135.923C158.87 135.298 159.376 134.792 160.001 134.792C160.624 134.792 161.13 135.298 161.13 135.923Z" fill="#2A81DD" fill-opacity="0.1"/>
<path d="M161.108 135.687C161.235 136.296 160.847 136.897 160.236 137.026C159.627 137.157 159.027 136.766 158.896 136.156C158.768 135.545 159.157 134.946 159.767 134.817C160.377 134.686 160.975 135.077 161.108 135.687Z" fill="#2A81DD" fill-opacity="0.1"/>
<path d="M156.028 135.988C156.28 136.558 156.023 137.227 155.455 137.481C154.885 137.734 154.217 137.479 153.962 136.908C153.709 136.337 153.965 135.67 154.535 135.415C155.105 135.162 155.771 135.418 156.028 135.988Z" fill="#2A81DD" fill-opacity="0.1"/>
<path d="M151.12 137.338C151.486 137.844 151.376 138.55 150.872 138.917C150.366 139.284 149.661 139.173 149.293 138.668C148.926 138.163 149.037 137.456 149.543 137.089C150.049 136.722 150.753 136.834 151.12 137.338Z" fill="#2A81DD" fill-opacity="0.1"/>
<path d="M146.603 139.68C147.066 140.099 147.105 140.813 146.688 141.275C146.269 141.74 145.555 141.777 145.092 141.359C144.628 140.942 144.591 140.228 145.009 139.764C145.425 139.299 146.138 139.264 146.603 139.68Z" fill="#2A81DD" fill-opacity="0.1"/>
<path d="M142.671 142.91C143.212 143.223 143.399 143.912 143.085 144.451C142.772 144.994 142.083 145.178 141.544 144.865C141.002 144.553 140.816 143.862 141.131 143.323C141.441 142.781 142.131 142.597 142.671 142.91Z" fill="#2A81DD" fill-opacity="0.1"/>
<path d="M139.497 146.885C140.091 147.079 140.416 147.715 140.223 148.308C140.031 148.903 139.393 149.227 138.8 149.033C138.207 148.842 137.882 148.205 138.075 147.61C138.266 147.016 138.903 146.692 139.497 146.885Z" fill="#2A81DD" fill-opacity="0.1"/>
<path d="M137.217 151.435C137.839 151.5 138.29 152.055 138.225 152.676C138.16 153.298 137.604 153.747 136.983 153.682C136.363 153.616 135.911 153.062 135.977 152.44C136.041 151.818 136.597 151.369 137.217 151.435Z" fill="#2A81DD" fill-opacity="0.1"/>
<path d="M135.934 156.358C136.558 156.293 137.112 156.743 137.178 157.363C137.245 157.984 136.794 158.538 136.173 158.605C135.554 158.669 134.997 158.22 134.933 157.599C134.864 156.977 135.315 156.424 135.934 156.358Z" fill="#2A81DD" fill-opacity="0.1"/>
<path d="M135.703 161.442C136.3 161.249 136.934 161.573 137.128 162.166C137.321 162.761 136.995 163.397 136.402 163.59C135.81 163.782 135.171 163.458 134.98 162.864C134.784 162.271 135.111 161.635 135.703 161.442Z" fill="#2A81DD" fill-opacity="0.1"/>
<path d="M136.533 166.461C137.076 166.147 137.767 166.333 138.077 166.873C138.393 167.414 138.204 168.104 137.664 168.416C137.126 168.726 136.433 168.544 136.122 168.003C135.808 167.464 135.994 166.772 136.533 166.461Z" fill="#2A81DD" fill-opacity="0.1"/>
<path d="M138.391 171.2C138.857 170.781 139.568 170.816 139.986 171.281C140.405 171.745 140.367 172.459 139.902 172.877C139.439 173.293 138.724 173.258 138.308 172.793C137.889 172.33 137.926 171.615 138.391 171.2Z" fill="#2A81DD" fill-opacity="0.1"/>
<path d="M141.192 175.446C141.559 174.939 142.265 174.829 142.769 175.195C143.277 175.562 143.387 176.268 143.02 176.774C142.653 177.276 141.949 177.392 141.443 177.024C140.935 176.659 140.825 175.951 141.192 175.446Z" fill="#2A81DD" fill-opacity="0.1"/>
<path d="M144.814 179.02C145.07 178.449 145.736 178.193 146.305 178.447C146.878 178.7 147.133 179.368 146.878 179.938C146.623 180.507 145.959 180.766 145.387 180.51C144.816 180.258 144.56 179.59 144.814 179.02Z" fill="#2A81DD" fill-opacity="0.1"/>
<path d="M149.099 181.761C149.232 181.149 149.83 180.761 150.44 180.89C151.052 181.019 151.438 181.619 151.309 182.231C151.178 182.839 150.582 183.232 149.971 183.099C149.359 182.973 148.971 182.371 149.099 181.761Z" fill="#2A81DD" fill-opacity="0.1"/>
<path d="M153.863 183.551C153.863 182.925 154.369 182.421 154.992 182.421C155.618 182.419 156.121 182.927 156.121 183.55C156.121 184.172 155.619 184.68 154.993 184.679C154.369 184.683 153.863 184.176 153.863 183.551Z" fill="#2A81DD" fill-opacity="0.1"/>
<path d="M158.893 184.313C158.763 183.701 159.153 183.102 159.763 182.972C160.376 182.841 160.972 183.233 161.102 183.843C161.232 184.451 160.846 185.051 160.234 185.182C159.625 185.314 159.022 184.925 158.893 184.313Z" fill="#2A81DD" fill-opacity="0.1"/>
<path d="M158.062 194.544C158.062 193.469 158.93 192.603 159.996 192.601C161.068 192.602 161.933 193.469 161.935 194.544C161.933 195.614 161.068 196.479 159.996 196.479C158.927 196.478 158.066 195.61 158.062 194.544Z" fill="#2A81DD" fill-opacity="0.1"/>
<path d="M161.935 125.456C161.935 126.526 161.069 127.393 160.001 127.393C158.93 127.393 158.064 126.526 158.064 125.456C158.064 124.386 158.931 123.519 160.001 123.519C161.069 123.519 161.935 124.386 161.935 125.456Z" fill="#2A81DD" fill-opacity="0.1"/>
<path d="M154.713 125.809C154.935 126.855 154.267 127.884 153.219 128.105C152.174 128.328 151.145 127.66 150.924 126.614C150.7 125.567 151.369 124.538 152.416 124.317C153.462 124.093 154.489 124.761 154.713 125.809Z" fill="#2A81DD" fill-opacity="0.1"/>
<path d="M147.718 127.654C148.153 128.632 147.715 129.776 146.737 130.211C145.761 130.647 144.614 130.206 144.18 129.23C143.745 128.251 144.186 127.107 145.162 126.673C146.138 126.237 147.283 126.678 147.718 127.654Z" fill="#2A81DD" fill-opacity="0.1"/>
<path d="M141.261 130.915C141.891 131.78 141.7 132.991 140.836 133.621C139.969 134.248 138.758 134.058 138.127 133.191C137.498 132.326 137.692 131.114 138.557 130.485C139.423 129.857 140.633 130.048 141.261 130.915Z" fill="#2A81DD" fill-opacity="0.1"/>
<path d="M135.624 135.445C136.42 136.16 136.484 137.385 135.77 138.179C135.053 138.974 133.829 139.041 133.032 138.325C132.236 137.607 132.172 136.382 132.887 135.587C133.606 134.793 134.829 134.73 135.624 135.445Z" fill="#2A81DD" fill-opacity="0.1"/>
<path d="M131.052 141.05C131.979 141.584 132.295 142.767 131.763 143.694C131.228 144.621 130.042 144.938 129.113 144.403C128.187 143.868 127.871 142.684 128.406 141.758C128.941 140.831 130.125 140.514 131.052 141.05Z" fill="#2A81DD" fill-opacity="0.1"/>
<path d="M127.746 147.482C128.764 147.812 129.32 148.905 128.99 149.921C128.66 150.939 127.565 151.496 126.546 151.165C125.528 150.836 124.972 149.741 125.304 148.724C125.634 147.706 126.727 147.151 127.746 147.482Z" fill="#2A81DD" fill-opacity="0.1"/>
<path d="M125.848 154.462C126.914 154.573 127.683 155.526 127.573 156.588C127.461 157.653 126.506 158.424 125.441 158.315C124.377 158.203 123.606 157.248 123.719 156.185C123.831 155.12 124.782 154.35 125.848 154.462Z" fill="#2A81DD" fill-opacity="0.1"/>
<path d="M125.442 161.682C126.506 161.571 127.459 162.343 127.572 163.402C127.684 164.47 126.913 165.421 125.843 165.536C124.78 165.646 123.827 164.873 123.717 163.809C123.607 162.745 124.379 161.795 125.442 161.682Z" fill="#2A81DD" fill-opacity="0.1"/>
<path d="M126.547 168.83C127.565 168.498 128.656 169.058 128.99 170.07C129.32 171.09 128.762 172.183 127.742 172.517C126.726 172.846 125.632 172.287 125.304 171.272C124.974 170.252 125.531 169.162 126.547 168.83Z" fill="#2A81DD" fill-opacity="0.1"/>
<path d="M129.113 175.593C130.041 175.056 131.226 175.376 131.761 176.297C132.296 177.225 131.979 178.411 131.049 178.95C130.124 179.481 128.939 179.163 128.405 178.236C127.872 177.31 128.19 176.128 129.113 175.593Z" fill="#2A81DD" fill-opacity="0.1"/>
<path d="M133.032 181.675C133.827 180.956 135.053 181.024 135.768 181.813C136.483 182.609 136.419 183.835 135.622 184.556C134.827 185.268 133.603 185.205 132.886 184.408C132.172 183.613 132.239 182.391 133.032 181.675Z" fill="#2A81DD" fill-opacity="0.1"/>
<path d="M138.125 186.807C138.755 185.939 139.969 185.749 140.834 186.372C141.699 187.004 141.891 188.215 141.261 189.086C140.631 189.95 139.42 190.14 138.555 189.513C137.689 188.882 137.501 187.672 138.125 186.807Z" fill="#2A81DD" fill-opacity="0.1"/>
<path d="M144.178 190.77C144.613 189.789 145.762 189.351 146.735 189.781C147.714 190.218 148.152 191.364 147.718 192.346C147.281 193.321 146.136 193.759 145.159 193.324C144.182 192.89 143.747 191.744 144.178 190.77Z" fill="#2A81DD" fill-opacity="0.1"/>
<path d="M150.922 193.387C151.145 192.337 152.174 191.67 153.218 191.889C154.264 192.114 154.931 193.142 154.713 194.192C154.488 195.239 153.46 195.904 152.413 195.684C151.365 195.459 150.702 194.43 150.922 193.387Z" fill="#2A81DD" fill-opacity="0.1"/>
<path d="M162.084 116.304C162.084 117.456 161.153 118.39 160 118.39C158.847 118.39 157.914 117.456 157.914 116.304C157.914 115.149 158.847 114.216 160 114.216C161.153 114.216 162.084 115.149 162.084 116.304Z" fill="#2A81DD" fill-opacity="0.1"/>
<path d="M152.958 116.824C153.197 117.951 152.476 119.06 151.349 119.299C150.223 119.539 149.115 118.818 148.875 117.692C148.636 116.564 149.354 115.455 150.482 115.217C151.61 114.977 152.717 115.695 152.958 116.824Z" fill="#2A81DD" fill-opacity="0.1"/>
<path d="M144.135 119.232C144.603 120.285 144.129 121.519 143.077 121.989C142.024 122.457 140.79 121.981 140.321 120.929C139.852 119.876 140.323 118.642 141.379 118.173C142.431 117.703 143.666 118.179 144.135 119.232Z" fill="#2A81DD" fill-opacity="0.1"/>
<path d="M136.004 123.421C136.682 124.353 136.475 125.659 135.543 126.336C134.611 127.013 133.305 126.807 132.629 125.874C131.95 124.94 132.156 123.636 133.089 122.958C134.021 122.28 135.328 122.488 136.004 123.421Z" fill="#2A81DD" fill-opacity="0.1"/>
<path d="M128.923 129.208C129.782 129.98 129.85 131.301 129.077 132.155C128.307 133.016 126.988 133.082 126.131 132.309C125.274 131.539 125.204 130.22 125.977 129.362C126.747 128.507 128.068 128.437 128.923 129.208Z" fill="#2A81DD" fill-opacity="0.1"/>
<path d="M123.201 136.344C124.2 136.919 124.542 138.196 123.964 139.194C123.391 140.192 122.112 140.534 121.114 139.957C120.116 139.381 119.774 138.107 120.351 137.106C120.925 136.108 122.205 135.766 123.201 136.344Z" fill="#2A81DD" fill-opacity="0.1"/>
<path d="M119.086 144.511C120.183 144.867 120.784 146.046 120.426 147.141C120.071 148.237 118.892 148.838 117.797 148.479C116.7 148.121 116.098 146.947 116.457 145.85C116.813 144.754 117.991 144.155 119.086 144.511Z" fill="#2A81DD" fill-opacity="0.1"/>
<path d="M116.759 153.355C117.906 153.475 118.738 154.504 118.617 155.648C118.5 156.795 117.469 157.627 116.324 157.504C115.178 157.384 114.346 156.36 114.466 155.213C114.586 154.067 115.614 153.235 116.759 153.355Z" fill="#2A81DD" fill-opacity="0.1"/>
<path d="M116.322 162.492C117.469 162.369 118.499 163.203 118.617 164.35C118.74 165.495 117.905 166.521 116.759 166.641C115.613 166.762 114.588 165.932 114.466 164.785C114.344 163.638 115.179 162.61 116.322 162.492Z" fill="#2A81DD" fill-opacity="0.1"/>
<path d="M117.797 171.516C118.893 171.16 120.072 171.761 120.427 172.856C120.787 173.952 120.182 175.129 119.087 175.485C117.99 175.842 116.814 175.244 116.458 174.148C116.099 173.052 116.701 171.873 117.797 171.516Z" fill="#2A81DD" fill-opacity="0.1"/>
<path d="M121.112 180.04C122.112 179.463 123.391 179.807 123.964 180.805C124.543 181.801 124.197 183.078 123.201 183.653C122.201 184.231 120.925 183.889 120.351 182.891C119.771 181.895 120.116 180.614 121.112 180.04Z" fill="#2A81DD" fill-opacity="0.1"/>
<path d="M126.128 187.686C126.986 186.915 128.307 186.983 129.077 187.841C129.852 188.694 129.777 190.018 128.923 190.786C128.065 191.559 126.746 191.49 125.976 190.633C125.204 189.78 125.272 188.457 126.128 187.686Z" fill="#2A81DD" fill-opacity="0.1"/>
<path d="M132.625 194.125C133.303 193.19 134.611 192.981 135.543 193.662C136.478 194.337 136.679 195.645 136.004 196.574C135.324 197.509 134.021 197.716 133.089 197.037C132.156 196.364 131.949 195.053 132.625 194.125Z" fill="#2A81DD" fill-opacity="0.1"/>
<path d="M140.317 199.071C140.786 198.017 142.023 197.541 143.074 198.011C144.129 198.477 144.599 199.713 144.133 200.765C143.662 201.82 142.429 202.293 141.377 201.824C140.323 201.36 139.85 200.12 140.317 199.071Z" fill="#2A81DD" fill-opacity="0.1"/>
<path d="M148.873 202.308C149.111 201.18 150.221 200.458 151.348 200.699C152.476 200.935 153.193 202.047 152.956 203.171C152.715 204.302 151.608 205.019 150.482 204.781C149.353 204.546 148.631 203.435 148.873 202.308Z" fill="#2A81DD" fill-opacity="0.1"/>
<path d="M157.909 203.698C157.909 202.543 158.846 201.606 159.999 201.609C161.154 201.604 162.081 202.543 162.083 203.694C162.081 204.849 161.15 205.781 159.999 205.781C158.848 205.787 157.909 204.848 157.909 203.698Z" fill="#2A81DD" fill-opacity="0.1"/>
<path d="M162.24 106.136C162.24 107.374 161.238 108.377 160.001 108.377C158.763 108.377 157.76 107.374 157.76 106.136C157.76 104.898 158.763 103.896 160.001 103.896C161.237 103.896 162.24 104.899 162.24 106.136Z" fill="#2A81DD" fill-opacity="0.1"/>
<path d="M150.993 106.847C151.251 108.057 150.477 109.247 149.267 109.505C148.056 109.761 146.868 108.988 146.611 107.779C146.352 106.569 147.125 105.379 148.335 105.12C149.545 104.865 150.735 105.638 150.993 106.847Z" fill="#2A81DD" fill-opacity="0.1"/>
<path d="M140.14 109.881C140.644 111.012 140.133 112.337 139.006 112.84C137.873 113.342 136.552 112.832 136.049 111.704C135.543 110.572 136.051 109.248 137.182 108.745C138.312 108.242 139.636 108.751 140.14 109.881Z" fill="#2A81DD" fill-opacity="0.1"/>
<path d="M130.154 115.105C130.882 116.105 130.657 117.508 129.658 118.234C128.656 118.962 127.257 118.739 126.531 117.739C125.8 116.738 126.023 115.337 127.023 114.609C128.026 113.882 129.425 114.105 130.154 115.105Z" fill="#2A81DD" fill-opacity="0.1"/>
<path d="M121.472 122.29C122.392 123.117 122.465 124.536 121.639 125.456C120.809 126.374 119.394 126.449 118.475 125.621C117.554 124.793 117.482 123.376 118.307 122.457C119.134 121.537 120.55 121.466 121.472 122.29Z" fill="#2A81DD" fill-opacity="0.1"/>
<path d="M114.474 131.126C115.547 131.742 115.912 133.116 115.294 134.186C114.674 135.257 113.303 135.624 112.237 135.006C111.161 134.388 110.796 133.018 111.412 131.947C112.031 130.874 113.402 130.509 114.474 131.126Z" fill="#2A81DD" fill-opacity="0.1"/>
<path d="M109.466 141.221C110.643 141.603 111.289 142.869 110.905 144.045C110.519 145.22 109.258 145.865 108.085 145.483C106.904 145.102 106.262 143.836 106.642 142.661C107.025 141.483 108.289 140.842 109.466 141.221Z" fill="#2A81DD" fill-opacity="0.1"/>
<path d="M106.667 152.137C107.897 152.267 108.79 153.371 108.661 154.601C108.529 155.831 107.428 156.723 106.2 156.593C104.967 156.467 104.075 155.362 104.202 154.133C104.333 152.903 105.437 152.012 106.667 152.137Z" fill="#2A81DD" fill-opacity="0.1"/>
<path d="M106.197 163.398C107.429 163.268 108.532 164.162 108.661 165.393C108.789 166.625 107.896 167.726 106.668 167.852C105.436 167.987 104.332 167.089 104.202 165.862C104.074 164.63 104.968 163.529 106.197 163.398Z" fill="#2A81DD" fill-opacity="0.1"/>
<path d="M108.081 174.511C109.258 174.126 110.521 174.773 110.905 175.949C111.286 177.126 110.641 178.39 109.466 178.768C108.289 179.155 107.025 178.507 106.641 177.333C106.26 176.156 106.905 174.894 108.081 174.511Z" fill="#2A81DD" fill-opacity="0.1"/>
<path d="M112.233 184.988C113.302 184.368 114.674 184.737 115.293 185.807C115.91 186.881 115.543 188.249 114.473 188.864C113.403 189.487 112.03 189.116 111.411 188.049C110.796 186.975 111.162 185.609 112.233 184.988Z" fill="#2A81DD" fill-opacity="0.1"/>
<path d="M118.472 194.373C119.391 193.545 120.809 193.621 121.638 194.536C122.464 195.457 122.39 196.873 121.47 197.699C120.553 198.53 119.133 198.452 118.306 197.537C117.479 196.616 117.554 195.203 118.472 194.373Z" fill="#2A81DD" fill-opacity="0.1"/>
<path d="M126.527 202.256C127.253 201.254 128.655 201.035 129.656 201.758C130.656 202.487 130.878 203.887 130.149 204.886C129.426 205.891 128.02 206.108 127.021 205.387C126.021 204.656 125.801 203.257 126.527 202.256Z" fill="#2A81DD" fill-opacity="0.1"/>
<path d="M136.044 208.291C136.548 207.16 137.872 206.655 139.004 207.154C140.132 207.659 140.639 208.983 140.133 210.111C139.636 211.244 138.308 211.749 137.177 211.25C136.05 210.744 135.543 209.422 136.044 208.291Z" fill="#2A81DD" fill-opacity="0.1"/>
<path d="M146.609 212.216C146.866 211.005 148.056 210.235 149.265 210.488C150.473 210.748 151.245 211.937 150.987 213.146C150.734 214.357 149.541 215.128 148.33 214.875C147.124 214.616 146.352 213.427 146.609 212.216Z" fill="#2A81DD" fill-opacity="0.1"/>
<path d="M157.76 213.858C157.76 212.62 158.763 211.621 159.999 211.616C161.236 211.62 162.237 212.623 162.234 213.857C162.237 215.095 161.232 216.097 159.996 216.103C158.761 216.099 157.76 215.097 157.76 213.858Z" fill="#2A81DD" fill-opacity="0.1"/>
<path d="M162.531 91.2174C162.531 92.617 161.399 93.7515 159.999 93.7515C158.599 93.7515 157.467 92.617 157.467 91.2174C157.467 89.8158 158.599 88.6814 159.999 88.6814C161.398 88.6814 162.531 89.8158 162.531 91.2174Z" fill="#2A81DD" fill-opacity="0.1"/>
<path d="M148.177 92.192C148.467 93.5602 147.592 94.9082 146.225 95.1997C144.855 95.4901 143.51 94.6147 143.219 93.2475C142.928 91.8773 143.802 90.5314 145.172 90.2389C146.539 89.9505 147.886 90.8238 148.177 92.192Z" fill="#2A81DD" fill-opacity="0.1"/>
<path d="M134.337 96.1314C134.906 97.4116 134.33 98.9073 133.052 99.477C131.774 100.047 130.277 99.47 129.707 98.1928C129.139 96.9147 129.712 95.4149 130.993 94.8472C132.269 94.2795 133.768 94.8533 134.337 96.1314Z" fill="#2A81DD" fill-opacity="0.1"/>
<path d="M121.619 102.863C122.442 103.997 122.189 105.581 121.058 106.403C119.928 107.226 118.342 106.974 117.518 105.841C116.698 104.709 116.946 103.125 118.08 102.302C119.21 101.48 120.795 101.731 121.619 102.863Z" fill="#2A81DD" fill-opacity="0.1"/>
<path d="M110.579 112.091C111.619 113.028 111.699 114.631 110.767 115.669C109.832 116.71 108.229 116.793 107.188 115.858C106.151 114.922 106.062 113.32 106.999 112.278C107.934 111.238 109.537 111.155 110.579 112.091Z" fill="#2A81DD" fill-opacity="0.1"/>
<path d="M101.698 123.411C102.909 124.11 103.321 125.665 102.623 126.874C101.927 128.087 100.375 128.5 99.1649 127.8C97.9546 127.102 97.5336 125.553 98.237 124.339C98.9352 123.128 100.485 122.714 101.698 123.411Z" fill="#2A81DD" fill-opacity="0.1"/>
<path d="M95.3659 136.333C96.6976 136.765 97.4212 138.197 96.9921 139.527C96.561 140.858 95.1301 141.585 93.8003 141.154C92.4696 140.721 91.7379 139.292 92.172 137.96C92.6041 136.63 94.0331 135.901 95.3659 136.333Z" fill="#2A81DD" fill-opacity="0.1"/>
<path d="M91.8563 150.288C93.2488 150.435 94.2568 151.684 94.1121 153.073C93.9684 154.465 92.7196 155.474 91.3291 155.327C89.9396 155.182 88.9236 153.939 89.0734 152.544C89.2181 151.154 90.4659 150.142 91.8563 150.288Z" fill="#2A81DD" fill-opacity="0.1"/>
<path d="M91.3251 164.667C92.7186 164.521 93.9633 165.535 94.1111 166.923C94.2598 168.313 93.2468 169.561 91.8563 169.707C90.4689 169.853 89.2161 168.846 89.0714 167.451C88.9257 166.062 89.9356 164.815 91.3251 164.667Z" fill="#2A81DD" fill-opacity="0.1"/>
<path d="M93.7964 178.844C95.1302 178.41 96.5601 179.144 96.9922 180.472C97.4243 181.8 96.6936 183.233 95.3659 183.662C94.0372 184.092 92.6022 183.369 92.1711 182.035C91.74 180.708 92.4666 179.275 93.7964 178.844Z" fill="#2A81DD" fill-opacity="0.1"/>
<path d="M99.1609 192.195C100.376 191.495 101.926 191.914 102.624 193.122C103.327 194.333 102.906 195.886 101.7 196.583C100.488 197.28 98.9342 196.871 98.2379 195.657C97.5356 194.446 97.9485 192.896 99.1609 192.195Z" fill="#2A81DD" fill-opacity="0.1"/>
<path d="M107.183 204.141C108.224 203.202 109.829 203.292 110.766 204.329C111.703 205.365 111.615 206.972 110.58 207.903C109.537 208.839 107.933 208.761 106.998 207.719C106.063 206.68 106.146 205.076 107.183 204.141Z" fill="#2A81DD" fill-opacity="0.1"/>
<path d="M117.514 214.156C118.339 213.023 119.928 212.775 121.058 213.594C122.191 214.414 122.438 216.003 121.62 217.129C120.796 218.262 119.208 218.52 118.08 217.696C116.948 216.874 116.694 215.289 117.514 214.156Z" fill="#2A81DD" fill-opacity="0.1"/>
<path d="M129.702 221.803C130.274 220.526 131.775 219.954 133.051 220.52C134.33 221.086 134.903 222.589 134.338 223.861C133.764 225.142 132.267 225.723 130.991 225.148C129.712 224.581 129.137 223.085 129.702 221.803Z" fill="#2A81DD" fill-opacity="0.1"/>
<path d="M143.214 226.753C143.508 225.383 144.858 224.512 146.226 224.799C147.592 225.086 148.466 226.439 148.178 227.8C147.882 229.172 146.539 230.053 145.173 229.759C143.803 229.466 142.927 228.12 143.214 226.753Z" fill="#2A81DD" fill-opacity="0.1"/>
<path d="M157.459 228.784C157.463 227.383 158.601 226.249 159.999 226.245C161.394 226.244 162.529 227.383 162.529 228.773C162.528 230.18 161.399 231.32 159.999 231.316C158.598 231.316 157.463 230.182 157.459 228.784Z" fill="#2A81DD" fill-opacity="0.1"/>
<path d="M163.443 79.5068C163.443 81.4083 161.901 82.9496 159.999 82.9496C158.097 82.9496 156.557 81.4083 156.557 79.5068C156.557 77.6032 158.097 76.063 159.999 76.063C161.901 76.062 163.443 77.6032 163.443 79.5068Z" fill="#2A81DD" fill-opacity="0.1"/>
<path d="M146.633 80.5521C147.028 82.4102 145.839 84.2388 143.979 84.6335C142.122 85.0312 140.291 83.8421 139.895 81.9831C139.5 80.119 140.686 78.2934 142.548 77.8977C144.405 77.501 146.234 78.6881 146.633 80.5521Z" fill="#2A81DD" fill-opacity="0.1"/>
<path d="M130.406 85.0665C131.18 86.8031 130.395 88.8392 128.657 89.6114C126.924 90.3876 124.887 89.6043 124.112 87.8677C123.339 86.1271 124.121 84.092 125.858 83.3188C127.595 82.5457 129.628 83.3269 130.406 85.0665Z" fill="#2A81DD" fill-opacity="0.1"/>
<path d="M115.474 92.8581C116.591 94.3943 116.248 96.5498 114.708 97.666C113.172 98.7832 111.018 98.4422 109.897 96.906C108.78 95.3648 109.122 93.2122 110.66 92.092C112.198 90.9768 114.35 91.3188 115.474 92.8581Z" fill="#2A81DD" fill-opacity="0.1"/>
<path d="M102.487 103.583C103.9 104.854 104.011 107.034 102.736 108.445C101.469 109.858 99.2884 109.974 97.8756 108.703C96.4619 107.427 96.3476 105.25 97.6186 103.836C98.8917 102.423 101.065 102.31 102.487 103.583Z" fill="#2A81DD" fill-opacity="0.1"/>
<path d="M92.0132 116.772C93.6597 117.722 94.2203 119.832 93.266 121.477C92.3218 123.123 90.2118 123.688 88.5664 122.739C86.9168 121.786 86.3542 119.68 87.3034 118.031C88.2537 116.386 90.3576 115.825 92.0132 116.772Z" fill="#2A81DD" fill-opacity="0.1"/>
<path d="M84.5103 131.853C86.3188 132.44 87.3075 134.387 86.7165 136.193C86.1326 137.999 84.1885 138.992 82.3821 138.404C80.5696 137.814 79.5809 135.871 80.1679 134.063C80.7528 132.255 82.6959 131.269 84.5103 131.853Z" fill="#2A81DD" fill-opacity="0.1"/>
<path d="M80.3075 148.163C82.1979 148.36 83.5681 150.059 83.3677 151.952C83.1704 153.837 81.4774 155.212 79.587 155.013C77.6905 154.812 76.3203 153.119 76.5176 151.226C76.715 149.338 78.41 147.97 80.3075 148.163Z" fill="#2A81DD" fill-opacity="0.1"/>
<path d="M79.587 164.989C81.4774 164.79 83.1704 166.167 83.3678 168.059C83.5671 169.944 82.1979 171.642 80.3075 171.839C78.4101 172.039 76.718 170.666 76.5176 168.776C76.3173 166.887 77.6906 165.196 79.587 164.989Z" fill="#2A81DD" fill-opacity="0.1"/>
<path d="M82.3791 181.601C84.1875 181.011 86.1316 182.007 86.7175 183.816C87.3024 185.619 86.3188 187.564 84.5073 188.151C82.6948 188.74 80.7538 187.748 80.1648 185.941C79.5789 184.134 80.5686 182.196 82.3791 181.601Z" fill="#2A81DD" fill-opacity="0.1"/>
<path d="M88.5664 197.265C90.2119 196.313 92.3219 196.885 93.2701 198.531C94.2163 200.175 93.6597 202.283 92.0112 203.232C90.3576 204.185 88.2557 203.62 87.3024 201.972C86.3521 200.328 86.9179 198.226 88.5664 197.265Z" fill="#2A81DD" fill-opacity="0.1"/>
<path d="M97.8756 211.302C99.2853 210.031 101.469 210.151 102.74 211.564C104.008 212.974 103.9 215.15 102.485 216.422C101.066 217.701 98.8916 217.583 97.6165 216.169C96.3455 214.759 96.4649 212.585 97.8756 211.302Z" fill="#2A81DD" fill-opacity="0.1"/>
<path d="M109.897 223.098C111.013 221.559 113.172 221.223 114.711 222.344C116.244 223.458 116.591 225.61 115.473 227.148C114.351 228.691 112.199 229.029 110.657 227.912C109.12 226.798 108.784 224.646 109.897 223.098Z" fill="#2A81DD" fill-opacity="0.1"/>
<path d="M124.112 232.135C124.883 230.397 126.924 229.623 128.662 230.396C130.394 231.168 131.179 233.2 130.404 234.938C129.628 236.682 127.596 237.459 125.855 236.687C124.121 235.916 123.345 233.884 124.112 232.135Z" fill="#2A81DD" fill-opacity="0.1"/>
<path d="M139.894 238.019C140.285 236.161 142.122 234.977 143.983 235.372C145.838 235.768 147.027 237.593 146.632 239.455C146.233 241.321 144.405 242.504 142.543 242.11C140.689 241.718 139.507 239.889 139.894 238.019Z" fill="#2A81DD" fill-opacity="0.1"/>
<path d="M156.554 240.496C156.549 238.596 158.101 237.056 160.002 237.057C161.9 237.057 163.442 238.596 163.444 240.498C163.442 242.405 161.9 243.943 159.997 243.947C158.099 243.947 156.564 242.405 156.554 240.496Z" fill="#2A81DD" fill-opacity="0.1"/>
<path d="M163.443 67.2727C163.443 69.1732 161.901 70.7165 159.999 70.7165C158.097 70.7165 156.557 69.1732 156.557 67.2727C156.557 65.3691 158.097 63.8279 159.999 63.8279C161.901 63.8279 163.443 65.3691 163.443 67.2727Z" fill="#2A81DD" fill-opacity="0.1"/>
<path d="M148.894 67.8748C149.192 69.7521 147.909 71.519 146.033 71.8165C144.155 72.113 142.389 70.8308 142.093 68.9526C141.796 67.0733 143.078 65.3094 144.957 65.0129C146.834 64.7144 148.596 65.9946 148.894 67.8748Z" fill="#2A81DD" fill-opacity="0.1"/>
<path d="M134.62 70.7448C135.209 72.5543 134.219 74.4983 132.411 75.0852C130.605 75.6722 128.657 74.6835 128.071 72.8751C127.483 71.0646 128.475 69.1216 130.282 68.5326C132.092 67.9477 134.031 68.9354 134.62 70.7448Z" fill="#2A81DD" fill-opacity="0.1"/>
<path d="M120.971 75.8138C121.835 77.5078 121.161 79.5834 119.468 80.4456C117.773 81.3088 115.7 80.6359 114.837 78.9408C113.972 77.2447 114.647 75.1722 116.342 74.3069C118.035 73.4457 120.106 74.1187 120.971 75.8138Z" fill="#2A81DD" fill-opacity="0.1"/>
<path d="M108.283 82.9554C109.402 84.4936 109.061 86.6481 107.523 87.7644C105.986 88.8826 103.831 88.5416 102.714 87.0044C101.594 85.4621 101.937 83.3116 103.475 82.1924C105.013 81.0771 107.164 81.4172 108.283 82.9554Z" fill="#2A81DD" fill-opacity="0.1"/>
<path d="M96.8687 91.9947C98.2156 93.3376 98.2157 95.5184 96.8718 96.8644C95.5258 98.2093 93.345 98.2093 92 96.8654C90.6541 95.5184 90.6561 93.3386 92 91.9937C93.344 90.6497 95.5237 90.6497 96.8687 91.9947Z" fill="#2A81DD" fill-opacity="0.1"/>
<path d="M87.0089 102.706C88.5492 103.824 88.8902 105.976 87.774 107.516C86.6557 109.056 84.5012 109.398 82.963 108.279C81.4228 107.159 81.0837 105.007 82.2 103.466C83.3192 101.93 85.4707 101.589 87.0089 102.706Z" fill="#2A81DD" fill-opacity="0.1"/>
<path d="M78.9464 114.827C80.6405 115.691 81.3155 117.764 80.4533 119.46C79.5911 121.155 77.5134 121.83 75.8204 120.968C74.1233 120.103 73.4534 118.029 74.3156 116.333C75.1788 114.64 77.2523 113.967 78.9464 114.827Z" fill="#2A81DD" fill-opacity="0.1"/>
<path d="M72.8785 128.065C74.6869 128.651 75.6777 130.594 75.0927 132.402C74.5078 134.211 72.5587 135.203 70.7544 134.616C68.9419 134.028 67.9532 132.083 68.5401 130.274C69.1291 128.468 71.0721 127.478 72.8785 128.065Z" fill="#2A81DD" fill-opacity="0.1"/>
<path d="M68.9591 142.086C70.8343 142.383 72.1195 144.147 71.821 146.026C71.5255 147.903 69.7575 149.188 67.8833 148.89C66.002 148.592 64.7199 146.828 65.0154 144.949C65.3149 143.07 67.0808 141.789 68.9591 142.086Z" fill="#2A81DD" fill-opacity="0.1"/>
<path d="M67.2792 156.55C69.1767 156.549 70.721 158.09 70.721 159.99C70.7261 161.892 69.1767 163.437 67.2802 163.436C65.3746 163.436 63.8364 161.895 63.8304 159.991C63.8354 158.09 65.3777 156.55 67.2792 156.55Z" fill="#2A81DD" fill-opacity="0.1"/>
<path d="M67.8813 171.096C69.7575 170.798 71.5225 172.079 71.82 173.957C72.1216 175.833 70.8343 177.602 68.9611 177.898C67.0778 178.195 65.3159 176.914 65.0143 175.036C64.7198 173.157 66.0041 171.394 67.8813 171.096Z" fill="#2A81DD" fill-opacity="0.1"/>
<path d="M70.7533 185.371C72.5577 184.783 74.5028 185.77 75.0877 187.578C75.6807 189.384 74.6869 191.331 72.8835 191.919C71.0691 192.506 69.1301 191.516 68.535 189.708C67.9531 187.897 68.9449 185.956 70.7533 185.371Z" fill="#2A81DD" fill-opacity="0.1"/>
<path d="M75.8234 199.017C77.5134 198.154 79.587 198.826 80.4502 200.519C81.3175 202.211 80.6404 204.291 78.9504 205.151C77.2503 206.016 75.1828 205.344 74.3115 203.651C73.4533 201.953 74.1294 199.88 75.8234 199.017Z" fill="#2A81DD" fill-opacity="0.1"/>
<path d="M82.964 211.706C84.4992 210.588 86.6527 210.928 87.7699 212.467C88.8902 214.003 88.5461 216.162 87.013 217.277C85.4697 218.396 83.3212 218.054 82.1959 216.518C81.0827 214.976 81.4268 212.824 82.964 211.706Z" fill="#2A81DD" fill-opacity="0.1"/>
<path d="M92.001 223.119C93.3429 221.775 95.5218 221.775 96.8677 223.118C98.2157 224.459 98.2136 226.647 96.8738 227.988C95.5228 229.336 93.348 229.332 91.996 227.992C90.6551 226.645 90.6571 224.463 92.001 223.119Z" fill="#2A81DD" fill-opacity="0.1"/>
<path d="M102.714 232.978C103.829 231.441 105.98 231.101 107.519 232.215C109.06 233.332 109.4 235.492 108.288 237.024C107.164 238.568 105.015 238.904 103.469 237.794C101.938 236.671 101.598 234.517 102.714 232.978Z" fill="#2A81DD" fill-opacity="0.1"/>
<path d="M114.837 241.042C115.701 239.349 117.769 238.674 119.465 239.537C121.161 240.398 121.835 242.476 120.975 244.165C120.106 245.866 118.036 246.535 116.338 245.678C114.647 244.81 113.974 242.735 114.837 241.042Z" fill="#2A81DD" fill-opacity="0.1"/>
<path d="M128.071 247.109C128.657 245.303 130.599 244.311 132.408 244.899C134.218 245.484 135.209 247.431 134.624 249.233C134.03 251.047 132.092 252.032 130.281 251.453C128.475 250.861 127.486 248.917 128.071 247.109Z" fill="#2A81DD" fill-opacity="0.1"/>
<path d="M142.092 251.03C142.389 249.155 144.15 247.873 146.028 248.169C147.909 248.463 149.193 250.233 148.896 252.106C148.593 253.99 146.835 255.265 144.953 254.976C143.077 254.674 141.798 252.907 142.092 251.03Z" fill="#2A81DD" fill-opacity="0.1"/>
<path d="M156.556 252.711C156.556 250.811 158.095 249.271 159.995 249.269C161.9 249.266 163.442 250.811 163.442 252.707C163.437 254.618 161.901 256.149 159.998 256.16C158.097 256.153 156.556 254.61 156.556 252.711Z" fill="#2A81DD" fill-opacity="0.1"/>
<path d="M163.421 55.8687C163.421 57.7541 161.892 59.2852 160.005 59.2852C158.118 59.2852 156.589 57.7541 156.589 55.8687C156.589 53.9804 158.118 52.4492 160.005 52.4492C161.892 52.4492 163.421 53.9804 163.421 55.8687Z" fill="#2A81DD" fill-opacity="0.1"/>
<path d="M152.515 56.0804C152.712 57.9556 151.353 59.6385 149.476 59.8338C147.6 60.0312 145.919 58.67 145.721 56.7938C145.524 54.9166 146.887 53.2347 148.761 53.0404C150.638 52.841 152.32 54.2041 152.515 56.0804Z" fill="#2A81DD" fill-opacity="0.1"/>
<path d="M141.691 57.4321C142.088 59.2759 140.908 61.0904 139.065 61.4831C137.219 61.8737 135.404 60.6957 135.011 58.8509C134.621 57.004 135.798 55.1895 137.645 54.7989C139.488 54.4062 141.302 55.5842 141.691 57.4321Z" fill="#2A81DD" fill-opacity="0.1"/>
<path d="M131.074 59.9076C131.655 61.6998 130.676 63.6287 128.881 64.2126C127.089 64.7935 125.158 63.8118 124.574 62.0186C123.994 60.2243 124.976 58.2945 126.768 57.7146C128.561 57.1287 130.49 58.1113 131.074 59.9076Z" fill="#2A81DD" fill-opacity="0.1"/>
<path d="M120.768 63.4809C121.535 65.2003 120.762 67.2202 119.036 67.9893C117.316 68.7564 115.295 67.9812 114.524 66.2568C113.76 64.5324 114.534 62.5135 116.257 61.7474C117.981 60.9803 120.003 61.7555 120.768 63.4809Z" fill="#2A81DD" fill-opacity="0.1"/>
<path d="M110.892 68.1098C111.836 69.7421 111.28 71.8298 109.642 72.774C108.014 73.7152 105.922 73.1555 104.974 71.5222C104.037 69.8888 104.597 67.7991 106.226 66.8589C107.861 65.9137 109.951 66.4744 110.892 68.1098Z" fill="#2A81DD" fill-opacity="0.1"/>
<path d="M101.557 73.7464C102.666 75.2705 102.331 77.4047 100.801 78.5149C99.2793 79.623 97.141 79.284 96.0258 77.7579C94.9217 76.2288 95.2627 74.0966 96.7867 72.9894C98.3108 71.8803 100.449 72.2193 101.557 73.7464Z" fill="#2A81DD" fill-opacity="0.1"/>
<path d="M92.8602 80.3275C94.1222 81.7281 94.0139 83.8846 92.6083 85.1506C91.2087 86.4106 89.047 86.2962 87.779 84.8966C86.5221 83.491 86.6355 81.3314 88.0381 80.0725C89.4357 78.8116 91.5993 78.9239 92.8602 80.3275Z" fill="#2A81DD" fill-opacity="0.1"/>
<path d="M84.9 87.7818C86.3016 89.0407 86.4179 91.1993 85.153 92.604C83.8941 94.0025 81.7314 94.1169 80.3248 92.8559C78.9272 91.593 78.8169 89.4314 80.0758 88.0328C81.3357 86.6312 83.4984 86.5148 84.9 87.7818Z" fill="#2A81DD" fill-opacity="0.1"/>
<path d="M77.7624 96.0286C79.2874 97.1316 79.6285 99.2669 78.5163 100.796C77.4102 102.32 75.2699 102.658 73.7418 101.553C72.2197 100.441 71.8827 98.3035 72.9909 96.7805C74.098 95.2544 76.2373 94.9154 77.7624 96.0286Z" fill="#2A81DD" fill-opacity="0.1"/>
<path d="M71.5255 104.972C73.1568 105.915 73.7205 108.001 72.7753 109.639C71.8341 111.268 69.7413 111.828 68.105 110.887C66.4747 109.94 65.915 107.851 66.8602 106.223C67.8024 104.589 69.8921 104.027 71.5255 104.972Z" fill="#2A81DD" fill-opacity="0.1"/>
<path d="M66.2571 114.521C67.9805 115.285 68.7578 117.303 67.9886 119.031C67.2236 120.749 65.1996 121.525 63.4762 120.762C61.7568 119.989 60.9796 117.973 61.7497 116.25C62.5137 114.53 64.5337 113.751 66.2571 114.521Z" fill="#2A81DD" fill-opacity="0.1"/>
<path d="M62.0168 124.568C63.8091 125.15 64.7927 127.076 64.2108 128.872C63.6279 130.664 61.6971 131.645 59.9008 131.068C58.1116 130.48 57.1269 128.554 57.7129 126.76C58.2968 124.969 60.2226 123.983 62.0168 124.568Z" fill="#2A81DD" fill-opacity="0.1"/>
<path d="M58.8503 135.006C60.6921 135.396 61.8731 137.209 61.4795 139.058C61.0868 140.896 59.2713 142.077 57.4255 141.689C55.5826 141.292 54.4026 139.479 54.7983 137.634C55.1879 135.79 57.0044 134.609 58.8503 135.006Z" fill="#2A81DD" fill-opacity="0.1"/>
<path d="M56.7899 145.715C58.6641 145.909 60.0283 147.59 59.8309 149.469C59.6356 151.34 57.9517 152.702 56.0694 152.509C54.1972 152.308 52.8341 150.628 53.0375 148.753C53.2318 146.879 54.9177 145.516 56.7899 145.715Z" fill="#2A81DD" fill-opacity="0.1"/>
<path d="M55.864 156.582C57.7473 156.581 59.2754 158.108 59.2794 159.999C59.2794 161.879 57.7473 163.411 55.8579 163.414C53.9736 163.409 52.4404 161.881 52.4465 159.995C52.4435 158.112 53.9787 156.578 55.864 156.582Z" fill="#2A81DD" fill-opacity="0.1"/>
<path d="M56.0745 167.486C57.9497 167.287 59.6316 168.645 59.831 170.526C60.0283 172.396 58.6631 174.079 56.7869 174.281C54.9097 174.472 53.2278 173.114 53.0355 171.236C52.8341 169.364 54.1983 167.68 56.0745 167.486Z" fill="#2A81DD" fill-opacity="0.1"/>
<path d="M57.4295 178.308C59.2693 177.912 61.0838 179.088 61.4775 180.938C61.8701 182.777 60.6911 184.596 58.8422 184.993C57.0004 185.379 55.1839 184.204 54.7943 182.357C54.4016 180.514 55.5796 178.695 57.4295 178.308Z" fill="#2A81DD" fill-opacity="0.1"/>
<path d="M59.9048 188.93C61.693 188.345 63.6219 189.324 64.2038 191.122C64.7897 192.911 63.804 194.842 62.0098 195.429C60.2155 196.004 58.2867 195.028 57.7058 193.23C57.1239 191.44 58.1075 189.509 59.9048 188.93Z" fill="#2A81DD" fill-opacity="0.1"/>
<path d="M63.4772 199.233C65.1935 198.466 67.2154 199.236 67.9845 200.963C68.7526 202.681 67.9744 204.704 66.25 205.476C64.5266 206.238 62.5057 205.468 61.7396 203.739C60.9735 202.019 61.7497 199.996 63.4772 199.233Z" fill="#2A81DD" fill-opacity="0.1"/>
<path d="M68.108 209.107C69.7322 208.165 71.8251 208.72 72.7713 210.357C73.7104 211.983 73.1507 214.079 71.5184 215.025C69.884 215.964 67.7903 215.408 66.8522 213.77C65.909 212.14 66.4686 210.047 68.108 209.107Z" fill="#2A81DD" fill-opacity="0.1"/>
<path d="M73.7438 218.443C75.2618 217.334 77.4011 217.668 78.5113 219.2C79.6184 220.718 79.2783 222.861 77.7543 223.975C76.2242 225.077 74.0899 224.745 72.9808 223.213C71.8747 221.689 72.2127 219.549 73.7438 218.443Z" fill="#2A81DD" fill-opacity="0.1"/>
<path d="M80.3237 227.138C81.7192 225.877 83.8778 225.988 85.1469 227.393C86.4078 228.788 86.2914 230.954 84.8918 232.221C83.4862 233.477 81.3266 233.37 80.0646 231.962C78.8057 230.565 78.918 228.399 80.3237 227.138Z" fill="#2A81DD" fill-opacity="0.1"/>
<path d="M87.778 235.098C89.0339 233.7 91.1945 233.583 92.6001 234.849C93.9977 236.104 94.112 238.27 92.8531 239.676C91.5861 241.072 89.4275 241.191 88.0239 239.923C86.6253 238.665 86.511 236.499 87.778 235.098Z" fill="#2A81DD" fill-opacity="0.1"/>
<path d="M96.0226 242.237C97.1267 240.713 99.2631 240.37 100.793 241.482C102.315 242.585 102.655 244.727 101.548 246.257C100.435 247.778 98.3027 248.122 96.7726 247.006C95.2485 245.904 94.9084 243.762 96.0226 242.237Z" fill="#2A81DD" fill-opacity="0.1"/>
<path d="M104.97 248.472C105.907 246.844 107.996 246.28 109.635 247.223C111.261 248.162 111.824 250.257 110.883 251.893C109.933 253.521 107.849 254.09 106.212 253.139C104.584 252.198 104.02 250.107 104.97 248.472Z" fill="#2A81DD" fill-opacity="0.1"/>
<path d="M114.52 253.74C115.281 252.021 117.297 251.244 119.026 252.011C120.745 252.774 121.523 254.798 120.756 256.525C119.983 258.243 117.969 259.025 116.243 258.252C114.524 257.487 113.746 255.464 114.52 253.74Z" fill="#2A81DD" fill-opacity="0.1"/>
<path d="M124.565 257.98C125.144 256.191 127.069 255.205 128.868 255.787C130.657 256.367 131.641 258.3 131.062 260.099C130.474 261.889 128.548 262.876 126.752 262.287C124.965 261.705 123.979 259.776 124.565 257.98Z" fill="#2A81DD" fill-opacity="0.1"/>
<path d="M135.002 261.146C135.391 259.309 137.205 258.128 139.049 258.517C140.891 258.907 142.071 260.726 141.683 262.573C141.287 264.414 139.475 265.599 137.625 265.202C135.786 264.811 134.606 262.994 135.002 261.146Z" fill="#2A81DD" fill-opacity="0.1"/>
<path d="M145.71 263.204C145.906 261.334 147.585 259.973 149.462 260.168C151.333 260.361 152.699 262.047 152.503 263.925C152.304 265.8 150.627 267.166 148.746 266.963C146.874 266.766 145.511 265.082 145.71 263.204Z" fill="#2A81DD" fill-opacity="0.1"/>
<path d="M156.579 264.133C156.575 262.252 158.101 260.722 159.991 260.717C161.872 260.717 163.407 262.251 163.407 264.139C163.406 266.026 161.88 267.56 159.988 267.556C158.107 267.554 156.575 266.02 156.579 264.133Z" fill="#2A81DD" fill-opacity="0.1"/>
<path d="M163.422 43.7308C163.422 45.6151 161.893 47.1452 160.007 47.1452C158.121 47.1452 156.591 45.6151 156.591 43.7308C156.591 41.8414 158.121 40.3113 160.007 40.3113C161.893 40.3113 163.422 41.8414 163.422 43.7308Z" fill="#2A81DD" fill-opacity="0.1"/>
<path d="M151.248 44.0102C151.446 45.8864 150.087 47.5684 148.208 47.7657C146.335 47.961 144.654 46.5999 144.454 44.7237C144.26 42.8454 145.62 41.1635 147.495 40.9672C149.372 40.7688 151.053 42.132 151.248 44.0102Z" fill="#2A81DD" fill-opacity="0.1"/>
<path d="M139.173 45.5594C139.565 47.4052 138.39 49.2177 136.541 49.6114C134.699 50.003 132.885 48.825 132.491 46.9772C132.099 45.1333 133.278 43.3188 135.122 42.9262C136.966 42.5345 138.782 43.7135 139.173 45.5594Z" fill="#2A81DD" fill-opacity="0.1"/>
<path d="M127.325 48.3617C127.909 50.157 126.928 52.0848 125.13 52.6687C123.339 53.2496 121.41 52.268 120.826 50.4727C120.243 48.6774 121.227 46.7506 123.019 46.1677C124.813 45.5868 126.744 46.5675 127.325 48.3617Z" fill="#2A81DD" fill-opacity="0.1"/>
<path d="M115.834 52.3905C116.604 54.1139 115.827 56.1339 114.104 56.8999C112.381 57.667 110.363 56.8918 109.592 55.1674C108.823 53.444 109.601 51.4261 111.324 50.659C113.045 49.8899 115.07 50.6651 115.834 52.3905Z" fill="#2A81DD" fill-opacity="0.1"/>
<path d="M104.829 57.5962C105.772 59.2285 105.214 61.3183 103.578 62.2625C101.945 63.2046 99.8541 62.644 98.9109 61.0096C97.9647 59.3773 98.5284 57.2876 100.161 56.3444C101.794 55.4012 103.886 55.9618 104.829 57.5962Z" fill="#2A81DD" fill-opacity="0.1"/>
<path d="M94.4257 63.9249C95.5359 65.451 95.1979 67.5863 93.6729 68.6964C92.1448 69.8036 90.0074 69.4656 88.8983 67.9395C87.7871 66.4114 88.1281 64.2761 89.6532 63.1659C91.1783 62.0588 93.3186 62.3958 94.4257 63.9249Z" fill="#2A81DD" fill-opacity="0.1"/>
<path d="M84.743 71.3045C86.003 72.7051 85.8917 74.8657 84.4921 76.1307C83.0864 77.3896 80.9269 77.2793 79.6659 75.8756C78.3989 74.472 78.5133 72.3124 79.9159 71.0505C81.3165 69.7895 83.4801 69.9009 84.743 71.3045Z" fill="#2A81DD" fill-opacity="0.1"/>
<path d="M75.8831 79.6561C77.2847 80.9181 77.4021 83.0777 76.1381 84.4823C74.8732 85.8839 72.7126 85.9972 71.313 84.7323C69.9053 83.4713 69.795 81.3087 71.0579 79.9071C72.3189 78.5085 74.4805 78.3932 75.8831 79.6561Z" fill="#2A81DD" fill-opacity="0.1"/>
<path d="M67.9471 88.8907C69.4712 89.9978 69.8112 92.1331 68.7021 93.6622C67.593 95.1863 65.4546 95.5273 63.9306 94.4152C62.4004 93.306 62.0634 91.1697 63.1695 89.6436C64.2817 88.1196 66.419 87.7785 67.9471 88.8907Z" fill="#2A81DD" fill-opacity="0.1"/>
<path d="M61.018 98.9022C62.6473 99.8464 63.21 101.932 62.2699 103.567C61.3237 105.201 59.2339 105.762 57.6015 104.817C55.9631 103.874 55.4035 101.783 56.3487 100.151C57.2929 98.5186 59.3827 97.955 61.018 98.9022Z" fill="#2A81DD" fill-opacity="0.1"/>
<path d="M55.1758 109.582C56.8942 110.35 57.6714 112.367 56.9083 114.093C56.1352 115.817 54.1152 116.594 52.3938 115.823C50.6644 115.056 49.8902 113.036 50.6604 111.312C51.4274 109.592 53.4494 108.813 55.1758 109.582Z" fill="#2A81DD" fill-opacity="0.1"/>
<path d="M50.4771 120.818C52.2673 121.4 53.252 123.325 52.6742 125.119C52.0842 126.915 50.1604 127.898 48.3661 127.313C46.5648 126.732 45.5872 124.803 46.1681 123.008C46.753 121.218 48.6819 120.23 50.4771 120.818Z" fill="#2A81DD" fill-opacity="0.1"/>
<path d="M46.9797 132.479C48.8236 132.872 50.0015 134.682 49.616 136.529C49.2172 138.377 47.4058 139.555 45.561 139.16C43.71 138.769 42.5331 136.955 42.9267 135.107C43.3174 133.266 45.1349 132.086 46.9797 132.479Z" fill="#2A81DD" fill-opacity="0.1"/>
<path d="M44.724 144.444C46.5972 144.643 47.9604 146.32 47.7651 148.196C47.5647 150.076 45.8858 151.437 44.0096 151.237C42.1293 151.044 40.7662 149.361 40.9676 147.484C41.1619 145.61 42.8468 144.243 44.724 144.444Z" fill="#2A81DD" fill-opacity="0.1"/>
<path d="M43.7302 156.579C45.6105 156.581 47.1437 158.103 47.1457 159.993C47.1417 161.882 45.6135 163.411 43.7282 163.408C41.8368 163.412 40.3087 161.882 40.3097 159.995C40.3097 158.111 41.8409 156.577 43.7302 156.579Z" fill="#2A81DD" fill-opacity="0.1"/>
<path d="M44.0095 168.751C45.8817 168.558 47.5646 169.911 47.763 171.789C47.9583 173.67 46.5982 175.348 44.721 175.542C42.8417 175.745 41.1608 174.384 40.9655 172.504C40.7671 170.632 42.1293 168.947 44.0095 168.751Z" fill="#2A81DD" fill-opacity="0.1"/>
<path d="M45.5579 180.828C47.4007 180.438 49.2152 181.61 49.6109 183.457C50.0005 185.307 48.8246 187.117 46.9767 187.508C45.1298 187.907 43.3164 186.729 42.9227 184.878C42.5321 183.037 43.71 181.217 45.5579 180.828Z" fill="#2A81DD" fill-opacity="0.1"/>
<path d="M48.3611 192.675C50.1533 192.099 52.0811 193.073 52.6681 194.867C53.2449 196.667 52.2653 198.594 50.4711 199.171C48.6738 199.759 46.7479 198.779 46.163 196.978C45.5842 195.191 46.5648 193.257 48.3611 192.675Z" fill="#2A81DD" fill-opacity="0.1"/>
<path d="M52.3888 204.166C54.1112 203.403 56.1301 204.17 56.8972 205.896C57.6633 207.625 56.8891 209.641 55.1647 210.403C53.4362 211.179 51.4224 210.402 50.6523 208.675C49.8872 206.957 50.6623 204.931 52.3888 204.166Z" fill="#2A81DD" fill-opacity="0.1"/>
<path d="M57.5965 215.172C59.2258 214.233 61.3156 214.786 62.2577 216.421C63.2009 218.059 62.6413 220.148 61.0059 221.087C59.3705 222.037 57.2828 221.476 56.3386 219.839C55.4015 218.21 55.9591 216.115 57.5965 215.172Z" fill="#2A81DD" fill-opacity="0.1"/>
<path d="M63.9245 225.575C65.4475 224.471 67.5798 224.799 68.6899 226.329C69.8011 227.861 69.461 229.994 67.9349 231.101C66.4048 232.216 64.2716 231.876 63.1594 230.348C62.0593 228.824 62.3923 226.682 63.9245 225.575Z" fill="#2A81DD" fill-opacity="0.1"/>
<path d="M71.3028 235.257C72.7044 234 74.863 234.107 76.1219 235.508C77.3859 236.918 77.2746 239.073 75.8689 240.334C74.4673 241.602 72.3088 241.49 71.0438 240.084C69.7869 238.685 69.8972 236.518 71.3028 235.257Z" fill="#2A81DD" fill-opacity="0.1"/>
<path d="M79.6538 244.119C80.9167 242.721 83.0753 242.599 84.4729 243.864C85.8816 245.133 85.9909 247.289 84.7279 248.689C83.465 250.098 81.3064 250.209 79.9027 248.944C78.5052 247.684 78.3898 245.518 79.6538 244.119Z" fill="#2A81DD" fill-opacity="0.1"/>
<path d="M88.8861 252.055C89.9952 250.534 92.1296 250.188 93.6516 251.299C95.1858 252.413 95.5217 254.547 94.4126 256.072C93.3004 257.603 91.1662 257.941 89.6381 256.828C88.116 255.722 87.7749 253.578 88.8861 252.055Z" fill="#2A81DD" fill-opacity="0.1"/>
<path d="M98.8998 258.984C99.8439 257.355 101.929 256.788 103.56 257.733C105.197 258.68 105.754 260.769 104.813 262.401C103.87 264.04 101.78 264.599 100.147 263.65C98.5172 262.712 97.9546 260.616 98.8998 258.984Z" fill="#2A81DD" fill-opacity="0.1"/>
<path d="M109.58 264.829C110.345 263.111 112.363 262.328 114.085 263.099C115.813 263.868 116.584 265.888 115.818 267.608C115.049 269.338 113.033 270.112 111.308 269.339C109.59 268.576 108.811 266.549 109.58 264.829Z" fill="#2A81DD" fill-opacity="0.1"/>
<path d="M120.815 269.524C121.394 267.735 123.322 266.747 125.112 267.332C126.913 267.917 127.889 269.844 127.31 271.634C126.723 273.436 124.8 274.417 123.003 273.828C121.216 273.25 120.228 271.318 120.815 269.524Z" fill="#2A81DD" fill-opacity="0.1"/>
<path d="M132.477 273.02C132.866 271.181 134.679 269.997 136.525 270.392C138.374 270.785 139.547 272.6 139.158 274.44C138.764 276.292 136.954 277.47 135.105 277.073C133.267 276.684 132.082 274.866 132.477 273.02Z" fill="#2A81DD" fill-opacity="0.1"/>
<path d="M144.443 275.279C144.635 273.408 146.315 272.041 148.193 272.241C150.072 272.442 151.432 274.12 151.235 275.992C151.035 277.875 149.358 279.235 147.479 279.034C145.607 278.839 144.239 277.154 144.443 275.279Z" fill="#2A81DD" fill-opacity="0.1"/>
<path d="M156.577 276.273C156.575 274.392 158.101 272.857 159.988 272.859C161.881 272.861 163.407 274.389 163.407 276.273C163.407 278.164 161.881 279.694 159.991 279.691C158.109 279.692 156.573 278.161 156.577 276.273Z" fill="#2A81DD" fill-opacity="0.1"/>
<path d="M157.148 35.8452C157.253 37.854 155.709 39.5703 153.697 39.6766C151.687 39.7818 149.969 38.2355 149.864 36.2277C149.758 34.2129 151.305 32.4955 153.315 32.3913C155.326 32.2861 157.042 33.8314 157.148 35.8452Z" fill="#2A81DD" fill-opacity="0.1"/>
<path d="M144.184 36.8229C144.501 38.8135 143.146 40.6816 141.154 40.9964C139.168 41.3111 137.298 39.953 136.981 37.9634C136.669 35.9729 138.025 34.1037 140.014 33.789C142.001 33.4722 143.871 34.8313 144.184 36.8229Z" fill="#2A81DD" fill-opacity="0.1"/>
<path d="M131.396 39.1493C131.919 41.0974 130.764 43.0941 128.817 43.6173C126.875 44.1384 124.874 42.9838 124.351 41.0347C123.831 39.0917 124.987 37.092 126.929 36.5698C128.874 36.0476 130.876 37.2033 131.396 39.1493Z" fill="#2A81DD" fill-opacity="0.1"/>
<path d="M118.922 42.8009C119.646 44.6822 118.706 46.7922 116.823 47.5157C114.945 48.2352 112.835 47.2961 112.111 45.4148C111.388 43.5346 112.329 41.4246 114.209 40.702C116.087 39.9815 118.202 40.9206 118.922 42.8009Z" fill="#2A81DD" fill-opacity="0.1"/>
<path d="M106.895 47.7374C107.81 49.5317 107.097 51.7297 105.303 52.6436C103.51 53.5564 101.313 52.8429 100.396 51.0487C99.4796 49.2544 100.194 47.0584 101.989 46.1446C103.784 45.2287 105.986 45.9422 106.895 47.7374Z" fill="#2A81DD" fill-opacity="0.1"/>
<path d="M95.4529 53.9045C96.5499 55.5925 96.0713 57.8512 94.3812 58.9503C92.6912 60.0452 90.4314 59.5645 89.3334 57.8745C88.2334 56.1855 88.7171 53.9278 90.4061 52.8308C92.0951 51.7338 94.3559 52.2145 95.4529 53.9045Z" fill="#2A81DD" fill-opacity="0.1"/>
<path d="M84.7147 61.2331C85.9828 62.7966 85.7419 65.0938 84.1784 66.3618C82.6118 67.6268 80.3146 67.386 79.0466 65.8224C77.7765 64.2549 78.0214 61.9587 79.5849 60.6917C81.1485 59.4257 83.4487 59.6655 84.7147 61.2331Z" fill="#2A81DD" fill-opacity="0.1"/>
<path d="M74.8033 69.6428C76.2262 71.0656 76.2282 73.375 74.8053 74.8029C73.3794 76.2237 71.0691 76.2258 69.6463 74.7999C68.2173 73.375 68.2173 71.0656 69.6422 69.6418C71.066 68.2179 73.3805 68.2159 74.8033 69.6428Z" fill="#2A81DD" fill-opacity="0.1"/>
<path d="M65.824 79.0422C67.3885 80.3102 67.6345 82.6054 66.3654 84.173C65.0944 85.7385 62.7982 85.9794 61.2367 84.7093C59.6651 83.4434 59.4262 81.1451 60.6942 79.5796C61.9602 78.0181 64.2584 77.7732 65.824 79.0422Z" fill="#2A81DD" fill-opacity="0.1"/>
<path d="M57.8799 89.332C59.5669 90.427 60.0476 92.6847 58.9516 94.3757C57.8556 96.0637 55.5948 96.5464 53.9068 95.4474C52.2147 94.3484 51.7351 92.0907 52.8301 90.4017C53.9281 88.7147 56.1888 88.2299 57.8799 89.332Z" fill="#2A81DD" fill-opacity="0.1"/>
<path d="M51.052 100.392C52.8422 101.307 53.5587 103.499 52.6489 105.297C51.731 107.092 49.534 107.806 47.7397 106.891C45.9404 105.978 45.227 103.779 46.1439 101.985C47.0587 100.193 49.2547 99.4752 51.052 100.392Z" fill="#2A81DD" fill-opacity="0.1"/>
<path d="M45.4202 112.107C47.2944 112.829 48.2366 114.936 47.5181 116.82C46.7905 118.7 44.6815 119.641 42.8032 118.915C40.9159 118.195 39.9778 116.084 40.7024 114.204C41.4249 112.326 43.5369 111.382 45.4202 112.107Z" fill="#2A81DD" fill-opacity="0.1"/>
<path d="M41.0394 124.347C42.9814 124.868 44.1381 126.863 43.622 128.811C43.0937 130.76 41.096 131.913 39.151 131.39C37.1979 130.872 36.0483 128.87 36.5674 126.923C37.0916 124.981 39.0913 123.821 41.0394 124.347Z" fill="#2A81DD" fill-opacity="0.1"/>
<path d="M37.9629 136.978C39.9495 137.293 41.3076 139.156 40.9989 141.147C40.6771 143.14 38.812 144.498 36.8224 144.181C34.8268 143.868 33.4697 141.999 33.7864 140.006C34.1012 138.02 35.9724 136.66 37.9629 136.978Z" fill="#2A81DD" fill-opacity="0.1"/>
<path d="M36.2254 149.859C38.2311 149.966 39.7805 151.678 39.6763 153.689C39.568 155.704 37.8547 157.25 35.8428 157.14C33.828 157.04 32.2796 155.324 32.3909 153.309C32.4942 151.3 34.2125 149.751 36.2254 149.859Z" fill="#2A81DD" fill-opacity="0.1"/>
<path d="M35.8438 162.853C37.8495 162.75 39.5689 164.287 39.6772 166.302C39.7794 168.317 38.2351 170.032 36.2243 170.133C34.2094 170.245 32.492 168.699 32.3888 166.685C32.2846 164.678 33.8309 162.956 35.8438 162.853Z" fill="#2A81DD" fill-opacity="0.1"/>
<path d="M36.8225 175.816C38.808 175.503 40.6761 176.853 40.9949 178.843C41.3086 180.839 39.9515 182.703 37.9609 183.016C35.9683 183.337 34.0992 181.981 33.7885 179.986C33.4718 178.001 34.8298 176.129 36.8225 175.816Z" fill="#2A81DD" fill-opacity="0.1"/>
<path d="M39.149 188.603C41.093 188.086 43.0917 189.233 43.6169 191.18C44.135 193.13 42.9814 195.127 41.0343 195.645C39.0872 196.173 37.0875 195.019 36.5653 193.07C36.0462 191.129 37.1999 189.123 39.149 188.603Z" fill="#2A81DD" fill-opacity="0.1"/>
<path d="M42.7992 201.08C44.6785 200.365 46.7875 201.296 47.5141 203.175C48.2305 205.062 47.2934 207.169 45.4121 207.887C43.5288 208.614 41.4219 207.677 40.6963 205.79C39.9808 203.917 40.9179 201.799 42.7992 201.08Z" fill="#2A81DD" fill-opacity="0.1"/>
<path d="M47.7367 213.104C49.5289 212.195 51.7249 212.901 52.6408 214.696C53.5536 216.497 52.8411 218.689 51.0459 219.599C49.2455 220.523 47.0556 219.808 46.1377 218.01C45.2269 216.221 45.9383 214.017 47.7367 213.104Z" fill="#2A81DD" fill-opacity="0.1"/>
<path d="M53.9048 224.549C55.5897 223.457 57.8495 223.93 58.9435 225.621C60.0405 227.315 59.5618 229.571 57.8708 230.664C56.1797 231.769 53.923 231.287 52.825 229.595C51.734 227.909 52.2107 225.644 53.9048 224.549Z" fill="#2A81DD" fill-opacity="0.1"/>
<path d="M61.2325 235.285C62.794 234.023 65.0872 234.255 66.3562 235.822C67.6273 237.394 67.3824 239.688 65.8189 240.953C64.2493 242.226 61.9561 241.984 60.6861 240.416C59.4262 238.855 59.6609 236.552 61.2325 235.285Z" fill="#2A81DD" fill-opacity="0.1"/>
<path d="M69.6411 245.195C71.064 243.778 73.3723 243.77 74.7932 245.195C76.2191 246.626 76.2211 248.933 74.7942 250.354C73.3693 251.784 71.062 251.785 69.6351 250.356C68.2153 248.937 68.2112 246.618 69.6411 245.195Z" fill="#2A81DD" fill-opacity="0.1"/>
<path d="M79.0405 254.176C80.3085 252.617 82.6038 252.364 84.1643 253.635C85.7369 254.91 85.9737 257.202 84.7047 258.765C83.4366 260.337 81.1425 260.576 79.5759 259.305C78.0154 258.043 77.7705 255.74 79.0405 254.176Z" fill="#2A81DD" fill-opacity="0.1"/>
<path d="M89.3274 262.123C90.4244 260.439 92.6811 259.951 94.3661 261.05C96.0621 262.153 96.5388 264.409 95.4418 266.096C94.3428 267.791 92.086 268.271 90.395 267.17C88.71 266.076 88.2263 263.81 89.3274 262.123Z" fill="#2A81DD" fill-opacity="0.1"/>
<path d="M100.389 268.949C101.304 267.16 103.496 266.441 105.288 267.355C107.088 268.273 107.797 270.469 106.885 272.263C105.972 274.063 103.776 274.776 101.98 273.855C100.19 272.946 99.4735 270.744 100.389 268.949Z" fill="#2A81DD" fill-opacity="0.1"/>
<path d="M112.104 274.585C112.825 272.709 114.932 271.762 116.811 272.488C118.696 273.213 119.631 275.322 118.911 277.197C118.188 279.086 116.081 280.024 114.2 279.296C112.325 278.579 111.381 276.462 112.104 274.585Z" fill="#2A81DD" fill-opacity="0.1"/>
<path d="M124.345 278.963C124.863 277.024 126.861 275.861 128.804 276.386C130.756 276.91 131.905 278.909 131.388 280.85C130.862 282.805 128.868 283.957 126.919 283.43C124.981 282.913 123.82 280.907 124.345 278.963Z" fill="#2A81DD" fill-opacity="0.1"/>
<path d="M136.974 282.038C137.287 280.055 139.153 278.691 141.142 279.01C143.139 279.327 144.49 281.194 144.177 283.178C143.859 285.176 141.995 286.532 140.003 286.212C138.021 285.901 136.655 284.027 136.974 282.038Z" fill="#2A81DD" fill-opacity="0.1"/>
<path d="M149.858 283.776C149.96 281.772 151.673 280.219 153.686 280.328C155.702 280.437 157.245 282.151 157.138 284.159C157.031 286.177 155.319 287.721 153.304 287.612C151.3 287.507 149.747 285.788 149.858 283.776Z" fill="#2A81DD" fill-opacity="0.1"/>
<path d="M163.843 29.4396C163.843 31.5556 162.126 33.274 160.009 33.274C157.89 33.274 156.172 31.5556 156.172 29.4396C156.172 27.3174 157.89 25.6001 160.009 25.6001C162.125 25.6001 163.843 27.3174 163.843 29.4396Z" fill="#2A81DD" fill-opacity="0.1"/>
<path d="M150.173 29.7533C150.396 31.8602 148.869 33.7476 146.76 33.9692C144.657 34.1908 142.768 32.6607 142.544 30.5538C142.326 28.4458 143.853 26.5574 145.959 26.3358C148.065 26.1142 149.954 27.6443 150.173 29.7533Z" fill="#2A81DD" fill-opacity="0.1"/>
<path d="M136.612 31.4918C137.054 33.5654 135.732 35.6015 133.658 36.0417C131.589 36.4819 129.551 35.1582 129.11 33.0847C128.669 31.0131 129.994 28.976 132.063 28.5348C134.134 28.0966 136.174 29.4192 136.612 31.4918Z" fill="#2A81DD" fill-opacity="0.1"/>
<path d="M123.309 34.6413C123.965 36.6561 122.864 38.8208 120.844 39.4775C118.833 40.1293 116.667 39.0272 116.01 37.0103C115.355 34.9944 116.46 32.8308 118.474 32.176C120.487 31.5243 122.656 32.6254 123.309 34.6413Z" fill="#2A81DD" fill-opacity="0.1"/>
<path d="M110.406 39.1629C111.269 41.0979 110.398 43.3657 108.463 44.2269C106.529 45.0881 104.262 44.2178 103.397 42.2819C102.532 40.346 103.406 38.0801 105.341 37.2179C107.274 36.3557 109.548 37.226 110.406 39.1629Z" fill="#2A81DD" fill-opacity="0.1"/>
<path d="M98.0477 45.01C99.1072 46.8427 98.4798 49.1895 96.6431 50.2501C94.8083 51.3076 92.4615 50.6792 91.401 48.8434C90.3384 47.0087 90.9709 44.6639 92.8056 43.6034C94.6403 42.5448 96.9881 43.1733 98.0477 45.01Z" fill="#2A81DD" fill-opacity="0.1"/>
<path d="M86.3663 52.1153C87.612 53.8286 87.2325 56.227 85.5202 57.4738C83.8049 58.7165 81.4055 58.337 80.1588 56.6237C78.911 54.9084 79.2945 52.511 81.0078 51.2642C82.7191 50.0205 85.1225 50.4 86.3663 52.1153Z" fill="#2A81DD" fill-opacity="0.1"/>
<path d="M75.4935 60.4035C76.9083 61.9771 76.7827 64.4008 75.2111 65.8217C73.6344 67.2364 71.2077 67.112 69.7919 65.5353C68.3701 63.9586 68.4976 61.5339 70.0722 60.1171C71.6449 58.7013 74.0767 58.8268 75.4935 60.4035Z" fill="#2A81DD" fill-opacity="0.1"/>
<path d="M65.5436 69.7815C67.1172 71.1983 67.2498 73.6241 65.829 75.1997C64.4092 76.7744 61.9834 76.9019 60.4128 75.48C58.8321 74.0653 58.7087 71.6375 60.1265 70.0619C61.5422 68.4933 63.9679 68.3627 65.5436 69.7815Z" fill="#2A81DD" fill-opacity="0.1"/>
<path d="M56.6311 80.1503C58.3423 81.394 58.7238 83.7914 57.4801 85.5067C56.2364 87.219 53.8329 87.6015 52.1217 86.3548C50.4053 85.108 50.0258 82.7086 51.2685 80.9963C52.5163 79.285 54.9168 78.9005 56.6311 80.1503Z" fill="#2A81DD" fill-opacity="0.1"/>
<path d="M48.8519 91.3924C50.6826 92.453 51.3141 94.7947 50.2586 96.6315C49.196 98.4662 46.8502 99.0977 45.0155 98.0351C43.1757 96.9776 42.5472 94.6298 43.6078 92.795C44.6693 90.9623 47.0151 90.3298 48.8519 91.3924Z" fill="#2A81DD" fill-opacity="0.1"/>
<path d="M42.2912 103.385C44.2201 104.249 45.0934 106.512 44.2362 108.451C43.369 110.385 41.1011 111.258 39.1672 110.393C37.2241 109.531 36.3559 107.263 37.2202 105.328C38.0824 103.397 40.3522 102.521 42.2912 103.385Z" fill="#2A81DD" fill-opacity="0.1"/>
<path d="M37.0157 116.001C39.0255 116.655 40.1306 118.815 39.4819 120.831C38.8201 122.848 36.6595 123.952 34.6456 123.294C32.6226 122.642 31.5247 120.477 32.1784 118.462C32.8332 116.45 34.9988 115.341 37.0157 116.001Z" fill="#2A81DD" fill-opacity="0.1"/>
<path d="M33.0892 129.098C35.1587 129.538 36.4834 131.57 36.0483 133.644C35.601 135.72 33.5679 137.042 31.4953 136.6C29.4167 136.162 28.095 134.125 28.5352 132.049C28.9755 129.98 31.0166 128.655 33.0892 129.098Z" fill="#2A81DD" fill-opacity="0.1"/>
<path d="M30.5552 142.532C32.6571 142.756 34.1882 144.637 33.9696 146.745C33.744 148.855 31.8597 150.384 29.7527 150.16C27.6407 149.942 26.1106 148.055 26.3372 145.944C26.5548 143.841 28.4473 142.307 30.5552 142.532Z" fill="#2A81DD" fill-opacity="0.1"/>
<path d="M29.4379 156.159C31.551 156.161 33.2713 157.87 33.2743 159.993C33.2703 162.114 31.555 163.831 29.4369 163.828C27.3127 163.833 25.5964 162.114 25.5985 159.993C25.5985 157.878 27.3178 156.157 29.4379 156.159Z" fill="#2A81DD" fill-opacity="0.1"/>
<path d="M29.7527 169.827C31.8546 169.609 33.744 171.129 33.9666 173.238C34.1872 175.351 32.6591 177.234 30.5511 177.453C28.4401 177.681 26.5528 176.153 26.3352 174.042C26.1115 171.939 27.6417 170.047 29.7527 169.827Z" fill="#2A81DD" fill-opacity="0.1"/>
<path d="M31.4912 183.388C33.5608 182.95 35.5989 184.266 36.0411 186.341C36.4783 188.418 35.1577 190.451 33.0831 190.888C31.0085 191.335 28.9714 190.013 28.5312 187.935C28.094 185.87 29.4167 183.827 31.4912 183.388Z" fill="#2A81DD" fill-opacity="0.1"/>
<path d="M34.6385 196.692C36.6513 196.043 38.817 197.136 39.4748 199.153C40.1235 201.175 39.0245 203.338 37.0076 203.985C34.9897 204.647 32.8271 203.545 32.1703 201.523C31.5216 199.516 32.6226 197.345 34.6385 196.692Z" fill="#2A81DD" fill-opacity="0.1"/>
<path d="M39.1611 209.595C41.095 208.739 43.3618 209.601 44.224 211.538C45.0842 213.479 44.2149 215.744 42.279 216.6C40.338 217.469 38.0762 216.599 37.211 214.66C36.3538 212.729 37.2221 210.454 39.1611 209.595Z" fill="#2A81DD" fill-opacity="0.1"/>
<path d="M45.0104 221.953C46.8401 220.899 49.1869 221.52 50.2454 223.357C51.3029 225.195 50.6765 227.541 48.8387 228.597C47.002 229.662 44.6572 229.034 43.5967 227.195C42.5462 225.364 43.1706 223.01 45.0104 221.953Z" fill="#2A81DD" fill-opacity="0.1"/>
<path d="M52.1146 233.635C53.8248 232.396 56.2202 232.766 57.467 234.482C58.7137 236.202 58.3313 238.598 56.619 239.842C54.9016 241.093 52.5052 240.711 51.2564 238.994C50.0218 237.284 50.3952 234.878 52.1146 233.635Z" fill="#2A81DD" fill-opacity="0.1"/>
<path d="M60.4008 244.508C61.9744 243.096 64.3981 243.216 65.8128 244.791C67.2316 246.373 67.1062 248.794 65.5295 250.208C63.9548 251.633 61.5301 251.505 60.1113 249.927C58.6986 248.356 58.8221 245.923 60.4008 244.508Z" fill="#2A81DD" fill-opacity="0.1"/>
<path d="M69.7788 254.458C71.1956 252.888 73.6193 252.752 75.1899 254.172C76.7706 255.597 76.8931 258.019 75.4753 259.589C74.0565 261.171 71.6328 261.297 70.0581 259.875C68.4896 258.463 68.359 256.029 69.7788 254.458Z" fill="#2A81DD" fill-opacity="0.1"/>
<path d="M80.1466 263.37C81.3924 261.662 83.7888 261.273 85.497 262.521C87.2184 263.771 87.5959 266.168 86.3511 267.88C85.1044 269.6 82.7059 269.979 80.9906 268.728C79.2804 267.488 78.8968 265.082 80.1466 263.37Z" fill="#2A81DD" fill-opacity="0.1"/>
<path d="M91.3888 271.15C92.4504 269.322 94.7901 268.685 96.6228 269.746C98.4616 270.809 99.087 273.154 98.0305 274.988C96.9709 276.828 94.6251 277.458 92.7904 276.39C90.9597 275.337 90.3272 272.984 91.3888 271.15Z" fill="#2A81DD" fill-opacity="0.1"/>
<path d="M103.382 277.713C104.242 275.785 106.508 274.906 108.442 275.77C110.383 276.635 111.248 278.903 110.389 280.834C109.526 282.777 107.261 283.647 105.323 282.779C103.394 281.921 102.519 279.644 103.382 277.713Z" fill="#2A81DD" fill-opacity="0.1"/>
<path d="M115.998 282.987C116.65 280.979 118.813 279.868 120.826 280.524C122.845 281.182 123.942 283.346 123.293 285.356C122.634 287.379 120.473 288.481 118.455 287.819C116.449 287.172 115.34 284.999 115.998 282.987Z" fill="#2A81DD" fill-opacity="0.1"/>
<path d="M129.094 286.913C129.533 284.847 131.567 283.517 133.639 283.961C135.717 284.405 137.035 286.44 136.596 288.507C136.154 290.587 134.121 291.909 132.044 291.464C129.981 291.026 128.649 288.984 129.094 286.913Z" fill="#2A81DD" fill-opacity="0.1"/>
<path d="M142.531 289.449C142.747 287.348 144.633 285.811 146.742 286.037C148.853 286.263 150.379 288.148 150.156 290.249C149.932 292.364 148.05 293.892 145.939 293.665C143.838 293.447 142.302 291.553 142.531 289.449Z" fill="#2A81DD" fill-opacity="0.1"/>
<path d="M156.157 290.563C156.154 288.452 157.867 286.729 159.986 286.731C162.113 286.733 163.825 288.45 163.825 290.565C163.825 292.689 162.113 294.405 159.99 294.403C157.875 294.403 156.152 292.684 156.157 290.563Z" fill="#2A81DD" fill-opacity="0.1"/>
<path d="M156.798 20.5856C156.916 22.8413 155.181 24.7682 152.923 24.8866C150.666 25.005 148.736 23.2694 148.619 21.0147C148.499 18.7519 150.237 16.8241 152.494 16.7057C154.751 16.5873 156.678 18.3238 156.798 20.5856Z" fill="#2A81DD" fill-opacity="0.1"/>
<path d="M142.24 21.6825C142.596 23.917 141.074 26.0149 138.838 26.3691C136.607 26.7222 134.509 25.1972 134.151 22.9637C133.801 20.7282 135.324 18.6294 137.557 18.2752C139.79 17.921 141.889 19.4471 142.24 21.6825Z" fill="#2A81DD" fill-opacity="0.1"/>
<path d="M127.879 24.2955C128.466 26.4814 127.171 28.725 124.984 29.3119C122.804 29.8969 120.557 28.6005 119.97 26.4126C119.385 24.2307 120.683 21.9841 122.864 21.3982C125.05 20.8133 127.296 22.1096 127.879 24.2955Z" fill="#2A81DD" fill-opacity="0.1"/>
<path d="M113.872 28.3951C114.685 30.5081 113.631 32.8782 111.516 33.6898C109.407 34.4973 107.037 33.4429 106.224 31.3298C105.412 29.2188 106.468 26.8487 108.58 26.0381C110.689 25.2306 113.065 26.283 113.872 28.3951Z" fill="#2A81DD" fill-opacity="0.1"/>
<path d="M100.368 33.9387C101.396 35.9535 100.596 38.4218 98.579 39.4459C96.5661 40.4731 94.0989 39.6716 93.0707 37.6547C92.0405 35.6398 92.843 33.1736 94.8599 32.1485C96.8738 31.1203 99.346 31.9218 100.368 33.9387Z" fill="#2A81DD" fill-opacity="0.1"/>
<path d="M87.519 40.8627C88.7516 42.7582 88.2142 45.2962 86.3157 46.5299C84.4183 47.7594 81.8802 47.22 80.6486 45.3226C79.412 43.4271 79.9554 40.8911 81.8519 39.6575C83.7473 38.4259 86.2874 38.9653 87.519 40.8627Z" fill="#2A81DD" fill-opacity="0.1"/>
<path d="M75.4622 49.0932C76.885 50.849 76.6158 53.4286 74.859 54.8524C73.1002 56.2733 70.5196 56.0031 69.0957 54.2453C67.6698 52.4864 67.9451 49.9079 69.7019 48.485C71.4567 47.0632 74.0393 47.3324 75.4622 49.0932Z" fill="#2A81DD" fill-opacity="0.1"/>
<path d="M64.3313 58.5363C65.9282 60.1342 65.9303 62.7269 64.3333 64.3299C62.7324 65.9258 60.1376 65.9279 58.5397 64.3269C56.9347 62.7269 56.9367 60.1342 58.5357 58.5353C60.1336 56.9363 62.7334 56.9343 64.3313 58.5363Z" fill="#2A81DD" fill-opacity="0.1"/>
<path d="M54.2488 69.0923C56.0046 70.5151 56.2829 73.0927 54.8571 74.8525C53.4312 76.6103 50.8506 76.8815 49.0979 75.4557C47.335 74.0348 47.0658 71.4532 48.4886 69.6944C49.9105 67.9416 52.49 67.6664 54.2488 69.0923Z" fill="#2A81DD" fill-opacity="0.1"/>
<path d="M45.3272 80.6451C47.2206 81.8757 47.761 84.4108 46.5294 86.3103C45.2988 88.2057 42.7588 88.7471 40.8633 87.5125C38.9638 86.2799 38.4265 83.7428 39.655 81.8474C40.8896 79.9529 43.4277 79.4075 45.3272 80.6451Z" fill="#2A81DD" fill-opacity="0.1"/>
<path d="M37.6603 93.0653C39.6701 94.0935 40.4747 96.5557 39.4526 98.5736C38.4214 100.588 35.9552 101.391 33.9413 100.363C31.9204 99.3366 31.1198 96.8684 32.149 94.8545C33.1762 92.8407 35.6434 92.0361 37.6603 93.0653Z" fill="#2A81DD" fill-opacity="0.1"/>
<path d="M31.3374 106.219C33.4413 107.032 34.4999 109.397 33.6933 111.511C32.8756 113.623 30.5066 114.68 28.3976 113.863C26.2765 113.055 25.225 110.685 26.0376 108.573C26.8502 106.466 29.2223 105.405 31.3374 106.219Z" fill="#2A81DD" fill-opacity="0.1"/>
<path d="M26.4182 119.964C28.598 120.55 29.8974 122.79 29.3165 124.977C28.7245 127.164 26.4809 128.461 24.2971 127.873C22.1051 127.291 20.8128 125.044 21.3957 122.857C21.9847 120.677 24.2303 119.375 26.4182 119.964Z" fill="#2A81DD" fill-opacity="0.1"/>
<path d="M22.9632 134.148C25.1937 134.501 26.7187 136.595 26.3716 138.83C26.0103 141.068 23.9155 142.592 21.6821 142.236C19.4415 141.884 17.9175 139.785 18.2727 137.547C18.6258 135.318 20.7278 133.792 22.9632 134.148Z" fill="#2A81DD" fill-opacity="0.1"/>
<path d="M21.0111 148.612C23.2658 148.734 25.0034 150.654 24.888 152.914C24.7656 155.176 22.8428 156.911 20.582 156.789C18.3192 156.678 16.5826 154.749 16.7051 152.487C16.8204 150.23 18.7503 148.492 21.0111 148.612Z" fill="#2A81DD" fill-opacity="0.1"/>
<path d="M20.584 163.205C22.8357 163.089 24.7656 164.814 24.888 167.077C25.0013 169.34 23.2678 171.266 21.0101 171.38C18.7473 171.505 16.8194 169.769 16.703 167.508C16.5856 165.253 18.3232 163.32 20.584 163.205Z" fill="#2A81DD" fill-opacity="0.1"/>
<path d="M21.6821 177.758C23.9115 177.408 26.0104 178.924 26.3666 181.16C26.7198 183.399 25.1947 185.494 22.9603 185.844C20.7238 186.205 18.6249 184.682 18.2747 182.443C17.9195 180.213 19.4446 178.111 21.6821 177.758Z" fill="#2A81DD" fill-opacity="0.1"/>
<path d="M24.294 192.12C26.4769 191.539 28.7225 192.827 29.3115 195.013C29.8923 197.203 28.598 199.446 26.4121 200.027C24.2262 200.62 21.9796 199.324 21.3936 197.134C20.8107 194.956 22.1061 192.703 24.294 192.12Z" fill="#2A81DD" fill-opacity="0.1"/>
<path d="M28.3946 206.127C30.5036 205.325 32.8737 206.37 33.6893 208.481C34.4928 210.6 33.4413 212.967 31.3293 213.773C29.2133 214.59 26.8473 213.537 26.0336 211.418C25.2291 209.314 26.2816 206.937 28.3946 206.127Z" fill="#2A81DD" fill-opacity="0.1"/>
<path d="M33.9373 219.633C35.9501 218.611 38.4173 219.404 39.4435 221.42C40.4686 223.443 39.6702 225.906 37.6512 226.927C35.6313 227.963 33.1702 227.16 32.141 225.143C31.1199 223.132 31.9184 220.655 33.9373 219.633Z" fill="#2A81DD" fill-opacity="0.1"/>
<path d="M40.8642 232.483C42.7557 231.256 45.2917 231.786 46.5233 233.686C47.7549 235.587 47.2165 238.121 45.318 239.35C43.4185 240.591 40.8845 240.048 39.6509 238.15C38.4274 236.255 38.9617 233.713 40.8642 232.483Z" fill="#2A81DD" fill-opacity="0.1"/>
<path d="M49.0927 244.539C50.8465 243.122 53.421 243.381 54.8448 245.143C56.2707 246.907 55.9975 249.483 54.2407 250.904C52.4788 252.335 49.9033 252.063 48.4774 250.301C47.0637 248.547 47.3288 245.961 49.0927 244.539Z" fill="#2A81DD" fill-opacity="0.1"/>
<path d="M58.5346 255.667C60.1325 254.077 62.7243 254.066 64.3202 255.667C65.9211 257.274 65.9231 259.864 64.3202 261.461C62.7212 263.066 60.1295 263.067 58.5285 261.463C56.9346 259.867 56.9296 257.266 58.5346 255.667Z" fill="#2A81DD" fill-opacity="0.1"/>
<path d="M69.0897 265.754C70.5125 264.001 73.0901 263.718 74.8428 265.145C76.6077 266.576 76.8738 269.151 75.451 270.904C74.0261 272.669 71.4506 272.94 69.6897 271.513C67.939 270.094 67.6628 267.508 69.0897 265.754Z" fill="#2A81DD" fill-opacity="0.1"/>
<path d="M80.6405 274.675C81.8721 272.784 84.4071 272.235 86.2995 273.471C88.2041 274.708 88.7404 277.242 87.5088 279.138C86.2732 281.04 83.7392 281.58 81.8397 280.342C79.9483 279.113 79.4049 276.569 80.6405 274.675Z" fill="#2A81DD" fill-opacity="0.1"/>
<path d="M93.0626 282.34C94.0908 280.333 96.5509 279.524 98.5628 280.55C100.583 281.581 101.38 284.048 100.357 286.059C99.3309 288.081 96.8636 288.882 94.8498 287.849C92.8389 286.83 92.0344 284.356 93.0626 282.34Z" fill="#2A81DD" fill-opacity="0.1"/>
<path d="M106.216 288.668C107.025 286.563 109.392 285.499 111.502 286.314C113.621 287.128 114.67 289.498 113.86 291.603C113.048 293.724 110.683 294.778 108.569 293.961C106.465 293.154 105.404 290.776 106.216 288.668Z" fill="#2A81DD" fill-opacity="0.1"/>
<path d="M119.962 293.585C120.544 291.408 122.789 290.103 124.97 290.691C127.162 291.28 128.45 293.527 127.871 295.705C127.281 297.899 125.04 299.193 122.853 298.602C120.677 298.021 119.372 295.769 119.962 293.585Z" fill="#2A81DD" fill-opacity="0.1"/>
<path d="M134.143 297.039C134.495 294.813 136.59 293.281 138.825 293.639C141.065 293.996 142.583 296.092 142.232 298.32C141.876 300.564 139.782 302.086 137.545 301.727C135.319 301.375 133.785 299.272 134.143 297.039Z" fill="#2A81DD" fill-opacity="0.1"/>
<path d="M148.612 298.99C148.724 296.739 150.65 294.996 152.911 295.118C155.173 295.241 156.906 297.165 156.786 299.419C156.667 301.684 154.744 303.42 152.481 303.296C150.23 303.18 148.487 301.248 148.612 298.99Z" fill="#2A81DD" fill-opacity="0.1"/>
<path d="M164.29 14.2262C164.29 16.5892 162.373 18.5079 160.008 18.5079C157.642 18.5079 155.725 16.5892 155.725 14.2262C155.725 11.8571 157.642 9.94043 160.008 9.94043C162.373 9.94043 164.29 11.8571 164.29 14.2262Z" fill="#2A81DD" fill-opacity="0.1"/>
<path d="M149.028 14.5763C149.276 16.9292 147.572 19.0362 145.216 19.2841C142.868 19.53 140.76 17.8228 140.51 15.4709C140.267 13.117 141.971 11.0091 144.323 10.7621C146.675 10.5132 148.784 12.2204 149.028 14.5763Z" fill="#2A81DD" fill-opacity="0.1"/>
<path d="M133.887 16.5185C134.38 18.8339 132.904 21.1048 130.588 21.5997C128.279 22.0895 126.004 20.612 125.51 18.2965C125.019 15.9842 126.498 13.7092 128.807 13.2164C131.121 12.7266 133.398 14.2031 133.887 16.5185Z" fill="#2A81DD" fill-opacity="0.1"/>
<path d="M119.033 20.033C119.766 22.2837 118.535 24.7003 116.281 25.433C114.035 26.1616 111.618 24.93 110.885 22.6783C110.152 20.4287 111.387 18.0131 113.635 17.2804C115.884 16.5538 118.305 17.7833 119.033 20.033Z" fill="#2A81DD" fill-opacity="0.1"/>
<path d="M104.628 25.0819C105.59 27.2445 104.618 29.7765 102.457 30.7368C100.298 31.6982 97.7664 30.7267 96.8009 28.5651C95.8365 26.4035 96.8101 23.8725 98.9727 22.9122C101.131 21.9477 103.669 22.9203 104.628 25.0819Z" fill="#2A81DD" fill-opacity="0.1"/>
<path d="M90.8281 31.6113C92.0112 33.6565 91.3119 36.2775 89.2606 37.4616C87.2123 38.6415 84.5913 37.9402 83.4083 35.891C82.2212 33.8427 82.9276 31.2237 84.9759 30.0406C87.0241 28.8586 89.6451 29.561 90.8281 31.6113Z" fill="#2A81DD" fill-opacity="0.1"/>
<path d="M77.7856 39.5442C79.1761 41.4579 78.7521 44.1356 76.8405 45.5261C74.9248 46.9145 72.245 46.4905 70.8556 44.5768C69.461 42.6601 69.8891 39.9844 71.8028 38.593C73.7144 37.2065 76.3972 37.6285 77.7856 39.5442Z" fill="#2A81DD" fill-opacity="0.1"/>
<path d="M65.6459 48.7968C67.2266 50.5536 67.0869 53.2617 65.3311 54.8475C63.5692 56.4262 60.8602 56.2875 59.2794 54.5277C57.6916 52.7689 57.8344 50.0608 59.5942 48.478C61.349 46.8973 64.0631 47.038 65.6459 48.7968Z" fill="#2A81DD" fill-opacity="0.1"/>
<path d="M54.5373 59.2688C56.2941 60.8515 56.4419 63.5586 54.8561 65.3194C53.2713 67.0762 50.5632 67.2189 48.8074 65.6321C47.0435 64.0524 46.9039 61.3413 48.4876 59.5835C50.0694 57.8297 52.7785 57.684 54.5373 59.2688Z" fill="#2A81DD" fill-opacity="0.1"/>
<path d="M44.5874 70.8452C46.498 72.2346 46.9251 74.9113 45.5346 76.828C44.1442 78.7397 41.4634 79.1667 39.5517 77.7732C37.635 76.3818 37.211 73.704 38.5994 71.7904C39.9919 69.8797 42.6717 69.4507 44.5874 70.8452Z" fill="#2A81DD" fill-opacity="0.1"/>
<path d="M35.9015 83.3979C37.9437 84.5809 38.6491 87.1969 37.4711 89.2472C36.2851 91.2954 33.664 91.9998 31.6188 90.8137C29.5634 89.6327 28.8621 87.0107 30.0472 84.9634C31.2312 82.9182 33.8502 82.2129 35.9015 83.3979Z" fill="#2A81DD" fill-opacity="0.1"/>
<path d="M28.5747 96.7894C30.7292 97.7518 31.7048 100.28 30.7464 102.444C29.778 104.605 27.246 105.58 25.0874 104.613C22.9177 103.653 21.9482 101.12 22.9137 98.9581C23.8761 96.8015 26.4121 95.8229 28.5747 96.7894Z" fill="#2A81DD" fill-opacity="0.1"/>
<path d="M22.6849 110.874C24.9295 111.606 26.1652 114.016 25.4396 116.268C24.6998 118.52 22.2872 119.751 20.0386 119.017C17.7798 118.29 16.5543 115.872 17.2819 113.622C18.0156 111.376 20.4342 110.137 22.6849 110.874Z" fill="#2A81DD" fill-opacity="0.1"/>
<path d="M18.3 125.496C20.6104 125.987 22.0889 128.258 21.6052 130.574C21.1053 132.891 18.8344 134.368 16.522 133.874C14.2005 133.386 12.724 131.109 13.2168 128.792C13.7087 126.482 15.9866 125.003 18.3 125.496Z" fill="#2A81DD" fill-opacity="0.1"/>
<path d="M15.4715 140.496C17.8173 140.745 19.5276 142.846 19.2847 145.2C19.0327 147.556 16.9288 149.263 14.5759 149.012C12.2179 148.77 10.5097 146.662 10.7617 144.306C11.0056 141.957 13.1176 140.245 15.4715 140.496Z" fill="#2A81DD" fill-opacity="0.1"/>
<path d="M14.2247 155.711C16.5837 155.712 18.5044 157.622 18.5075 159.991C18.5034 162.361 16.5867 164.276 14.2237 164.272C11.8527 164.279 9.9359 162.36 9.93793 159.992C9.93692 157.631 11.8577 155.708 14.2247 155.711Z" fill="#2A81DD" fill-opacity="0.1"/>
<path d="M14.5759 170.971C16.9227 170.727 19.0327 172.425 19.2806 174.779C19.5266 177.139 17.8214 179.242 15.4675 179.485C13.1105 179.74 11.0025 178.034 10.7597 175.676C10.5107 173.329 12.2189 171.218 14.5759 170.971Z" fill="#2A81DD" fill-opacity="0.1"/>
<path d="M16.5179 186.113C18.8293 185.625 21.1032 187.093 21.5991 189.41C22.0869 191.728 20.6114 193.998 18.296 194.488C15.9806 194.987 13.7056 193.509 13.2137 191.191C12.7229 188.884 14.1994 186.601 16.5179 186.113Z" fill="#2A81DD" fill-opacity="0.1"/>
<path d="M20.0315 200.966C22.2791 200.243 24.6957 201.463 25.4315 203.714C26.155 205.971 24.9275 208.385 22.6768 209.11C20.4221 209.849 18.0096 208.619 17.2759 206.36C16.5513 204.121 17.7798 201.696 20.0315 200.966Z" fill="#2A81DD" fill-opacity="0.1"/>
<path d="M25.0813 215.374C27.2399 214.418 29.7719 215.38 30.7343 217.543C31.6936 219.711 30.7242 222.239 28.5626 223.193C26.3949 224.166 23.8699 223.193 22.9035 221.029C21.9461 218.874 22.9167 216.332 25.0813 215.374Z" fill="#2A81DD" fill-opacity="0.1"/>
<path d="M31.6107 229.173C33.6539 227.996 36.2739 228.689 37.4549 230.739C38.6359 232.793 37.9366 235.411 35.8843 236.59C33.835 237.78 31.217 237.075 30.032 235.024C28.8601 232.981 29.5563 230.354 31.6107 229.173Z" fill="#2A81DD" fill-opacity="0.1"/>
<path d="M39.5437 242.213C41.4533 240.831 44.1269 241.245 45.5184 243.159C46.9119 245.081 46.4849 247.756 44.5722 249.143C42.6545 250.54 39.9799 250.115 38.5853 248.197C37.206 246.289 37.6249 243.604 39.5437 242.213Z" fill="#2A81DD" fill-opacity="0.1"/>
<path d="M48.7963 254.355C50.5511 252.779 53.2582 252.912 54.8379 254.669C56.4216 256.436 56.2819 259.14 54.5201 260.72C52.7623 262.311 50.0552 262.169 48.4714 260.407C46.8948 258.652 47.0334 255.935 48.7963 254.355Z" fill="#2A81DD" fill-opacity="0.1"/>
<path d="M59.2663 265.465C60.848 263.713 63.5551 263.56 65.3089 265.143C67.0738 266.736 67.2104 269.44 65.6267 271.193C64.0439 272.959 61.3378 273.101 59.578 271.512C57.8272 269.935 57.6805 267.219 59.2663 265.465Z" fill="#2A81DD" fill-opacity="0.1"/>
<path d="M70.8404 275.416C72.2308 273.508 74.9065 273.074 76.8151 274.466C78.7369 275.863 79.1579 278.539 77.7674 280.45C76.3749 282.37 73.6982 282.793 71.7825 281.397C69.8759 280.012 69.4469 277.325 70.8404 275.416Z" fill="#2A81DD" fill-opacity="0.1"/>
<path d="M83.3931 284.102C84.5781 282.06 87.1921 281.35 89.2373 282.534C91.2907 283.721 91.9889 286.34 90.8079 288.386C89.6259 290.44 87.0059 291.143 84.9586 289.953C82.9154 288.777 82.2101 286.15 83.3931 284.102Z" fill="#2A81DD" fill-opacity="0.1"/>
<path d="M96.7857 291.431C97.7451 289.277 100.275 288.295 102.434 289.26C104.602 290.226 105.569 292.757 104.607 294.913C103.644 297.084 101.116 298.054 98.9524 297.085C96.7989 296.129 95.8213 293.587 96.7857 291.431Z" fill="#2A81DD" fill-opacity="0.1"/>
<path d="M110.872 297.317C111.599 295.075 114.015 293.836 116.259 294.568C118.517 295.302 119.741 297.72 119.016 299.963C118.279 302.222 115.869 303.451 113.615 302.713C111.375 301.989 110.136 299.564 110.872 297.317Z" fill="#2A81DD" fill-opacity="0.1"/>
<path d="M125.493 301.699C125.982 299.394 128.254 297.91 130.568 298.403C132.888 298.898 134.359 301.172 133.87 303.48C133.377 305.802 131.106 307.279 128.788 306.782C126.482 306.294 124.996 304.012 125.493 301.699Z" fill="#2A81DD" fill-opacity="0.1"/>
<path d="M140.496 304.531C140.735 302.187 142.841 300.471 145.196 300.722C147.554 300.974 149.258 303.079 149.009 305.426C148.76 307.786 146.66 309.492 144.302 309.239C141.956 308.996 140.241 306.881 140.496 304.531Z" fill="#2A81DD" fill-opacity="0.1"/>
<path d="M155.709 305.776C155.705 303.42 157.619 301.496 159.984 301.498C162.359 301.501 164.271 303.416 164.271 305.778C164.271 308.15 162.358 310.067 159.989 310.063C157.628 310.064 155.705 308.144 155.709 305.776Z" fill="#2A81DD" fill-opacity="0.1"/>
<path d="M156.425 4.34013C156.558 6.85897 154.621 9.01046 152.099 9.14303C149.578 9.2756 147.425 7.33865 147.293 4.8188C147.159 2.29288 149.098 0.142407 151.62 0.00983669C154.14 -0.122734 156.293 1.81421 156.425 4.34013Z" fill="#2A81DD" fill-opacity="0.1"/>
<path d="M140.171 5.56573C140.568 8.06028 138.869 10.402 136.371 10.7977C133.881 11.1924 131.538 9.4892 131.139 6.99567C130.747 4.49808 132.449 2.15634 134.942 1.76065C137.434 1.36497 139.778 3.07017 140.171 5.56573Z" fill="#2A81DD" fill-opacity="0.1"/>
<path d="M124.138 8.48334C124.792 10.9243 123.345 13.4289 120.904 14.0837C118.47 14.7374 115.961 13.2883 115.307 10.8473C114.653 8.41048 116.103 5.90176 118.536 5.24801C120.975 4.59427 123.486 6.04243 124.138 8.48334Z" fill="#2A81DD" fill-opacity="0.1"/>
<path d="M108.497 13.0614C109.405 15.4193 108.226 18.0657 105.865 18.9734C103.512 19.8751 100.866 18.6972 99.9573 16.3382C99.0505 13.9803 100.232 11.336 102.589 10.4282C104.943 9.52654 107.595 10.7015 108.497 13.0614Z" fill="#2A81DD" fill-opacity="0.1"/>
<path d="M93.4199 19.2499C94.5675 21.5016 93.6739 24.2542 91.4222 25.3998C89.1746 26.5464 86.421 25.6518 85.2713 23.4001C84.1227 21.1505 85.0183 18.3978 87.27 17.2513C89.5166 16.1037 92.2783 16.9983 93.4199 19.2499Z" fill="#2A81DD" fill-opacity="0.1"/>
<path d="M79.0729 26.9814C80.4482 29.0975 79.8491 31.9311 77.729 33.3063C75.6109 34.6796 72.7783 34.0785 71.402 31.9594C70.0217 29.8423 70.6289 27.0108 72.746 25.6355C74.863 24.2602 77.6976 24.8633 79.0729 26.9814Z" fill="#2A81DD" fill-opacity="0.1"/>
<path d="M65.6104 36.1693C67.2002 38.1305 66.8986 41.0106 64.9384 42.5994C62.9741 44.1862 60.0931 43.8847 58.5032 41.9224C56.9114 39.9592 57.219 37.0791 59.1792 35.4912C61.1384 33.9034 64.0236 34.204 65.6104 36.1693Z" fill="#2A81DD" fill-opacity="0.1"/>
<path d="M53.1853 46.7133C54.9684 48.4984 54.9714 51.3917 53.1873 53.1819C51.3991 54.964 48.5018 54.9671 46.7187 53.1789C44.9254 51.3917 44.9274 48.4964 46.7146 46.7133C48.4977 44.9281 51.4002 44.9251 53.1853 46.7133Z" fill="#2A81DD" fill-opacity="0.1"/>
<path d="M41.9259 58.4988C43.8881 60.0866 44.1968 62.9667 42.6049 64.931C41.0131 66.8932 38.1319 67.1958 36.1747 65.603C34.2064 64.0172 33.9059 61.135 35.4947 59.1718C37.0825 57.2146 39.9626 56.9079 41.9259 58.4988Z" fill="#2A81DD" fill-opacity="0.1"/>
<path d="M31.9659 71.3986C34.0799 72.7719 34.684 75.6024 33.3077 77.7235C31.9345 79.8386 29.0999 80.4438 26.9828 79.0654C24.8617 77.6891 24.2606 74.8576 25.6328 72.7405C27.0122 70.6255 29.8447 70.0173 31.9659 71.3986Z" fill="#2A81DD" fill-opacity="0.1"/>
<path d="M23.4055 85.266C25.6501 86.4136 26.5487 89.1631 25.4072 91.4158C24.2555 93.6665 21.5029 94.5611 19.2533 93.4135C16.9976 92.2689 16.103 89.5133 17.2526 87.2636C18.3992 85.015 21.1538 84.1164 23.4055 85.266Z" fill="#2A81DD" fill-opacity="0.1"/>
<path d="M16.3458 99.9529C18.6946 100.86 19.8756 103.5 18.977 105.862C18.0642 108.22 15.4188 109.4 13.065 108.489C10.6969 107.587 9.52198 104.941 10.4297 102.583C11.3345 100.228 13.9838 99.0441 16.3458 99.9529Z" fill="#2A81DD" fill-opacity="0.1"/>
<path d="M10.8528 115.3C13.2856 115.953 14.7368 118.456 14.0891 120.897C13.4283 123.339 10.9236 124.787 8.4847 124.129C6.0367 123.48 4.59362 120.972 5.24534 118.53C5.90111 116.095 8.40984 114.641 10.8528 115.3Z" fill="#2A81DD" fill-opacity="0.1"/>
<path d="M6.99401 131.135C9.48451 131.529 11.1887 133.867 10.8011 136.363C10.3973 138.862 8.05965 140.563 5.5651 140.166C3.06245 139.774 1.36235 137.43 1.75803 134.931C2.15372 132.441 4.50047 130.739 6.99401 131.135Z" fill="#2A81DD" fill-opacity="0.1"/>
<path d="M4.81629 147.286C7.33209 147.42 9.27308 149.564 9.14355 152.088C9.00693 154.614 6.85949 156.551 4.33661 156.415C1.80967 156.289 -0.129297 154.137 0.00934507 151.611C0.137868 149.092 2.29239 147.15 4.81629 147.286Z" fill="#2A81DD" fill-opacity="0.1"/>
<path d="M4.33864 163.578C6.85343 163.448 9.00792 165.375 9.14454 167.902C9.27104 170.427 7.33616 172.577 4.8153 172.705C2.28836 172.844 0.136864 170.908 0.0063177 168.382C-0.125241 165.864 1.81373 163.707 4.33864 163.578Z" fill="#2A81DD" fill-opacity="0.1"/>
<path d="M5.56511 179.828C8.05359 179.437 10.3974 181.128 10.7951 183.625C11.1888 186.128 9.4866 188.465 6.99205 188.857C4.49345 189.259 2.15167 187.559 1.76003 185.058C1.36434 182.57 3.06651 180.222 5.56511 179.828Z" fill="#2A81DD" fill-opacity="0.1"/>
<path d="M8.48066 195.862C10.9185 195.212 13.4263 196.651 14.083 199.092C14.7327 201.537 13.2876 204.042 10.8457 204.692C8.40581 205.353 5.89708 203.905 5.24334 201.461C4.59263 199.028 6.03772 196.514 8.48066 195.862Z" fill="#2A81DD" fill-opacity="0.1"/>
<path d="M13.0579 211.503C15.4138 210.606 18.0592 211.773 18.97 214.131C19.8676 216.497 18.6937 219.139 16.3357 220.039C13.9738 220.95 11.3314 219.775 10.4227 217.409C9.52504 215.062 10.701 212.406 13.0579 211.503Z" fill="#2A81DD" fill-opacity="0.1"/>
<path d="M19.2492 226.581C21.4969 225.44 24.2504 226.326 25.397 228.577C26.5426 230.835 25.649 233.584 23.3963 234.724C21.1396 235.883 18.3931 234.986 17.2424 232.732C16.1019 230.488 16.9935 227.723 19.2492 226.581Z" fill="#2A81DD" fill-opacity="0.1"/>
<path d="M26.9818 240.928C29.0938 239.558 31.9264 240.151 33.2996 242.272C34.6749 244.395 34.0758 247.225 31.9537 248.595C29.8336 249.98 27.0041 249.375 25.6268 247.255C24.2616 245.143 24.8587 242.302 26.9818 240.928Z" fill="#2A81DD" fill-opacity="0.1"/>
<path d="M36.1697 254.388C38.1289 252.807 41.0019 253.098 42.5927 255.062C44.1846 257.033 43.879 259.91 41.9188 261.496C39.9515 263.093 37.0754 262.788 35.4836 260.822C33.9039 258.864 34.1993 255.978 36.1697 254.388Z" fill="#2A81DD" fill-opacity="0.1"/>
<path d="M46.7116 266.814C48.4957 265.037 51.389 265.027 53.1701 266.813C54.9583 268.609 54.9603 271.5 53.1711 273.282C51.3849 275.074 48.4917 275.075 46.7045 273.286C44.9254 271.504 44.9203 268.6 46.7116 266.814Z" fill="#2A81DD" fill-opacity="0.1"/>
<path d="M58.4962 278.076C60.086 276.119 62.9621 275.803 64.9193 277.396C66.8896 278.995 67.1882 281.87 65.5983 283.827C64.0085 285.797 61.1324 286.1 59.1661 284.507C57.2109 282.923 56.9043 280.034 58.4962 278.076Z" fill="#2A81DD" fill-opacity="0.1"/>
<path d="M71.3929 288.037C72.7672 285.926 75.5977 285.314 77.7108 286.692C79.838 288.073 80.436 290.903 79.0607 293.018C77.6834 295.143 74.8529 295.745 72.7318 294.363C70.6208 292.993 70.0136 290.152 71.3929 288.037Z" fill="#2A81DD" fill-opacity="0.1"/>
<path d="M85.2622 296.596C86.4118 294.354 89.1583 293.451 91.405 294.596C93.6607 295.749 94.5502 298.502 93.4077 300.749C92.2621 303.005 89.5075 303.9 87.2579 302.746C85.0143 301.607 84.1146 298.846 85.2622 296.596Z" fill="#2A81DD" fill-opacity="0.1"/>
<path d="M99.9491 303.662C100.853 301.312 103.495 300.124 105.851 301.033C108.216 301.941 109.387 304.587 108.484 306.938C107.578 309.305 104.938 310.483 102.577 309.57C100.227 308.67 99.0424 306.014 99.9491 303.662Z" fill="#2A81DD" fill-opacity="0.1"/>
<path d="M115.297 309.15C115.948 306.72 118.453 305.263 120.888 305.92C123.335 306.578 124.775 309.084 124.128 311.517C123.47 313.968 120.967 315.413 118.524 314.752C116.095 314.104 114.638 311.588 115.297 309.15Z" fill="#2A81DD" fill-opacity="0.1"/>
<path d="M131.131 313.006C131.523 310.52 133.862 308.81 136.356 309.209C138.859 309.607 140.553 311.947 140.162 314.435C139.764 316.94 137.426 318.639 134.928 318.24C132.443 317.847 130.732 315.499 131.131 313.006Z" fill="#2A81DD" fill-opacity="0.1"/>
<path d="M147.284 315.187C147.41 312.673 149.56 310.726 152.084 310.862C154.612 310.999 156.545 313.148 156.411 315.665C156.277 318.195 154.132 320.132 151.605 319.994C149.091 319.863 147.145 317.708 147.284 315.187Z" fill="#2A81DD" fill-opacity="0.1"/>
</svg>
