<svg xmlns="http://www.w3.org/2000/svg" fill="none" viewBox="0 0 1162 1779"><g opacity=".1"><path stroke="#292974" stroke-miterlimit="10" stroke-width=".4" d="M129.135 1771c0-157.81 395.201-104 376.392-219.5-18.809-115.51-292.584-126.65-294.24-204.16-1.982-92.71 301.908-69.53 299.64-140.91-1.962-61.81-402.205-76.44-409.002-180.69-6.804-104.329 634.77-107.002 607.901-198.104-26.87-91.102-728.274-35.119-708.412-141.86 17.223-92.55 623.245-61.694 580.25-118.632C538.668 510.206 221.151 506.42 211 446.187c-11.22-66.568 343.794-20.579 298.112-75.89-45.682-55.311-197.876-101.47-195.189-142.141 2.687-40.67 153.556-47.118 150.79-105.682-2.766-58.565-308.494-48.259-308.494-121.466"/><path stroke="#292974" stroke-miterlimit="10" stroke-width=".4" d="M151.072 1771.17c.996-157.89 375.294-105.73 356.863-220.01-18.462-114.86-275.507-126.44-277.19-203.76-2.016-92.62 285.322-69.92 283.111-141.06-1.913-61.81-379.51-77.51-386.14-180.98-6.635-103.641 613.312-106.956 584.982-197.703-28.572-90.965-701.665-35.505-682.294-141.584 16.794-92.399 599.429-61.991 556.434-118.929-42.995-56.938-348.368-60.654-357.999-120.882-10.672-66.408 330.657-20.905 284.975-76.216-45.682-55.312-185.935-99.873-183.38-142.237 2.562-42.213 142.744-46.252 139.978-104.819-2.766-58.567-293.844-48.775-293.844-121.982"/><path stroke="#292974" stroke-miterlimit="10" stroke-width=".4" d="M173.009 1771.34c1.993-157.99 355.384-107.48 337.334-220.53-18.115-114.21-258.435-126.22-260.137-203.36-2.045-92.52 268.733-70.3 266.582-141.21-1.864-61.81-356.817-78.58-363.278-181.26-6.461-102.954 591.85-106.918 562.064-197.307-30.27-90.827-675.052-35.891-656.18-141.306 16.364-92.247 575.613-62.289 532.618-119.227-42.995-56.938-336.224-60.58-345.334-120.808-10.122-66.251 317.521-21.232 271.842-76.543-45.682-55.312-173.995-98.276-171.568-142.335 2.434-43.753 131.932-45.389 129.166-103.954-2.766-58.564-279.194-49.288-279.194-122.496"/><path stroke="#292974" stroke-miterlimit="10" stroke-width=".4" d="M194.946 1771.52c2.989-158.08 335.477-109.22 317.804-221.05-17.767-113.57-241.361-126-243.086-202.96-2.076-92.43 252.147-70.69 250.049-141.36-1.815-61.8-334.126-79.65-340.413-181.55-6.291-102.265 570.389-106.873 539.145-196.906-31.971-90.688-648.438-36.277-630.064-141.03 15.933-92.096 551.795-62.586 508.8-119.524-42.995-56.938-324.079-60.507-332.665-120.735-9.57-66.091 304.388-21.559 258.706-76.87-45.682-55.311-162.055-96.679-159.76-142.431 2.306-45.292 121.124-44.525 118.358-103.09-2.766-58.564-264.544-49.802-264.544-123.01"/><path stroke="#292974" stroke-miterlimit="10" stroke-width=".4" d="M216.883 1771.7c3.985-158.18 315.566-110.97 298.275-221.57-17.424-112.92-224.285-125.79-226.033-202.56-2.109-92.34 235.561-71.08 233.52-141.5-1.766-61.81-311.434-80.73-317.551-181.84-6.121-101.584 549.236-106.88 516.227-196.515-33.361-90.593-621.826-36.664-603.949-140.752 15.502-91.945 527.978-62.883 484.983-119.821-42.995-56.938-311.939-60.433-320-120.661-9.023-65.931 291.251-21.886 245.569-77.197-45.682-55.312-150.114-95.084-147.948-142.529 2.181-46.835 110.312-43.659 107.546-102.226-2.766-58.565-249.894-50.317-249.894-123.525"/><path stroke="#292974" stroke-miterlimit="10" stroke-width=".4" d="M238.82 1771.87c4.986-158.27 295.66-112.71 278.745-222.09-17.076-112.27-207.212-125.57-208.982-202.16-2.14-92.24 218.975-71.46 216.99-141.64-1.717-61.81-288.741-81.8-294.689-182.13-5.951-100.895 527.839-106.844 493.309-196.114-34.995-90.466-595.213-37.049-577.831-140.475 15.069-91.791 504.162-63.18 461.167-120.118-42.995-56.938-299.791-60.362-307.331-120.588-8.476-65.771 278.114-22.212 232.432-77.524-45.682-55.311-138.174-93.487-136.136-142.625 2.053-48.374 99.5-42.795 96.734-101.36-2.766-58.565-235.244-50.83-235.244-124.038"/><path stroke="#292974" stroke-miterlimit="10" stroke-width=".4" d="M260.758 1772.05c5.981-158.37 275.748-114.46 259.211-222.61-16.729-111.63-190.135-125.36-191.928-201.76-2.174-92.15 202.386-71.85 200.461-141.8-1.668-61.81-266.046-82.87-271.824-182.41-5.781-100.21 506.438-106.815 470.391-195.717-36.633-90.341-568.6-37.435-551.716-140.198 14.638-91.641 480.345-63.477 437.35-120.415-42.995-56.938-287.647-60.29-294.666-120.516-7.925-65.613 264.978-22.539 219.296-77.85-45.682-55.311-126.234-91.89-124.328-142.721 1.928-49.917 88.692-41.929 85.925-100.496C496.164 66.99 278.336 74.209 278.336 1.004"/><path stroke="#292974" stroke-miterlimit="10" stroke-width=".4" d="M282.695 1772.22c6.978-158.45 255.842-116.2 239.682-223.12-16.382-110.98-173.063-125.15-174.878-201.36-2.204-92.05 185.8-72.24 183.928-141.94-1.619-61.81-243.354-83.95-248.962-182.7-5.612-99.527 485.032-106.79 447.472-195.324-38.274-90.215-541.987-37.821-525.602-139.922 14.209-91.488 456.526-63.774 413.535-120.712-42.995-56.938-275.507-60.216-281.998-120.44-7.374-65.453 251.841-22.863 206.163-78.177-45.678-55.313-114.294-90.293-112.516-142.819 1.8-51.457 77.88-41.066 75.114-99.631-2.767-58.567-205.941-51.863-205.941-125.071"/><path stroke="#292974" stroke-miterlimit="10" stroke-width=".4" d="M304.632 1772.4c7.974-158.55 235.931-117.95 220.152-223.65-16.034-110.33-155.986-124.93-157.824-200.96-2.234-91.95 169.214-72.62 167.399-142.09-1.57-61.81-220.663-85.02-226.101-182.98-5.442-98.843 463.624-106.762 424.554-194.928-39.923-90.089-515.374-38.207-499.483-139.645 13.778-91.337 432.709-64.071 389.718-121.009-42.995-56.938-263.359-60.144-269.333-120.367-6.827-65.293 238.705-23.19 193.027-78.504-45.682-55.311-102.354-88.698-100.708-142.915 1.675-52.999 67.068-40.202 64.302-98.767C507.568 68.02 319.04 74.21 319.04 1.002"/><path stroke="#292974" stroke-miterlimit="10" stroke-width=".4" d="M326.569 1772.57c8.97-158.64 216.024-119.69 200.623-224.16-15.687-109.69-138.913-124.72-140.774-200.56-2.268-91.86 152.628-73.01 150.869-142.24-1.52-61.81-197.966-86.09-203.234-183.27-5.272-98.154 442.207-106.729 401.635-194.527-41.572-89.964-488.761-38.594-473.368-139.367 13.348-91.186 408.892-64.365 365.901-121.306-42.995-56.938-251.215-60.072-256.664-120.294-6.276-65.133 225.572-23.516 179.89-78.83-45.682-55.311-90.413-87.101-88.896-143.013 1.547-54.54 56.256-39.337 53.49-97.904-2.766-58.565-176.645-52.89-176.645-126.097"/><path stroke="#292974" stroke-miterlimit="10" stroke-width=".4" d="M348.506 1772.75c9.967-158.74 196.114-121.44 181.094-224.68-15.341-109.04-121.837-124.5-123.721-200.16-2.298-91.77 136.039-73.39 134.341-142.38-1.472-61.81-175.275-87.17-180.373-183.57-5.103-97.46 420.787-106.693 378.716-194.123-43.229-89.838-461.804-38.959-447.253-139.091 13.231-91.017 385.076-64.662 342.085-121.602-42.995-56.938-239.071-60-244-120.221-5.728-64.976 212.436-23.844 166.754-79.157-45.682-55.314-78.473-85.505-77.088-143.11 1.419-56.081 45.448-38.472 42.682-97.037-2.766-58.565-161.991-53.404-161.991-126.611"/><path stroke="#292974" stroke-miterlimit="10" stroke-width=".4" d="M370.447 1772.92c10.963-158.83 176.207-123.18 161.565-225.2-14.994-108.39-104.765-124.29-106.671-199.75-2.328-91.68 119.453-73.78 117.807-142.54-1.423-61.81-152.583-88.24-157.511-183.85C380.704 924.805 785 914.917 741.435 827.854c-44.889-89.712-435.173-39.345-421.134-138.814 12.82-90.864 361.259-64.959 318.268-121.9-42.995-56.938-226.727-59.933-231.331-120.147-4.959-64.823 199.299-24.171 153.617-79.484-45.682-55.312-66.532-83.907-65.276-143.208 1.295-57.621 34.636-37.607 31.87-96.174C524.683 69.56 380.108 74.21 380.108 1.002"/><path stroke="#292974" stroke-miterlimit="10" stroke-width=".4" d="M392.384 1773.1c11.963-158.93 156.297-124.93 142.035-225.72-14.646-107.75-87.688-124.07-89.616-199.36-2.363-91.58 102.866-74.16 101.278-142.68-1.374-61.81-129.891-89.31-134.65-184.13-4.763-96.094 377.936-106.641 332.88-193.335-46.557-89.585-408.537-39.732-395.02-138.538 12.413-90.713 337.443-65.256 294.452-122.197-42.995-56.938-214.571-59.86-218.666-120.074-4.4-64.663 186.162-24.497 140.484-79.811-45.682-55.311-54.592-82.31-53.467-143.303 1.166-59.164 23.824-36.744 21.061-95.308C530.389 70.079 400.464 74.21 400.464 1.002"/><path stroke="#292974" stroke-miterlimit="10" stroke-width=".4" d="M414.318 1773.27c12.959-159.01 136.389-126.66 122.505-226.23-14.299-107.1-70.615-123.86-72.567-198.96-2.392-91.48 86.277-74.55 84.749-142.82-1.325-61.81-107.195-90.39-111.784-184.43-4.593-95.403 356.5-106.602 309.962-192.931-48.226-89.459-381.91-40.118-368.905-138.261 12.001-90.561 313.626-65.554 270.631-122.494-42.995-56.938-202.416-59.788-206.001-120.002-3.838-64.503 173.025-24.824 127.347-80.135-45.682-55.311-42.648-80.715-41.655-143.399 1.041-60.704 13.016-35.88 10.25-94.445-2.767-58.565-118.041-54.948-118.041-128.155"/><path stroke="#292974" stroke-miterlimit="10" stroke-width=".4" d="M436.259 1773.45c13.955-159.12 116.478-128.42 102.972-226.76-13.952-106.45-53.543-123.65-55.513-198.55-2.427-91.39 69.691-74.94 68.219-142.98-1.275-61.81-84.503-91.46-88.922-184.71-4.423-94.718 335.061-106.573 287.043-192.537-49.901-89.331-355.281-40.501-342.786-137.982 11.586-90.409 289.81-65.851 246.815-122.791-42.995-56.938-190.265-59.714-193.333-119.926-3.283-64.343 159.889-25.151 114.211-80.462-45.682-55.311-30.707-79.118-29.843-143.498.913-62.245 2.204-35.013-.563-93.58-2.766-58.565-103.391-55.462-103.391-128.67"/><path stroke="#292974" stroke-miterlimit="10" stroke-width=".4" d="M458.196 1773.62c14.951-159.2 96.571-130.15 83.442-227.27-13.604-105.81-36.466-123.43-38.462-198.16-2.457-91.29 53.105-75.32 51.686-143.12-1.227-61.81-61.812-92.53-66.061-184.99-4.249-94.037 313.623-106.546 264.125-192.144-51.58-89.203-328.653-40.89-316.671-137.706 11.17-90.256 265.993-66.148 222.998-123.088-42.995-56.938-178.113-59.641-180.668-119.853-2.724-64.183 146.756-25.477 101.074-80.788-45.682-55.312-18.767-77.522-18.035-143.594.789-63.785-8.608-34.15-11.374-92.715-2.766-58.567-88.741-55.976-88.741-129.184"/><path stroke="#292974" stroke-miterlimit="10" stroke-width=".4" d="M480.133 1773.8c15.948-159.3 76.333-131.89 63.913-227.79-13.616-105.15-19.393-123.22-21.409-197.76-2.487-91.2 36.52-75.71 35.157-143.27-1.177-61.81-39.119-93.61-43.195-185.28-4.079-93.351 292.172-106.513 241.207-191.745-53.264-89.076-302.029-41.277-290.557-137.43 10.752-90.106 242.177-66.445 199.182-123.385-42.995-56.938-165.961-59.568-167.999-119.78-2.17-64.021 133.619-25.804 87.937-81.115-45.682-55.311-6.827-75.924-6.223-143.692.661-65.325-19.416-33.284-22.182-91.851-2.766-58.565-74.091-56.49-74.091-129.698"/><path stroke="#292974" stroke-miterlimit="10" stroke-width=".4" d="M502.07 1773.97c16.944-159.39 56.418-133.63 44.384-228.3-13.28-104.5-2.317-123.01-4.359-197.36-2.521-91.11 19.929-76.1 18.628-143.42-1.129-61.81-16.424-94.68-20.334-185.57-3.909-92.659 270.722-106.475 218.289-191.344-54.955-88.945-275.409-41.662-264.442-137.153 10.332-89.954 218.36-66.741 175.365-123.682-42.995-56.938-153.813-59.494-155.334-119.706-1.615-63.861 120.483-26.131 74.804-81.442-45.682-55.312 5.114-74.33 5.586-143.788.532-66.868-30.229-32.421-32.995-90.985-2.766-58.565-59.441-57.005-59.441-130.212"/><path stroke="#292974" stroke-miterlimit="10" stroke-width=".4" d="M524.007 1774.15c17.945-159.49 36.504-135.38 24.855-228.83-12.945-103.85 14.755-122.79 12.695-196.95-2.551-91.02 3.343-76.49 2.098-143.57-1.079-61.81 6.268-95.75 2.528-185.86-3.739-91.971 249.264-106.438 195.371-190.944-56.645-88.815-248.789-42.048-238.324-136.877 9.91-89.801 194.544-67.038 151.549-123.979-42.995-56.938-141.662-59.421-142.669-119.633-1.061-63.701 107.346-26.458 61.668-81.769-45.682-55.311 17.053-72.732 17.397-143.886.407-68.41-41.04-31.557-43.807-90.122-2.766-58.564-44.787-57.52-44.787-130.728"/><path stroke="#292974" stroke-miterlimit="10" stroke-width=".4" d="M545.944 1774.32c18.941-159.58 16.59-137.12 5.325-229.34-12.604-103.21 31.832-122.58 29.745-196.56-2.585-90.92-13.242-76.87-14.434-143.71-1.031-61.81 28.96-96.83 25.394-186.15-3.57-91.283 227.806-106.403 172.451-190.545-58.343-88.685-222.171-42.435-212.209-136.601 9.488-89.651 170.728-67.335 127.733-124.276-42.995-56.938-129.517-59.348-130.001-119.56-.509-63.541 94.214-26.784 48.532-82.096-45.682-55.311 28.994-71.135 29.205-143.982.279-69.949-51.848-30.691-54.614-89.258C570.304 73.678 542.933 74.208 542.933 1"/><path stroke="#292974" stroke-miterlimit="10" stroke-width=".4" d="M567.882 1774.5c19.937-159.67-3.321-138.87-14.205-229.87-12.265-102.55 48.905-122.36 46.795-196.15-2.615-90.83-29.828-77.26-30.964-143.86-.981-61.81 51.652-97.9 48.256-186.43-3.4-90.602 206.341-106.372 149.533-190.153-60.041-88.552-195.558-42.821-186.094-136.324 9.061-89.5 146.907-67.633 103.916-124.571-42.995-56.938-117.369-59.273-117.332-119.487.038-63.381 81.077-27.111 35.395-82.422-45.682-55.311 40.934-69.541 41.017-144.08.155-71.492-62.66-29.828-65.426-88.393-2.766-58.567-15.488-58.548-15.488-131.756"/><path stroke="#292974" stroke-miterlimit="10" stroke-width=".4" d="M589.819 1774.67c20.933-159.76-23.232-140.6-33.734-230.38-11.922-101.91 65.981-122.15 63.849-195.75-2.646-90.73-46.418-77.64-47.494-144.01-.932-61.81 74.348-98.97 71.118-186.72-3.231-89.912 184.871-106.332 126.615-189.753-61.747-88.419-168.946-43.209-159.976-136.045 8.631-89.349 123.091-67.93 80.099-124.868-42.995-56.938-105.225-59.2-104.666-119.412.588-63.221 67.94-27.437 22.258-82.748-45.682-55.312 52.875-67.944 52.826-144.177.026-73.031-73.473-28.961-76.239-87.528-2.766-58.565-.838-59.063-.838-132.27"/><path stroke="#292974" stroke-miterlimit="10" stroke-width=".4" d="M611.756 1774.85c21.93-159.86-43.142-142.35-53.263-230.9-11.578-101.27 83.054-121.94 80.899-195.36-2.68-90.63-63.004-78.02-64.023-144.15-.883-61.81 97.04-100.05 93.979-187.01-3.06-89.226 163.402-106.293 103.697-189.355-63.457-88.284-142.337-43.595-133.861-135.768 8.201-89.199 99.274-68.227 56.283-125.165-42.995-56.938-93.085-59.127-92.002-119.339 1.136-63.061 54.803-27.764 9.121-83.075-45.682-55.312 64.816-66.347 64.638-144.273-.102-74.571-84.28-28.097-87.046-86.662-2.767-58.565 13.812-59.577 13.812-132.785"/><path stroke="#292974" stroke-miterlimit="10" stroke-width=".4" d="M633.693 1775.02c22.926-159.95-63.049-144.1-72.797-231.42-11.23-100.62 100.127-121.72 97.953-194.95-2.709-90.54-79.589-78.42-80.555-144.3-.834-61.81 119.731-101.12 116.844-187.3-2.89-88.54 141.926-106.253 80.779-188.956-65.174-88.15-115.728-43.981-107.746-135.492 7.766-89.048 75.457-68.524 32.462-125.462-42.995-56.938-80.941-59.054-79.333-119.266 1.679-62.899 41.667-28.088-4.011-83.402-45.682-55.311 76.755-64.75 76.449-144.37-.226-76.114-95.092-27.235-97.858-85.799-2.766-58.565 28.462-60.094 28.462-133.299"/><path stroke="#292974" stroke-miterlimit="10" stroke-width=".4" d="M655.63 1775.2c23.922-160.05-82.952-145.84-92.326-231.94-10.884-99.97 117.203-121.51 115.007-194.55-2.744-90.45-96.18-78.8-97.085-144.45-.785-61.81 142.423-102.2 139.706-187.58-2.721-87.858 120.445-106.219 57.86-188.565-66.891-88.013-89.122-44.37-81.631-135.216 7.332-88.897 51.641-68.821 8.646-125.759s-68.804-58.98-66.668-119.192c2.226-62.739 28.53-28.418-17.149-83.729-45.682-55.312 88.696-63.153 88.258-144.467-.354-77.654-105.904-26.368-108.67-84.935C598.812 76.252 644.69 74.21 644.69 1.002"/><path stroke="#292974" stroke-miterlimit="10" stroke-width=".4" d="M677.567 1775.37c24.923-160.14-102.855-147.58-111.855-232.45-10.533-99.33 134.276-121.29 132.057-194.16-2.774-90.35-112.766-79.18-113.615-144.59-.736-61.81 165.12-103.27 162.569-187.87-2.552-87.17 98.96-106.175 34.941-188.165-68.611-87.873-62.52-44.755-55.513-134.939 6.895-88.746 27.825-69.118-15.17-126.056s-56.664-58.907-54-119.119c2.767-62.579 15.397-28.742-30.285-84.056-45.681-55.311 100.637-61.558 100.071-144.565-.48-79.196-116.717-25.504-119.479-84.069-2.766-58.565 57.762-61.121 57.762-134.33"/><path stroke="#292974" stroke-miterlimit="10" stroke-width=".4" d="M699.505 1775.55c25.918-160.23-122.759-149.33-131.386-232.97-10.178-98.69 151.353-121.08 149.107-193.76-2.803-90.26-129.351-79.57-130.143-144.74-.687-61.81 187.811-104.34 185.434-188.16-2.382-86.478 77.472-106.127 12.023-187.763-70.34-87.734-35.919-45.144-29.398-134.66 6.453-88.596 4.008-69.415-38.987-126.353-42.995-56.938-44.528-58.835-41.335-119.045 3.31-62.419 2.261-29.068-43.421-84.382-45.682-55.311 112.576-59.961 111.878-144.661-.607-80.736-127.525-24.638-130.291-83.205-2.766-58.565 72.412-61.636 72.412-134.843"/><path stroke="#292974" stroke-miterlimit="10" stroke-width=".4" d="M721.442 1775.72c26.915-160.32-142.654-151.07-150.915-233.49-9.823-98.03 168.425-120.86 166.161-193.35-2.838-90.17-145.937-79.96-146.677-144.88-.638-61.82 210.503-105.42 208.296-188.45-2.212-85.799 55.984-106.088-10.895-187.372-72.069-87.592-9.322-45.53-3.283-134.384 6.011-88.444-19.809-69.712-62.804-126.65-42.995-56.938-32.391-58.761-28.666-118.971 3.849-62.259-10.876-29.395-56.558-84.709-45.682-55.311 124.517-58.364 123.69-144.759-.732-82.278-138.336-23.775-141.103-82.34-2.766-58.564 87.062-62.149 87.062-135.357"/><path stroke="#292974" stroke-miterlimit="10" stroke-width=".4" d="M743.379 1775.9c27.911-160.42-162.553-152.83-170.444-234.01-9.465-97.39 185.501-120.65 183.211-192.96-2.868-90.07-162.527-80.34-163.206-145.03-.589-61.81 233.199-106.49 231.157-188.73-2.042-85.113 34.489-106.043-33.813-186.976-73.805-87.45 17.272-45.918 22.835-134.107 5.566-88.294-43.625-70.009-86.62-126.947-42.995-56.938-20.254-58.688-16.001-118.898 4.389-62.099-24.013-29.722-69.691-85.036-45.682-55.311 136.461-56.766 135.498-144.855-.86-83.818-149.144-22.911-151.911-81.476-2.766-58.567 101.712-62.663 101.712-135.871"/><path stroke="#292974" stroke-miterlimit="10" stroke-width=".4" d="M765.316 1776.07c28.908-160.51-182.448-154.56-189.973-234.52-9.107-96.75 202.574-120.44 200.264-192.56-2.898-89.97-179.112-80.73-179.735-145.18-.539-61.81 255.891-107.56 254.019-189.02-1.872-84.424 12.993-105.992-56.732-186.575-75.54-87.304 43.867-46.305 48.951-133.831 5.117-88.143-67.442-70.306-110.437-127.244-42.995-56.938-8.122-58.615-3.333-118.825 4.925-61.939-37.149-30.049-82.827-85.36-45.682-55.311 148.401-55.172 147.311-144.953-.985-85.36-159.957-22.045-162.723-80.612-2.767-58.565 116.365-63.18 116.365-136.388"/><path stroke="#292974" stroke-miterlimit="10" stroke-width=".4" d="M787.253 1776.25c29.904-160.6-202.34-156.31-209.503-235.05-8.744-96.09 219.651-120.22 217.315-192.15-2.932-89.88-195.699-81.12-196.265-145.33-.49-61.81 278.583-108.64 276.885-189.3-1.702-83.742-8.506-105.945-79.65-186.181-77.28-87.158 70.457-46.691 75.065-133.554 4.668-87.993-91.259-70.601-134.254-127.541-42.995-56.938 4.008-58.542 9.333-118.752 5.461-61.78-50.282-30.376-95.964-85.687-45.682-55.311 160.341-53.575 159.119-145.049-1.113-86.9-170.769-21.182-173.535-79.747-2.766-58.564 131.015-63.694 131.015-136.901"/><path stroke="#292974" stroke-miterlimit="10" stroke-width=".4" d="M809.19 1776.42c30.9-160.7-222.232-158.05-229.032-235.56-8.378-95.46 236.723-120.01 234.369-191.76-2.963-89.78-212.285-81.5-212.798-145.47-.442-61.82 301.275-109.71 299.746-189.6-1.532-83.047-30.009-105.888-102.568-185.776-79.028-87.01 97.047-47.079 101.183-133.276 4.215-87.841-115.078-70.898-158.07-127.838-42.995-56.938 15.952-58.476 21.998-118.679 5.804-61.626-63.419-30.702-109.101-86.013-45.682-55.312 172.282-51.978 170.931-145.145-1.242-88.443-181.581-20.316-184.343-78.883C638.739 79.855 787.17 74.212 787.17 1.004"/><path stroke="#292974" stroke-miterlimit="10" stroke-width=".4" d="M831.127 1776.6c31.897-160.79-241.878-159.81-248.565-236.08-7.706-94.82 253.8-119.8 251.418-191.36-2.996-89.69-228.874-81.89-229.326-145.62-.393-61.82 323.966-110.79 322.607-189.88-1.362-82.369-51.516-105.842-125.486-185.385-80.775-86.862 123.63-47.466 127.298-133 3.759-87.691-138.895-71.195-181.886-128.135-42.995-56.938 28.096-58.405 34.666-118.605 6.355-61.469-76.556-31.03-122.238-86.341-45.682-55.311 184.223-50.381 182.743-145.243-1.366-89.982-192.389-19.452-195.155-78.017-2.766-58.565 160.315-64.722 160.315-137.93"/><path stroke="#292974" stroke-miterlimit="10" stroke-width=".4" d="M853.065 1776.78c32.896-160.89-261.786-161.56-268.096-236.6-7.359-94.17 270.873-119.58 268.473-190.96-3.027-89.6-245.46-82.27-245.856-145.77-.344-61.82 346.662-111.86 345.473-190.17-1.192-81.679-73.027-105.783-148.405-184.984-82.526-86.708 149.937-47.856 153.413-132.723 3.015-87.544-162.712-71.491-205.703-128.432-42.995-56.938 40.24-58.331 47.331-118.53 6.903-61.309-89.692-31.356-135.374-86.667s196.163-48.784 194.551-145.339c-1.494-91.525-203.2-18.589-205.967-77.154-2.766-58.567 174.966-65.236 174.966-138.443"/><path stroke="#292974" stroke-miterlimit="10" stroke-width=".4" d="M875.002 1776.95c33.892-160.98-281.696-163.3-287.625-237.12-7.012-93.52 287.946-119.36 285.523-190.55-3.057-89.51-262.046-82.67-262.386-145.92-.294-61.82 369.354-112.93 368.335-190.46-1.018-80.992-94.537-105.729-171.323-184.586-84.28-86.556 176.55-48.243 179.528-132.447 2.585-87.394-186.528-71.789-229.52-128.729-42.995-56.938 52.385-58.259 60-118.457 7.453-61.149-102.829-31.683-148.507-86.994-45.682-55.311 208.103-47.189 206.364-145.437-1.619-93.065-214.013-17.723-216.776-76.29C655.849 81.395 848.23 74.21 848.23 1.002"/><path stroke="#292974" stroke-miterlimit="10" stroke-width=".4" d="M896.939 1777.13c34.889-161.08-301.603-165.05-307.154-237.64-6.665-92.88 305.022-119.15 302.576-190.15-3.091-89.41-278.631-83.05-278.918-146.07-.246-61.81 392.047-114 391.197-190.74-.85-80.308-116.053-105.673-194.242-184.19-86.039-86.4 203.162-48.629 205.642-132.17 2.16-87.241-210.341-72.086-253.332-129.026-42.995-56.939 64.529-58.186 72.665-118.384 8-60.989-115.965-32.01-161.644-87.321-45.682-55.311 220.044-45.592 218.172-145.533-1.747-94.605-224.821-16.859-227.587-75.424-2.767-58.565 204.265-66.267 204.265-139.474"/><path stroke="#292974" stroke-miterlimit="10" stroke-width=".4" d="M918.88 1777.3c35.885-161.17-321.514-166.79-326.684-238.16-6.317-92.23 322.095-118.93 319.627-189.75-3.121-89.31-295.222-83.43-295.448-146.21-.196-61.82 414.745-115.08 414.055-191.03-.68-79.621-137.808-105.523-217.156-183.793-88.07-86.14 229.776-49.015 231.756-131.894 1.73-87.09-234.157-72.383-277.152-129.323-42.995-56.938 76.673-58.115 85.33-118.311 8.551-60.831-129.098-32.336-174.78-87.647-45.682-55.311 231.983-43.995 229.983-145.629-1.871-96.147-235.633-15.994-238.399-74.561-2.766-58.564 218.915-66.78 218.915-139.988"/><path stroke="#292974" stroke-miterlimit="10" stroke-width=".4" d="M940.817 1777.48c36.882-161.27-341.42-168.54-346.213-238.68-5.97-91.58 339.171-118.72 336.681-189.35-3.151-89.22-311.808-83.82-311.977-146.36-.148-61.82 437.432-116.15 436.922-191.32-.51-78.934-159.272-105.48-240.077-183.394-89.767-86.003 256.387-49.401 257.877-131.618 1.29-86.938-257.979-72.679-300.974-129.62-42.995-56.938 88.817-58.041 97.999-118.237 9.098-60.672-142.235-32.663-187.917-87.974-45.682-55.312 243.924-42.398 241.792-145.728-2-97.689-246.445-15.13-249.211-73.697C672.952 82.938 909.287 74.208 909.287 1"/><path stroke="#292974" stroke-miterlimit="10" stroke-width=".4" d="M962.754 1777.65c37.876-161.35-361.331-170.28-365.742-239.19-5.623-90.94 356.244-118.51 353.73-188.95-3.185-89.13-328.393-84.21-328.506-146.51-.098-61.82 460.124-117.23 459.784-191.61-.34-78.242-180.733-105.435-262.991-182.991-91.47-85.865 283.001-49.787 283.991-131.338.86-86.786-281.791-72.977-324.786-129.917-42.995-56.939 100.961-57.969 110.663-118.165 9.65-60.511-155.371-32.989-201.053-88.301-45.682-55.311 255.864-40.803 253.603-145.823-2.128-99.229-257.253-14.266-260.019-72.831-2.766-58.565 248.219-67.809 248.219-141.016"/><path stroke="#292974" stroke-miterlimit="10" stroke-width=".4" d="M984.691 1777.83c38.879-161.45-381.237-172.03-385.272-239.72-5.275-90.29 373.321-118.29 370.785-188.55-3.216-89.03-344.983-84.59-345.04-146.65-.049-61.82 482.816-118.3 482.646-191.9-.17-77.557-202.195-105.394-285.913-182.596-93.168-85.725 309.613-50.172 310.113-131.061.43-86.635-305.615-73.274-348.61-130.215-42.995-56.938 113.105-57.895 123.332-118.089 10.201-60.351-168.508-33.314-214.186-88.627-45.682-55.311 267.804-39.206 265.416-145.922-2.253-100.768-268.066-13.4-270.832-71.967-2.766-58.565 262.869-68.323 262.869-141.53"/><path stroke="#292974" stroke-miterlimit="10" stroke-width=".4" d="M1006.63 1778c39.87-161.54-401.15-173.77-404.803-240.23-4.929-89.65 390.393-118.08 387.834-188.15-3.249-88.94-361.568-84.98-361.568-146.8 0-61.82 505.517-119.38 505.517-192.18 0-76.879-223.659-105.361-308.834-182.206C729.91 742.846 1161 777.875 1161 697.649c0-86.482-329.427-73.571-372.422-130.509-42.995-56.938 125.249-57.825 135.997-118.016 10.747-60.194-181.645-33.641-227.323-88.954-45.682-55.311 279.745-37.609 277.224-146.018-2.382-102.311-278.877-12.536-281.644-71.101-2.766-58.567 277.515-68.84 277.515-142.047"/><path stroke="#293EFF" stroke-miterlimit="10" stroke-width=".4" d="M811.039 7.544c0 157.802-191.909 97.266-173.097 212.771 18.813 115.505 338.99 153.813 340.647 231.323 1.981 92.713-568.408-79.95-653.122 19.654-46.746 54.961 745.483 184.924 736.423 281.311-12.64 134.509-593.849 100.862-566.979 191.966 26.869 91.101 685.509 89.161 665.639 195.901-17.22 92.55-609.213 7.45-566.218 64.39 42.995 56.94 360.512 60.72 370.664 120.96 11.219 66.56-343.795 20.58-298.113 75.89 45.682 55.31 197.876 101.47 195.189 142.14-2.687 40.67-227.707 70.32-224.941 128.89 2.766 58.56 176.878 25.05 176.878 98.26"/><path stroke="#2E40F9" stroke-miterlimit="10" stroke-width=".4" d="M800.107 7.379c-.996 157.896-180.856 100.693-165.508 214.441 15.458 114.557 322.506 151.76 324.185 229.084 2.012 92.619-545.553-72.49-627.735 26.293-45.81 55.062 717.981 179.832 708.341 275.4-13.1 132.659-577.171 100.801-548.845 191.546 28.572 90.967 665.495 87.257 645.655 193.317-17.31 92.39-590.037 10.46-547.042 67.4 42.995 56.94 348.478 60.1 358.109 120.33 10.672 66.41-316.589 16.99-270.911 72.31 45.682 55.31 171.127 103.51 168.569 145.88-2.563 42.21-214.409 69.69-211.643 128.26 2.766 58.56 170.908 26.15 170.908 99.35"/><path stroke="#3442F2" stroke-miterlimit="10" stroke-width=".4" d="M789.174 7.217c-1.992 157.99-169.833 104.139-157.923 216.114 12.088 113.634 306.023 149.705 307.725 226.845 2.045 92.523-522.681-65.024-602.35 32.934-44.866 55.168 690.484 174.737 680.254 269.492-13.55 130.809-560.488 100.737-530.701 191.126 30.269 90.832 645.481 85.352 625.661 190.722-17.39 92.25-570.85 13.47-527.859 70.41 42.995 56.94 336.442 59.48 345.549 119.71 10.121 66.25-289.387 13.41-243.705 68.72 45.681 55.31 144.374 105.57 141.948 149.62-2.434 43.76-201.111 69.07-198.344 127.63 2.766 58.57 164.938 27.25 164.938 100.46"/><path stroke="#3944EC" stroke-miterlimit="10" stroke-width=".4" d="M778.241 7.052c-2.989 158.084-158.84 107.6-150.334 217.786 8.707 112.732 289.535 147.652 291.259 224.606 2.076 92.43-499.796-57.543-576.962 39.577C298.28 544.3 1005.18 658.663 994.371 752.602c-13.997 128.955-543.802 100.673-512.559 190.705 31.972 90.693 625.468 83.453 605.668 188.133-17.47 92.1-551.665 16.48-508.674 73.42 42.995 56.94 324.409 58.85 332.99 119.08 9.571 66.09-262.185 9.83-216.503 65.15 45.682 55.31 117.622 107.61 115.327 153.36-2.306 45.29-187.811 68.44-185.045 127 2.766 58.57 158.972 28.34 158.972 101.55"/><path stroke="#3E46E5" stroke-miterlimit="10" stroke-width=".4" d="M767.312 6.89c-3.989 158.177-147.88 111.08-142.744 219.459 5.302 111.852 273.05 145.597 274.797 222.364 2.11 92.336-476.889-50.056-551.576 46.216-42.972 55.394 635.076 164.529 624.082 257.673-14.997 127.082-527.423 100.65-494.418 190.285 33.361 90.593 605.447 81.543 585.677 185.553-17.56 91.94-532.481 19.48-489.486 76.42 42.995 56.94 312.37 58.23 320.43 118.46 9.024 65.93-234.98 6.25-189.298 61.56 45.682 55.31 90.874 109.66 88.707 157.11-2.181 46.83-174.508 67.8-171.742 126.37 2.766 58.57 153.002 29.43 153.002 102.64"/><path stroke="#4448DF" stroke-miterlimit="10" stroke-width=".4" d="M756.379 6.725c-4.985 158.269-128.445 114.651-135.155 221.129-6.989 110.92 256.566 143.543 258.336 220.126 2.14 92.239-453.97-42.561-526.189 52.857-42.018 55.515 607.477 159.429 595.997 251.763-15.571 125.224-510.808 100.597-476.277 189.864 34.994 90.466 585.439 79.636 565.689 182.966-17.65 91.78-513.305 22.49-470.31 79.43 42.995 56.94 300.335 57.6 307.875 117.83 8.472 65.77-207.778 2.67-162.096 57.98 45.682 55.31 64.12 111.7 62.082 160.84-2.052 48.38-161.209 67.18-158.443 125.75 2.766 58.56 147.031 30.53 147.031 103.73"/><path stroke="#494AD9" stroke-miterlimit="10" stroke-width=".4" d="M745.447 6.561c-5.982 158.363-116.083 118.318-127.566 222.801-12.084 109.922 240.082 141.49 241.875 217.887 2.173 92.146-431.03-35.053-500.804 59.499-41.059 55.638 579.887 154.33 567.913 245.852-16.14 123.367-494.184 100.545-458.137 189.444 36.633 90.336 565.422 77.736 545.702 180.376-17.734 91.63-494.125 25.5-451.13 82.44 42.995 56.94 288.3 56.98 295.316 117.21 7.925 65.61-180.573-.92-134.891 54.39 45.682 55.31 37.368 113.76 35.462 164.59-1.928 49.91-147.91 66.55-145.144 125.12 2.766 58.56 141.065 31.62 141.065 104.82"/><path stroke="#4E4CD2" stroke-miterlimit="10" stroke-width=".4" d="M734.514 6.4c-6.978 158.455-103.848 122.046-119.977 224.473-17.148 108.898 223.595 139.435 225.41 215.645 2.204 92.052-408.07-27.536-475.417 66.141-40.093 55.768 552.297 149.23 539.828 239.944-16.703 121.507-477.557 100.492-439.996 189.025 38.274 90.212 545.408 75.832 525.703 177.782-17.816 91.48-474.938 28.51-431.943 85.45 42.995 56.94 276.262 56.36 282.757 116.59 7.374 65.45-153.371-4.5-107.69 50.81 45.682 55.31 10.62 115.8 8.843 168.32-1.801 51.46-134.612 65.93-131.846 124.49 2.766 58.57 135.095 32.72 135.095 105.93"/><path stroke="#544ECC" stroke-miterlimit="10" stroke-width=".4" d="M723.581 6.235c-7.974 158.549-104.436 125.167-112.388 226.146-8.551 108.557 207.111 137.381 208.949 213.406 2.234 91.959-385.095-20.012-450.031 72.78-39.119 55.901 524.711 144.129 511.744 234.033-17.258 119.65-460.922 100.44-421.856 188.606 39.924 90.094 525.39 73.924 505.714 175.194-17.9 91.33-455.756 31.52-412.761 88.46 42.995 56.94 264.227 55.74 270.197 115.96 6.827 65.3-126.166-8.08-80.484 47.23 45.682 55.31-16.133 117.85-17.778 172.07-1.672 53-121.313 65.29-118.547 123.86 2.766 58.56 129.125 33.81 129.125 107.01"/><path stroke="#5950C6" stroke-miterlimit="10" stroke-width=".4" d="M712.649 6.072C703.678 164.716 618.96 134.8 607.85 233.89c-12.088 107.787 190.626 135.327 192.487 211.165 2.268 91.862-362.097-12.477-424.644 79.422-38.142 56.04 497.131 139.026 483.659 228.124-17.809 117.79-444.287 100.387-403.715 188.185 41.572 89.965 505.377 72.015 485.72 172.615-17.986 91.17-436.574 34.52-393.579 91.46 42.995 56.94 252.193 55.11 257.642 115.34 6.276 65.13-98.964-11.67-53.282 43.64 45.682 55.32-42.886 119.9-44.399 175.81-1.547 54.54-108.01 64.67-105.244 123.23 2.766 58.57 123.154 34.91 123.154 108.12"/><path stroke="#5F52BF" stroke-miterlimit="10" stroke-width=".4" d="M701.716 5.908c-9.967 158.737-82.99 132.302-97.214 229.488-15.661 107.038 174.143 133.274 176.026 208.926 2.298 91.769-339.081-4.935-399.258 86.064C344.117 586.57 850.823 664.313 836.845 752.6 818.489 868.532 409.2 852.934 451.271 940.364 494.5 1030.2 936.632 1010.48 917 1110.39c-18.069 91.01-417.391 37.53-374.396 94.47 42.995 56.94 240.154 54.49 245.083 114.71 5.728 64.98-71.759-15.25-26.081 40.06 45.682 55.32-69.634 121.95-71.019 179.55-1.419 56.08-94.712 64.04-91.945 122.61 2.766 58.56 117.188 36 117.188 109.2"/><path stroke="#6453B9" stroke-miterlimit="10" stroke-width=".4" d="M690.783 5.746c-10.966 158.83-72.348 135.887-89.624 231.161-19.277 106.306 157.658 131.219 159.56 206.686 2.329 91.676-316.045 2.616-373.871 92.704-36.161 56.332 441.977 128.825 427.49 216.305-18.892 114.073-410.998 100.282-367.433 187.345 44.889 89.713 465.344 68.213 445.736 167.433-18.153 90.86-398.205 40.54-355.214 97.48 42.995 56.94 227.915 53.87 232.523 114.09 4.959 64.82-44.557-18.83 1.125 36.48 45.682 55.31-96.387 123.99-97.64 183.29-1.294 57.62-81.412 63.41-78.646 121.97 2.766 58.57 111.218 37.1 111.218 110.31"/><path stroke="#6955B2" stroke-miterlimit="10" stroke-width=".4" d="M679.85 5.58c-11.963 158.925-61.758 139.487-82.035 232.834-22.937 105.592 141.171 129.166 143.099 204.448 2.363 91.579-292.987 10.176-348.485 99.345-35.156 56.486 414.406 123.723 399.405 210.395C772.41 864.815 397.49 852.831 442.542 939.526c46.557 89.584 445.332 66.304 425.746 164.844-18.239 90.71-379.023 43.55-336.031 100.49 42.995 56.94 215.869 53.25 219.964 113.46 4.4 64.67-17.352-22.41 28.326 32.9 45.682 55.32-123.14 126.04-124.264 187.03-1.166 59.16-68.114 62.78-65.348 121.35 2.767 58.56 105.248 38.19 105.248 111.4"/><path stroke="#6F57AC" stroke-miterlimit="10" stroke-width=".4" d="M668.918 5.419c-12.96 159.018-51.226 143.093-74.446 234.503-26.643 104.893 124.686 127.112 126.637 202.207 2.393 91.485-269.906 17.743-323.098 105.987-34.142 56.643 386.838 118.621 371.32 204.484-19.948 110.355-377.69 100.177-331.152 186.503 48.226 89.457 425.316 64.407 405.756 162.257-18.321 90.56-359.84 46.56-316.845 103.5 42.995 56.94 203.824 52.62 207.409 112.84 3.838 64.5 9.849-26 55.531 29.31 45.682 55.32-149.888 128.09-150.884 190.77-1.042 60.71-54.815 62.16-52.049 120.72 2.767 58.57 99.282 39.29 99.282 112.49"/><path stroke="#7459A6" stroke-miterlimit="10" stroke-width=".4" d="M657.985 5.255c-13.956 159.111-40.754 146.708-66.857 236.176-30.402 104.207 108.203 125.057 110.176 199.967 2.427 91.392-246.803 25.317-297.712 112.626-33.119 56.804 359.278 113.52 343.236 198.577-20.465 108.495-361.029 100.121-313.011 186.082 49.901 89.327 405.303 62.497 385.762 159.667-18.408 90.41-340.658 49.57-297.663 106.51 42.995 56.94 191.778 52 194.85 112.21 3.279 64.35 37.055-29.57 82.733 25.74 45.682 55.31-176.641 130.13-177.505 194.51-.913 62.24-41.516 61.52-38.749 120.09 2.766 58.56 93.311 40.38 93.311 113.58"/><path stroke="#795B9F" stroke-miterlimit="10" stroke-width=".4" d="M647.052 5.092c-14.951 159.205-30.345 150.329-59.267 237.848-34.217 103.533 91.718 123.006 93.715 197.726 2.456 91.299-223.682 32.901-272.326 119.269-32.085 56.97 331.722 108.415 315.151 192.665-20.975 106.636-344.364 100.067-294.871 185.662 51.581 89.208 385.288 60.594 365.773 157.078-18.491 90.25-321.476 52.58-278.481 109.52 42.995 56.94 179.736 51.37 182.291 111.59 2.724 64.18 64.256-33.16 109.938 22.15 45.682 55.31-203.393 132.18-204.125 198.25-.785 63.79-28.217 60.9-25.447 119.46 2.766 58.57 87.341 41.48 87.341 114.68"/><path stroke="#7F5D99" stroke-miterlimit="10" stroke-width=".4" d="M636.119 4.928c-15.948 159.296-19.997 153.955-51.678 239.52-38.089 102.866 75.234 120.952 77.25 195.487 2.487 91.203-200.537 40.493-246.94 125.91-31.039 57.139 304.169 103.314 287.067 186.757-21.477 104.776-327.695 100.012-276.73 185.245 53.263 89.073 365.271 58.688 345.779 154.493-18.579 90.1-302.294 55.58-259.299 112.52 42.995 56.94 167.693 50.76 169.731 110.97 2.17 64.02 91.462-36.74 137.141 18.57 45.681 55.31-230.143 134.22-230.746 201.99-.661 65.32-14.914 60.26-12.148 118.83s81.371 42.57 81.371 115.78"/><path stroke="#845F93" stroke-miterlimit="10" stroke-width=".4" d="M625.187 4.765c-16.945 159.391-9.714 157.583-44.09 241.191-42.021 102.208 58.747 118.898 60.789 193.248 2.521 91.109-177.365 48.089-221.553 132.552-29.983 57.315 276.62 98.211 258.982 180.846-21.972 102.918-311.019 99.955-258.589 184.824 54.95 88.944 345.258 56.783 325.789 151.904-18.662 89.95-283.111 58.59-240.116 115.53 42.995 56.94 155.65 50.13 157.171 110.34 1.615 63.86 118.664-40.32 164.346 14.99s-256.895 136.27-257.366 205.73c-.533 66.87-1.616 59.64 1.151 118.21 2.766 58.56 75.404 43.66 75.404 116.87"/><path stroke="#89618C" stroke-miterlimit="10" stroke-width=".4" d="M614.254 4.601c-17.944 159.484.502 161.212-36.504 242.864-46.021 101.549 42.263 116.843 44.327 191.008 2.551 91.013-154.175 55.691-196.166 139.191C397 635.158 674.99 670.774 656.808 752.6c-22.458 101.059-294.342 99.898-240.449 184.404 56.645 88.816 325.242 54.879 305.796 149.316-18.744 89.79-263.929 61.6-220.934 118.54 42.995 56.94 143.612 49.5 144.616 109.72 1.061 63.7 145.866-43.91 191.548 11.4 45.682 55.31-283.648 138.32-283.987 209.47-.408 68.41 11.684 59.01 14.45 117.58s69.434 44.76 69.434 117.96"/><path stroke="#8F6386" stroke-miterlimit="10" stroke-width=".4" d="M603.321 4.439c-18.941 159.577 10.657 164.835-28.915 244.536-50.09 100.894 25.779 114.789 27.862 188.767 2.585 90.919-130.955 63.301-170.776 145.833-27.828 57.674 221.545 88.008 202.812 169.027-22.937 99.201-277.658 99.841-222.307 183.983 58.343 88.685 305.225 52.975 285.805 146.725-18.831 89.64-244.743 64.61-201.751 121.55 42.995 56.94 131.573 48.88 132.057 109.09.509 63.54 173.07-47.48 218.752 7.83 45.682 55.31-310.396 140.36-310.611 213.21-.279 69.95 24.983 58.38 27.749 116.95 2.766 58.56 63.464 45.85 63.464 119.06"/><path stroke="#946580" stroke-miterlimit="10" stroke-width=".4" d="M592.389 4.274c-19.937 159.672 20.744 168.454-21.326 246.209-54.233 100.231 9.295 112.736 11.401 186.528 2.615 90.825-107.716 70.916-145.39 152.475-26.726 57.861 194.015 82.906 174.727 163.116-23.405 97.342-260.974 99.782-204.167 183.563 60.042 88.555 285.214 51.069 265.812 144.145-18.914 89.48-225.56 67.61-182.569 124.55 42.995 56.94 119.015 48.26 119.498 108.47.509 63.38 200.272-51.07 245.954 4.24 45.682 55.31-337.148 142.41-337.231 216.95-.155 71.49 38.281 57.76 41.047 116.32 2.767 58.57 57.498 46.95 57.498 120.16"/><path stroke="#996779" stroke-miterlimit="10" stroke-width=".4" d="M581.456 4.112c-20.933 159.765 30.772 172.066-13.737 247.879-58.448 99.562-7.192 110.682-5.06 184.289 2.645 90.732-84.451 78.536-120.004 159.114-25.612 58.048 166.49 77.805 146.643 157.209-23.869 95.483-244.282 99.722-186.026 183.142 61.747 88.415 265.197 49.166 245.822 141.555-19.001 89.33-206.378 70.62-163.387 127.56 42.995 56.94 107.501 47.63 106.938 107.84-.588 63.23 227.478-54.65 273.16.66 45.682 55.31-363.901 144.46-363.852 220.69-.026 73.04 51.584 57.13 54.351 115.7 2.766 58.56 51.527 48.04 51.527 121.25"/><path stroke="#9F6973" stroke-miterlimit="10" stroke-width=".4" d="M570.523 3.947c-21.93 159.859 40.734 175.67-6.148 249.551-62.743 98.882-23.677 108.628-21.522 182.049 2.68 90.635-61.162 86.162-94.617 165.755-24.48 58.243 138.975 72.703 118.555 151.298-24.323 93.627-227.588 99.663-167.886 182.722 63.457 88.288 245.185 47.26 225.829 138.968-19.084 89.17-187.196 73.63-144.205 130.57 42.995 56.94 95.466 47.01 94.383 107.22-1.136 63.06 254.683-58.24 300.361-2.93 45.682 55.32-390.65 146.51-390.472 224.44.102 74.57 64.883 56.5 67.649 115.06 2.766 58.57 45.558 49.14 45.558 122.35"/><path stroke="#A46B6C" stroke-miterlimit="10" stroke-width=".4" d="M559.59 3.783c-22.925 159.952 50.637 179.256 1.442 251.223-67.117 98.182-40.161 106.574-37.987 179.809 2.709 90.542-37.848 93.791-69.231 172.398-23.329 58.437 111.464 67.603 90.47 145.389-24.764 91.771-210.888 99.599-149.745 182.302 65.174 88.146 225.168 45.357 205.839 136.376-19.167 89.03-168.014 76.64-125.019 133.58 42.995 56.94 83.431 46.39 81.824 106.6-1.68 62.9 281.884-61.82 327.566-6.51 45.682 55.31-417.402 148.56-417.092 228.18.226 76.11 78.182 55.87 80.948 114.43 2.766 58.57 39.591 50.23 39.591 123.44"/><path stroke="#A96D66" stroke-miterlimit="10" stroke-width=".4" d="M548.657 3.621c-23.922 160.046 60.483 182.83 9.031 252.896-71.57 97.46-56.645 104.52-54.448 177.568 2.743 90.448-14.507 101.422-43.844 179.036-22.164 58.636 83.959 62.502 62.384 139.479-25.201 89.914-194.185 99.537-131.604 181.882 66.891 88.008 205.156 43.451 185.849 133.788-19.254 88.87-148.831 79.65-105.836 136.59 42.995 56.94 71.4 45.76 69.264 105.97-2.226 62.74 309.086-65.4 354.768-10.09 45.682 55.31-444.154 150.6-443.713 231.91.355 77.66 91.481 55.24 94.247 113.81 2.766 58.57 33.621 51.33 33.621 124.53"/><path stroke="#AF6F60" stroke-miterlimit="10" stroke-width=".4" d="M537.725 3.459c-24.922 160.139 70.272 186.384 16.62 254.565-76.107 96.714-73.129 102.466-70.91 175.329 2.774 90.353 8.857 109.058-18.458 185.679-20.975 58.834 56.468 57.402 34.3 133.568-25.624 88.059-177.482 99.473-113.463 181.463 68.612 87.877 185.139 41.546 165.855 131.197-19.337 88.72-129.649 82.66-86.654 139.6 42.995 56.94 59.369 45.14 56.705 105.35-2.766 62.58 336.292-68.99 381.974-13.67 45.682 55.31-470.904 152.64-470.338 235.65.48 79.2 104.78 54.61 107.546 113.18 2.767 58.56 27.651 52.42 27.651 125.62"/><path stroke="#B47159" stroke-miterlimit="10" stroke-width=".4" d="M526.792 3.294c-25.918 160.233 80.009 189.919 24.205 256.238-80.721 95.936-89.616 100.412-87.371 173.09 2.804 90.258 32.248 116.698 6.929 192.32-19.767 59.038 28.979 52.305 6.215 127.66-26.039 86.206-160.771 99.407-95.322 181.043 70.34 87.735 165.123 39.643 145.865 128.615-19.424 88.56-110.467 85.66-67.472 142.6 42.995 56.94 47.343 44.51 44.15 104.72-3.31 62.42 363.493-72.56 409.175-17.25 45.682 55.31-497.656 154.69-496.958 239.39.608 80.74 118.079 53.99 120.845 112.55 2.766 58.57 21.685 53.52 21.685 126.72"/><path stroke="#B97353" stroke-miterlimit="10" stroke-width=".4" d="M515.86 3.13c-26.915 160.326 89.699 193.43 31.794 257.91-85.42 95.121-106.101 98.358-103.837 170.848 2.838 90.165 55.664 124.338 32.316 198.96-18.537 59.244 1.501 47.208-21.87 121.75-26.447 84.352-144.057 99.338-77.182 180.622 72.069 87.59 145.111 37.737 125.872 126.03-19.507 88.41-91.285 88.67-48.29 145.61 42.995 56.94 35.312 43.89 31.591 104.1-3.849 62.26 390.699-76.15 436.381-20.84 45.682 55.31-524.409 156.74-523.579 243.14.732 82.28 131.378 53.35 134.144 111.92 2.766 58.56 15.714 54.61 15.714 127.81"/><path stroke="#BF754D" stroke-miterlimit="10" stroke-width=".4" d="M504.927 2.967c-27.911 160.418 99.345 196.917 39.383 259.583-90.198 94.264-122.584 96.304-120.297 168.609 2.868 90.072 79.102 131.978 57.701 205.602-17.284 59.449-25.967 42.11-49.954 115.841-26.839 82.499-127.343 99.269-59.041 180.202 73.804 87.446 125.094 35.834 105.882 123.436-19.59 88.26-72.099 91.68-29.108 148.62 42.995 56.94 23.289 43.27 19.032 103.48-4.389 62.09 417.9-79.74 463.582-24.42 45.682 55.31-551.157 158.79-550.199 246.87.861 83.82 144.681 52.73 147.447 111.3 2.766 58.56 9.744 55.7 9.744 128.91"/><path stroke="#C47746" stroke-miterlimit="10" stroke-width=".4" d="M493.994 2.803c-28.907 160.513 108.954 200.374 46.973 261.254-95.051 93.363-139.069 94.25-136.76 166.37 2.899 89.975 102.573 139.62 83.089 212.243-16.005 59.655-53.426 37.015-78.039 109.931-27.224 80.651-110.622 99.198-40.901 179.781 75.541 87.308 105.078 33.929 85.888 120.848-19.676 88.1-52.916 94.69-9.925 151.63 42.995 56.94 11.261 42.64 6.472 102.85-4.924 61.94 445.106-83.31 490.788-28 45.682 55.31-577.91 160.83-576.819 250.61.985 85.36 157.979 52.1 160.745 110.67 2.767 58.56 3.774 56.8 3.774 130"/><path stroke="#C97840" stroke-miterlimit="10" stroke-width=".4" d="M483.061 2.64c-29.903 160.606 118.524 203.804 54.562 262.926-99.979 92.411-155.553 92.196-153.22 164.129 2.932 89.882 126.064 147.261 108.474 218.885-14.703 59.863-80.873 31.923-106.123 104.02-27.598 78.803-93.9 99.128-22.757 179.361 77.281 87.159 85.066 32.023 65.899 118.259-19.76 87.95-33.734 97.7 9.257 154.64 42.995 56.94-.762 42.01-6.083 102.22-5.461 61.78 472.307-86.89 517.989-31.58 45.682 55.31-604.663 162.88-603.44 254.36 1.113 86.9 171.278 51.47 174.045 110.03 2.766 58.57-2.193 57.9-2.193 131.1"/><path stroke="#CF7A39" stroke-miterlimit="10" stroke-width=".4" d="M472.129 2.477c-30.9 160.699 128.072 207.2 62.151 264.598-104.98 91.403-172.041 90.142-169.682 161.89 2.962 89.788 149.582 154.903 133.861 225.524-13.371 60.068-108.309 26.83-134.208 98.111-27.964 76.957-77.175 99.055-4.62 178.941 79.028 87.009 65.05 30.12 45.909 115.679-19.847 87.79-14.552 100.7 28.439 157.64 42.995 56.94-12.597 41.4-18.642 101.6-5.805 61.63 499.512-90.48 545.191-35.16 45.682 55.31-631.412 164.93-630.061 258.09 1.242 88.45 184.577 50.85 187.344 109.41 2.766 58.57-8.163 58.99-8.163 132.2"/><path stroke="#D47C33" stroke-miterlimit="10" stroke-width=".4" d="M461.196 2.314C429.3 163.107 598.789 212.88 530.936 268.585c-110.044 90.338-188.524 88.09-186.147 159.65 2.993 89.693 173.124 162.542 159.247 232.167-12.012 60.276-135.732 21.741-162.292 92.2-28.315 75.111-60.445 98.98 13.521 178.521 80.775 86.857 45.037 28.214 25.915 113.087-19.929 87.64 4.63 103.71 47.625 160.65 42.995 56.94-24.631 40.78-31.201 100.98-6.356 61.47 526.714-94.06 572.396-38.75 45.68 55.31-658.164 166.98-656.684 261.84 1.366 89.98 197.875 50.21 200.642 108.78 2.766 58.56-14.133 60.08-14.133 133.29"/><path stroke="#DA7E2D" stroke-miterlimit="10" stroke-width=".4" d="M450.263 2.15c-32.896 160.886 147.1 213.897 77.329 267.94-115.169 89.21-205.008 86.036-202.608 157.409 3.027 89.599 196.691 170.177 184.634 238.808-10.627 60.48-163.146 16.654-190.378 86.293-28.654 73.269-43.716 98.902 31.663 178.1 82.525 86.71 25.02 26.311 5.924 110.5-20.012 87.49 23.813 106.72 66.808 163.66 42.995 56.94-36.67 40.15-43.761 100.35-6.902 61.31 553.92-97.64 599.598-42.33s-684.916 169.02-683.305 265.58c1.495 91.52 211.175 49.58 213.941 108.15 2.766 58.56-20.099 61.18-20.099 134.38"/><path stroke="#DF8026" stroke-miterlimit="10" stroke-width=".4" d="M439.334 1.987C405.442 162.968 595.925 219.182 524.249 271.6c-120.351 88.018-221.493 83.983-219.07 155.171 3.057 89.505 220.285 177.808 210.02 245.447-9.208 60.683-190.543 11.57-218.462 80.382-28.983 71.43-26.979 98.824 49.803 177.682 84.281 86.558 5.004 24.406-14.069 107.908-20.099 87.34 42.995 109.73 85.99 166.67 42.995 56.94-48.705 39.53-56.316 99.73-7.454 61.15 581.121-101.23 626.803-45.92 45.682 55.31-711.665 171.07-709.925 269.32 1.619 93.07 224.477 48.96 227.243 107.53 2.767 58.56-26.069 62.27-26.069 135.47"/><path stroke="#E48220" stroke-miterlimit="10" stroke-width=".4" d="M428.402 1.822c-34.889 161.075 166.081 220.455 92.503 271.286-125.577 86.756-237.98 81.928-235.534 152.931 3.09 89.411 243.901 185.437 235.406 252.09-7.759 60.883-217.926 6.488-246.547 74.473-29.3 69.593-10.242 98.744 67.944 177.262 86.039 86.396-15.009 22.5-34.059 105.326-20.182 87.18 62.178 112.73 105.173 169.67 42.995 56.94-60.74 38.91-68.876 99.11-8.004 60.99 608.327-104.81 654.005-49.5 45.683 55.31-738.418 173.12-736.546 273.06 1.747 94.61 237.776 48.33 240.543 106.9 2.766 58.56-32.04 63.36-32.04 136.57"/><path stroke="#EA841A" stroke-miterlimit="10" stroke-width=".4" d="M417.469 1.66c-35.886 161.168 175.569 223.681 100.092 272.958-130.841 85.425-254.464 79.875-251.996 150.691 3.121 89.315 267.544 193.058 260.793 258.73-6.279 61.081-245.294 1.412-274.631 68.563-29.602 67.761 6.74 98.571 86.084 176.841 88.069 86.137-35.025 20.597-54.052 102.737-20.269 87.02 81.359 115.74 124.354 172.68 42.995 56.94-72.778 38.29-81.435 98.48-8.551 60.83 635.529-108.39 681.212-53.08 45.68 55.31-765.168 175.17-763.168 276.81 1.876 96.14 251.076 47.69 253.842 106.26 2.766 58.57-38.01 64.46-38.01 137.67"/><path stroke="#EF8613" stroke-miterlimit="10" stroke-width=".4" d="M406.536 1.496C369.654 162.758 591.6 228.367 514.218 276.125c-136.137 84.021-270.949 77.82-268.458 148.451 3.151 89.221 291.21 200.675 286.179 265.372-4.762 61.275-272.646-3.662-302.716 62.652-29.896 65.931 23.424 98.507 104.225 176.421 89.768 85.999-55.041 18.692-74.042 100.149-20.352 86.87 100.542 118.75 143.537 175.69 42.995 56.94-84.812 37.66-93.994 97.85-9.099 60.67 662.734-111.97 708.411-56.66 45.68 55.31-791.918 177.22-789.786 280.55 2 97.68 264.374 47.07 267.141 105.63 2.766 58.57-43.977 65.56-43.977 138.76"/><path stroke="#F4880D" stroke-miterlimit="10" stroke-width=".4" d="M395.603 1.334c-37.877 161.353 194.574 230.023 115.272 276.301-141.454 82.547-287.433 75.766-284.919 146.212 3.185 89.127 314.898 208.283 311.565 272.012-3.211 61.461-299.984-8.73-330.801 56.743-30.175 64.106 40.109 98.443 122.366 176.001 91.47 85.867-75.053 16.788-94.035 97.557-20.436 86.72 119.727 121.76 162.719 178.7 42.995 56.94-96.848 37.04-106.55 97.23-9.65 60.51 689.935-115.55 735.62-60.24 45.68 55.31-818.674 179.26-816.414 284.28 2.129 99.23 277.674 46.44 280.44 105.01 2.766 58.57-49.947 66.65-49.947 139.86"/><path stroke="#FA8A06" stroke-miterlimit="10" stroke-width=".4" d="M384.67 1.17C345.796 162.616 588.766 234.31 507.531 279.143c-146.783 81.005-303.921 73.712-301.381 143.97 3.216 89.032 338.609 215.885 336.952 278.654-1.622 61.645-327.094-13.759-358.885 50.833-30.243 62.321 56.788 98.379 140.51 175.58 93.168 85.73-95.07 14.883-114.025 94.97-20.522 86.57 138.91 124.77 181.901 181.71 42.995 56.94-108.886 36.41-119.109 96.61-10.201 60.35 717.137-119.14 762.816-63.83 45.68 55.31-845.417 181.31-843.028 288.03 2.252 100.77 290.975 45.81 293.742 104.38 2.766 58.56-55.917 67.74-55.917 140.95"/><path stroke="#FF8C00" stroke-miterlimit="10" stroke-width=".4" d="M373.738 1.004C333.864 162.545 587.381 237.228 504.187 280.65c-152.114 79.392-320.404 71.658-317.845 141.731 3.249 88.938 362.338 223.475 362.338 285.296 0 61.82-354.598-18.852-386.97 44.925-30.696 60.47 73.472 98.314 158.647 175.159 94.866 85.589-115.082 12.978-134.015 92.379-20.605 86.42 158.092 127.78 201.084 184.72 42.995 56.94-120.921 35.79-131.669 95.98-10.747 60.2 744.343-122.72 790.023-67.41 45.68 55.31-872.171 183.36-869.65 291.77 2.381 102.31 304.275 45.18 307.041 103.75 2.766 58.57-61.883 68.84-61.883 142.05"/><path stroke="#FF7E00" stroke-miterlimit="10" stroke-width=".4" d="M647.475 1.386c-20.371 77.083-250.494 136.298-261.223 205.771-10.729 69.472 238.606 54.836 219.247 180.222-19.36 125.387-275.069.062-328.642 91.036-53.573 90.976 418.198 144.777 335.978 281.989-82.22 137.213-406.809 110.653-433.362 170.277-32.658 73.329 558.015 82.909 416.553 194.549-141.457 111.64-304.769 32.68-336.212 65.86-31.915 33.69 253.894 126.05 224.945 210.36-24.733 72.02-178.622 91.8-183.327 136.2-6.042 57.03 143.634 182.23 54.667 227.7"/><path stroke="#FF8200" stroke-miterlimit="10" stroke-width=".4" d="M649.924 1.674c-20.371 77.082-244.762 137.292-252.543 205.914-7.699 68.659 236.369 57.494 215.884 180.803-20.786 125.113-278.122 2.593-331.695 93.57-53.573 90.976 418.908 145.862 336.545 281.187-81.503 134.606-401.771 108.007-428.433 168.239-32.587 73.533 553.01 86.113 415.375 196.553-136.902 109.84-303.116 31.79-334.556 65.56-32.428 35.15 250.774 123.73 221.821 208.03-24.733 72.03-180.814 91.82-186.751 136.38-7.747 58.17 149.213 180.5 53.845 227.32"/><path stroke="#FF8600" stroke-miterlimit="10" stroke-width=".4" d="M652.369 1.961C631.998 79.044 413.34 140.248 408.51 208.02c-4.672 67.845 234.104 60.152 212.522 181.383-22.224 124.843-281.176 5.127-334.745 96.103-53.573 90.974 419.618 146.95 337.111 280.388-80.79 131.999-396.729 105.359-423.505 166.201-32.515 73.735 548.007 89.315 414.199 198.555-132.348 108.05-301.667 30.84-332.896 65.26-33.156 36.55 247.653 121.41 218.7 205.72-24.733 72.02-183.03 91.84-190.177 136.55-9.48 59.31 154.786 178.76 53.025 226.94"/><path stroke="#FF8900" stroke-miterlimit="10" stroke-width=".4" d="M654.819 2.249c-20.371 77.083-233.297 139.28-235.18 206.202-1.642 67.032 231.81 62.815 209.163 181.966-23.677 124.578-284.224 7.661-337.797 98.635-53.573 90.976 419.783 147.912 337.68 279.586-80.605 129.271-391.691 102.713-418.572 164.163-32.443 73.939 543.002 92.509 413.021 200.559-127.804 106.25-300.097 29.92-331.239 64.96-33.764 37.99 244.528 119.09 215.579 203.39-24.733 72.03-185.264 91.86-193.6 136.74-11.227 60.44 160.364 177.02 52.203 226.55"/><path stroke="#FF8D00" stroke-miterlimit="10" stroke-width=".4" d="M657.268 2.537c-20.371 77.082-227.561 140.274-226.5 206.346 1.385 66.221 229.485 65.476 205.8 182.546-25.148 124.315-287.277 10.195-340.846 101.169-53.573 90.976 420.323 148.956 338.246 278.784-80.05 126.625-386.653 100.065-413.643 162.125-32.376 74.153 537.994 95.693 411.843 202.563-123.264 104.43-298.52 29.01-329.582 64.66-34.364 39.43 241.407 116.77 212.458 201.07-24.733 72.03-187.52 91.88-197.023 136.91-12.997 61.6 165.938 175.29 51.38 226.18"/><path stroke="#FF9100" stroke-miterlimit="10" stroke-width=".4" d="M659.717 2.825c-20.371 77.082-221.828 141.268-217.82 206.492 4.415 65.408 227.13 68.141 202.438 183.127-26.639 124.057-290.327 12.726-343.9 103.702-53.573 90.976 420.871 150 338.813 277.984-79.492 123.98-381.615 97.417-408.711 160.085-32.304 74.355 532.986 98.875 410.666 204.575-118.736 102.6-296.927 28.09-327.922 64.35-34.953 40.88 238.286 114.45 209.337 198.75-24.733 72.03-189.796 91.91-200.446 137.09-14.789 62.74 171.516 173.55 50.558 225.8"/><path stroke="#FF9500" stroke-miterlimit="10" stroke-width=".4" d="M662.166 3.113C641.795 80.196 445.84 145.384 453.029 209.75c7.212 64.603 224.746 70.804 199.076 183.709-28.145 123.801-293.379 15.26-346.952 106.236-53.573 90.976 421.425 151.046 339.382 277.182-78.918 121.336-376.573 94.771-403.783 158.047-32.232 74.566 527.972 102.046 409.489 206.576-114.214 100.77-295.327 27.19-326.265 64.04-35.538 42.34 235.165 112.14 206.216 196.44-24.733 72.03-192.09 91.93-203.872 137.26-16.605 63.9 177.093 171.82 49.735 225.42"/><path stroke="#F90" stroke-miterlimit="10" stroke-width=".4" d="M664.616 3.401c-20.371 77.083-210.621 143.272-200.458 206.781 10.212 63.796 222.334 73.47 195.718 184.289-29.674 123.547-296.433 17.794-350.002 108.767-53.573 90.974 421.983 152.091 339.948 276.383-78.34 118.693-371.535 92.123-398.85 156.009-32.16 74.77 522.956 105.2 408.311 208.58-109.704 98.92-293.719 26.29-324.608 63.74-36.111 43.79 232.044 109.82 203.091 194.12-24.733 72.03-194.404 91.95-207.295 137.44-18.435 65.04 182.668 170.08 48.912 225.03"/><path stroke="#FF9C00" stroke-miterlimit="10" stroke-width=".4" d="M667.065 3.689C646.694 80.77 462.147 147.96 475.287 210.613c13.209 62.991 219.889 76.135 192.355 184.87-31.22 123.296-299.482 20.325-353.055 111.301-53.573 90.976 422.554 153.137 340.515 275.581-77.752 116.051-366.497 89.477-393.922 153.971-32.092 74.974 517.937 108.354 407.134 210.584-105.203 97.07-292.104 25.4-322.948 63.44-36.677 45.24 228.923 107.5 199.971 191.8-24.734 72.03-196.733 91.97-210.718 137.61-20.288 66.2 188.245 168.35 48.089 224.66"/><path stroke="#FFA000" stroke-miterlimit="10" stroke-width=".4" d="M669.514 3.976C649.143 81.06 470.306 149.25 486.416 211.047c16.213 62.186 217.417 78.801 188.996 185.453-32.79 123.047-302.535 22.858-356.108 113.834-53.573 90.974 423.127 154.184 341.085 274.779-77.156 113.41-361.459 86.83-388.993 151.933-32.021 75.184 512.91 111.494 405.956 212.594-100.715 95.2-290.481 24.5-321.291 63.13-37.236 46.7 225.799 105.18 196.85 189.49-24.734 72.03-199.076 91.99-214.145 137.78-22.16 67.35 193.819 166.61 47.271 224.28"/><path stroke="#FFA400" stroke-miterlimit="10" stroke-width=".4" d="M671.963 4.265C651.592 81.347 478.468 150.54 497.549 211.479c19.22 61.382 214.911 81.465 185.633 186.033-34.383 122.8-305.584 25.393-359.157 116.366-53.573 90.976 423.709 155.23 341.651 273.98-76.548 110.771-356.418 84.181-384.061 149.895-31.949 75.387 507.879 114.617 404.779 214.597-96.24 93.32-288.851 23.6-319.63 62.83-37.791 48.16 222.677 102.86 193.728 187.17-24.733 72.02-201.434 92.01-217.568 137.96-24.05 68.5 199.397 164.87 46.448 223.89"/><path stroke="#FFA800" stroke-miterlimit="10" stroke-width=".4" d="M674.412 4.552c-20.371 77.083-187.781 147.279-165.734 207.359 22.231 60.577 212.379 84.129 182.271 186.613-36.002 122.553-308.637 27.926-362.21 118.9C275.166 608.4 753.04 673.703 670.955 790.601c-75.929 108.133-351.379 81.536-379.132 147.857-31.877 75.592 502.838 117.742 403.598 216.602-91.783 91.43-287.217 22.71-317.974 62.53-38.334 49.62 219.557 100.54 190.608 184.85-24.734 72.03-203.808 92.03-220.991 138.13-25.96 69.65 204.975 163.14 45.626 223.52"/><path stroke="#FFAC00" stroke-miterlimit="10" stroke-width=".4" d="M676.858 4.84c-20.371 77.082-182.064 148.282-157.055 207.502 25.243 59.776 209.813 86.791 178.909 187.196-37.644 122.309-311.69 30.458-365.263 121.434-53.573 90.974 424.9 157.327 342.786 272.376-75.299 105.497-346.341 78.887-374.2 145.819-31.809 75.803 497.789 120.843 402.421 218.603-87.338 89.53-285.576 21.82-316.317 62.23-38.874 51.09 216.435 98.22 187.486 182.53-24.733 72.02-206.193 92.05-224.413 138.31-27.889 70.79 210.548 161.4 44.803 223.13"/><path stroke="#FFAF00" stroke-miterlimit="10" stroke-width=".4" d="M679.307 5.128c-20.371 77.083-176.339 149.285-148.371 207.647 28.258 58.971 207.216 89.454 175.55 187.776-39.316 122.062-314.74 32.991-368.313 123.967-53.573 90.976 425.512 158.379 343.353 271.576-74.661 102.864-341.304 76.242-369.271 143.781-31.738 76.005 492.727 123.935 401.242 220.615-82.914 87.61-283.926 20.93-314.656 61.92-39.402 52.55 213.315 95.9 184.366 180.21-24.734 72.03-208.59 92.07-227.84 138.49-29.836 71.94 216.126 159.66 43.98 222.75"/><path stroke="#FFB300" stroke-miterlimit="10" stroke-width=".4" d="M681.756 5.416c-20.371 77.082-170.614 150.288-139.691 207.792 31.281 58.17 204.589 92.114 172.187 188.359-41.014 121.815-317.792 35.525-371.365 126.499-53.573 90.974 426.134 159.432 343.918 270.774-74.008 100.232-336.265 73.594-364.342 141.743-31.666 76.207 487.651 127.017 400.065 222.617-78.51 85.68-282.277 20.04-313 61.61-39.927 54.03 210.194 93.59 181.241 177.9-24.733 72.02-210.997 92.08-231.262 138.66-31.799 73.08 221.703 157.93 43.157 222.37"/><path stroke="#FFB700" stroke-miterlimit="10" stroke-width=".4" d="M684.205 5.701C663.834 82.784 519.32 156.992 553.194 213.638c34.304 57.365 201.933 94.771 168.825 188.939-42.742 121.569-320.842 38.057-374.415 129.033-53.573 90.976 426.765 160.485 344.489 269.974-73.348 97.602-331.228 70.948-359.41 139.705-31.595 76.411 482.564 130.091 398.887 224.621-74.125 83.74-280.62 19.16-311.343 61.31-40.444 55.5 207.073 91.27 178.12 175.58-24.733 72.03-213.416 92.1-234.685 138.83-33.78 74.22 227.277 156.2 42.334 222"/><path stroke="#FB0" stroke-miterlimit="10" stroke-width=".4" d="M686.655 5.99c-20.371 77.082-159.153 152.293-122.332 208.08 37.33 56.561 199.246 97.426 165.466 189.519-44.504 121.32-323.895 40.591-377.468 131.567-53.573 90.976 427.411 161.54 345.055 269.172-72.672 94.977-326.185 68.3-354.481 137.667-31.527 76.625 477.454 133.135 397.71 226.625-69.766 81.79-278.96 18.27-309.683 61.01-40.957 56.97 203.952 88.95 175 173.25-24.734 72.03-215.847 92.12-238.113 139.02-35.772 75.36 232.856 154.46 41.512 221.61"/><path stroke="#FFBF00" stroke-miterlimit="10" stroke-width=".4" d="M689.104 6.278C668.733 83.36 535.691 159.572 575.452 214.502c40.365 55.757 196.529 100.081 162.104 190.102-46.297 121.066-326.948 43.124-380.521 134.098-53.573 90.974 428.067 162.601 345.621 268.373-71.982 92.351-321.148 65.652-349.549 135.629-31.455 76.826 472.326 136.176 396.533 228.626-65.434 79.82-277.292 17.39-308.026 60.71-41.463 58.44 200.827 86.63 171.878 170.94-24.734 72.03-218.285 92.12-241.535 139.19-37.787 76.49 238.433 152.72 40.693 221.23"/><path stroke="#FFC200" stroke-miterlimit="10" stroke-width=".4" d="M691.553 6.566c-20.371 77.082-147.673 154.297-104.969 208.37 43.399 54.953 193.782 102.729 158.742 190.683-48.128 120.81-329.997 45.658-383.57 136.632-53.573 90.976 428.735 163.66 346.19 267.57-71.283 89.729-316.109 63.007-344.62 133.591-31.383 77.038 467.171 139.198 395.355 230.638-61.132 77.83-275.624 16.5-306.369 60.4-41.961 59.92 197.706 84.32 168.757 168.62-24.733 72.03-220.73 92.13-244.958 139.36-39.813 77.62 244.007 150.99 39.871 220.86"/><path stroke="#FFC600" stroke-miterlimit="10" stroke-width=".4" d="M694.002 6.853c-20.371 77.083-141.929 155.296-96.289 208.515 46.437 54.146 191.004 105.374 155.379 191.262-49.999 120.55-333.05 48.19-386.623 139.166-53.573 90.974 429.418 164.725 346.757 266.769-70.567 87.112-311.072 60.358-339.688 131.553-31.312 77.242 461.986 142.202 394.178 232.642-56.86 75.83-273.952 15.62-304.709 60.1-42.455 61.39 194.585 81.99 165.636 166.3-24.733 72.03-223.186 92.14-248.38 139.54-41.856 78.75 249.584 149.25 39.047 220.47"/><path stroke="#FFCA00" stroke-miterlimit="10" stroke-width=".4" d="M696.451 7.14C676.08 84.224 560.27 163.436 608.842 215.8c49.479 53.338 188.196 108.018 152.021 191.845-51.909 120.283-336.103 50.724-389.676 141.7-53.573 90.976 430.12 165.794 347.326 265.969-69.838 84.496-306.03 57.71-334.76 129.515-31.243 77.442 456.767 145.202 393.001 234.642-52.626 73.82-272.276 14.74-303.052 59.8-42.946 62.87 191.464 79.68 162.516 163.98-24.734 72.03-225.648 92.14-251.808 139.72-43.912 79.86 255.159 147.51 38.225 220.09"/><path stroke="#FFCE00" stroke-miterlimit="10" stroke-width=".4" d="M698.9 7.429C678.529 84.51 568.466 164.722 619.975 216.23c52.524 52.529 185.358 110.655 148.658 192.426-53.86 120.01-339.153 53.257-392.726 144.231-53.573 90.976 430.834 166.868 347.893 265.167-69.095 81.887-300.992 55.064-329.831 127.477-31.172 77.648 451.51 148.168 391.823 236.648-48.425 71.79-270.597 13.86-301.391 59.49-43.429 64.36 188.343 77.36 159.39 161.67-24.733 72.03-228.119 92.14-255.23 139.89-45.984 80.99 260.736 145.78 37.402 219.71"/><path stroke="#FFD100" stroke-miterlimit="10" stroke-width=".4" d="M701.35 7.717c-20.371 77.082-124.683 158.289-70.246 208.948 55.573 51.718 182.49 113.285 145.295 193.006-55.856 119.73-342.205 55.789-395.778 146.765-53.573 90.976 431.565 167.944 348.459 264.365-68.337 79.281-295.954 52.417-324.899 125.439-31.1 77.86 446.204 151.13 390.642 238.65-44.27 69.74-268.914 12.98-299.735 59.19-43.904 65.83 185.223 75.04 156.27 159.35-24.734 72.02-230.595 92.14-258.653 140.06-48.067 82.1 266.314 144.05 36.579 219.33"/><path stroke="#FFD500" stroke-miterlimit="10" stroke-width=".4" d="M703.795 8.004c-20.371 77.083-118.928 159.281-61.566 209.093 58.622 50.904 179.592 115.912 141.937 193.588-57.902 119.44-345.259 58.323-398.828 149.299-53.573 90.976 432.32 169.03 349.025 263.565-67.559 76.681-290.916 49.771-319.97 123.401-31.029 78.07 440.849 154.07 389.465 240.66-40.165 67.68-267.232 12.09-298.079 58.88-44.38 67.31 182.098 72.73 153.149 157.03-24.733 72.03-233.078 92.14-262.076 140.25-50.165 83.21 271.888 142.3 35.757 218.95"/><path stroke="#FFD900" stroke-miterlimit="10" stroke-width=".4" d="M706.244 8.292c-20.371 77.083-113.169 160.275-52.886 209.237 61.672 50.091 176.667 118.53 138.574 194.169-59.999 119.137-348.307 60.856-401.88 151.832-53.573 90.974 433.09 170.12 349.594 262.764-66.77 74.085-285.873 47.122-315.037 121.363-30.961 78.273 435.429 156.993 388.287 242.663-36.104 65.61-265.541 11.21-296.418 58.58-44.848 68.8 178.977 70.41 150.028 154.71-24.733 72.03-235.565 92.14-265.503 140.42-52.274 84.32 277.466 140.57 34.938 218.57"/><path stroke="#FD0" stroke-miterlimit="10" stroke-width=".4" d="M708.694 8.58c-20.371 77.083-107.41 161.264-44.207 209.381C729.212 267.234 838.2 339.105 799.699 412.71c-62.151 118.825-351.36 63.39-404.933 154.364-53.573 90.976 433.882 171.219 350.16 261.964-65.962 71.494-280.835 44.475-310.109 119.325-30.889 78.477 429.939 159.907 387.11 244.667-32.1 63.53-263.85 10.34-294.761 58.28-45.308 70.28 175.856 68.09 146.907 152.39-24.734 72.03-238.06 92.13-268.926 140.6-54.395 85.41 283.04 138.83 34.115 218.19"/><path stroke="#FFE100" stroke-miterlimit="10" stroke-width=".4" d="M711.143 8.868c-20.371 77.083-101.652 162.253-35.523 209.527 67.781 48.455 170.731 123.748 131.853 195.332-64.358 118.495-354.414 65.923-407.983 156.897-53.573 90.976 434.702 172.325 350.731 261.162-65.136 68.91-275.798 41.829-305.181 117.287-30.817 78.687 424.365 162.807 385.933 246.677-28.157 61.44-262.159 9.45-293.105 57.97-45.768 71.76 172.735 65.77 143.786 150.07-24.733 72.03-240.558 92.12-272.348 140.77-56.532 86.52 288.617 137.1 33.292 217.81"/><path stroke="#FFE400" stroke-miterlimit="10" stroke-width=".4" d="M713.592 9.156c-20.371 77.083-95.892 163.238-26.843 209.671 70.838 47.634 167.719 126.343 128.491 195.912-66.627 118.15-357.463 68.455-411.036 159.431-53.573 90.976 435.543 173.442 351.296 260.36-64.294 66.335-270.759 39.181-300.248 115.249-30.745 78.891 418.697 165.701 384.755 248.681-24.273 59.34-260.465 8.57-291.444 57.67-46.221 73.24 169.614 63.45 140.665 147.75-24.733 72.03-243.063 92.11-275.775 140.95-58.675 87.6 294.195 135.36 32.47 217.43"/><path stroke="#FFE800" stroke-miterlimit="10" stroke-width=".4" d="M716.041 9.444c-20.371 77.082-90.129 164.223-18.163 209.815 73.895 46.812 164.685 128.932 125.128 196.492-68.962 117.787-360.516 70.989-414.089 161.963-53.573 90.976 436.411 174.57 351.863 259.56-63.434 63.765-265.718 36.535-295.32 113.211-30.677 79.095 412.923 168.585 383.578 250.685-20.462 57.25-258.766 7.7-289.787 57.37-46.671 74.72 166.493 61.13 137.544 145.43-24.734 72.03-245.569 92.1-279.198 141.13-60.83 88.69 299.769 133.62 31.647 217.04"/><path stroke="#FFEC00" stroke-miterlimit="10" stroke-width=".4" d="M718.491 9.732c-20.371 77.083-84.232 165.121-9.48 209.959 77.091 45.9 161.621 131.509 121.765 197.075-71.362 117.403-363.565 73.523-417.138 164.496-53.573 90.976 437.31 175.711 352.433 258.759-62.555 61.206-260.68 33.887-290.387 111.173-30.606 79.296 407.024 171.466 382.4 252.686-16.718 55.15-257.068 6.82-288.131 57.07-47.116 76.21 163.372 58.81 134.42 143.11-24.734 72.03-248.083 92.08-282.621 141.3-62.996 89.77 305.347 131.89 30.825 216.67"/><path stroke="#FFF000" stroke-miterlimit="10" stroke-width=".4" d="M720.939 10.02c-20.371 77.082-78.499 166.114-.8 210.102 80.118 45.087 158.534 134.076 118.407 197.655-73.842 116.995-366.618 76.055-420.191 167.031-53.573 90.976 438.241 176.869 352.999 257.956-61.661 58.657-255.642 31.24-285.459 109.136-30.534 79.51 400.986 174.35 381.223 254.69-13.054 53.06-255.366 5.95-286.47 56.76-47.558 77.7 160.247 56.5 131.298 140.8-24.733 72.03-250.596 92.06-286.043 141.47-65.174 90.86 310.924 130.16 30.001 216.29"/><path stroke="#FFF400" stroke-miterlimit="10" stroke-width=".4" d="M723.389 10.308c-20.371 77.083-72.767 167.108 7.88 210.249 83.148 44.276 155.424 136.63 115.044 198.235-76.397 116.559-369.667 78.588-423.24 169.565-53.573 90.976 439.203 178.04 353.564 257.156-60.743 56.116-250.603 28.594-280.53 107.098-30.462 79.709 394.794 177.249 380.046 256.699-9.465 50.98-253.506 5.1-284.814 56.46-47.75 79.24 157.127 54.17 128.178 138.48-24.734 72.03-253.117 92.04-289.47 141.65-67.359 91.92 316.498 128.41 29.183 215.9"/><path stroke="#FFF700" stroke-miterlimit="10" stroke-width=".4" d="M725.838 10.595c-20.371 77.083-67.03 168.102 16.559 210.393 86.175 43.463 152.292 139.17 111.683 198.818-79.035 116.092-372.721 81.122-426.294 172.096-53.573 90.976 440.204 179.236 354.134 256.355-59.811 53.588-245.565 25.945-275.597 105.059-30.394 79.914 388.427 180.174 378.868 258.704-5.955 48.93-251.849 4.21-283.153 56.15-48.259 80.71 154.005 51.86 125.057 136.17-24.734 72.02-255.638 92.01-292.893 141.82-69.555 93 322.075 126.68 28.36 215.53"/><path stroke="#FFFB00" stroke-miterlimit="10" stroke-width=".4" d="M728.284 10.88c-20.371 77.083-61.298 169.097 25.243 210.537 89.205 42.65 149.137 141.698 108.323 199.399-81.759 115.592-375.773 83.656-429.346 174.63-53.573 90.976 441.245 180.453 354.7 255.555-58.856 51.075-240.524 23.299-270.669 103.021-30.322 80.128 381.872 183.128 377.691 260.708-2.529 46.9-250.196 3.32-281.496 55.85-48.773 82.18 150.884 49.54 121.935 133.84-24.733 72.03-258.279 91.96-296.316 142-71.974 94 327.65 124.95 27.538 215.15"/><path stroke="#FF0" stroke-miterlimit="10" stroke-width=".4" d="M730.733 11.169c-20.371 77.082-55.566 170.09 33.922 210.68 92.232 41.836 145.96 144.211 104.961 199.979-84.582 115.053-378.822 86.188-432.395 177.164-53.573 90.976 442.328 181.698 355.266 254.753-57.886 48.573-235.485 20.652-265.736 100.983C496.5 1035.06 901.86 1140.87 903.26 1217.44c.823 44.92-248.543 2.43-279.839 55.55-49.283 83.64 147.763 47.22 118.814 131.52-24.733 72.03-260.691 91.96-299.738 142.18-73.971 95.12 333.227 123.21 26.714 214.77"/><path fill="#fff" d="M29.28 180.11c.23 0 .416-.285.416-.637 0-.352-.186-.637-.417-.637-.23 0-.417.285-.417.637 0 .352.187.637.417.637zM51.263 199.364c.23 0 .417-.285.417-.637 0-.351-.187-.636-.417-.636-.231 0-.418.285-.418.636 0 .352.187.637.418.637zM71.146 225.057c.23 0 .418-.285.418-.637 0-.351-.187-.636-.418-.636-.23 0-.417.285-.417.636 0 .352.187.637.417.637zM96.534 237.445c.23 0 .417-.285.417-.636 0-.352-.187-.637-.417-.637-.231 0-.418.285-.418.637 0 .351.187.636.418.636zM127.079 230.563c.231 0 .418-.285.418-.636 0-.352-.187-.637-.418-.637-.23 0-.417.285-.417.637 0 .351.187.636.417.636zM146.528 221.691c.23 0 .417-.285.417-.637 0-.352-.187-.637-.417-.637-.231 0-.418.285-.418.637 0 .352.187.637.418.637zM166.689 209.458c0 .352-.187.637-.417.637-.231 0-.418-.285-.418-.637 0-.351.187-.636.418-.636.23.001.417.285.417.636zM179.74 198.268c0 .351-.187.636-.417.636-.231 0-.418-.285-.418-.636 0-.352.187-.637.418-.637.23 0 .417.285.417.637zM200.001 180.536c.231 0 .418-.285.418-.637 0-.351-.187-.636-.418-.636-.23 0-.417.285-.417.636 0 .352.187.637.417.637zM225.419 159.303c.231 0 .418-.285.418-.637 0-.351-.187-.636-.418-.636-.23 0-.417.285-.417.636 0 .352.187.637.417.637zM243.932 146.65c.23 0 .417-.285.417-.637 0-.352-.187-.637-.417-.637-.231 0-.417.285-.417.637 0 .352.186.637.417.637zM261.084 140.603c.231 0 .418-.286.418-.637 0-.352-.187-.637-.418-.637-.23 0-.417.285-.417.637 0 .351.187.637.417.637zM272.322 140.742c.23 0 .417-.285.417-.637 0-.352-.187-.637-.417-.637-.231 0-.418.285-.418.637 0 .352.187.637.418.637zM284.857 141.22c.23 0 .417-.285.417-.636 0-.352-.187-.637-.417-.637-.231 0-.418.285-.418.637 0 .351.187.636.418.636zM302.117 147.058c.23 0 .417-.285.417-.637 0-.351-.187-.636-.417-.636-.231 0-.418.285-.418.636 0 .352.187.637.418.637zM319.491 160.489c.23 0 .417-.285.417-.637 0-.351-.187-.636-.417-.636-.23 0-.417.285-.417.636 0 .352.187.637.417.637zM339.031 177.373c.231 0 .417-.285.417-.637 0-.352-.186-.637-.417-.637-.23 0-.417.285-.417.637 0 .352.187.637.417.637zM356.135 192.021c.23 0 .417-.285.417-.636 0-.352-.187-.637-.417-.637-.231 0-.417.285-.417.637 0 .351.186.636.417.636zM374.751 208.162c.231 0 .418-.285.418-.637 0-.351-.187-.636-.418-.636-.23 0-.417.285-.417.636 0 .352.187.637.417.637zM392.52 222.104c.23 0 .417-.285.417-.636 0-.352-.187-.637-.417-.637-.23 0-.417.285-.417.637 0 .351.187.636.417.636zM409.61 229.327c.231 0 .417-.285.417-.637 0-.351-.186-.636-.417-.636-.23 0-.417.285-.417.636 0 .352.187.637.417.637zM431.397 230.259c.231 0 .418-.285.418-.637 0-.351-.187-.636-.418-.636-.23 0-.417.285-.417.636 0 .352.187.637.417.637zM459.14 230.294c.231 0 .418-.285.418-.636 0-.352-.187-.637-.418-.637-.23 0-.417.285-.417.637 0 .351.187.636.417.636zM479.059 230.98c.231 0 .418-.285.418-.636 0-.352-.187-.637-.418-.637-.23 0-.417.285-.417.637 0 .351.187.636.417.636zM503.638 224.869c.231 0 .418-.285.418-.637 0-.352-.187-.637-.418-.637-.23 0-.417.285-.417.637 0 .352.187.637.417.637zM531.896 213.844c.231 0 .418-.285.418-.636 0-.352-.187-.637-.418-.637-.23 0-.417.285-.417.637 0 .351.187.636.417.636zM559.169 190.294c.23 0 .417-.285.417-.636 0-.352-.187-.637-.417-.637-.231 0-.418.285-.418.637 0 .351.187.636.418.636zM594.471 157.69c.23 0 .417-.285.417-.637 0-.352-.187-.637-.417-.637-.231 0-.418.285-.418.637 0 .352.187.637.418.637zM621.27 125.606c.23 0 .417-.285.417-.637 0-.351-.187-.636-.417-.636-.231 0-.417.285-.417.636 0 .352.186.637.417.637zM629.136 115.258c.23 0 .417-.285.417-.637 0-.352-.187-.637-.417-.637-.23 0-.417.285-.417.637 0 .352.187.637.417.637zM650.386 95.762c0 .352-.187.637-.418.637-.23 0-.417-.285-.417-.637 0-.351.187-.636.417-.636.231 0 .418.285.418.636zM657.936 86.277c.231 0 .417-.285.417-.636 0-.352-.186-.637-.417-.637-.23 0-.417.285-.417.637 0 .351.187.636.417.636zM661.278 80.79c.23 0 .417-.285.417-.636 0-.352-.187-.637-.417-.637-.231 0-.418.285-.418.637 0 .351.187.636.418.636zM658.842 77.992c.23 0 .417-.285.417-.636 0-.352-.187-.637-.417-.637-.231 0-.418.285-.418.637 0 .351.187.636.418.636zM38.25 168.032c.23 0 .417-.285.417-.637 0-.351-.187-.636-.417-.636-.23 0-.417.285-.417.636 0 .352.186.637.417.637zM54.064 203.722c.23 0 .417-.285.417-.637 0-.351-.187-.636-.417-.636-.23 0-.417.285-.417.636 0 .352.186.637.417.637zM64.29 219.915c.23 0 .417-.285.417-.637 0-.351-.187-.636-.418-.636-.23 0-.417.285-.417.636 0 .352.187.637.417.637zM83.32 230.802c.231 0 .418-.285.418-.637 0-.352-.187-.637-.417-.637-.23 0-.418.285-.418.637 0 .352.187.637.418.637zM98.087 231.418c.23 0 .417-.285.417-.637 0-.351-.186-.636-.417-.636-.23 0-.417.285-.417.636 0 .352.187.637.417.637zM117.458 233.515c.231 0 .418-.285.418-.636 0-.352-.187-.637-.418-.637-.23 0-.417.285-.417.637 0 .351.187.636.417.636zM159.123 215.203c.231 0 .418-.285.418-.636 0-.352-.187-.637-.418-.637-.23 0-.417.285-.417.637 0 .351.187.636.417.636zM177.079 185.304c.231 0 .418-.285.418-.637 0-.351-.187-.636-.418-.636-.23 0-.417.285-.417.636 0 .352.187.637.417.637zM192.59 169.986c.231 0 .417-.285.417-.637 0-.351-.186-.636-.417-.636-.23 0-.417.285-.417.636 0 .352.187.637.417.637zM206.672 157.303c.231 0 .417-.285.417-.636 0-.352-.186-.637-.417-.637-.23 0-.417.285-.417.637 0 .351.187.636.417.636zM217.222 152.996c.231 0 .418-.285.418-.637 0-.351-.187-.636-.418-.636-.23 0-.417.285-.417.636 0 .352.187.637.417.637zM236.396 165.194c.231 0 .418-.285.418-.636 0-.352-.187-.637-.418-.637-.23 0-.417.285-.417.637 0 .351.187.636.417.636zM261.645 197.817c.23 0 .417-.285.417-.637 0-.352-.187-.637-.417-.637-.231 0-.417.285-.417.637 0 .352.186.637.417.637zM279.689 193.282c.231 0 .418-.285.418-.636 0-.352-.187-.637-.418-.637-.23 0-.417.285-.417.637 0 .351.187.636.417.636zM296.264 168.11c.23 0 .417-.285.417-.637 0-.351-.187-.636-.417-.636-.23 0-.417.285-.417.636 0 .352.187.637.417.637zM311.485 152.898c.231 0 .417-.285.417-.637 0-.351-.186-.636-.417-.636-.23 0-.417.285-.417.636 0 .352.187.637.417.637zM322.648 155.526c.23 0 .417-.285.417-.636 0-.352-.187-.637-.417-.637-.231 0-.418.285-.418.637 0 .351.187.636.418.636zM345.671 180.745c.23 0 .417-.285.417-.637 0-.351-.187-.636-.417-.636-.231 0-.418.285-.418.636 0 .352.187.637.418.637zM361.177 198.59c.23 0 .417-.285.417-.637 0-.351-.187-.636-.417-.636-.231 0-.417.285-.417.636 0 .352.186.637.417.637zM387.253 216.071c.231 0 .418-.285.418-.636 0-.352-.187-.637-.418-.637-.23 0-.417.285-.417.637 0 .351.187.636.417.636zM409.495 219.174c.23 0 .417-.285.417-.637 0-.351-.187-.636-.417-.636-.231 0-.417.285-.417.636 0 .352.186.637.417.637zM428.198 206.703c0 .351-.187.636-.417.636-.23 0-.417-.285-.417-.636 0-.352.187-.637.417-.637.23 0 .417.285.417.637zM444.939 202.827c0 .351-.187.636-.417.636-.23 0-.417-.285-.417-.636 0-.352.187-.637.417-.637.23 0 .417.285.417.637zM473.3 212.851c.231 0 .418-.285.418-.637 0-.351-.187-.636-.418-.636-.23 0-.417.285-.417.636 0 .352.187.637.417.637zM495.684 225.627c.231 0 .418-.285.418-.637 0-.351-.187-.636-.418-.636-.23 0-.417.285-.417.636 0 .352.187.637.417.637zM509.266 223.673c.231 0 .417-.285.417-.636 0-.352-.186-.637-.417-.637-.23 0-.417.285-.417.637 0 .351.187.636.417.636zM520.483 193.938c.23 0 .417-.285.417-.636 0-.352-.187-.637-.417-.637-.231 0-.418.285-.418.637 0 .351.187.636.418.636zM537.2 172.656c.23 0 .417-.285.417-.636 0-.352-.187-.637-.417-.637-.231 0-.418.285-.418.637 0 .351.187.636.418.636zM552.442 171.572c.231 0 .417-.285.417-.637 0-.351-.186-.636-.417-.636-.23 0-.417.285-.417.636 0 .352.187.637.417.637zM591.542 174.237c.23 0 .417-.285.417-.637 0-.352-.187-.637-.417-.637-.231 0-.418.285-.418.637 0 .352.187.637.418.637zM609.7 167.754c.231 0 .418-.285.418-.637 0-.351-.187-.636-.418-.636-.23 0-.417.285-.417.636 0 .352.187.637.417.637zM620.168 130.279c.23 0 .417-.285.417-.636 0-.352-.187-.637-.417-.637-.231 0-.418.285-.418.637 0 .351.187.636.418.636zM629.084 105.615c.231 0 .418-.285.418-.636 0-.352-.187-.637-.418-.637-.23 0-.417.285-.417.637 0 .351.187.636.417.636zM641.87 84.659c.231 0 .417-.285.417-.637 0-.351-.186-.636-.417-.636-.23 0-.417.285-.417.636 0 .352.187.637.417.637zM17.907 248.503c.23 0 .417-.285.417-.637 0-.351-.187-.636-.417-.636-.23 0-.417.285-.417.636 0 .352.187.637.417.637zM48.464 226.586c.23 0 .417-.285.417-.637 0-.351-.186-.637-.417-.637-.23 0-.417.286-.417.637 0 .352.187.637.417.637zM72.616 197.76c0 .351-.187.637-.417.637-.23 0-.417-.286-.417-.637 0-.351.187-.637.417-.637.23 0 .417.286.417.637zM87.23 170.836c.23 0 .417-.285.417-.637 0-.351-.187-.636-.417-.636-.23 0-.418.285-.418.636 0 .352.187.637.418.637zM107.02 156.809c.23 0 .417-.285.417-.636 0-.352-.187-.637-.417-.637-.231 0-.417.285-.417.637 0 .351.186.636.417.636zM124.946 131.653c.23 0 .417-.285.417-.636 0-.352-.187-.637-.417-.637-.231 0-.418.285-.418.637 0 .351.187.636.418.636zM138.557 116.826c.231 0 .418-.285.418-.637 0-.352-.187-.637-.418-.637-.23 0-.417.285-.417.637 0 .352.187.637.417.637zM151.725 112.739c.23 0 .417-.285.417-.636 0-.352-.187-.637-.417-.637-.231 0-.417.285-.417.637 0 .351.186.636.417.636zM179.836 116.051c.231 0 .417-.285.417-.636 0-.352-.186-.637-.417-.637-.23 0-.417.285-.417.637 0 .351.187.636.417.636zM198.987 125.124c.231 0 .417-.285.417-.636 0-.352-.186-.637-.417-.637-.23 0-.417.285-.417.637 0 .351.187.636.417.636zM222.319 152.826c.23 0 .417-.285.417-.636 0-.352-.187-.637-.417-.637-.231 0-.418.285-.418.637 0 .351.187.636.418.636zM245.906 188.128c.23 0 .417-.285.417-.636 0-.352-.187-.637-.417-.637-.231 0-.418.285-.418.637 0 .351.187.636.418.636zM258.73 220.721c.23 0 .417-.285.417-.637 0-.351-.187-.636-.417-.636-.231 0-.418.285-.418.636 0 .352.187.637.418.637zM269.9 245.919c.231 0 .417-.286.417-.637 0-.352-.186-.637-.417-.637-.23 0-.417.285-.417.637 0 .351.187.637.417.637zM281.209 263.357c.231 0 .418-.285.418-.637 0-.351-.187-.636-.418-.636-.23 0-.417.285-.417.636 0 .352.187.637.417.637zM299.465 276.921c.231 0 .417-.285.417-.636 0-.352-.186-.637-.417-.637-.23 0-.417.285-.417.637 0 .351.187.636.417.636zM308.379 282.482c.231 0 .417-.284.417-.636 0-.352-.186-.637-.417-.637-.23 0-.417.285-.417.637 0 .352.187.636.417.636zM313.535 279.765c.231 0 .418-.285.418-.636 0-.352-.187-.637-.418-.637-.23 0-.417.285-.417.637 0 .351.187.636.417.636zM318.333 279.311c.231 0 .418-.285.418-.636 0-.352-.187-.637-.418-.637-.23 0-.417.285-.417.637 0 .351.187.636.417.636zM335.728 280.947c.23 0 .417-.285.417-.636 0-.352-.187-.637-.417-.637-.231 0-.417.285-.417.637 0 .351.186.636.417.636zM342.879 275.329c.23 0 .417-.285.417-.636 0-.352-.187-.637-.417-.637-.231 0-.418.285-.418.637 0 .351.187.636.418.636zM362.45 245.871c.231 0 .417-.285.417-.637 0-.352-.186-.637-.417-.637-.23 0-.417.285-.417.637 0 .352.187.637.417.637zM376.628 221.609c.231 0 .418-.285.418-.637 0-.352-.187-.637-.418-.637-.23 0-.417.285-.417.637 0 .352.187.637.417.637zM395.582 183.429c.231 0 .417-.285.417-.637 0-.351-.186-.636-.417-.636-.23 0-.417.285-.417.636 0 .352.187.637.417.637zM422.184 146.5c0 .352-.187.637-.417.637-.231 0-.418-.285-.418-.637 0-.351.187-.636.418-.636.23 0 .417.285.417.636zM450.709 112.049c.23 0 .417-.285.417-.637 0-.351-.187-.636-.417-.636-.231 0-.418.285-.418.636 0 .352.187.637.418.637zM473.28 99.57c.231 0 .418-.284.418-.636 0-.352-.187-.636-.418-.636-.23 0-.417.284-.417.636 0 .352.187.637.417.637zM511.405 106.956c.23 0 .417-.285.417-.637 0-.351-.187-.636-.417-.636-.231 0-.417.285-.417.636 0 .352.186.637.417.637zM540.746 136.57c0 .352-.186.637-.417.637-.23 0-.417-.285-.417-.637 0-.351.187-.636.417-.636.231 0 .417.285.417.636zM572.248 195.717c.231 0 .418-.285.418-.637 0-.352-.187-.637-.418-.637-.23 0-.417.285-.417.637 0 .352.187.637.417.637zM609.039 233.161c.23 0 .417-.285.417-.636 0-.352-.187-.637-.417-.637-.231 0-.417.285-.417.637 0 .351.186.636.417.636zM644.442 239.821c.231 0 .418-.285.418-.637 0-.351-.187-.636-.418-.636-.23 0-.417.285-.417.636 0 .352.187.637.417.637zM23.616 222.389c.23 0 .417-.285.417-.637 0-.351-.187-.636-.417-.636-.23 0-.417.285-.417.636 0 .352.187.637.417.637zM61.852 187.235c.23 0 .418-.285.418-.637 0-.351-.187-.636-.418-.636-.23 0-.417.285-.417.636 0 .352.187.637.417.637zM105.718 151.686c.231 0 .417-.285.417-.637 0-.351-.186-.636-.417-.636-.23 0-.417.285-.417.636 0 .352.187.637.417.637zM127.056 136.044c.23 0 .417-.285.417-.636 0-.352-.187-.637-.417-.637-.231 0-.417.285-.417.637 0 .351.186.636.417.636zM141.2 126.987c0 .352-.187.637-.417.637-.231 0-.418-.285-.418-.637 0-.351.187-.636.418-.636.23 0 .417.285.417.636zM157.169 125.831c.231 0 .418-.285.418-.637 0-.351-.187-.636-.418-.636-.23 0-.417.285-.417.636 0 .352.187.637.417.637zM179.835 127.426c.231 0 .418-.285.418-.636 0-.352-.187-.637-.418-.637-.23 0-.417.285-.417.637 0 .351.187.636.417.636zM207.892 144.83c.23 0 .417-.285.417-.636 0-.352-.187-.637-.417-.637-.231 0-.417.285-.417.637 0 .351.186.636.417.636zM242.494 189.065c.231 0 .418-.285.418-.637 0-.352-.187-.637-.418-.637-.23 0-.417.285-.417.637 0 .352.187.637.417.637zM263.501 212.624c.231 0 .418-.285.418-.637 0-.351-.187-.636-.418-.636-.23 0-.417.285-.417.636 0 .352.187.637.417.637zM278.074 229.357c.23 0 .417-.285.417-.637 0-.352-.187-.637-.417-.637-.231 0-.418.285-.418.637 0 .352.187.637.418.637zM290.653 242.12c.23 0 .417-.285.417-.637 0-.351-.187-.636-.417-.636-.231 0-.418.285-.418.636 0 .352.187.637.418.637zM304.891 252.038c.23 0 .417-.285.417-.636 0-.352-.187-.637-.417-.637-.231 0-.417.285-.417.637 0 .351.186.636.417.636zM327.023 258.359c.23 0 .417-.285.417-.636 0-.352-.187-.637-.417-.637-.231 0-.418.285-.418.637 0 .351.187.636.418.636zM351.956 251.666c.231 0 .418-.285.418-.637 0-.351-.187-.636-.418-.636-.23 0-.417.285-.417.636 0 .352.187.637.417.637zM388.687 236.343c.231 0 .418-.285.418-.637 0-.351-.187-.636-.418-.636-.23 0-.417.285-.417.636 0 .352.187.637.417.637zM410.283 200.149c.23 0 .417-.285.417-.637 0-.351-.187-.636-.417-.636-.231 0-.418.285-.418.636 0 .352.187.637.418.637zM427.593 165.997c.231 0 .418-.285.418-.637 0-.352-.187-.637-.418-.637-.23 0-.417.285-.417.637 0 .352.187.637.417.637zM434.781 148.697c.231 0 .418-.285.418-.636 0-.352-.187-.637-.418-.637-.23 0-.417.285-.417.637 0 .351.187.636.417.636zM442.502 135.605c.231 0 .418-.285.418-.637 0-.352-.187-.637-.418-.637-.23 0-.417.285-.417.637 0 .352.187.637.417.637zM455.225 126.783c.231 0 .418-.285.418-.636 0-.352-.187-.637-.418-.637-.23 0-.417.285-.417.637 0 .351.187.636.417.636zM468.087 116.053c.23 0 .417-.285.417-.637 0-.351-.187-.636-.417-.636-.231 0-.418.285-.418.636 0 .352.187.637.418.637zM479.845 112.608c.23 0 .417-.285.417-.637 0-.351-.187-.636-.417-.636-.231 0-.418.285-.418.636 0 .352.187.637.418.637zM496.438 116.561c.23 0 .417-.285.417-.636 0-.352-.187-.637-.417-.637-.231 0-.418.285-.418.637 0 .351.187.636.418.636zM512.082 129.724c.231 0 .418-.285.418-.636 0-.352-.187-.637-.418-.637-.23 0-.417.285-.417.637 0 .351.187.636.417.636zM530.368 158.993c.231 0 .418-.285.418-.636 0-.352-.187-.637-.418-.637-.23 0-.417.285-.417.637 0 .351.187.636.417.636zM555.377 186.779c.23 0 .417-.285.417-.637 0-.351-.187-.636-.417-.636-.231 0-.418.285-.418.636 0 .352.187.637.418.637zM585.102 201.623c.23 0 .417-.285.417-.637 0-.352-.187-.637-.417-.637-.231 0-.417.285-.417.637 0 .352.186.637.417.637zM620.578 210.8c0 .352-.186.637-.417.637-.23 0-.417-.285-.417-.637 0-.351.187-.636.417-.636.231 0 .417.285.417.636zM636.756 217.079c.231 0 .418-.285.418-.637 0-.351-.187-.636-.418-.636-.23 0-.417.285-.417.636 0 .352.187.637.417.637zM644.184 217.063c.23 0 .417-.285.417-.637 0-.351-.187-.636-.417-.636-.231 0-.417.285-.417.636 0 .352.186.637.417.637zM655.01 85.163c.23 0 .417-.285.417-.637 0-.351-.187-.636-.417-.636-.231 0-.418.285-.418.636 0 .352.187.637.418.637zM636.445 95.506c.23 0 .417-.285.417-.636 0-.352-.187-.637-.417-.637-.231 0-.417.285-.417.637 0 .351.186.636.417.636zM603.983 123.212c.231 0 .417-.285.417-.636 0-.352-.186-.637-.417-.637-.23 0-.417.285-.417.637 0 .351.187.636.417.636zM592.348 138.54c.23 0 .417-.285.417-.636 0-.352-.187-.637-.417-.637-.231 0-.417.285-.417.637 0 .351.186.636.417.636zM570.186 163.275c.231 0 .418-.285.418-.637 0-.351-.187-.636-.418-.636-.23 0-.417.285-.417.636 0 .352.187.637.417.637zM553.187 182.681c.23 0 .417-.285.417-.636 0-.352-.187-.637-.417-.637-.231 0-.418.285-.418.637 0 .351.187.636.418.636zM532.363 195.905c.231 0 .417-.285.417-.637 0-.351-.186-.636-.417-.636-.23 0-.417.285-.417.636 0 .352.187.637.417.637zM510.488 206.056c.231 0 .417-.285.417-.636 0-.352-.186-.637-.417-.637-.23 0-.417.285-.417.637 0 .351.187.636.417.636zM479.705 217.802c.23 0 .417-.285.417-.636 0-.352-.187-.637-.417-.637-.231 0-.418.285-.418.637 0 .351.187.636.418.636zM443.778 222.814c0 .351-.187.636-.418.636-.23 0-.417-.285-.417-.636 0-.352.187-.637.417-.637.231 0 .418.285.418.637zM400.525 221.267c.23 0 .417-.285.417-.637 0-.351-.187-.636-.417-.636-.231 0-.417.285-.417.636 0 .352.186.637.417.637zM346.02 197.133c.23 0 .417-.285.417-.636 0-.352-.187-.637-.417-.637-.231 0-.417.285-.417.637 0 .351.186.636.417.636zM313.547 175.722c.23 0 .417-.285.417-.636 0-.352-.187-.637-.417-.637-.231 0-.418.285-.418.637 0 .351.187.636.418.636zM280.786 152.832c0 .351-.187.636-.418.636-.23 0-.417-.285-.417-.636 0-.352.187-.637.417-.637.231 0 .418.285.418.637zM251.677 141.653c.231 0 .417-.285.417-.636 0-.352-.186-.637-.417-.637-.23 0-.417.285-.417.637 0 .351.187.636.417.636zM215.642 141.186c.23 0 .417-.285.417-.636 0-.352-.187-.637-.417-.637-.231 0-.417.285-.417.637 0 .351.186.636.417.636zM184.448 161.388c.23 0 .417-.285.417-.637 0-.351-.187-.636-.417-.636-.231 0-.418.285-.418.636 0 .352.187.637.418.637zM158.613 195.999c.23 0 .417-.285.417-.636 0-.352-.187-.637-.417-.637-.231 0-.418.285-.418.637 0 .351.187.636.418.636zM121.897 221.329c0 .352-.187.637-.417.637-.231 0-.418-.285-.418-.637 0-.351.187-.636.418-.636.23 0 .417.285.417.636zM72.937 245.304c.23 0 .417-.285.417-.637 0-.351-.187-.636-.417-.636-.23 0-.418.285-.418.636 0 .352.187.637.418.637zM14.09 223.492c.23 0 .417-.285.417-.636 0-.352-.186-.637-.417-.637-.23 0-.417.285-.417.637 0 .351.187.636.417.636zM21.15 163.698c0 .352-.187.637-.418.637-.23 0-.417-.285-.417-.637 0-.351.187-.636.417-.636.23 0 .418.285.418.636zM35.07 177.884c.23 0 .417-.285.417-.637 0-.351-.187-.636-.417-.636-.23 0-.418.285-.418.636 0 .352.187.637.418.637zM47.012 204.498c.23 0 .417-.285.417-.636 0-.352-.187-.637-.417-.637-.23 0-.417.285-.417.637 0 .351.187.636.417.636zM67.54 213.131c.23 0 .417-.285.417-.636 0-.352-.187-.637-.418-.637-.23 0-.417.285-.417.637 0 .351.187.636.417.636zM77.684 217.37c.23 0 .417-.285.417-.637 0-.351-.187-.636-.417-.636-.23 0-.417.285-.417.636 0 .352.186.637.417.637zM89.389 221.092c.23 0 .417-.285.417-.636 0-.352-.187-.637-.417-.637-.23 0-.417.285-.417.637 0 .351.187.636.417.636zM99.36 220.861c0 .352-.186.637-.416.637-.23 0-.418-.285-.418-.637 0-.351.187-.636.418-.636.23 0 .417.285.417.636zM110.267 225.139c.23 0 .417-.285.417-.637 0-.351-.187-.636-.417-.636-.231 0-.417.285-.417.636 0 .352.186.637.417.637zM117.506 223.578c.231 0 .417-.285.417-.636 0-.352-.186-.637-.417-.637-.23 0-.417.285-.417.637 0 .351.187.636.417.636zM128.169 222.592c.231 0 .418-.285.418-.637 0-.352-.187-.637-.418-.637-.23 0-.417.285-.417.637 0 .352.187.637.417.637zM134.368 221.478c.231 0 .418-.285.418-.636 0-.352-.187-.637-.418-.637-.23 0-.417.285-.417.637 0 .351.187.636.417.636zM144.636 214.192c.23 0 .417-.285.417-.636 0-.352-.187-.637-.417-.637-.23 0-.417.285-.417.637 0 .351.187.636.417.636zM153.535 209.157c.231 0 .418-.285.418-.636 0-.352-.187-.637-.418-.637-.23 0-.417.285-.417.637 0 .351.187.636.417.636zM162.616 201.414c.23 0 .417-.285.417-.637 0-.351-.187-.636-.417-.636-.231 0-.418.285-.418.636 0 .352.187.637.418.637zM173.949 193.448c.23 0 .417-.285.417-.636 0-.352-.187-.637-.417-.637-.231 0-.418.285-.418.637 0 .351.187.636.418.636zM184.464 185.825c.231 0 .417-.285.417-.637 0-.351-.186-.636-.417-.636-.23 0-.417.285-.417.636 0 .352.187.637.417.637zM206.091 173.211c.231 0 .417-.284.417-.636 0-.352-.186-.637-.417-.637-.23 0-.417.285-.417.637 0 .352.187.636.417.636zM227.835 163.375c.23 0 .417-.285.417-.636 0-.352-.187-.637-.417-.637-.231 0-.418.285-.418.637 0 .351.187.636.418.636zM235.018 154.995c.23 0 .417-.285.417-.636 0-.352-.187-.637-.417-.637-.231 0-.417.285-.417.637 0 .351.186.636.417.636zM247.837 151.805c.23 0 .417-.285.417-.636 0-.352-.187-.637-.417-.637-.231 0-.418.285-.418.637 0 .351.187.636.418.636zM263.043 148.915c.231 0 .418-.285.418-.637 0-.351-.187-.636-.418-.636-.23 0-.417.285-.417.636 0 .352.187.637.417.637zM277.992 148.279c.23 0 .417-.285.417-.636 0-.352-.187-.637-.417-.637-.23 0-.417.285-.417.637 0 .351.187.636.417.636zM297.189 155.578c.231 0 .418-.285.418-.637 0-.351-.187-.636-.418-.636-.23 0-.417.285-.417.636 0 .352.187.637.417.637zM312.319 162.918c.23 0 .417-.285.417-.637 0-.351-.187-.636-.417-.636-.231 0-.418.285-.418.636 0 .352.187.637.418.637zM330.066 176.793c.231 0 .417-.285.417-.637 0-.352-.186-.637-.417-.637-.23 0-.417.285-.417.637 0 .352.187.637.417.637zM343.007 191.943c.23 0 .417-.285.417-.637 0-.351-.187-.636-.417-.636-.231 0-.418.285-.418.636 0 .352.187.637.418.637zM353.625 203.714c.231 0 .418-.285.418-.636 0-.352-.187-.637-.418-.637-.23 0-.417.285-.417.637 0 .351.187.636.417.636zM364.082 208.792c.23 0 .417-.285.417-.636 0-.352-.187-.637-.417-.637-.231 0-.418.285-.418.637 0 .351.187.636.418.636zM378 215.801c.23 0 .417-.286.417-.637 0-.352-.187-.637-.417-.637-.231 0-.417.285-.417.637 0 .351.186.637.417.637zM384.829 225.17c.231 0 .418-.285.418-.637 0-.352-.187-.637-.418-.637-.23 0-.417.285-.417.637 0 .352.187.637.417.637zM392.379 229.895c.231 0 .417-.285.417-.637 0-.351-.186-.636-.417-.636-.23 0-.417.285-.417.636 0 .352.187.637.417.637zM399.954 235.285c.23 0 .417-.285.417-.637 0-.352-.187-.637-.417-.637-.231 0-.417.285-.417.637 0 .352.186.637.417.637zM405.461 238.474c.231 0 .418-.285.418-.637 0-.351-.187-.636-.418-.636-.23 0-.417.285-.417.636 0 .352.187.637.417.637zM409.285 241.551c.231 0 .418-.285.418-.637 0-.351-.187-.636-.418-.636-.23 0-.417.285-.417.636 0 .352.187.637.417.637zM414.3 240.105c.23 0 .417-.285.417-.637 0-.351-.187-.636-.417-.636-.231 0-.417.285-.417.636 0 .352.186.637.417.637zM425.759 242.776c.231 0 .417-.285.417-.636 0-.352-.186-.637-.417-.637-.23 0-.417.285-.417.637 0 .351.187.636.417.636zM433.385 243.798c.231 0 .417-.285.417-.637 0-.352-.186-.637-.417-.637-.23 0-.417.285-.417.637 0 .352.187.637.417.637zM446.692 245.266c.231 0 .417-.285.417-.636 0-.352-.186-.637-.417-.637-.23 0-.417.285-.417.637 0 .351.187.636.417.636zM458.051 245.319c.231 0 .418-.285.418-.637 0-.351-.187-.636-.418-.636-.23 0-.417.285-.417.636 0 .352.187.637.417.637zM473.381 243.687c.23 0 .417-.285.417-.636 0-.352-.187-.637-.417-.637-.231 0-.417.285-.417.637 0 .351.186.636.417.636zM496.681 233.241c.23 0 .417-.285.417-.637 0-.351-.187-.636-.417-.636-.231 0-.417.285-.417.636 0 .352.186.637.417.637zM513.184 221.109c.231 0 .418-.285.418-.636 0-.352-.187-.637-.418-.637-.23 0-.417.285-.417.637 0 .351.187.636.417.636zM525.701 209.992c.23 0 .417-.285.417-.637 0-.352-.187-.637-.417-.637-.23 0-.417.285-.417.637 0 .352.187.637.417.637zM548.569 193.999c.231 0 .417-.285.417-.637 0-.351-.186-.636-.417-.636-.23 0-.417.285-.417.636 0 .352.187.637.417.637zM572.79 174.272c.23 0 .417-.285.417-.637 0-.351-.187-.636-.417-.636-.231 0-.417.285-.417.636 0 .352.186.637.417.637zM586.902 150.13c.23 0 .417-.285.417-.636 0-.352-.187-.637-.417-.637-.231 0-.418.285-.418.637 0 .351.187.636.418.636zM600.964 128.395c.231 0 .417-.285.417-.636 0-.352-.186-.637-.417-.637-.23 0-.417.285-.417.637 0 .351.187.636.417.636zM617.595 110.796c.23 0 .417-.285.417-.636 0-.352-.187-.637-.417-.637-.231 0-.418.285-.418.637 0 .351.187.636.418.636zM632.291 101.168c0 .351-.187.636-.417.636-.23 0-.417-.285-.417-.636 0-.352.187-.637.417-.637.23 0 .417.285.417.637zM645.047 90.769c.231 0 .417-.285.417-.637 0-.351-.186-.636-.417-.636-.23 0-.417.285-.417.636 0 .352.187.637.417.637zM662.023 68.876c.23 0 .417-.285.417-.636 0-.352-.187-.637-.417-.637-.231 0-.418.285-.418.637 0 .351.187.636.418.636zM666.946 296.423c.23 0 .417-.285.417-.637 0-.351-.187-.636-.417-.636-.231 0-.418.285-.418.636 0 .352.187.637.418.637zM643.755 273.682c.231 0 .417-.285.417-.636 0-.352-.186-.637-.417-.637-.23 0-.417.285-.417.637 0 .351.187.636.417.636zM637.107 269.935c.23 0 .417-.285.417-.637 0-.351-.187-.636-.417-.636-.23 0-.417.285-.417.636 0 .352.187.637.417.637zM629.026 264.48c.23 0 .417-.285.417-.637 0-.351-.187-.636-.417-.636-.231 0-.418.285-.418.636 0 .352.187.637.418.637zM615.746 250.655c.23 0 .417-.285.417-.637 0-.351-.187-.636-.417-.636-.231 0-.417.285-.417.636 0 .352.186.637.417.637zM599.463 234.527c.231 0 .417-.285.417-.637 0-.351-.186-.636-.417-.636-.23 0-.417.285-.417.636 0 .352.187.637.417.637zM591.807 217.767c.231 0 .418-.285.418-.637 0-.351-.187-.636-.418-.636-.23 0-.417.285-.417.636 0 .352.187.637.417.637zM584.317 206.018c.231 0 .417-.285.417-.636 0-.352-.186-.637-.417-.637-.23 0-.417.285-.417.637 0 .351.187.636.417.636zM574.661 186.487c.231 0 .417-.285.417-.636 0-.352-.186-.637-.417-.637-.23 0-.417.285-.417.637 0 .351.187.636.417.636zM561.487 166.602c.231 0 .417-.285.417-.636 0-.352-.186-.637-.417-.637-.23 0-.417.285-.417.637 0 .351.187.636.417.636zM550.653 153.111c.231 0 .417-.285.417-.637 0-.352-.186-.637-.417-.637-.23 0-.417.285-.417.637 0 .352.187.637.417.637zM542.367 141.589c0 .352-.187.637-.417.637-.23 0-.417-.285-.417-.637 0-.351.187-.636.417-.636.23 0 .417.285.417.636zM535.912 130.818c.231 0 .417-.285.417-.637 0-.351-.186-.636-.417-.636-.23 0-.417.285-.417.636 0 .352.187.637.417.637zM528.687 120.725c0 .352-.187.637-.417.637-.231 0-.417-.285-.417-.637 0-.351.186-.636.417-.636.23.001.417.285.417.636zM524.885 115.999c0 .351-.187.636-.417.636-.231 0-.417-.285-.417-.636 0-.352.186-.637.417-.637.23 0 .417.284.417.637zM520.55 114.576c.231 0 .418-.285.418-.636 0-.352-.187-.637-.418-.637-.23 0-.417.285-.417.637 0 .351.187.636.417.636zM514.589 111.245c.231 0 .417-.285.417-.636 0-.352-.186-.637-.417-.637-.23 0-.417.285-.417.637 0 .351.187.636.417.636zM476.305 109.409c.231 0 .418-.285.418-.637 0-.351-.187-.636-.418-.636-.23 0-.417.285-.417.636 0 .352.187.637.417.637zM458.555 113.742c.231 0 .418-.285.418-.636 0-.352-.187-.637-.418-.637-.23 0-.417.285-.417.637 0 .351.187.636.417.636zM444.822 124.259c0 .351-.187.637-.417.637-.23 0-.417-.286-.417-.637 0-.351.187-.637.417-.637.23 0 .417.286.417.637zM428.032 145.54c.231 0 .418-.285.418-.636 0-.352-.187-.637-.418-.637-.23 0-.417.285-.417.637 0 .351.187.636.417.636zM413.784 161.661c.231 0 .418-.285.418-.637 0-.351-.187-.636-.418-.636-.23 0-.417.285-.417.636 0 .352.187.637.417.637zM408.819 177.68c.23 0 .417-.285.417-.637 0-.351-.187-.636-.417-.636-.231 0-.417.285-.417.636 0 .352.186.637.417.637zM402.86 190.139c.231 0 .418-.285.418-.636 0-.352-.187-.637-.418-.637-.23 0-.417.285-.417.637 0 .351.187.636.417.636zM370.725 231.606c.231 0 .417-.285.417-.636 0-.352-.186-.637-.417-.637-.23 0-.417.285-.417.637 0 .351.187.636.417.636zM343.029 257.588c.23 0 .417-.285.417-.637 0-.351-.187-.636-.417-.636-.231 0-.418.285-.418.636 0 .352.187.637.418.637zM334.783 269.913c.231 0 .418-.285.418-.637 0-.351-.187-.636-.418-.636-.23 0-.417.285-.417.636 0 .352.187.637.417.637zM327.44 277.693c.23 0 .417-.285.417-.636 0-.352-.187-.637-.417-.637-.231 0-.418.285-.418.637 0 .351.187.636.418.636zM306.621 278.155c.231 0 .418-.285.418-.636 0-.352-.187-.637-.418-.637-.23 0-.417.285-.417.637 0 .351.187.636.417.636zM293.161 268.832c.231 0 .418-.285.418-.637 0-.351-.187-.636-.418-.636-.23 0-.417.285-.417.636 0 .352.187.637.417.637zM280.979 251.648c.23 0 .417-.285.417-.637 0-.351-.187-.636-.417-.636-.231 0-.417.285-.417.636 0 .352.186.637.417.637zM259.618 226.746c.23 0 .417-.285.417-.636 0-.352-.187-.637-.417-.637-.23 0-.417.285-.417.637 0 .351.187.636.417.636zM249.693 208.638c0 .352-.187.637-.417.637-.231 0-.418-.285-.418-.637 0-.351.187-.636.418-.636.231 0 .417.285.417.636zM236.757 190.07c.231 0 .417-.285.417-.637 0-.352-.186-.637-.417-.637-.23 0-.417.285-.417.637 0 .352.187.637.417.637zM215.497 164.502c.231 0 .418-.285.418-.636 0-.352-.187-.637-.418-.637-.23 0-.417.285-.417.637 0 .351.187.636.417.636zM202.541 140.994c.231 0 .418-.285.418-.636 0-.352-.187-.637-.418-.637-.23 0-.417.285-.417.637 0 .351.187.636.417.636zM195.408 129.926c.231 0 .418-.285.418-.637 0-.351-.187-.636-.418-.636-.23 0-.417.285-.417.636 0 .352.187.637.417.637zM183.998 119.896c.231 0 .418-.285.418-.636 0-.352-.187-.637-.418-.637-.23 0-.417.285-.417.637 0 .351.187.636.417.636zM161.732 114.36c.23 0 .417-.285.417-.636 0-.352-.187-.637-.417-.637-.231 0-.418.285-.418.637 0 .351.187.636.418.636zM148.536 115.19c.23 0 .417-.285.417-.637 0-.351-.187-.636-.417-.636-.231 0-.417.285-.417.636 0 .352.186.637.417.637zM135.283 119.287c.23 0 .417-.285.417-.637 0-.351-.187-.636-.417-.636-.231 0-.418.285-.418.636 0 .352.187.637.418.637zM121.026 127.8c.231 0 .417-.285.417-.637 0-.352-.186-.637-.417-.637-.23 0-.417.285-.417.637 0 .352.187.637.417.637zM110.991 136.68c.23 0 .417-.285.417-.637 0-.351-.187-.637-.417-.637-.231 0-.418.286-.418.637 0 .352.187.637.418.637zM103.796 145.453c.231 0 .417-.285.417-.637 0-.351-.186-.636-.417-.636-.23 0-.417.285-.417.636 0 .352.187.637.417.637zM88.989 161.854c.23 0 .417-.285.417-.637 0-.351-.187-.636-.417-.636-.23 0-.418.285-.418.636 0 .352.187.637.418.637zM70.192 182.278c.23 0 .417-.285.417-.636 0-.352-.187-.637-.417-.637-.23 0-.418.285-.418.637 0 .351.187.636.418.636zM31.294 214.525c.23 0 .417-.285.417-.637 0-.351-.187-.636-.417-.636-.23 0-.418.285-.418.636 0 .352.187.637.418.637zM8.196 226.554c.23 0 .417-.285.417-.637 0-.351-.186-.636-.417-.636-.23 0-.417.285-.417.636 0 .352.187.637.417.637zM1.417 231.604c.23 0 .418-.285.418-.636 0-.352-.187-.637-.418-.637-.23 0-.417.285-.417.637 0 .351.187.636.417.636zM52.643 122.377c.23 0 .417-.285.417-.637 0-.351-.187-.636-.417-.636-.23 0-.417.285-.417.636 0 .352.186.637.417.637zM70.762 268.254c.23 0 .417-.285.417-.636 0-.352-.186-.637-.417-.637-.23 0-.417.285-.417.637 0 .351.186.636.417.636zM82.103 300.938c.23 0 .418-.285.418-.636 0-.352-.187-.637-.418-.637-.23 0-.417.285-.417.637 0 .351.187.636.417.636zM105.226 223.328c.23 0 .417-.285.417-.637 0-.351-.187-.636-.417-.636-.231 0-.417.285-.417.636 0 .352.186.637.417.637zM128.137 110.982c.231 0 .418-.285.418-.636 0-.352-.187-.637-.418-.637-.23 0-.417.285-.417.637 0 .351.187.636.417.636zM139.277 83.344c.23 0 .417-.285.417-.636 0-.352-.187-.637-.417-.637-.231 0-.418.285-.418.637 0 .351.187.636.418.636zM158.505 147.965c.231 0 .417-.285.417-.637 0-.351-.186-.636-.417-.636-.23 0-.417.285-.417.636 0 .352.187.637.417.637zM190.04 265.377c.23 0 .417-.285.417-.636 0-.352-.187-.637-.417-.637-.231 0-.417.285-.417.637 0 .351.186.636.417.636zM207.328 296.563c.231 0 .418-.285.418-.637 0-.351-.187-.636-.418-.636-.23 0-.417.285-.417.636 0 .352.187.637.417.637zM232.326 184.312c.231 0 .418-.285.418-.636 0-.352-.187-.637-.418-.637-.23 0-.417.285-.417.637 0 .351.187.636.417.636zM253.27 36.913c.231 0 .418-.285.418-.636 0-.352-.187-.637-.418-.637-.23 0-.417.285-.417.637 0 .351.187.636.417.636zM290.237 154.896c.23 0 .417-.285.417-.637 0-.351-.187-.636-.417-.636-.231 0-.418.285-.418.636 0 .352.187.637.418.637zM317.256 285.789c.231 0 .417-.285.417-.636 0-.352-.186-.637-.417-.637-.23 0-.417.285-.417.637 0 .351.187.636.417.636zM322.522 309.831c.231 0 .418-.285.418-.637 0-.352-.187-.637-.418-.637-.23 0-.417.285-.417.637 0 .352.187.637.417.637zM349.305 148.385c.23 0 .417-.285.417-.636 0-.352-.187-.637-.417-.637-.23 0-.417.285-.417.637 0 .351.187.636.417.636zM360.934 90.7c.231 0 .418-.285.418-.636 0-.352-.187-.637-.418-.637-.23 0-.417.285-.417.637 0 .351.187.636.417.636zM381.561 247.676c.23 0 .417-.285.417-.637 0-.351-.187-.636-.417-.636-.231 0-.418.285-.418.636 0 .352.187.637.418.637zM394.169 316.722c.23 0 .417-.285.417-.637 0-.351-.187-.636-.417-.636-.23 0-.417.285-.417.636 0 .352.187.637.417.637zM417.051 165.505c.23 0 .417-.285.417-.637 0-.351-.187-.636-.417-.636-.231 0-.417.285-.417.636 0 .352.186.637.417.637zM425.529 127.585c.23 0 .417-.285.417-.637 0-.351-.187-.636-.417-.636-.231 0-.418.285-.418.636 0 .352.187.637.418.637zM465.078 284.521c.231 0 .417-.285.417-.637 0-.351-.186-.636-.417-.636-.23 0-.417.285-.417.636 0 .352.187.637.417.637zM484.357 223.422c0 .352-.187.637-.417.637-.23 0-.417-.285-.417-.637 0-.351.187-.636.417-.636.231 0 .417.285.417.636zM506.228 137.006c.231 0 .418-.285.418-.636 0-.352-.187-.637-.418-.637-.23 0-.417.285-.417.637 0 .351.187.636.417.636zM543.124 342.421c.23 0 .417-.285.417-.637 0-.351-.187-.636-.417-.636-.231 0-.418.285-.418.636 0 .352.187.637.418.637zM568.986 227.096c.23 0 .417-.285.417-.637 0-.351-.187-.636-.417-.636-.231 0-.417.285-.417.636 0 .352.186.637.417.637zM594.741 89.575c.231 0 .418-.285.418-.637 0-.352-.187-.637-.418-.637-.23 0-.417.285-.417.637 0 .352.187.636.417.636zM611.259 242.788c.231 0 .417-.285.417-.637 0-.352-.186-.637-.417-.637-.23 0-.417.285-.417.637 0 .352.187.637.417.637zM624.686 76.493c.231 0 .417-.285.417-.637 0-.351-.186-.636-.417-.636-.23 0-.417.285-.417.636 0 .352.187.637.417.637zM629.068 19.768c.231 0 .417-.285.417-.637 0-.351-.186-.636-.417-.636-.23 0-.417.285-.417.636 0 .352.187.637.417.637zM641.578 157.42c.231 0 .418-.285.418-.636 0-.352-.187-.637-.418-.637-.23 0-.417.285-.417.637 0 .351.187.636.417.636zM643.324 179.714c.231 0 .418-.285.418-.637 0-.351-.187-.636-.418-.636-.23 0-.417.285-.417.636 0 .352.187.637.417.637zM654.436 202.778c.231 0 .417-.285.417-.637 0-.351-.186-.636-.417-.636-.23 0-.417.285-.417.636 0 .352.187.637.417.637z"/></g></svg>