<svg width="80" height="80" viewBox="0 0 80 80" fill="none" xmlns="http://www.w3.org/2000/svg">
<rect x="7" y="10" width="65" height="50" rx="6" fill="#1285BB"/>
<rect x="11.25" y="14.875" width="57.5" height="41.25" rx="4" fill="url(#paint0_linear_1085_15246)"/>
<path fill-rule="evenodd" clip-rule="evenodd" d="M23.5 36C28.1944 36 32 32.1944 32 27.5C32 22.8056 28.1944 19 23.5 19C18.8056 19 15 22.8056 15 27.5C15 32.1944 18.8056 36 23.5 36ZM23.5 31.75C25.8472 31.75 27.75 29.8472 27.75 27.5C27.75 25.1528 25.8472 23.25 23.5 23.25C21.1528 23.25 19.25 25.1528 19.25 27.5C19.25 29.8472 21.1528 31.75 23.5 31.75Z" fill="url(#paint1_linear_1085_15246)"/>
<path d="M22 44L22 48" stroke="url(#paint2_linear_1085_15246)" stroke-width="3" stroke-linecap="round"/>
<path d="M30 38L30 48" stroke="url(#paint3_linear_1085_15246)" stroke-width="3" stroke-linecap="round"/>
<path d="M39 32L39 48" stroke="url(#paint4_linear_1085_15246)" stroke-width="3" stroke-linecap="round"/>
<path d="M48 25L48 48" stroke="url(#paint5_linear_1085_15246)" stroke-width="3" stroke-linecap="round"/>
<path d="M57 21L57 48" stroke="url(#paint6_linear_1085_15246)" stroke-width="3" stroke-linecap="round"/>
<path d="M59.3552 52.2448C59.7419 52.6802 59.7419 53.3198 59.3552 53.7552C57.1153 56.2772 49.2987 64.25 40 64.25C30.7013 64.25 22.8847 56.2772 20.6448 53.7552C20.2581 53.3198 20.2581 52.6802 20.6448 52.2448C22.8847 49.7228 30.7013 41.75 40 41.75C49.2987 41.75 57.1153 49.7228 59.3552 52.2448Z" fill="url(#paint7_linear_1085_15246)"/>
<circle cx="40" cy="53" r="7.5" fill="url(#paint8_linear_1085_15246)"/>
<path d="M40 58C42.7614 58 45 55.7614 45 53C45 52.7465 44.9468 52.4118 44.8815 52.0963C44.7886 51.6476 44.2414 51.4866 43.8437 51.7141C43.5682 51.8716 43.2631 52 43 52C41.8954 52 41 51.1046 41 50C41 49.7348 41.0516 49.4816 41.1454 49.2499C41.3321 48.7889 41.2349 48.1281 40.7429 48.0548C40.5005 48.0187 40.2524 48 40 48C37.2386 48 35 50.2386 35 53C35 55.7614 37.2386 58 40 58Z" fill="#90278E"/>
<circle cx="30" cy="66.75" r="1.25" fill="#00BFF2"/>
<circle cx="40" cy="69.875" r="1.25" fill="#90278E"/>
<circle cx="50" cy="66.75" r="1.25" fill="#1285BB"/>
<defs>
<linearGradient id="paint0_linear_1085_15246" x1="40" y1="12.6875" x2="40" y2="56.125" gradientUnits="userSpaceOnUse">
<stop stop-color="#F3F8FF"/>
<stop offset="0.619792" stop-color="#8FC2FF"/>
<stop offset="1" stop-color="#5CA6FF" stop-opacity="0.8"/>
</linearGradient>
<linearGradient id="paint1_linear_1085_15246" x1="27.6382" y1="27.5" x2="15" y2="27.5" gradientUnits="userSpaceOnUse">
<stop stop-color="#96C6FF"/>
<stop offset="1" stop-color="#F3F8FF"/>
</linearGradient>
<linearGradient id="paint2_linear_1085_15246" x1="21" y1="43.8621" x2="21" y2="48.1379" gradientUnits="userSpaceOnUse">
<stop stop-color="#F0F7FF"/>
<stop offset="1" stop-color="#A4CDFF"/>
</linearGradient>
<linearGradient id="paint3_linear_1085_15246" x1="-788850" y1="37.6897" x2="-788850" y2="48.3793" gradientUnits="userSpaceOnUse">
<stop stop-color="#F0F7FF"/>
<stop offset="1" stop-color="#A4CDFF"/>
</linearGradient>
<linearGradient id="paint4_linear_1085_15246" x1="-788841" y1="31.4828" x2="-788841" y2="48.5862" gradientUnits="userSpaceOnUse">
<stop stop-color="#F0F7FF"/>
<stop offset="1" stop-color="#A4CDFF"/>
</linearGradient>
<linearGradient id="paint5_linear_1085_15246" x1="-788832" y1="24.2414" x2="-788832" y2="48.8276" gradientUnits="userSpaceOnUse">
<stop stop-color="#F0F7FF"/>
<stop offset="1" stop-color="#A4CDFF"/>
</linearGradient>
<linearGradient id="paint6_linear_1085_15246" x1="-788823" y1="20.1034" x2="-788823" y2="48.9655" gradientUnits="userSpaceOnUse">
<stop stop-color="#F0F7FF"/>
<stop offset="1" stop-color="#A4CDFF"/>
</linearGradient>
<linearGradient id="paint7_linear_1085_15246" x1="40" y1="41.75" x2="40" y2="64.875" gradientUnits="userSpaceOnUse">
<stop stop-color="#BFDCFF"/>
<stop offset="0.395833" stop-color="#B3D5FF"/>
<stop offset="1" stop-color="#79B6FF"/>
</linearGradient>
<linearGradient id="paint8_linear_1085_15246" x1="47.5" y1="53" x2="32.5" y2="53" gradientUnits="userSpaceOnUse">
<stop stop-color="#EAF3FF"/>
<stop offset="0.505208" stop-color="#EAF3FF"/>
<stop offset="1" stop-color="#E3F0FF"/>
</linearGradient>
</defs>
</svg>
