<svg width="80" height="81" viewBox="0 0 80 81" fill="none" xmlns="http://www.w3.org/2000/svg">
<path d="M40 16.25C53.1168 16.25 63.75 26.8832 63.75 40C63.75 53.1168 53.1168 63.75 40 63.75C26.8832 63.75 16.25 53.1168 16.25 40C16.25 26.8832 26.8832 16.25 40 16.25Z" fill="url(#paint0_linear_1085_15279)"/>
<path d="M13.2813 8.30079C13.2813 7.86932 12.9297 7.51372 12.5028 7.57626C12.0652 7.64036 11.6362 7.75839 11.2258 7.92839C10.5742 8.19831 9.98207 8.59394 9.48332 9.0927C8.98457 9.59145 8.58894 10.1836 8.31901 10.8352C8.14902 11.2456 8.03098 11.6746 7.96688 12.1121C7.90434 12.539 8.25994 12.8906 8.69141 12.8906L12.5 12.8906C12.9315 12.8906 13.2813 12.5409 13.2813 12.1094V8.30079Z" fill="url(#paint1_linear_1085_15279)"/>
<path d="M10.8399 5.85938C10.8399 5.42791 10.4883 5.07231 10.0613 5.13485C9.62379 5.19895 9.19483 5.31699 8.78442 5.48698C8.13277 5.75691 7.54067 6.15254 7.04191 6.65129C6.54316 7.15004 6.14753 7.74215 5.87761 8.3938C5.70761 8.8042 5.58957 9.23316 5.52548 9.67072C5.46294 10.0976 5.81853 10.4492 6.25001 10.4492L10.0586 10.4492C10.4901 10.4492 10.8399 10.0994 10.8399 9.66798V5.85938Z" fill="url(#paint2_linear_1085_15279)"/>
<path d="M23.0105 57.1846L57.387 22.8081" stroke="#1285BB" stroke-width="4" stroke-linecap="round" stroke-linejoin="round"/>
<path d="M31.3755 58.2548H21.0626L21.0626 47.9419" stroke="#1285BB" stroke-width="4" stroke-linecap="round" stroke-linejoin="round"/>
<path d="M48.4371 21.1204L58.75 21.1204V31.4333" stroke="#1285BB" stroke-width="4" stroke-linecap="round" stroke-linejoin="round"/>
<circle cx="70.625" cy="9.375" r="8.625" stroke="url(#paint3_linear_1085_15279)" stroke-width="1.5" stroke-linejoin="round" stroke-dasharray="3 6 9 12"/>
<circle cx="70.625" cy="9.375" r="5.625" fill="url(#paint4_linear_1085_15279)"/>
<circle cx="9.375" cy="70.625" r="8.625" stroke="url(#paint5_linear_1085_15279)" stroke-width="1.5" stroke-linejoin="round" stroke-dasharray="3 6 9 12"/>
<circle cx="9.375" cy="70.625" r="5.625" fill="url(#paint6_linear_1085_15279)"/>
<path d="M79.375 77.5407C80.2083 77.0596 80.2083 75.8568 79.375 75.3757L74.6875 72.6693C73.8542 72.1882 72.8125 72.7896 72.8125 73.7519L72.8125 79.1645C72.8125 80.1268 73.8542 80.7282 74.6875 80.2471L79.375 77.5407Z" fill="url(#paint7_linear_1085_15279)"/>
<defs>
<linearGradient id="paint0_linear_1085_15279" x1="40" y1="16.25" x2="40" y2="63.75" gradientUnits="userSpaceOnUse">
<stop stop-color="#F3F8FF"/>
<stop offset="0.505208" stop-color="#B9D9FF"/>
<stop offset="1" stop-color="#96C6FF"/>
</linearGradient>
<linearGradient id="paint1_linear_1085_15279" x1="13.7695" y1="13.6231" x2="6.44533" y2="5.89194" gradientUnits="userSpaceOnUse">
<stop stop-color="#F3F8FF"/>
<stop offset="1" stop-color="#BFDCFF"/>
</linearGradient>
<linearGradient id="paint2_linear_1085_15279" x1="11.3281" y1="11.1817" x2="4.00392" y2="3.45054" gradientUnits="userSpaceOnUse">
<stop stop-color="#F3F8FF"/>
<stop offset="1" stop-color="#BFDCFF"/>
</linearGradient>
<linearGradient id="paint3_linear_1085_15279" x1="80" y1="9.375" x2="61.25" y2="9.375" gradientUnits="userSpaceOnUse">
<stop stop-color="#F3F8FF"/>
<stop offset="0.505208" stop-color="#B9D9FF"/>
<stop offset="1" stop-color="#96C6FF"/>
</linearGradient>
<linearGradient id="paint4_linear_1085_15279" x1="70.625" y1="15" x2="70.625" y2="3.75" gradientUnits="userSpaceOnUse">
<stop stop-color="#F3F8FF"/>
<stop offset="0.505208" stop-color="#B9D9FF"/>
<stop offset="1" stop-color="#96C6FF"/>
</linearGradient>
<linearGradient id="paint5_linear_1085_15279" x1="18.75" y1="70.625" x2="0" y2="70.625" gradientUnits="userSpaceOnUse">
<stop stop-color="#F3F8FF"/>
<stop offset="0.505208" stop-color="#B9D9FF"/>
<stop offset="1" stop-color="#96C6FF"/>
</linearGradient>
<linearGradient id="paint6_linear_1085_15279" x1="9.375" y1="76.25" x2="9.375" y2="65" gradientUnits="userSpaceOnUse">
<stop stop-color="#F3F8FF"/>
<stop offset="0.505208" stop-color="#B9D9FF"/>
<stop offset="1" stop-color="#96C6FF"/>
</linearGradient>
<linearGradient id="paint7_linear_1085_15279" x1="78.75" y1="80.2082" x2="63.75" y2="73.3332" gradientUnits="userSpaceOnUse">
<stop stop-color="#F2F8FF"/>
<stop offset="1" stop-color="#8EC2FF"/>
</linearGradient>
</defs>
</svg>
