<svg width="80" height="81" viewBox="0 0 80 81" fill="none" xmlns="http://www.w3.org/2000/svg">
<rect x="17" y="12" width="47" height="54" rx="8" fill="#1285BB"/>
<path d="M46.875 55.9375C46.875 56.4553 46.4553 56.875 45.9375 56.875L32.4375 56.875C31.9197 56.875 31.5 56.4553 31.5 55.9375C31.5 55.4197 31.9197 55 32.4375 55L45.9375 55C46.4553 55 46.875 55.4197 46.875 55.9375Z" fill="white"/>
<path d="M27.9375 56.875C28.4553 56.875 28.875 56.4553 28.875 55.9375C28.875 55.4197 28.4553 55 27.9375 55L23.4375 55C22.9197 55 22.5 55.4197 22.5 55.9375C22.5 56.4553 22.9197 56.875 23.4375 56.875L27.9375 56.875Z" fill="white"/>
<path d="M51.5625 21.25C52.0803 21.25 52.5 20.8303 52.5 20.3125C52.5 19.7947 52.0803 19.375 51.5625 19.375L36.9375 19.375C36.4197 19.375 36 19.7947 36 20.3125C36 20.8303 36.4197 21.25 36.9375 21.25L51.5625 21.25Z" fill="white"/>
<path d="M32.4375 21.25C32.9553 21.25 33.375 20.8303 33.375 20.3125C33.375 19.7947 32.9553 19.375 32.4375 19.375L30.1875 19.375C29.6697 19.375 29.25 19.7947 29.25 20.3125C29.25 20.8303 29.6697 21.25 30.1875 21.25L32.4375 21.25Z" fill="white"/>
<path d="M51.375 44.6875C51.375 45.2053 50.9553 45.625 50.4375 45.625L39.1875 45.625C38.6697 45.625 38.25 45.2053 38.25 44.6875C38.25 44.1697 38.6697 43.75 39.1875 43.75L50.4375 43.75C50.9553 43.75 51.375 44.1697 51.375 44.6875Z" fill="white"/>
<path d="M34.6875 45.625C35.2053 45.625 35.625 45.2053 35.625 44.6875C35.625 44.1697 35.2053 43.75 34.6875 43.75L30.1875 43.75C29.6697 43.75 29.25 44.1697 29.25 44.6875C29.25 45.2053 29.6697 45.625 30.1875 45.625L34.6875 45.625Z" fill="white"/>
<path d="M46.875 32.5C46.875 33.0178 46.4553 33.4375 45.9375 33.4375L32.4375 33.4375C31.9197 33.4375 31.5 33.0178 31.5 32.5C31.5 31.9822 31.9197 31.5625 32.4375 31.5625L45.9375 31.5625C46.4553 31.5625 46.875 31.9822 46.875 32.5Z" fill="white"/>
<path d="M27.9375 33.4375C28.4553 33.4375 28.875 33.0178 28.875 32.5C28.875 31.9822 28.4553 31.5625 27.9375 31.5625L23.4375 31.5625C22.9197 31.5625 22.5 31.9822 22.5 32.5C22.5 33.0178 22.9197 33.4375 23.4375 33.4375L27.9375 33.4375Z" fill="white"/>
<path d="M32.4375 21.25C32.9553 21.25 33.375 20.8303 33.375 20.3125C33.375 19.7947 32.9553 19.375 32.4375 19.375L30.1875 19.375C29.6697 19.375 29.25 19.7947 29.25 20.3125C29.25 20.8303 29.6697 21.25 30.1875 21.25L32.4375 21.25Z" fill="white"/>
<path d="M5.46875 73.6719C5.46875 74.3191 4.94408 74.8437 4.29688 74.8437C3.64967 74.8437 3.125 74.3191 3.125 73.6719C3.125 73.0247 3.64967 72.5 4.29688 72.5C4.94408 72.5 5.46875 73.0247 5.46875 73.6719Z" fill="#1285BB"/>
<path d="M5.46875 77.5781C5.46875 78.2253 4.94408 78.75 4.29688 78.75C3.64967 78.75 3.125 78.2253 3.125 77.5781C3.125 76.9309 3.64967 76.4062 4.29688 76.4062C4.94408 76.4062 5.46875 76.9309 5.46875 77.5781Z" fill="#1285BB"/>
<path d="M9.375 77.5781C9.375 78.2253 8.85033 78.75 8.20312 78.75C7.55592 78.75 7.03125 78.2253 7.03125 77.5781C7.03125 76.9309 7.55592 76.4062 8.20313 76.4062C8.85033 76.4062 9.375 76.9309 9.375 77.5781Z" fill="#90278E"/>
<path d="M13.2813 8.30079C13.2813 7.86932 12.9297 7.51372 12.5028 7.57626C12.0652 7.64036 11.6362 7.75839 11.2258 7.92839C10.5742 8.19831 9.98207 8.59394 9.48332 9.0927C8.98457 9.59145 8.58894 10.1836 8.31901 10.8352C8.14902 11.2456 8.03098 11.6746 7.96688 12.1121C7.90434 12.539 8.25994 12.8906 8.69141 12.8906L12.5 12.8906C12.9315 12.8906 13.2813 12.5409 13.2813 12.1094V8.30079Z" fill="url(#paint0_linear_1085_15227)"/>
<path d="M10.8399 5.85938C10.8399 5.42791 10.4883 5.07231 10.0613 5.13485C9.62379 5.19895 9.19483 5.31699 8.78442 5.48698C8.13277 5.75691 7.54067 6.15254 7.04191 6.65129C6.54316 7.15004 6.14753 7.74215 5.87761 8.3938C5.70761 8.8042 5.58957 9.23316 5.52548 9.67072C5.46294 10.0976 5.81853 10.4492 6.25001 10.4492L10.0586 10.4492C10.4901 10.4492 10.8399 10.0994 10.8399 9.66798V5.85938Z" fill="url(#paint1_linear_1085_15227)"/>
<path d="M64.2075 19.375C63.7263 18.5417 62.5235 18.5417 62.0424 19.375L59.3361 24.0625C58.855 24.8958 59.4564 25.9375 60.4186 25.9375H65.8313C66.7935 25.9375 67.3949 24.8958 66.9138 24.0625L64.2075 19.375Z" fill="url(#paint2_linear_1085_15227)"/>
<path d="M64.2075 34.375C63.7263 35.2083 62.5235 35.2083 62.0424 34.375L59.3361 29.6875C58.855 28.8542 59.4564 27.8125 60.4186 27.8125H65.8313C66.7935 27.8125 67.3949 28.8542 66.9138 29.6875L64.2075 34.375Z" fill="url(#paint3_linear_1085_15227)"/>
<path d="M73.941 80.0623C74.5259 80.649 75.4742 80.649 76.059 80.0623C76.6439 79.4756 76.6439 78.5244 76.059 77.9378L73.941 80.0623ZM64.9117 71.0054L73.941 80.0623L76.059 77.9378L67.0297 68.8808L64.9117 71.0054Z" fill="url(#paint4_linear_1085_15227)"/>
<path d="M70.5081 60.2915C70.5081 66.5306 65.4666 71.5831 59.2541 71.5831C53.0415 71.5831 48 66.5306 48 60.2915C48 54.0525 53.0415 49 59.2541 49C65.4666 49 70.5081 54.0525 70.5081 60.2915Z" fill="url(#paint5_radial_1085_15227)"/>
<path d="M70.5081 60.2915C70.5081 66.5306 65.4666 71.5831 59.2541 71.5831C53.0415 71.5831 48 66.5306 48 60.2915C48 54.0525 53.0415 49 59.2541 49C65.4666 49 70.5081 54.0525 70.5081 60.2915Z" fill="url(#paint6_linear_1085_15227)"/>
<path d="M70.5081 60.2915C70.5081 66.5306 65.4666 71.5831 59.2541 71.5831C53.0415 71.5831 48 66.5306 48 60.2915C48 54.0525 53.0415 49 59.2541 49C65.4666 49 70.5081 54.0525 70.5081 60.2915Z" stroke="white" stroke-width="2"/>
<defs>
<linearGradient id="paint0_linear_1085_15227" x1="13.7695" y1="13.6231" x2="6.44533" y2="5.89194" gradientUnits="userSpaceOnUse">
<stop stop-color="#F3F8FF"/>
<stop offset="1" stop-color="#BFDCFF"/>
</linearGradient>
<linearGradient id="paint1_linear_1085_15227" x1="11.3281" y1="11.1817" x2="4.00392" y2="3.45054" gradientUnits="userSpaceOnUse">
<stop stop-color="#F3F8FF"/>
<stop offset="1" stop-color="#BFDCFF"/>
</linearGradient>
<linearGradient id="paint2_linear_1085_15227" x1="66.875" y1="20" x2="60" y2="35" gradientUnits="userSpaceOnUse">
<stop stop-color="#F2F8FF"/>
<stop offset="1" stop-color="#8EC2FF"/>
</linearGradient>
<linearGradient id="paint3_linear_1085_15227" x1="66.875" y1="20" x2="60" y2="35" gradientUnits="userSpaceOnUse">
<stop stop-color="#F2F8FF"/>
<stop offset="1" stop-color="#8EC2FF"/>
</linearGradient>
<linearGradient id="paint4_linear_1085_15227" x1="74.7082" y1="78.8163" x2="73.9037" y2="79.5909" gradientUnits="userSpaceOnUse">
<stop stop-color="#F2F8FF"/>
<stop offset="1" stop-color="#8EC2FF"/>
</linearGradient>
<radialGradient id="paint5_radial_1085_15227" cx="0" cy="0" r="1" gradientUnits="userSpaceOnUse" gradientTransform="translate(59.2541 60.2915) rotate(90) scale(12.2915 12.2541)">
<stop stop-color="white"/>
<stop offset="1" stop-color="white"/>
</radialGradient>
<linearGradient id="paint6_linear_1085_15227" x1="59.2541" y1="72.5831" x2="59.2541" y2="48" gradientUnits="userSpaceOnUse">
<stop stop-color="#F3F8FF"/>
<stop offset="0.505208" stop-color="#B9D9FF"/>
<stop offset="1" stop-color="#96C6FF"/>
</linearGradient>
</defs>
</svg>
