<svg width="80" height="80" viewBox="0 0 80 80" fill="none" xmlns="http://www.w3.org/2000/svg">
<g clip-path="url(#clip0_241_22990)">
<path d="M14 62.5623V17.4377C14 13.8863 17.5988 11.467 20.8874 12.8076L23.3626 13.8166C24.5725 14.3098 25.9275 14.3098 27.1374 13.8166L34.6431 10.757C35.8349 10.2711 37.1681 10.2636 38.3654 10.7359L46.2272 13.8373C47.4437 14.3172 48.7998 14.3014 50.0048 13.7933L52.0572 12.9278C55.3532 11.5379 59 13.9578 59 17.5349V62.4651C59 66.0422 55.3532 68.4621 52.0572 67.0722L50.0048 66.2067C48.7998 65.6986 47.4437 65.6828 46.2272 66.1627L38.3654 69.2641C37.1681 69.7364 35.8349 69.7289 34.6431 69.243L27.1374 66.1834C25.9275 65.6902 24.5725 65.6902 23.3626 66.1834L20.8874 67.1924C17.5988 68.533 14 66.1137 14 62.5623Z" fill="#90278E"/>
<path d="M23 21H50" stroke="url(#paint0_linear_241_22990)" stroke-width="2" stroke-linecap="round"/>
<path d="M23 29H32" stroke="url(#paint1_linear_241_22990)" stroke-width="2" stroke-linecap="round"/>
<path d="M23 37H49" stroke="url(#paint2_linear_241_22990)" stroke-width="2" stroke-linecap="round"/>
<path d="M23 45H49" stroke="url(#paint3_linear_241_22990)" stroke-width="2" stroke-linecap="round"/>
<path d="M23 53H49" stroke="url(#paint4_linear_241_22990)" stroke-width="2" stroke-linecap="round"/>
<path d="M67.9453 76.0666C68.5278 76.6557 69.4722 76.6557 70.0546 76.0666C70.6371 75.4775 70.6371 74.5224 70.0546 73.9333L67.9453 76.0666ZM54.0789 62.0429L67.9453 76.0666L70.0546 73.9333L56.1882 59.9097L54.0789 62.0429Z" fill="url(#paint5_linear_241_22990)"/>
<path d="M62.6374 46.0321C62.6374 56.0016 54.6491 64.0641 44.8187 64.0641C34.9883 64.0641 27 56.0016 27 46.0321C27 36.0626 34.9883 28 44.8187 28C54.6491 28 62.6374 36.0626 62.6374 46.0321Z" fill="url(#paint6_radial_241_22990)"/>
<path d="M62.6374 46.0321C62.6374 56.0016 54.6491 64.0641 44.8187 64.0641C34.9883 64.0641 27 56.0016 27 46.0321C27 36.0626 34.9883 28 44.8187 28C54.6491 28 62.6374 36.0626 62.6374 46.0321Z" fill="url(#paint7_linear_241_22990)"/>
<path d="M62.6374 46.0321C62.6374 56.0016 54.6491 64.0641 44.8187 64.0641C34.9883 64.0641 27 56.0016 27 46.0321C27 36.0626 34.9883 28 44.8187 28C54.6491 28 62.6374 36.0626 62.6374 46.0321Z" stroke="white" stroke-width="2"/>
<path d="M8.06516 2C7.29536 0.666668 5.37086 0.666665 4.60106 2L0.270933 9.5C-0.498867 10.8333 0.46338 12.5 2.00298 12.5H10.6632C12.2028 12.5 13.1651 10.8333 12.3953 9.5L8.06516 2Z" fill="url(#paint8_linear_241_22990)"/>
<path d="M1.17071 70.9999C0.480358 70.9999 -0.0885986 71.5625 0.0114645 72.2455C0.114021 72.9456 0.302882 73.632 0.574874 74.2886C1.00675 75.3313 1.63976 76.2786 2.43777 77.0766C3.23577 77.8746 4.18314 78.5077 5.22578 78.9395C5.88243 79.2115 6.56877 79.4004 7.26886 79.5029C7.95192 79.603 8.51446 79.034 8.51446 78.3437L8.51446 72.2499C8.51446 71.5596 7.95482 70.9999 7.26446 70.9999L1.17071 70.9999Z" fill="url(#paint9_linear_241_22990)"/>
<circle cx="76.8125" cy="9.8125" r="2.8125" fill="#90278E"/>
</g>
<defs>
<linearGradient id="paint0_linear_241_22990" x1="23" y1="23" x2="50" y2="23" gradientUnits="userSpaceOnUse">
<stop stop-color="#F0F7FF"/>
<stop offset="1" stop-color="#9ECBFF"/>
</linearGradient>
<linearGradient id="paint1_linear_241_22990" x1="23" y1="31" x2="32" y2="31" gradientUnits="userSpaceOnUse">
<stop stop-color="#F0F7FF"/>
<stop offset="1" stop-color="#9ECBFF"/>
</linearGradient>
<linearGradient id="paint2_linear_241_22990" x1="23" y1="39" x2="49" y2="39" gradientUnits="userSpaceOnUse">
<stop stop-color="#F0F7FF"/>
<stop offset="1" stop-color="#9ECBFF"/>
</linearGradient>
<linearGradient id="paint3_linear_241_22990" x1="23" y1="47" x2="49" y2="47" gradientUnits="userSpaceOnUse">
<stop stop-color="#F0F7FF"/>
<stop offset="1" stop-color="#9ECBFF"/>
</linearGradient>
<linearGradient id="paint4_linear_241_22990" x1="23" y1="55" x2="49" y2="55" gradientUnits="userSpaceOnUse">
<stop stop-color="#F0F7FF"/>
<stop offset="1" stop-color="#9ECBFF"/>
</linearGradient>
<linearGradient id="paint5_linear_241_22990" x1="68.5812" y1="74.6859" x2="67.7783" y2="75.462" gradientUnits="userSpaceOnUse">
<stop stop-color="#F2F8FF"/>
<stop offset="1" stop-color="#8EC2FF"/>
</linearGradient>
<radialGradient id="paint6_radial_241_22990" cx="0" cy="0" r="1" gradientUnits="userSpaceOnUse" gradientTransform="translate(44.8187 46.0321) rotate(90) scale(19.0321 18.8187)">
<stop stop-color="white"/>
<stop offset="1" stop-color="white"/>
</radialGradient>
<linearGradient id="paint7_linear_241_22990" x1="44.8187" y1="65.0641" x2="44.8187" y2="27" gradientUnits="userSpaceOnUse">
<stop stop-color="#F3F8FF"/>
<stop offset="0.505208" stop-color="#B9D9FF"/>
<stop offset="1" stop-color="#96C6FF"/>
</linearGradient>
<linearGradient id="paint8_linear_241_22990" x1="12.3331" y1="3" x2="1.33313" y2="27" gradientUnits="userSpaceOnUse">
<stop stop-color="#F2F8FF"/>
<stop offset="1" stop-color="#8EC2FF"/>
</linearGradient>
<linearGradient id="paint9_linear_241_22990" x1="9.68635" y1="70.2187" x2="-2.68344" y2="81.9374" gradientUnits="userSpaceOnUse">
<stop stop-color="#F3F8FF"/>
<stop offset="1" stop-color="#BFDCFF"/>
</linearGradient>
<clipPath id="clip0_241_22990">
<rect width="80" height="80" fill="white"/>
</clipPath>
</defs>
</svg>
