<svg width="82" height="82" viewBox="0 0 82 82" fill="none" xmlns="http://www.w3.org/2000/svg">
<path d="M56.7812 40.0354C56.7812 48.4134 55.0005 55.9239 52.1942 61.2851C49.3506 66.7177 45.6838 69.5708 42.0361 69.5708C38.3884 69.5708 34.7217 66.7177 31.878 61.2851C29.0718 55.9239 27.291 48.4134 27.291 40.0354C27.291 31.6574 29.0718 24.1469 31.878 18.7857C34.7217 13.3531 38.3884 10.5 42.0361 10.5C45.6838 10.5 49.3506 13.3531 52.1942 18.7857C55.0005 24.1469 56.7812 31.6574 56.7812 40.0354Z" stroke="#1B70F0" stroke-width="3"/>
<path d="M56.7812 40.0354C56.7812 48.4134 55.0005 55.9239 52.1942 61.2851C49.3506 66.7177 45.6838 69.5708 42.0361 69.5708C38.3884 69.5708 34.7217 66.7177 31.878 61.2851C29.0718 55.9239 27.291 48.4134 27.291 40.0354C27.291 31.6574 29.0718 24.1469 31.878 18.7857C34.7217 13.3531 38.3884 10.5 42.0361 10.5C45.6838 10.5 49.3506 13.3531 52.1942 18.7857C55.0005 24.1469 56.7812 31.6574 56.7812 40.0354Z" stroke="url(#paint0_linear_241_22942)" stroke-opacity="0.5" stroke-width="3"/>
<path d="M49.3725 52.8108C42.117 56.9998 34.7223 59.2129 28.6762 59.4632C22.5496 59.7169 18.2454 57.9679 16.4216 54.8089C14.5977 51.6499 15.2352 47.0479 18.5181 41.8689C21.758 36.758 27.3719 31.4606 34.6274 27.2716C41.883 23.0826 49.2776 20.8695 55.3237 20.6192C61.4503 20.3655 65.7545 22.1145 67.5784 25.2735C69.4022 28.4325 68.7648 33.0345 65.4818 38.2135C62.242 43.3244 56.6281 48.6218 49.3725 52.8108Z" stroke="#1B70F0" stroke-width="3"/>
<path d="M49.3725 52.8108C42.117 56.9998 34.7223 59.2129 28.6762 59.4632C22.5496 59.7169 18.2454 57.9679 16.4216 54.8089C14.5977 51.6499 15.2352 47.0479 18.5181 41.8689C21.758 36.758 27.3719 31.4606 34.6274 27.2716C41.883 23.0826 49.2776 20.8695 55.3237 20.6192C61.4503 20.3655 65.7545 22.1145 67.5784 25.2735C69.4022 28.4325 68.7648 33.0345 65.4818 38.2135C62.242 43.3244 56.6281 48.6218 49.3725 52.8108Z" stroke="url(#paint1_linear_241_22942)" stroke-opacity="0.5" stroke-width="3"/>
<path d="M34.6275 52.8108C41.883 56.9998 49.2777 59.2129 55.3238 59.4632C61.4504 59.7169 65.7546 57.9679 67.5784 54.8089C69.4023 51.6499 68.7648 47.0479 65.4819 41.8689C62.242 36.758 56.6281 31.4606 49.3726 27.2716C42.117 23.0826 34.7224 20.8695 28.6763 20.6192C22.5497 20.3655 18.2455 22.1145 16.4216 25.2735C14.5978 28.4325 15.2352 33.0345 18.5182 38.2135C21.758 43.3244 27.3719 48.6218 34.6275 52.8108Z" stroke="#1B70F0" stroke-width="3"/>
<path d="M34.6275 52.8108C41.883 56.9998 49.2777 59.2129 55.3238 59.4632C61.4504 59.7169 65.7546 57.9679 67.5784 54.8089C69.4023 51.6499 68.7648 47.0479 65.4819 41.8689C62.242 36.758 56.6281 31.4606 49.3726 27.2716C42.117 23.0826 34.7224 20.8695 28.6763 20.6192C22.5497 20.3655 18.2455 22.1145 16.4216 25.2735C14.5978 28.4325 15.2352 33.0345 18.5182 38.2135C21.758 43.3244 27.3719 48.6218 34.6275 52.8108Z" stroke="url(#paint2_linear_241_22942)" stroke-opacity="0.5" stroke-width="3"/>
<circle cx="16.8197" cy="23.7903" r="4.00066" fill="#D0EBFF"/>
<circle cx="16.8197" cy="23.7903" r="4.00066" fill="url(#paint3_linear_241_22942)"/>
<circle cx="16.8197" cy="23.7903" r="4.00066" fill="url(#paint4_linear_241_22942)"/>
<circle cx="16.8197" cy="55.3106" r="4.00066" fill="#65C9AF"/>
<circle cx="16.8197" cy="55.3106" r="4.00066" fill="url(#paint5_linear_241_22942)"/>
<circle cx="16.8197" cy="55.3106" r="4.00066" fill="url(#paint6_linear_241_22942)"/>
<circle cx="67.4948" cy="23.7903" r="4.00066" fill="#D0EBFF"/>
<circle cx="67.4948" cy="23.7903" r="4.00066" fill="url(#paint7_linear_241_22942)"/>
<circle cx="67.4948" cy="23.7903" r="4.00066" fill="url(#paint8_linear_241_22942)"/>
<circle cx="67.4948" cy="55.3106" r="4.00066" fill="#D0EBFF"/>
<circle cx="67.4948" cy="55.3106" r="4.00066" fill="url(#paint9_linear_241_22942)"/>
<circle cx="67.4948" cy="55.3106" r="4.00066" fill="url(#paint10_linear_241_22942)"/>
<path d="M47.3417 35.9453C46.0136 36.584 44.1261 37 42 37C39.874 37 37.9864 36.584 36.6583 35.9453C36.1416 35.7506 34.9797 35.1316 34.1718 34.1318C34.0343 33.9616 33.9753 33.7448 34.0095 33.5318C34.0326 33.3887 34.0647 33.2412 34.1058 33.1498C34.8008 31.3571 38.0709 30 42 30C45.9291 30 49.1992 31.3571 49.8942 33.1498C49.9354 33.2412 49.9675 33.3887 49.9905 33.5318C50.0247 33.7448 49.9658 33.9616 49.8283 34.1318C49.0203 35.1316 47.8585 35.7506 47.3417 35.9453Z" fill="url(#paint11_linear_241_22942)"/>
<path d="M42 38.6707C44.3003 38.6707 46.42 38.2237 47.9923 37.4674C48.7851 37.0861 49.4978 36.5932 50 36V39.8733C50 40.3543 48.2143 41.404 47.3214 41.949C45.9983 42.5855 44.118 43 42 43C39.8821 43 38.0017 42.5855 36.6786 41.949C35.5 41.3821 34 40.3543 34 39.8733V36C34.5022 36.5932 35.215 37.0861 36.0077 37.4674C37.58 38.2237 39.6997 38.6707 42 38.6707Z" fill="url(#paint12_linear_241_22942)"/>
<path d="M42 38.6707C44.3003 38.6707 46.42 38.2237 47.9923 37.4674C48.7851 37.0861 49.4978 36.5932 50 36V39.8733C50 40.3543 48.2143 41.404 47.3214 41.949C45.9983 42.5855 44.118 43 42 43C39.8821 43 38.0017 42.5855 36.6786 41.949C35.5 41.3821 34 40.3543 34 39.8733V36C34.5022 36.5932 35.215 37.0861 36.0077 37.4674C37.58 38.2237 39.6997 38.6707 42 38.6707Z" fill="url(#paint13_linear_241_22942)"/>
<path d="M50 46.013C50 48.2149 46.4183 50 42 50C37.5817 50 34 48.2149 34 46.013V42C34.5022 42.6146 35.215 43.1252 36.0077 43.5203C37.58 44.3039 39.6997 44.767 42 44.767C44.3003 44.767 46.42 44.3039 47.9923 43.5203C48.7851 43.1252 49.4978 42.6146 50 42V46.013Z" fill="url(#paint14_linear_241_22942)"/>
<path d="M73.875 76.25C74.9105 76.25 75.75 77.0895 75.75 78.125C75.75 79.1605 74.9105 80 73.875 80C72.8395 80 72 79.1605 72 78.125C72 77.0895 72.8395 76.25 73.875 76.25Z" fill="url(#paint15_linear_241_22942)"/>
<path d="M80.125 76.25C81.1605 76.25 82 77.0895 82 78.125C82 79.1605 81.1605 80 80.125 80C79.0895 80 78.25 79.1605 78.25 78.125C78.25 77.0895 79.0895 76.25 80.125 76.25Z" fill="url(#paint16_linear_241_22942)"/>
<path d="M82 71.875C82 70.8395 81.1605 70 80.125 70C79.0895 70 78.25 70.8395 78.25 71.875C78.25 72.9105 79.0895 73.75 80.125 73.75C81.1605 73.75 82 72.9105 82 71.875Z" fill="url(#paint17_linear_241_22942)"/>
<path d="M5 3C5 1.34315 6.34315 0 8 0H14C15.6569 0 17 1.34315 17 3V9C17 10.6569 15.6569 12 14 12H8C6.34315 12 5 10.6569 5 9V3Z" fill="#1B70F0"/>
<path d="M5 3C5 1.34315 6.34315 0 8 0H14C15.6569 0 17 1.34315 17 3V9C17 10.6569 15.6569 12 14 12H8C6.34315 12 5 10.6569 5 9V3Z" fill="url(#paint18_linear_241_22942)" fill-opacity="0.5"/>
<path d="M10 11C10 13.2091 8.20914 15 6 15C3.79086 15 2 13.2091 2 11C2 8.79086 3.79086 7 6 7C8.20914 7 10 8.79086 10 11Z" fill="url(#paint19_linear_241_22942)"/>
<path d="M13 80H6.4C3.96995 80 2 78.0301 2 75.6V69" stroke="url(#paint20_linear_241_22942)" stroke-width="3" stroke-linecap="round"/>
<defs>
<linearGradient id="paint0_linear_241_22942" x1="42.0361" y1="5.70837" x2="42.0361" y2="71.0708" gradientUnits="userSpaceOnUse">
<stop stop-color="#F3F8FF"/>
<stop offset="0.619792" stop-color="#8FC2FF"/>
<stop offset="1" stop-color="#5CA6FF" stop-opacity="0.8"/>
</linearGradient>
<linearGradient id="paint1_linear_241_22942" x1="71.7281" y1="22.8777" x2="15.1225" y2="55.5589" gradientUnits="userSpaceOnUse">
<stop stop-color="#F3F8FF"/>
<stop offset="0.619792" stop-color="#8FC2FF"/>
<stop offset="1" stop-color="#5CA6FF" stop-opacity="0.8"/>
</linearGradient>
<linearGradient id="paint2_linear_241_22942" x1="12.2719" y1="22.8777" x2="68.8775" y2="55.5589" gradientUnits="userSpaceOnUse">
<stop stop-color="#F3F8FF"/>
<stop offset="0.619792" stop-color="#8FC2FF"/>
<stop offset="1" stop-color="#5CA6FF" stop-opacity="0.8"/>
</linearGradient>
<linearGradient id="paint3_linear_241_22942" x1="796.871" y1="419.855" x2="12.8191" y2="419.855" gradientUnits="userSpaceOnUse">
<stop stop-color="#4DF4CB"/>
<stop offset="1" stop-color="#64C8AE"/>
</linearGradient>
<linearGradient id="paint4_linear_241_22942" x1="20.8204" y1="23.7903" x2="12.8191" y2="23.7903" gradientUnits="userSpaceOnUse">
<stop stop-color="#F3F8FF"/>
<stop offset="0.505208" stop-color="#B9D9FF"/>
<stop offset="1" stop-color="#96C6FF"/>
</linearGradient>
<linearGradient id="paint5_linear_241_22942" x1="796.871" y1="451.376" x2="12.8191" y2="451.376" gradientUnits="userSpaceOnUse">
<stop stop-color="#4DF4CB"/>
<stop offset="1" stop-color="#64C8AE"/>
</linearGradient>
<linearGradient id="paint6_linear_241_22942" x1="20.8204" y1="55.3106" x2="12.8191" y2="55.3106" gradientUnits="userSpaceOnUse">
<stop stop-color="#F3F8FF"/>
<stop offset="0.505208" stop-color="#B9D9FF"/>
<stop offset="1" stop-color="#96C6FF"/>
</linearGradient>
<linearGradient id="paint7_linear_241_22942" x1="847.546" y1="419.855" x2="63.4941" y2="419.855" gradientUnits="userSpaceOnUse">
<stop stop-color="#4DF4CB"/>
<stop offset="1" stop-color="#64C8AE"/>
</linearGradient>
<linearGradient id="paint8_linear_241_22942" x1="71.4955" y1="23.7903" x2="63.4941" y2="23.7903" gradientUnits="userSpaceOnUse">
<stop stop-color="#F3F8FF"/>
<stop offset="0.505208" stop-color="#B9D9FF"/>
<stop offset="1" stop-color="#96C6FF"/>
</linearGradient>
<linearGradient id="paint9_linear_241_22942" x1="847.546" y1="451.376" x2="63.4941" y2="451.376" gradientUnits="userSpaceOnUse">
<stop stop-color="#4DF4CB"/>
<stop offset="1" stop-color="#64C8AE"/>
</linearGradient>
<linearGradient id="paint10_linear_241_22942" x1="71.4955" y1="55.3106" x2="63.4941" y2="55.3106" gradientUnits="userSpaceOnUse">
<stop stop-color="#F3F8FF"/>
<stop offset="0.505208" stop-color="#B9D9FF"/>
<stop offset="1" stop-color="#96C6FF"/>
</linearGradient>
<linearGradient id="paint11_linear_241_22942" x1="834" y1="83.5739" x2="834" y2="730" gradientUnits="userSpaceOnUse">
<stop stop-color="#198EE0"/>
<stop offset="1" stop-color="#4E9DE1"/>
</linearGradient>
<linearGradient id="paint12_linear_241_22942" x1="834" y1="36" x2="834" y2="736" gradientUnits="userSpaceOnUse">
<stop stop-color="#A2D7FF"/>
<stop offset="1" stop-color="#4E84E1"/>
</linearGradient>
<linearGradient id="paint13_linear_241_22942" x1="54.6667" y1="37.75" x2="49.2937" y2="48.3041" gradientUnits="userSpaceOnUse">
<stop stop-color="#8EC2FF"/>
<stop offset="1" stop-color="#DBEAFF"/>
</linearGradient>
<linearGradient id="paint14_linear_241_22942" x1="834" y1="103.227" x2="834" y2="842" gradientUnits="userSpaceOnUse">
<stop stop-color="#198EE0"/>
<stop offset="1" stop-color="#4E9DE1"/>
</linearGradient>
<linearGradient id="paint15_linear_241_22942" x1="72" y1="70" x2="83.7857" y2="73.0114" gradientUnits="userSpaceOnUse">
<stop stop-color="#639EF8"/>
<stop offset="1" stop-color="#B6D7FF"/>
</linearGradient>
<linearGradient id="paint16_linear_241_22942" x1="72" y1="70" x2="83.7857" y2="73.0114" gradientUnits="userSpaceOnUse">
<stop stop-color="#639EF8"/>
<stop offset="1" stop-color="#B6D7FF"/>
</linearGradient>
<linearGradient id="paint17_linear_241_22942" x1="72" y1="70" x2="83.7857" y2="73.0114" gradientUnits="userSpaceOnUse">
<stop stop-color="#639EF8"/>
<stop offset="1" stop-color="#B6D7FF"/>
</linearGradient>
<linearGradient id="paint18_linear_241_22942" x1="11" y1="-0.636364" x2="11" y2="12" gradientUnits="userSpaceOnUse">
<stop stop-color="#F3F8FF"/>
<stop offset="0.619792" stop-color="#8FC2FF"/>
<stop offset="1" stop-color="#5CA6FF" stop-opacity="0.8"/>
</linearGradient>
<linearGradient id="paint19_linear_241_22942" x1="2" y1="15" x2="10" y2="7" gradientUnits="userSpaceOnUse">
<stop stop-color="#F3F8FF"/>
<stop offset="1" stop-color="#96C6FF"/>
</linearGradient>
<linearGradient id="paint20_linear_241_22942" x1="2" y1="80" x2="10.25" y2="71.75" gradientUnits="userSpaceOnUse">
<stop stop-color="#ECF4FF"/>
<stop offset="1" stop-color="#D5E8FF"/>
</linearGradient>
</defs>
</svg>
