<svg width="211" height="149" viewBox="0 0 211 149" fill="none" xmlns="http://www.w3.org/2000/svg">
<rect width="211" height="149" fill="#1E1E1E"/>
<g id="Main" clip-path="url(#clip0_5_2)">
<rect width="1440" height="4944" transform="translate(-886 -3087)" fill="#FAFAFA"/>
<g id="products">
<rect width="1440" height="1042" transform="translate(-886 -953)" fill="#FAFAFA"/>
<g id="Group" opacity="0.1">
<g id="Group_2">
<g id="Group_3">
<path id="Vector" d="M-354.616 86.1251C-342.653 -7.06515 -198.319 12.8714 -212.581 -46.2308C-227.227 -109.411 -300.269 -118.986 -302.197 -163.13C-304.56 -216.831 -199.331 -206.619 -200.919 -246.795C-202.293 -283.04 -330.81 -299.168 -335.569 -354.769C-340.332 -411.116 42.3666 -417.3 -2.68887 -468.136C-49.2464 -520.667 -411.226 -491.434 -397.709 -549.372C-385.296 -602.564 -60.2658 -587.637 -103.257 -621.026C-146.252 -654.413 -317.828 -656.127 -321.923 -691.435C-326.323 -729.352 -135.761 -705.8 -181.439 -738.235C-227.121 -770.668 -236.031 -786.5 -234.906 -822.265C-233.74 -856.958 -211.082 -843.811 -213.845 -878.152C-216.611 -912.493 -346.536 -910.071 -346.536 -952.999" stroke="#292974" stroke-width="0.4" stroke-miterlimit="10"/>
<path id="Vector_2" d="M-332.682 86.2289C-319.723 -7.01632 -196.293 11.9529 -210.177 -46.4312C-224.476 -109.232 -280.793 -119.062 -282.744 -163.095C-285.136 -216.74 -196.467 -206.812 -197.995 -246.845C-199.32 -283.09 -305.19 -299.848 -309.779 -354.988C-314.372 -410.933 46.7213 -417.5 0.182716 -468.122C-48.0428 -520.579 -381.727 -491.646 -368.722 -549.196C-356.722 -602.299 -55.096 -587.635 -98.0911 -621.024C-141.086 -654.411 -300.507 -656.082 -304.092 -691.391C-307.93 -729.214 -131.067 -705.947 -176.745 -738.38C-222.427 -770.814 -219.393 -785.71 -218.4 -822.467C-217.359 -858.062 -205.384 -843.506 -208.15 -877.847C-210.917 -912.189 -326.191 -910.068 -326.191 -952.996" stroke="#292974" stroke-width="0.4" stroke-miterlimit="10"/>
<path id="Vector_3" d="M-310.741 86.3299C-296.786 -6.97017 -194.263 11.0304 -207.769 -46.6342C-221.721 -109.058 -261.312 -119.139 -263.282 -163.063C-265.709 -216.654 -193.591 -207.005 -195.063 -246.901C-196.338 -283.146 -279.566 -300.533 -283.985 -355.213C-288.408 -410.754 51.0764 -417.706 3.05842 -468.113C-46.8427 -520.495 -352.223 -491.863 -339.728 -549.023C-328.142 -602.038 -49.9183 -587.637 -92.9133 -621.026C-135.908 -654.413 -283.178 -656.041 -286.246 -691.348C-289.529 -729.078 -126.357 -706.096 -172.035 -738.53C-217.717 -770.963 -202.742 -784.923 -201.878 -822.674C-200.965 -859.174 -199.674 -843.205 -202.441 -877.548C-205.207 -911.889 -305.832 -910.07 -305.832 -952.998" stroke="#292974" stroke-width="0.4" stroke-miterlimit="10"/>
<path id="Vector_4" d="M-288.804 86.433C-273.853 -6.92208 -192.233 10.1112 -205.362 -46.8353C-218.966 -108.878 -241.828 -119.214 -243.824 -163.03C-246.281 -216.564 -190.719 -207.2 -192.138 -246.953C-193.365 -283.199 -253.95 -301.215 -258.199 -355.433C-262.448 -410.572 55.4236 -417.907 5.92633 -468.1C-45.6541 -520.407 -322.727 -492.077 -310.745 -548.848C-299.575 -601.773 -44.7522 -587.636 -87.7472 -621.025C-130.742 -654.412 -265.86 -655.997 -268.415 -691.304C-271.139 -728.94 -121.659 -706.244 -167.341 -738.677C-213.023 -771.111 -186.108 -784.134 -185.376 -822.878C-184.587 -860.28 -193.984 -842.903 -196.75 -877.244C-199.516 -911.587 -285.491 -910.068 -285.491 -952.995" stroke="#292974" stroke-width="0.4" stroke-miterlimit="10"/>
<path id="Vector_5" d="M-266.867 86.5349C-250.919 -6.87369 -190.534 9.19907 -202.954 -47.0374C-216.57 -108.692 -222.348 -119.29 -224.363 -162.998C-226.85 -216.477 -187.844 -207.394 -189.206 -247.007C-190.383 -283.253 -228.325 -301.898 -232.401 -355.655C-236.48 -410.392 59.7712 -418.11 8.80588 -468.089C-44.4577 -520.321 -293.223 -492.293 -281.751 -548.675C-270.999 -601.511 -39.5743 -587.637 -82.5694 -621.026C-125.564 -654.413 -248.53 -655.955 -250.568 -691.263C-252.738 -728.803 -116.949 -706.394 -162.631 -738.827C-208.313 -771.261 -169.458 -783.348 -168.854 -823.085C-168.193 -861.391 -188.27 -842.602 -191.036 -876.945C-193.802 -911.286 -265.127 -910.07 -265.127 -952.998" stroke="#292974" stroke-width="0.4" stroke-miterlimit="10"/>
<path id="Vector_6" d="M-244.93 86.6389C-227.986 -6.8247 -188.512 8.28075 -200.546 -47.2363C-213.826 -108.512 -202.863 -119.365 -204.905 -162.962C-207.426 -216.387 -184.975 -207.583 -186.277 -247.058C-187.406 -283.305 -202.701 -302.578 -206.611 -355.875C-210.52 -410.209 64.1111 -418.311 11.6777 -468.076C-43.2765 -520.232 -263.731 -492.506 -252.764 -548.5C-242.432 -601.248 -34.4043 -587.637 -77.3993 -621.025C-120.394 -654.413 -231.212 -655.912 -232.733 -691.219C-234.348 -728.666 -112.25 -706.542 -157.929 -738.975C-203.611 -771.409 -152.815 -782.561 -152.343 -823.29C-151.811 -862.5 -182.572 -842.3 -185.338 -876.642C-188.104 -910.983 -244.779 -910.068 -244.779 -952.996" stroke="#292974" stroke-width="0.4" stroke-miterlimit="10"/>
<path id="Vector_7" d="M-222.993 86.7415C-205.048 -6.77699 -186.489 7.35986 -198.138 -47.4378C-211.083 -108.334 -183.383 -119.44 -185.443 -162.929C-187.994 -216.299 -182.1 -207.777 -183.345 -247.111C-184.424 -283.358 -177.077 -303.261 -180.817 -356.097C-184.556 -410.029 68.4473 -418.512 14.5535 -468.065C-42.0914 -520.144 -234.235 -492.721 -223.77 -548.327C-213.86 -600.985 -29.2264 -587.637 -72.2214 -621.026C-115.216 -654.413 -213.883 -655.869 -214.89 -691.177C-215.951 -728.53 -107.544 -706.691 -153.223 -739.124C-198.904 -771.558 -136.169 -781.773 -135.825 -823.496C-135.418 -863.611 -176.865 -842.001 -179.632 -876.342C-182.398 -910.683 -224.419 -910.071 -224.419 -952.999" stroke="#292974" stroke-width="0.4" stroke-miterlimit="10"/>
<path id="Vector_8" d="M-201.055 86.8434C-182.115 -6.73003 -184.466 6.43954 -195.731 -47.64C-208.335 -108.157 -163.899 -119.517 -165.985 -162.897C-168.57 -216.21 -179.228 -207.971 -180.42 -247.165C-181.451 -283.411 -151.46 -303.944 -155.026 -356.319C-158.596 -409.848 72.7797 -418.714 17.4255 -468.054C-40.9176 -520.057 -204.746 -492.937 -194.783 -548.154C-185.296 -600.723 -24.0562 -587.638 -67.0512 -621.027C-110.046 -654.414 -196.568 -655.828 -197.051 -691.135C-197.561 -728.394 -102.838 -706.841 -148.52 -739.274C-194.202 -771.708 -119.526 -780.987 -119.315 -823.703C-119.035 -864.72 -171.163 -841.699 -173.929 -876.042C-176.696 -910.383 -204.067 -910.072 -204.067 -953" stroke="#292974" stroke-width="0.4" stroke-miterlimit="10"/>
<path id="Vector_9" d="M-179.118 86.9464C-159.181 -6.68193 -182.439 5.51894 -193.323 -47.8412C-205.588 -107.979 -144.418 -119.593 -146.528 -162.862C-149.143 -216.121 -176.356 -208.164 -177.492 -247.217C-178.473 -283.463 -125.84 -304.626 -129.236 -356.539C-132.636 -409.666 77.1046 -418.913 20.2974 -468.041C-39.7439 -519.966 -175.261 -493.15 -165.797 -547.978C-156.736 -600.46 -18.8898 -587.637 -61.881 -621.025C-104.876 -654.412 -179.25 -655.781 -179.213 -691.09C-179.175 -728.255 -98.136 -706.987 -143.818 -739.42C-189.5 -771.854 -102.883 -780.198 -102.8 -823.907C-102.646 -865.828 -165.461 -841.397 -168.227 -875.738C-170.993 -910.081 -183.715 -910.07 -183.715 -952.998" stroke="#292974" stroke-width="0.4" stroke-miterlimit="10"/>
<path id="Vector_10" d="M-157.181 87.0493C-136.248 -6.63401 -180.413 4.59968 -190.915 -48.0423C-202.837 -107.801 -124.934 -119.668 -127.066 -162.829C-129.712 -216.032 -173.484 -208.356 -174.56 -247.27C-175.492 -283.516 -100.212 -305.308 -103.442 -356.76C-106.673 -409.484 81.4291 -419.113 23.1728 -468.029C-38.5743 -519.876 -145.773 -493.366 -136.803 -547.803C-128.172 -600.196 -13.7124 -587.636 -56.7036 -621.023C-99.6987 -654.411 -161.929 -655.737 -161.37 -691.044C-160.782 -728.116 -93.4304 -707.133 -139.112 -739.567C-184.794 -772 -86.2375 -779.408 -86.2865 -824.109C-86.2601 -866.934 -159.759 -841.091 -162.525 -875.434C-165.291 -909.775 -163.363 -910.067 -163.363 -952.995" stroke="#292974" stroke-width="0.4" stroke-miterlimit="10"/>
<path id="Vector_11" d="M-135.244 87.1525C-113.314 -6.58574 -178.386 3.67926 -188.507 -48.2433C-200.086 -107.624 -105.453 -119.743 -107.608 -162.796C-110.288 -215.943 -170.612 -208.549 -171.631 -247.323C-172.514 -283.57 -74.5913 -305.991 -77.6518 -356.983C-80.7124 -409.305 85.7503 -419.312 26.0449 -468.018C-37.4117 -519.787 -116.292 -493.582 -107.816 -547.63C-99.6154 -599.935 -8.54203 -587.637 -51.5333 -621.025C-94.5283 -654.412 -144.618 -655.696 -143.535 -691.003C-142.399 -727.981 -88.7317 -707.283 -134.414 -739.717C-180.096 -772.15 -69.5985 -778.621 -69.7759 -824.315C-69.8777 -868.043 -154.056 -840.791 -156.823 -875.133C-159.589 -909.474 -143.01 -910.067 -143.01 -952.995" stroke="#292974" stroke-width="0.4" stroke-miterlimit="10"/>
<path id="Vector_12" d="M-113.307 87.2544C-90.3809 -6.53878 -176.356 2.75761 -186.104 -48.4455C-197.334 -107.447 -85.9769 -119.82 -88.1506 -162.763C-90.8602 -215.855 -167.74 -208.744 -168.706 -247.377C-169.54 -283.623 -48.9747 -306.674 -51.8616 -357.205C-54.7524 -409.125 90.0638 -419.512 28.9168 -468.007C-36.2569 -519.697 -86.8109 -493.797 -78.8292 -547.457C-71.0627 -599.673 -3.3719 -587.639 -46.3669 -621.026C-89.3619 -654.413 -127.308 -655.654 -125.7 -690.961C-124.021 -727.844 -84.0333 -707.432 -129.712 -739.867C-175.393 -772.3 -52.956 -777.835 -53.2617 -824.523C-53.4881 -869.155 -148.354 -840.492 -151.12 -874.834C-153.887 -909.175 -122.658 -910.071 -122.658 -952.998" stroke="#292974" stroke-width="0.4" stroke-miterlimit="10"/>
<path id="Vector_13" d="M-91.3699 87.3577C-67.4477 -6.49034 -174.322 1.83877 -183.696 -48.6463C-194.58 -107.269 -66.493 -119.896 -68.6893 -162.73C-71.4329 -215.767 -164.869 -208.937 -165.774 -247.429C-166.559 -283.676 -23.3507 -307.356 -26.0679 -357.426C-28.7888 -408.943 94.377 -419.709 31.7922 -467.995C-35.0986 -519.604 -57.3301 -494.013 -49.8391 -547.283C-42.5066 -599.411 1.80173 -587.638 -41.1933 -621.026C-84.1883 -654.413 -109.997 -655.611 -107.861 -690.918C-105.635 -727.707 -79.3314 -707.582 -125.01 -740.015C-170.692 -772.449 -36.3138 -777.047 -36.7515 -824.728C-37.1063 -870.262 -142.656 -840.19 -145.422 -874.532C-148.188 -908.873 -102.31 -910.071 -102.31 -952.999" stroke="#292974" stroke-width="0.4" stroke-miterlimit="10"/>
<path id="Vector_14" d="M-69.4326 87.4595C-44.5104 -6.44346 -172.288 0.917007 -181.288 -48.8473C-191.821 -107.091 -47.0124 -119.971 -49.2314 -162.696C-52.0052 -215.678 -161.997 -209.13 -162.846 -247.482C-163.582 -283.73 2.27355 -308.039 -0.277544 -357.647C-2.82864 -408.762 98.6831 -419.906 34.6642 -467.983C-33.9475 -519.51 -27.8566 -494.227 -20.8486 -547.109C-13.9538 -599.148 6.9757 -587.638 -36.0193 -621.026C-79.0143 -654.413 -92.683 -655.568 -90.0187 -690.875C-87.2525 -727.57 -74.6216 -707.729 -120.304 -740.164C-165.986 -772.597 -19.6673 -776.26 -20.2334 -824.934C-20.7127 -871.373 -136.95 -839.889 -139.712 -874.231C-142.478 -908.572 -81.9503 -910.071 -81.9503 -952.999" stroke="#292974" stroke-width="0.4" stroke-miterlimit="10"/>
<path id="Vector_15" d="M-47.4955 87.5632C-21.5769 -6.39472 -170.254 -0.00286183 -178.881 -49.0477C-189.059 -106.913 -27.5282 -120.045 -29.7736 -162.662C-32.5775 -215.588 -159.125 -209.322 -159.917 -247.534C-160.604 -283.782 27.894 -308.721 25.5165 -357.867C23.1352 -408.579 102.989 -420.101 37.5398 -467.971C-32.8002 -519.416 1.62074 -494.442 8.14189 -546.933C14.5951 -598.884 12.1496 -587.637 -30.8454 -621.024C-73.8404 -654.411 -75.3726 -655.523 -72.1799 -690.829C-68.8703 -727.431 -69.9194 -707.875 -115.601 -740.309C-161.283 -772.743 -3.02479 -775.469 -3.72295 -825.136C-4.33053 -872.478 -131.248 -839.583 -134.014 -873.926C-136.78 -908.267 -61.6019 -910.068 -61.6019 -952.996" stroke="#292974" stroke-width="0.4" stroke-miterlimit="10"/>
<path id="Vector_16" d="M-25.5584 87.6655C1.35639 -6.34601 -168.212 -0.924112 -176.473 -49.2495C-186.296 -106.736 -8.04791 -120.121 -10.3122 -162.628C-13.1501 -215.499 -156.249 -209.515 -156.989 -247.586C-157.627 -283.834 53.5142 -309.402 51.3065 -358.088C49.0951 -408.398 107.291 -420.294 40.4116 -467.958C-31.6569 -519.321 31.0903 -494.656 37.1284 -546.758C43.1401 -598.62 17.3197 -587.636 -25.6753 -621.023C-68.6704 -654.411 -58.066 -655.48 -54.3412 -690.786C-50.4919 -727.294 -65.2174 -708.023 -110.899 -740.458C-156.581 -772.891 13.6175 -774.681 12.7911 -825.342C12.059 -873.588 -125.545 -839.283 -128.312 -873.624C-131.078 -907.965 -41.2498 -910.067 -41.2498 -952.995" stroke="#292974" stroke-width="0.4" stroke-miterlimit="10"/>
<path id="Vector_17" d="M-3.621 87.7675C24.2901 -6.29896 -166.174 -1.84567 -174.065 -49.4516C-183.53 -106.559 11.4365 -120.199 9.14579 -162.596C6.2777 -215.412 -153.381 -209.709 -154.06 -247.641C-154.649 -283.888 79.1386 -310.087 77.097 -358.312C75.0554 -408.218 111.586 -420.491 43.2837 -467.948C-30.5207 -519.228 60.5564 -494.874 66.119 -546.587C71.6854 -598.36 22.4938 -587.639 -20.5012 -621.026C-63.4963 -654.413 -40.7552 -655.44 -36.5022 -690.745C-32.1132 -727.159 -60.5149 -708.174 -106.193 -740.609C-151.875 -773.042 30.2679 -773.896 29.3056 -825.549C28.4451 -874.698 -119.839 -838.984 -122.605 -873.325C-125.372 -907.668 -20.8937 -910.07 -20.8937 -952.998" stroke="#292974" stroke-width="0.4" stroke-miterlimit="10"/>
<path id="Vector_18" d="M18.3162 87.8709C47.2236 -6.25052 -164.132 -2.76459 -171.657 -49.6525C-180.764 -106.382 30.917 -120.274 28.6074 -162.562C25.7091 -215.322 -150.505 -209.902 -151.128 -247.693C-151.667 -283.94 104.763 -310.768 102.891 -358.532C101.019 -408.037 115.884 -420.684 46.1594 -467.936C-29.381 -519.13 90.0262 -495.088 95.1095 -546.412C100.227 -598.098 27.6677 -587.638 -15.3273 -621.026C-58.3223 -654.413 -23.4485 -655.397 -18.6595 -690.702C-13.7347 -727.023 -55.8089 -708.323 -101.487 -740.756C-147.169 -773.19 46.9142 -773.108 45.8236 -825.754C44.8386 -875.808 -114.133 -838.681 -116.899 -873.024C-119.666 -907.365 -0.533942 -910.071 -0.53394 -952.999" stroke="#292974" stroke-width="0.4" stroke-miterlimit="10"/>
<path id="Vector_19" d="M40.2532 87.9745C70.1569 -6.20178 -162.087 -3.68438 -169.25 -49.8528C-177.994 -106.203 50.401 -120.348 48.065 -162.528C45.1328 -215.233 -147.633 -210.094 -148.2 -247.744C-148.69 -283.992 130.383 -311.45 128.685 -358.752C126.983 -407.854 120.179 -420.874 49.0349 -467.922C-28.2452 -519.03 119.492 -495.301 124.1 -546.236C128.768 -597.833 32.8415 -587.635 -10.1535 -621.024C-53.1485 -654.411 -6.14572 -655.352 -0.820871 -690.658C4.63983 -726.884 -51.1031 -708.469 -96.7851 -740.903C-142.467 -773.336 63.5566 -772.318 62.3338 -825.957C61.2206 -876.914 -108.435 -838.378 -111.201 -872.719C-113.967 -907.06 19.8143 -910.068 19.8143 -952.996" stroke="#292974" stroke-width="0.4" stroke-miterlimit="10"/>
<path id="Vector_20" d="M62.1904 88.0758C93.0904 -6.15547 -160.042 -4.60676 -166.842 -50.0558C-175.22 -106.028 69.8814 -120.425 67.5266 -162.497C64.5641 -215.147 -144.758 -210.288 -145.271 -247.8C-145.713 -284.048 156.004 -312.134 154.475 -358.976C152.943 -407.675 124.466 -421.069 51.9068 -467.914C-27.1205 -518.934 148.954 -495.52 153.09 -546.064C157.306 -597.573 38.0116 -587.637 -4.9796 -621.026C-47.9746 -654.413 10.9723 -655.315 17.0179 -690.617C22.822 -726.753 -46.4009 -708.62 -92.0829 -741.054C-137.765 -773.487 80.1991 -771.532 78.848 -826.164C77.6065 -878.025 -102.733 -838.077 -105.495 -872.42C-108.261 -906.761 40.1703 -910.07 40.1703 -952.998" stroke="#292974" stroke-width="0.4" stroke-miterlimit="10"/>
<path id="Vector_21" d="M84.1273 88.179C116.024 -6.1072 -157.751 -5.53246 -164.438 -50.2567C-172.145 -105.855 89.3616 -120.501 86.9803 -162.463C83.9839 -215.057 -141.894 -210.48 -142.347 -247.852C-142.739 -284.1 181.62 -312.816 180.261 -359.197C178.899 -407.494 128.745 -421.259 54.7746 -467.901C-26 -518.835 178.405 -495.734 182.073 -545.89C185.831 -597.31 43.1777 -587.637 0.186503 -621.026C-42.8085 -654.413 28.2825 -655.273 34.8527 -690.574C41.2078 -726.618 -41.7028 -708.769 -87.3848 -741.202C-133.067 -773.636 96.8375 -770.745 95.3582 -826.37C93.9921 -879.134 -97.0306 -837.777 -99.7968 -872.118C-102.563 -906.459 60.5184 -910.07 60.5184 -952.998" stroke="#292974" stroke-width="0.4" stroke-miterlimit="10"/>
<path id="Vector_22" d="M106.064 88.2827C138.961 -6.05838 -155.721 -6.45094 -162.031 -50.4557C-169.39 -105.675 108.842 -120.574 106.442 -162.428C103.415 -214.966 -139.018 -210.673 -139.414 -247.904C-139.758 -284.153 207.248 -313.497 206.059 -359.418C204.867 -407.313 133.032 -421.447 57.654 -467.889C-24.8717 -518.733 207.591 -495.951 211.067 -545.715C214.082 -597.049 48.3553 -587.637 5.36408 -621.025C-37.6309 -654.413 45.6042 -655.23 52.6952 -690.529C59.5975 -726.479 -36.9969 -708.916 -82.6789 -741.349C-128.361 -773.783 113.484 -769.955 111.872 -826.573C110.378 -880.242 -91.3285 -837.473 -94.0947 -871.815C-96.8609 -906.157 80.8705 -910.068 80.8705 -952.996" stroke="#292974" stroke-width="0.4" stroke-miterlimit="10"/>
<path id="Vector_23" d="M128.002 88.3841C161.894 -6.01198 -153.694 -7.37315 -159.623 -50.6585C-166.635 -105.499 128.323 -120.651 125.9 -162.396C122.843 -214.88 -136.146 -210.867 -136.486 -247.958C-136.78 -284.207 232.868 -314.181 231.849 -359.64C230.831 -407.132 137.312 -421.638 60.526 -467.879C-23.7545 -518.633 237.076 -496.167 240.054 -545.543C242.639 -596.789 53.5256 -587.638 10.5344 -621.027C-32.4606 -654.414 62.9186 -655.189 70.5342 -690.488C77.9874 -726.345 -32.2946 -709.066 -77.9728 -741.5C-123.655 -773.933 130.13 -769.17 128.39 -826.781C126.772 -881.353 -85.6223 -837.174 -88.3847 -871.516C-91.1509 -905.858 101.23 -910.071 101.23 -952.999" stroke="#292974" stroke-width="0.4" stroke-miterlimit="10"/>
<path id="Vector_24" d="M149.939 88.4876C184.828 -5.96332 -151.664 -8.29177 -157.215 -50.859C-163.88 -105.32 147.807 -120.726 145.361 -162.361C142.27 -214.788 -133.27 -211.059 -133.557 -248.008C-133.803 -284.257 258.489 -314.861 257.64 -359.858C256.79 -406.948 141.587 -421.822 63.3979 -467.863C-22.6412 -518.527 266.561 -496.378 269.044 -545.365C271.195 -596.522 58.6995 -587.635 15.7082 -621.024C-27.2868 -654.411 80.2366 -655.143 88.3729 -690.442C96.3734 -726.205 -27.5924 -709.212 -73.2706 -741.645C-118.953 -774.079 146.773 -768.379 144.901 -826.983C143.154 -882.457 -79.9201 -836.869 -82.6863 -871.21C-85.4525 -905.552 121.579 -910.068 121.579 -952.996" stroke="#292974" stroke-width="0.4" stroke-miterlimit="10"/>
<path id="Vector_25" d="M171.88 88.5902C207.765 -5.9157 -149.634 -9.21142 -154.804 -51.0606C-161.121 -105.143 167.291 -120.803 164.823 -162.328C161.702 -214.701 -130.399 -211.252 -130.625 -248.063C-130.821 -284.312 284.117 -315.545 283.434 -360.081C282.754 -406.768 145.622 -421.957 66.2734 -467.853C-21.796 -518.364 296.049 -496.594 298.034 -545.193C299.755 -596.261 63.8733 -587.637 20.8783 -621.026C-22.1167 -654.413 97.5507 -655.103 106.208 -690.401C114.759 -726.071 -22.8904 -709.362 -68.5723 -741.796C-114.254 -774.229 163.411 -767.594 161.411 -827.19C159.539 -883.569 -74.2217 -836.568 -76.9879 -870.911C-79.7541 -905.252 141.927 -910.07 141.927 -952.998" stroke="#292974" stroke-width="0.4" stroke-miterlimit="10"/>
<path id="Vector_26" d="M193.817 88.6922C230.699 -5.86857 -147.603 -10.1329 -152.396 -51.2626C-158.366 -104.966 186.775 -120.879 184.285 -162.295C181.133 -214.613 -127.523 -211.446 -127.692 -248.116C-127.84 -284.365 309.741 -316.228 309.232 -360.303C308.722 -406.588 149.958 -422.155 69.1532 -467.842C-20.6144 -518.272 325.542 -496.81 327.029 -545.02C328.32 -595.999 69.0513 -587.638 26.0563 -621.027C-16.9387 -654.414 114.873 -655.062 124.055 -690.359C133.153 -725.936 -18.1803 -709.512 -63.8622 -741.946C-109.544 -774.379 180.062 -766.807 177.93 -827.398C175.929 -884.68 -68.5154 -836.269 -71.2816 -870.612C-74.0478 -904.953 162.287 -910.072 162.287 -953" stroke="#292974" stroke-width="0.4" stroke-miterlimit="10"/>
<path id="Vector_27" d="M215.754 88.7959C253.632 -5.81849 -145.577 -11.0529 -149.988 -51.4631C-155.611 -104.787 206.256 -120.954 203.742 -162.262C200.557 -214.524 -124.651 -211.637 -124.764 -248.168C-124.862 -284.417 335.362 -316.909 335.022 -360.524C334.682 -406.406 154.287 -422.351 72.0289 -467.828C-19.4407 -518.178 355.027 -497.023 356.023 -544.843C356.884 -595.733 74.229 -587.635 31.2339 -621.024C-11.7611 -654.411 132.195 -655.016 141.897 -690.313C151.547 -725.796 -13.4744 -709.658 -59.1563 -742.091C-104.838 -774.525 196.708 -766.018 194.447 -827.6C192.319 -885.785 -62.8056 -835.965 -65.5718 -870.306C-68.338 -904.647 182.647 -910.068 182.647 -952.996" stroke="#292974" stroke-width="0.4" stroke-miterlimit="10"/>
<path id="Vector_28" d="M237.691 88.8987C276.565 -5.77062 -143.546 -11.9723 -147.581 -51.6644C-152.856 -104.609 225.74 -121.029 223.204 -162.228C219.989 -214.435 -121.779 -211.832 -121.836 -248.222C-121.885 -284.471 360.982 -317.593 360.812 -360.747C360.642 -406.227 158.615 -422.55 74.8968 -467.819C-18.271 -518.087 384.508 -497.24 385.006 -544.672C385.436 -595.473 79.3952 -587.638 36.4002 -621.027C-6.59482 -654.414 149.505 -654.976 159.732 -690.272C169.933 -725.661 -8.77607 -709.807 -54.4543 -742.242C-100.136 -774.675 213.35 -765.231 210.962 -827.807C208.709 -886.896 -57.1035 -835.665 -59.8697 -870.008C-62.6359 -904.349 202.999 -910.071 202.999 -952.999" stroke="#292974" stroke-width="0.4" stroke-miterlimit="10"/>
<path id="Vector_29" d="M259.628 89.0001C299.503 -5.72416 -141.52 -12.8931 -145.173 -51.8672C-150.102 -104.434 245.22 -121.107 242.661 -162.197C239.412 -214.348 -118.907 -212.026 -118.907 -248.276C-118.907 -284.526 386.606 -318.276 386.606 -360.968C386.606 -406.046 162.951 -422.747 77.7761 -467.808C-17.0899 -517.995 414 -497.455 414 -544.498C414 -595.209 84.5728 -587.638 41.5778 -621.026C-1.41722 -654.413 166.827 -654.933 177.575 -690.228C188.322 -725.525 -4.07026 -709.955 -49.7485 -742.389C-95.4304 -774.823 229.997 -764.443 227.476 -828.011C225.094 -888.005 -51.4013 -835.363 -54.1675 -869.704C-56.9337 -904.047 223.347 -910.07 223.347 -952.998" stroke="#292974" stroke-width="0.4" stroke-miterlimit="10"/>
</g>
<g id="Group_4">
<path id="Vector_30" d="M64.0392 -949.163C64.0392 -856.63 -127.87 -892.128 -109.058 -824.398C-90.2455 -756.668 229.932 -734.205 231.589 -688.754C233.57 -634.389 -336.819 -735.635 -421.533 -677.23C-468.279 -645.001 323.949 -568.793 314.892 -512.274C302.25 -433.4 -278.959 -453.131 -252.089 -399.709C-225.22 -346.287 433.42 -347.426 413.554 -284.836C396.331 -230.566 -195.663 -280.466 -152.668 -247.079C-109.673 -213.691 207.844 -211.471 217.995 -176.152C229.215 -137.118 -125.799 -164.085 -80.1167 -131.652C-34.4347 -99.218 117.759 -72.1515 115.072 -48.3029C112.385 -24.4544 -112.636 -7.06743 -109.869 27.2752C-107.103 61.6165 67.0091 41.9668 67.0091 84.8944" stroke="#293EFF" stroke-width="0.4" stroke-miterlimit="10"/>
<path id="Vector_31" d="M53.1069 -949.26C52.1106 -856.672 -127.749 -890.215 -112.401 -823.515C-96.9436 -756.341 210.105 -734.526 211.784 -689.184C213.796 -634.875 -333.769 -731.691 -415.951 -673.767C-461.762 -641.479 302.031 -568.317 292.385 -512.277C279.29 -434.488 -284.781 -453.17 -256.455 -399.958C-227.883 -346.618 409.041 -348.793 389.199 -286.602C371.892 -232.422 -200.837 -280.469 -157.842 -247.08C-114.847 -213.693 190.636 -211.837 200.267 -176.521C210.939 -137.58 -116.322 -166.555 -70.6439 -134.121C-24.9619 -101.688 100.483 -73.4205 97.9246 -48.5792C95.3622 -23.8277 -116.484 -7.71213 -113.718 26.6305C-110.952 60.9731 57.1901 41.9637 57.1901 84.8913" stroke="#2E40F9" stroke-width="0.4" stroke-miterlimit="10"/>
<path id="Vector_32" d="M42.174 -949.355C40.1814 -856.712 -127.659 -888.29 -115.749 -822.629C-103.661 -755.997 190.273 -734.845 191.975 -689.612C194.021 -635.358 -330.705 -727.74 -410.374 -670.299C-455.241 -637.95 280.105 -567.837 269.878 -512.274C256.33 -435.571 -290.608 -453.204 -260.821 -400.202C-230.552 -346.942 384.659 -350.154 364.838 -288.364C347.445 -234.274 -206.011 -280.466 -163.019 -247.079C-120.024 -213.691 173.423 -212.202 182.529 -176.885C192.651 -138.037 -106.858 -169.019 -61.1757 -136.586C-15.4937 -104.152 83.199 -74.6849 80.7725 -48.8509C78.3384 -23.1951 -120.338 -8.35226 -117.571 25.9904C-114.805 60.3317 47.3667 41.9653 47.3667 84.893" stroke="#3442F2" stroke-width="0.4" stroke-miterlimit="10"/>
<path id="Vector_33" d="M31.241 -949.451C28.2522 -856.754 -127.599 -886.357 -119.093 -821.745C-110.386 -755.642 170.442 -735.165 172.166 -690.041C174.242 -635.842 -327.63 -723.783 -404.796 -666.834C-448.72 -634.419 258.183 -567.359 247.371 -512.275C233.374 -436.657 -296.431 -453.242 -265.188 -400.449C-233.216 -347.271 360.276 -351.516 340.482 -290.129C323.006 -236.128 -211.185 -280.468 -168.194 -247.079C-125.199 -213.692 156.215 -212.567 164.796 -177.251C174.367 -138.497 -97.3894 -171.486 -51.7074 -139.052C-6.02543 -106.619 65.9147 -75.9512 63.6202 -49.1231C61.3144 -22.5643 -124.191 -8.9928 -121.425 25.3498C-118.659 59.6911 37.547 41.9665 37.547 84.8942" stroke="#3944EC" stroke-width="0.4" stroke-miterlimit="10"/>
<path id="Vector_34" d="M20.3121 -949.546C16.3231 -856.794 -127.568 -884.411 -122.432 -820.86C-117.13 -755.272 150.618 -735.484 152.365 -690.469C154.475 -636.325 -324.524 -719.821 -399.211 -663.369C-442.183 -630.887 235.864 -566.892 224.871 -512.274C209.874 -437.756 -302.552 -453.255 -269.547 -400.695C-236.186 -347.573 335.904 -352.88 316.133 -291.891C298.57 -237.981 -216.351 -280.466 -173.356 -247.077C-130.361 -213.69 139.013 -212.932 147.074 -177.615C156.097 -138.955 -87.9058 -173.951 -42.2238 -141.517C3.45816 -109.084 48.6495 -77.2158 46.4834 -49.3949C44.3021 -21.9318 -128.025 -9.6331 -125.259 24.7095C-122.493 59.0508 27.7427 41.968 27.7426 84.8956" stroke="#3E46E5" stroke-width="0.4" stroke-miterlimit="10"/>
<path id="Vector_35" d="M9.37935 -949.643C4.39414 -856.837 -119.066 -882.414 -125.776 -819.977C-132.765 -754.936 130.79 -735.806 132.56 -690.899C134.7 -636.812 -321.41 -715.856 -393.63 -659.905C-435.647 -627.352 213.848 -566.418 202.368 -512.276C186.797 -438.847 -308.44 -453.288 -273.909 -400.943C-238.915 -347.895 311.526 -354.244 291.777 -293.657C274.131 -239.838 -221.525 -280.468 -178.53 -247.081C-135.535 -213.693 121.805 -213.301 129.345 -177.985C137.817 -139.418 -78.4335 -176.422 -32.7515 -143.988C12.9304 -111.555 31.3692 -78.4862 29.3314 -49.6726C27.2784 -21.3065 -131.878 -10.2792 -129.112 24.0634C-126.346 58.4047 17.9194 41.9636 17.9194 84.8912" stroke="#4448DF" stroke-width="0.4" stroke-miterlimit="10"/>
<path id="Vector_36" d="M-1.55306 -949.739C-7.53455 -856.878 -117.635 -880.36 -129.119 -819.093C-141.203 -754.637 110.963 -736.126 112.756 -691.328C114.929 -637.295 -318.274 -711.882 -388.048 -656.439C-429.107 -623.814 191.84 -565.943 179.865 -512.276C163.725 -439.936 -314.319 -453.318 -278.271 -401.189C-241.639 -348.215 287.151 -355.608 267.425 -295.422C249.696 -241.692 -226.695 -280.469 -183.7 -247.08C-140.705 -213.693 104.6 -213.666 111.616 -178.351C119.541 -139.876 -68.9571 -178.888 -23.2751 -146.454C22.4068 -114.021 14.0931 -79.7519 12.1873 -49.9455C10.2589 -20.6751 -135.723 -10.9205 -132.957 23.4221C-130.191 57.7634 8.10782 41.964 8.10781 84.8916" stroke="#494AD9" stroke-width="0.4" stroke-miterlimit="10"/>
<path id="Vector_37" d="M-12.486 -949.834C-19.4638 -856.918 -116.334 -878.268 -132.463 -818.207C-149.611 -754.351 91.1315 -736.444 92.9467 -691.756C95.1506 -637.779 -315.123 -707.903 -382.47 -652.973C-422.563 -620.271 169.827 -565.467 157.358 -512.274C140.655 -441.025 -320.199 -453.348 -282.638 -401.433C-244.364 -348.532 262.768 -356.969 243.065 -297.183C225.249 -243.543 -231.873 -280.466 -188.878 -247.079C-145.883 -213.691 87.384 -214.029 93.8788 -178.715C101.253 -140.334 -59.4926 -181.353 -13.8107 -148.919C31.8713 -116.486 -3.19115 -81.0165 -4.96862 -50.2175C-6.76873 -20.0441 -139.58 -11.5608 -136.814 22.7818C-134.048 57.1231 -1.7194 41.9653 -1.71941 84.893" stroke="#4E4CD2" stroke-width="0.4" stroke-miterlimit="10"/>
<path id="Vector_38" d="M-23.4189 -949.93C-31.393 -856.96 -127.855 -876.535 -135.807 -817.323C-144.358 -753.667 71.3037 -736.765 73.1416 -692.185C75.3757 -638.262 -311.953 -703.92 -376.889 -649.508C-416.008 -616.729 147.821 -564.994 134.855 -512.275C117.597 -442.115 -326.067 -453.38 -287.001 -401.681C-247.078 -348.854 238.389 -358.332 218.712 -298.948C200.813 -245.397 -237.043 -280.466 -194.048 -247.079C-151.053 -213.691 70.1791 -214.395 76.1492 -179.081C82.9761 -140.794 -50.0168 -183.819 -4.33479 -151.386C41.3472 -118.952 -20.4678 -82.2825 -22.1132 -50.4907C-23.785 -19.413 -143.426 -12.2026 -140.66 22.1387C-137.894 56.48 -11.5352 41.9654 -11.5353 84.8917" stroke="#544ECC" stroke-width="0.4" stroke-miterlimit="10"/>
<path id="Vector_39" d="M-34.3515 -950.026C-43.3218 -857 -128.04 -874.543 -139.15 -816.438C-151.238 -753.234 51.4763 -737.085 53.3368 -692.615C55.6048 -638.749 -308.76 -699.932 -371.307 -646.044C-409.449 -613.183 125.824 -564.521 112.352 -512.276C94.543 -443.206 -331.935 -453.411 -291.363 -401.927C-249.791 -349.174 214.014 -359.696 194.356 -300.712C176.37 -247.252 -242.217 -280.468 -199.222 -247.079C-156.227 -213.691 52.9707 -214.76 58.4201 -179.448C64.6959 -141.255 -40.5443 -186.287 5.13763 -153.854C50.8196 -121.42 -37.7479 -83.55 -39.2612 -50.7642C-40.8085 -18.7835 -147.271 -12.8444 -144.505 21.4969C-141.739 55.8382 -21.3507 41.9653 -21.3507 84.8929" stroke="#5950C6" stroke-width="0.4" stroke-miterlimit="10"/>
<path id="Vector_40" d="M-45.2841 -950.122C-55.2507 -857.042 -128.274 -872.543 -142.497 -815.554C-158.159 -752.789 31.645 -737.405 33.5281 -693.044C35.8263 -639.233 -305.552 -695.938 -365.73 -642.578C-402.883 -609.633 103.823 -564.046 89.8446 -512.276C71.4888 -444.295 -337.8 -453.442 -295.729 -402.174C-252.5 -349.495 189.632 -361.059 170 -302.477C151.931 -249.106 -247.391 -280.468 -204.396 -247.08C-161.401 -213.693 35.7584 -215.128 40.687 -179.815C46.4156 -141.715 -31.072 -188.755 14.6062 -156.322C60.2882 -123.888 -55.0281 -84.8175 -56.4131 -51.0389C-57.8321 -18.1538 -151.124 -13.4876 -148.358 20.8537C-145.592 55.195 -31.1702 41.9639 -31.1702 84.8915" stroke="#5F52BF" stroke-width="0.4" stroke-miterlimit="10"/>
<path id="Vector_41" d="M-56.2169 -950.217C-67.1836 -857.082 -128.565 -870.536 -145.841 -814.669C-165.118 -752.332 11.8173 -737.724 13.7193 -693.471C16.0478 -639.715 -302.326 -691.937 -360.152 -639.112C-396.313 -606.08 81.8252 -563.571 67.3376 -512.274C48.4459 -445.384 -343.66 -453.471 -300.096 -402.419C-255.206 -349.813 165.249 -362.422 145.64 -304.24C127.488 -250.959 -252.564 -280.468 -209.573 -247.079C-166.578 -213.691 18.3422 -215.488 22.95 -180.179C27.9088 -142.169 -21.6073 -191.22 24.0746 -158.787C69.7566 -126.353 -72.3122 -86.0821 -73.5652 -51.3108C-74.8596 -17.5228 -154.978 -14.128 -152.211 20.2133C-149.445 54.556 -40.9934 41.9652 -40.9934 84.8928" stroke="#6453B9" stroke-width="0.4" stroke-miterlimit="10"/>
<path id="Vector_42" d="M-67.1497 -950.314C-79.1127 -857.124 -128.908 -868.522 -149.185 -813.785C-172.122 -751.868 -8.01416 -738.044 -6.08574 -693.9C-3.72334 -640.2 -299.073 -687.933 -354.571 -635.646C-389.727 -602.524 59.8351 -563.097 44.8342 -512.275C25.4104 -446.475 -349.51 -453.502 -304.458 -402.666C-257.901 -350.135 140.874 -363.786 121.288 -306.003C103.049 -252.812 -257.735 -280.467 -214.743 -247.078C-171.748 -213.69 1.12598 -215.853 5.22056 -180.545C9.62082 -142.628 -12.1314 -193.687 33.5468 -161.253C79.2287 -128.82 -89.5926 -87.3485 -90.7172 -51.5844C-91.8833 -16.8921 -158.831 -14.77 -156.065 19.5713C-153.298 53.9126 -50.8168 41.9649 -50.8168 84.8926" stroke="#6955B2" stroke-width="0.4" stroke-miterlimit="10"/>
<path id="Vector_43" d="M-78.0823 -950.409C-91.0416 -857.164 -129.308 -866.502 -152.528 -812.9C-179.171 -751.393 -27.8416 -738.365 -25.8906 -694.33C-23.498 -640.685 -295.797 -683.926 -348.989 -632.182C-383.131 -598.967 37.8491 -562.624 22.3312 -512.276C2.3828 -447.565 -355.359 -453.534 -308.821 -402.914C-260.595 -350.456 116.495 -365.149 96.9356 -307.769C78.6137 -254.668 -262.905 -280.468 -219.91 -247.08C-176.915 -213.693 -16.0862 -216.221 -12.5011 -180.914C-8.66314 -143.09 -2.65148 -196.156 43.0305 -163.722C88.7125 -131.289 -106.858 -88.617 -107.854 -51.8588C-108.896 -16.2635 -162.669 -15.4128 -159.902 18.9285C-157.136 53.2698 -60.621 41.9638 -60.621 84.8915" stroke="#6F57AC" stroke-width="0.4" stroke-miterlimit="10"/>
<path id="Vector_44" d="M-89.0152 -950.505C-102.971 -857.205 -129.769 -864.478 -155.872 -812.016C-186.274 -750.911 -47.6693 -738.684 -45.6956 -694.759C-43.2691 -641.168 -292.499 -679.913 -343.408 -628.717C-376.527 -595.408 15.8703 -562.151 -0.172163 -512.275C-20.6375 -448.656 -361.201 -453.566 -313.183 -403.16C-263.282 -350.778 92.1201 -366.513 72.5793 -309.533C54.1707 -256.522 -268.079 -280.469 -225.084 -247.08C-182.089 -213.692 -33.3062 -216.586 -30.2344 -181.279C-26.9549 -143.55 6.82068 -198.622 52.4989 -166.188C98.1808 -133.755 -124.142 -89.8827 -125.006 -52.1318C-125.919 -15.6322 -166.522 -16.0542 -163.756 18.2871C-160.989 52.6284 -70.4443 41.9642 -70.4443 84.8919" stroke="#7459A6" stroke-width="0.4" stroke-miterlimit="10"/>
<path id="Vector_45" d="M-99.9475 -950.601C-114.899 -857.246 -130.293 -862.45 -159.215 -811.131C-193.432 -750.421 -67.4966 -739.002 -65.5003 -695.188C-63.0435 -641.652 -289.181 -675.896 -337.826 -625.251C-369.911 -591.845 -6.10425 -561.678 -22.675 -512.276C-43.6499 -449.747 -367.039 -453.598 -317.545 -403.407C-265.965 -351.1 67.7416 -367.876 48.2273 -311.298C29.7356 -258.377 -273.248 -280.469 -230.253 -247.08C-187.258 -213.693 -50.5183 -216.954 -47.9634 -181.645C-45.2387 -144.011 16.2933 -201.089 61.9753 -168.655C107.657 -136.222 -141.418 -91.1491 -142.15 -52.4054C-142.935 -15.0028 -170.367 -16.6963 -167.597 17.645C-164.831 51.9863 -80.2559 41.9639 -80.2559 84.8915" stroke="#795B9F" stroke-width="0.4" stroke-miterlimit="10"/>
<path id="Vector_46" d="M-110.881 -950.697C-126.829 -857.288 -130.878 -860.421 -162.559 -810.246C-200.648 -749.928 -87.3245 -739.322 -85.3093 -695.616C-82.8223 -642.137 -285.846 -671.872 -332.249 -621.785C-363.288 -588.28 -28.0795 -561.204 -45.1824 -512.274C-66.6591 -450.836 -372.877 -453.629 -321.912 -403.651C-268.648 -351.418 43.3587 -369.237 23.867 -313.058C5.28853 -260.227 -278.426 -280.465 -235.431 -247.078C-192.436 -213.69 -67.7384 -217.317 -65.7006 -182.01C-63.5306 -144.469 25.7615 -203.554 71.4396 -171.12C117.122 -138.687 -158.702 -92.4139 -159.306 -52.6775C-159.967 -14.3706 -174.22 -17.3381 -171.454 17.0046C-168.688 51.3472 -90.0832 41.9651 -90.0832 84.8927" stroke="#7F5D99" stroke-width="0.4" stroke-miterlimit="10"/>
<path id="Vector_47" d="M-121.813 -950.792C-138.758 -857.329 -131.527 -858.388 -165.903 -809.362C-207.924 -749.429 -107.156 -739.643 -105.114 -696.045C-102.593 -642.621 -282.48 -667.847 -326.667 -618.32C-356.65 -584.711 -50.0468 -560.73 -67.6856 -512.275C-89.6567 -451.925 -378.704 -453.663 -326.275 -403.897C-271.324 -351.741 18.9837 -370.601 -0.485396 -314.822C-19.1469 -262.081 -283.597 -280.466 -240.602 -247.078C-197.607 -213.69 -84.9508 -217.683 -83.4299 -182.375C-81.8147 -144.929 35.2337 -206.02 80.9157 -173.587C126.598 -141.153 -175.979 -93.6799 -176.451 -52.9508C-176.983 -13.7409 -178.066 -17.9798 -175.3 16.3628C-172.533 50.7041 -99.8951 41.965 -99.8951 84.8927" stroke="#845F93" stroke-width="0.4" stroke-miterlimit="10"/>
<path id="Vector_48" d="M-132.746 -950.888C-150.69 -857.37 -132.244 -856.357 -169.25 -808.478C-215.271 -748.931 -126.987 -739.963 -124.923 -696.474C-122.372 -643.106 -279.098 -663.818 -321.089 -614.855C-350 -581.142 -72.0101 -560.257 -90.1923 -512.276C-112.65 -453.017 -384.534 -453.697 -330.641 -404.145C-273.996 -352.065 -5.39858 -371.964 -24.845 -316.588C-43.5895 -263.937 -288.774 -280.467 -245.779 -247.08C-202.784 -213.693 -102.167 -218.051 -101.163 -182.744C-100.102 -145.391 44.7025 -208.489 90.3845 -176.056C136.066 -143.622 -193.263 -94.9484 -193.602 -53.2252C-194.01 -13.111 -181.919 -18.6227 -179.152 15.72C-176.386 50.0626 -109.718 41.9654 -109.718 84.8916" stroke="#89618C" stroke-width="0.4" stroke-miterlimit="10"/>
<path id="Vector_49" d="M-143.679 -950.984C-162.62 -857.41 -133.022 -854.328 -172.594 -807.592C-222.684 -748.43 -146.815 -740.282 -144.732 -696.903C-142.147 -643.589 -275.687 -659.784 -315.508 -611.389C-343.336 -577.57 -93.9626 -559.783 -112.696 -512.274C-135.633 -454.105 -390.354 -453.73 -335.003 -404.39C-276.66 -352.387 -29.7777 -373.327 -49.1977 -318.351C-68.029 -265.79 -293.941 -280.468 -250.949 -247.079C-207.954 -213.691 -119.375 -218.415 -118.892 -183.108C-118.383 -145.849 54.1783 -210.954 99.8602 -178.521C145.542 -146.087 -210.536 -96.2133 -210.751 -53.4973C-211.03 -12.4802 -185.768 -19.2632 -183.002 15.0794C-180.236 49.4207 -119.538 41.9665 -119.538 84.8927" stroke="#8F6386" stroke-width="0.4" stroke-miterlimit="10"/>
<path id="Vector_50" d="M-154.611 -951.08C-174.548 -857.452 -133.867 -852.302 -175.937 -806.708C-230.17 -747.934 -166.642 -740.602 -164.536 -697.331C-161.921 -644.073 -272.252 -655.747 -309.926 -607.923C-336.652 -573.994 -115.911 -559.308 -135.199 -512.274C-158.604 -455.195 -396.173 -453.764 -339.366 -404.636C-279.324 -352.711 -54.1525 -374.691 -73.5536 -320.114C-92.468 -267.644 -299.114 -280.466 -256.123 -247.077C-213.128 -213.69 -137.108 -218.78 -136.625 -183.474C-136.116 -146.308 63.647 -213.421 109.329 -180.987C155.011 -148.554 -227.819 -97.4792 -227.903 -53.7705C-228.057 -11.8503 -189.621 -19.9048 -186.855 14.4378C-184.089 48.7791 -129.357 41.9667 -129.357 84.8943" stroke="#946580" stroke-width="0.4" stroke-miterlimit="10"/>
<path id="Vector_51" d="M-165.544 -951.175C-186.477 -857.492 -134.772 -850.279 -179.281 -805.824C-237.729 -747.442 -186.473 -740.922 -184.341 -697.76C-181.696 -644.556 -268.792 -651.708 -304.345 -604.458C-329.958 -570.42 -137.856 -558.835 -157.702 -512.274C-181.571 -456.284 -401.984 -453.799 -343.728 -404.883C-281.981 -353.035 -78.5312 -376.053 -97.906 -321.878C-116.907 -269.498 -304.284 -280.466 -261.293 -247.079C-218.298 -213.691 -153.792 -219.148 -154.355 -183.841C-154.943 -146.769 73.123 -215.888 118.805 -183.455C164.487 -151.021 -245.096 -98.7464 -245.047 -54.045C-245.073 -11.2205 -193.463 -20.5477 -190.696 13.7949C-187.93 48.1362 -139.169 41.9654 -139.169 84.893" stroke="#996779" stroke-width="0.4" stroke-miterlimit="10"/>
<path id="Vector_52" d="M-176.477 -951.272C-198.407 -857.533 -135.742 -848.263 -182.625 -804.94C-245.368 -746.958 -206.301 -741.242 -204.147 -698.19C-201.467 -645.043 -265.309 -647.666 -298.763 -600.994C-323.244 -566.842 -159.789 -558.362 -180.209 -512.276C-204.532 -457.375 -407.797 -453.835 -348.095 -405.131C-284.638 -353.362 -102.91 -377.418 -122.266 -323.644C-141.35 -271.353 -309.462 -280.469 -266.471 -247.08C-223.476 -213.693 -171.005 -219.515 -172.088 -184.208C-173.224 -147.23 82.595 -218.356 128.273 -185.923C173.955 -153.489 -262.376 -100.014 -262.199 -54.3184C-262.097 -10.5909 -197.316 -21.1896 -194.55 13.1531C-191.784 47.4944 -148.992 41.9653 -148.992 84.8929" stroke="#9F6973" stroke-width="0.4" stroke-miterlimit="10"/>
<path id="Vector_53" d="M-187.41 -951.368C-210.336 -857.575 -136.773 -846.256 -185.968 -804.055C-253.085 -746.483 -226.129 -741.562 -223.955 -698.619C-221.246 -645.527 -261.803 -643.621 -293.186 -597.528C-316.515 -563.262 -181.723 -557.887 -202.716 -512.274C-227.48 -458.461 -413.604 -453.872 -352.461 -405.376C-287.287 -353.687 -127.293 -378.78 -146.622 -325.406C-165.79 -273.205 -314.636 -280.466 -271.641 -247.078C-228.646 -213.69 -188.21 -219.878 -189.817 -184.571C-191.497 -147.688 92.0673 -220.82 137.749 -188.387C183.431 -155.953 -279.653 -101.277 -279.343 -54.5892C-279.117 -9.95741 -201.162 -21.8288 -198.395 12.5125C-195.629 46.8552 -158.804 41.9666 -158.804 84.8942" stroke="#A46B6C" stroke-width="0.4" stroke-miterlimit="10"/>
<path id="Vector_54" d="M-198.343 -951.463C-222.265 -857.615 -137.86 -844.255 -189.312 -803.17C-260.882 -746.021 -245.957 -741.881 -243.76 -699.047C-241.017 -646.01 -258.267 -639.575 -287.604 -594.063C-309.768 -559.681 -203.645 -557.414 -225.22 -512.276C-250.421 -459.552 -419.405 -453.909 -356.824 -405.624C-289.933 -354.015 -151.668 -380.145 -170.975 -327.172C-190.229 -275.06 -319.806 -280.468 -276.811 -247.08C-233.816 -213.693 -205.411 -220.247 -207.547 -184.941C-209.773 -148.152 101.539 -223.291 147.221 -190.857C192.903 -158.423 -296.933 -102.547 -296.492 -54.8663C-296.137 -9.33159 -205.011 -22.4744 -202.245 11.8682C-199.479 46.2095 -168.624 41.964 -168.624 84.8916" stroke="#A96D66" stroke-width="0.4" stroke-miterlimit="10"/>
<path id="Vector_55" d="M-209.275 -951.558C-234.197 -857.655 -139.003 -842.266 -192.655 -802.286C-268.762 -745.575 -265.784 -742.201 -263.565 -699.476C-260.791 -646.495 -254.708 -635.527 -282.023 -590.598C-302.998 -556.098 -225.555 -556.938 -247.723 -512.276C-273.347 -460.64 -425.205 -453.947 -361.186 -405.869C-292.575 -354.342 -176.047 -381.507 -195.331 -328.935C-214.668 -276.913 -324.98 -280.468 -281.985 -247.079C-238.99 -213.691 -222.616 -220.611 -225.28 -185.305C-228.046 -148.61 111.012 -225.756 156.694 -193.322C202.376 -160.889 -314.21 -103.812 -313.644 -55.1383C-313.164 -8.69927 -208.864 -23.1147 -206.098 11.2265C-203.331 45.5692 -178.447 41.964 -178.447 84.8916" stroke="#AF6F60" stroke-width="0.4" stroke-miterlimit="10"/>
<path id="Vector_56" d="M-220.208 -951.655C-246.126 -857.697 -140.199 -840.29 -196.003 -801.402C-276.724 -745.146 -285.619 -742.522 -283.374 -699.905C-280.57 -646.979 -251.126 -631.476 -276.445 -587.132C-296.212 -552.513 -247.466 -556.462 -270.23 -512.275C-296.269 -461.725 -431.001 -453.984 -365.552 -406.114C-295.212 -354.669 -200.429 -382.869 -219.687 -330.698C-239.111 -278.766 -330.154 -280.466 -287.159 -247.079C-244.164 -213.692 -239.816 -220.978 -243.009 -185.671C-246.319 -149.07 120.484 -228.222 166.166 -195.789C211.848 -163.355 -331.49 -105.078 -330.792 -55.412C-330.184 -8.06992 -212.713 -23.7568 -209.947 10.5845C-207.181 44.9258 -188.262 41.9637 -188.262 84.8913" stroke="#B47159" stroke-width="0.4" stroke-miterlimit="10"/>
<path id="Vector_57" d="M-231.14 -951.751C-258.055 -857.739 -141.441 -838.327 -199.346 -800.517C-284.766 -744.74 -305.447 -742.842 -303.183 -700.335C-300.345 -647.464 -247.519 -627.426 -270.867 -583.669C-289.404 -548.93 -269.365 -555.987 -292.737 -512.277C-319.183 -462.814 -436.794 -454.027 -369.919 -406.363C-297.85 -355.001 -224.808 -384.235 -244.047 -332.464C-263.554 -280.622 -335.332 -280.469 -292.337 -247.08C-249.342 -213.693 -257.025 -221.345 -260.746 -186.038C-264.595 -149.531 129.953 -230.69 175.635 -198.257C221.317 -165.823 -348.774 -106.346 -347.944 -55.6852C-347.212 -7.43883 -216.566 -24.3984 -213.8 9.94286C-211.034 44.2842 -198.086 41.9637 -198.086 84.8914" stroke="#B97353" stroke-width="0.4" stroke-miterlimit="10"/>
<path id="Vector_58" d="M-242.073 -951.847C-269.984 -857.78 -142.728 -836.378 -202.69 -799.632C-292.887 -744.357 -325.274 -743.161 -322.987 -700.763C-320.119 -647.946 -243.884 -623.373 -265.286 -580.202C-282.57 -545.342 -291.253 -555.509 -315.24 -512.275C-342.079 -463.898 -442.583 -454.065 -374.281 -406.607C-300.477 -355.328 -249.187 -385.595 -268.399 -334.226C-287.989 -282.475 -340.498 -280.467 -297.507 -247.078C-254.512 -213.69 -274.218 -221.709 -278.475 -186.403C-282.864 -149.989 139.425 -233.155 185.107 -200.722C230.789 -168.288 -366.05 -107.611 -365.092 -55.9573C-364.231 -6.80794 -220.411 -25.039 -217.645 9.30232C-214.879 43.6436 -207.901 41.9649 -207.901 84.8926" stroke="#BF754D" stroke-width="0.4" stroke-miterlimit="10"/>
<path id="Vector_59" d="M-253.006 -951.943C-281.913 -857.821 -144.052 -834.447 -206.033 -798.749C-301.084 -744.002 -345.102 -743.482 -342.793 -701.192C-339.894 -648.432 -240.22 -619.321 -259.704 -576.737C-275.709 -541.756 -313.13 -555.032 -337.743 -512.275C-364.967 -464.983 -448.365 -454.107 -378.644 -406.855C-303.103 -355.661 -273.566 -386.96 -292.756 -335.991C-312.432 -284.33 -345.672 -280.467 -302.681 -247.08C-259.686 -213.692 -291.42 -222.076 -296.209 -186.771C-301.133 -150.45 148.897 -235.624 194.579 -203.19C240.261 -170.757 -383.331 -108.879 -382.24 -56.2326C-381.255 -6.17897 -224.261 -25.6828 -221.495 8.65851C-218.728 42.9998 -217.721 41.9642 -217.721 84.8905" stroke="#C47746" stroke-width="0.4" stroke-miterlimit="10"/>
<path id="Vector_60" d="M-263.939 -952.038C-293.842 -857.862 -145.415 -832.531 -209.377 -797.863C-309.357 -743.675 -364.93 -743.801 -362.598 -701.621C-359.665 -648.916 -236.533 -615.27 -254.123 -573.271C-268.826 -538.169 -334.996 -554.552 -360.247 -512.276C-387.844 -466.067 -454.146 -454.149 -383.003 -407.102C-305.723 -355.994 -297.937 -388.324 -317.104 -337.756C-336.864 -286.184 -350.838 -280.469 -307.847 -247.08C-264.852 -213.693 -308.609 -222.443 -313.931 -187.137C-319.391 -150.91 158.377 -238.091 204.059 -205.657C249.741 -173.224 -400.604 -110.145 -399.381 -56.5063C-398.268 -5.54963 -228.103 -26.3249 -225.337 8.01641C-222.57 42.3577 -227.529 41.9638 -227.529 84.8901" stroke="#C97840" stroke-width="0.4" stroke-miterlimit="10"/>
<path id="Vector_61" d="M-274.871 -952.134C-305.771 -857.903 -146.799 -830.636 -212.72 -796.979C-317.7 -743.382 -384.761 -744.121 -382.402 -702.05C-379.44 -649.4 -232.82 -611.217 -248.541 -569.806C-261.912 -534.583 -356.85 -554.074 -382.749 -512.276C-410.713 -467.149 -459.924 -454.192 -387.368 -407.348C-308.341 -356.327 -322.319 -389.686 -341.46 -339.519C-361.307 -288.037 -356.012 -280.467 -313.021 -247.079C-270.026 -213.691 -325.618 -222.803 -331.663 -187.501C-337.467 -151.364 167.849 -240.555 213.528 -208.122C259.21 -175.688 -417.884 -111.41 -416.532 -56.778C-415.291 -4.91707 -231.955 -26.965 -229.189 7.37628C-226.423 41.7176 -237.352 41.9654 -237.352 84.893" stroke="#CF7A39" stroke-width="0.4" stroke-miterlimit="10"/>
<path id="Vector_62" d="M-285.804 -952.23C-317.7 -857.943 -148.211 -828.757 -216.064 -796.093C-326.108 -743.12 -404.588 -744.439 -402.211 -702.477C-399.218 -649.883 -229.087 -607.166 -242.964 -566.339C-254.976 -530.994 -378.696 -553.59 -405.256 -512.274C-433.571 -468.231 -465.702 -454.234 -391.735 -407.593C-310.96 -356.659 -346.698 -391.049 -365.82 -341.282C-385.75 -289.89 -361.19 -280.466 -318.195 -247.079C-275.2 -213.691 -342.826 -223.167 -349.397 -187.868C-355.752 -151.824 177.318 -243.023 223 -210.59C268.682 -178.156 -435.164 -112.677 -433.685 -57.0515C-432.318 -4.28757 -235.809 -27.6069 -233.042 6.73443C-230.276 41.0757 -247.175 41.9653 -247.175 84.8929" stroke="#D47C33" stroke-width="0.4" stroke-miterlimit="10"/>
<path id="Vector_63" d="M-296.737 -952.326C-329.633 -857.985 -149.638 -826.901 -219.408 -795.211C-334.577 -742.9 -424.416 -744.76 -422.016 -702.909C-418.989 -650.37 -225.325 -603.12 -237.382 -562.876C-248.009 -527.412 -400.528 -553.111 -427.76 -512.276C-456.414 -469.312 -471.476 -454.282 -396.098 -407.841C-313.572 -356.997 -371.077 -392.413 -390.173 -343.048C-410.185 -291.746 -366.36 -280.469 -323.365 -247.08C-280.37 -213.693 -360.035 -223.535 -367.126 -188.235C-374.028 -152.285 186.794 -245.491 232.472 -213.058C278.154 -180.624 -452.444 -113.945 -450.833 -57.3263C-449.339 -3.65811 -239.658 -28.2502 -236.892 6.09111C-234.126 40.4324 -256.991 41.9637 -256.991 84.8913" stroke="#DA7E2D" stroke-width="0.4" stroke-miterlimit="10"/>
<path id="Vector_64" d="M-307.666 -952.421C-341.558 -858.025 -151.075 -825.062 -222.751 -794.325C-343.102 -742.713 -444.244 -745.079 -441.821 -703.336C-438.764 -650.852 -221.536 -599.073 -231.801 -559.41C-241.009 -523.827 -422.344 -552.626 -450.263 -512.276C-479.246 -470.39 -477.242 -454.327 -400.46 -408.086C-316.179 -357.332 -395.456 -393.775 -414.529 -344.811C-434.628 -293.598 -371.534 -280.468 -328.539 -247.08C-285.544 -213.693 -377.243 -223.9 -384.855 -188.601C-392.309 -152.744 196.266 -247.958 241.948 -215.524C287.63 -183.091 -469.717 -115.211 -467.977 -57.5995C-466.358 -3.02828 -243.5 -28.8931 -240.733 5.44958C-237.967 39.7909 -266.803 41.9639 -266.803 84.8915" stroke="#DF8026" stroke-width="0.4" stroke-miterlimit="10"/>
<path id="Vector_65" d="M-318.598 -952.518C-353.487 -858.067 -152.517 -823.247 -226.095 -793.441C-351.672 -742.569 -464.075 -745.4 -461.629 -703.765C-458.539 -651.336 -217.728 -595.028 -226.223 -555.944C-233.982 -520.243 -444.149 -552.14 -472.77 -512.275C-502.07 -471.466 -483.012 -454.373 -404.826 -408.332C-318.787 -357.668 -419.835 -395.138 -438.885 -346.573C-459.067 -295.451 -376.707 -280.466 -333.712 -247.078C-290.717 -213.69 -394.452 -224.263 -402.588 -188.964C-410.592 -153.201 205.739 -250.422 251.417 -217.988C297.099 -185.555 -487.001 -116.474 -485.129 -57.8703C-483.382 -2.39607 -247.353 -29.5323 -244.586 4.81036C-241.82 39.1517 -276.626 41.9664 -276.626 84.8941" stroke="#E48220" stroke-width="0.4" stroke-miterlimit="10"/>
<path id="Vector_66" d="M-329.531 -952.613C-365.416 -858.107 -153.962 -821.451 -229.438 -792.555C-360.28 -742.464 -483.903 -745.718 -481.435 -704.193C-478.314 -651.821 -213.89 -590.988 -220.642 -552.478C-226.921 -516.662 -465.936 -551.65 -495.273 -512.274C-524.875 -472.541 -488.533 -454.474 -409.189 -408.578C-321.12 -358.067 -444.214 -396.5 -463.241 -348.337C-483.51 -297.305 -381.882 -280.466 -338.887 -247.077C-295.892 -213.69 -411.664 -224.629 -420.322 -189.331C-428.873 -153.661 215.207 -252.889 260.889 -220.456C306.571 -188.022 -504.278 -117.741 -502.277 -58.1434C-500.402 -1.7649 -251.202 -30.1738 -248.436 4.16883C-245.67 38.5101 -286.446 41.9666 -286.446 84.8943" stroke="#EA841A" stroke-width="0.4" stroke-miterlimit="10"/>
<path id="Vector_67" d="M-340.464 -952.709C-377.346 -858.148 -155.4 -819.676 -232.782 -791.672C-368.919 -742.404 -503.731 -746.04 -501.24 -704.623C-498.089 -652.305 -210.03 -586.951 -215.06 -549.014C-219.823 -513.083 -487.707 -551.161 -517.777 -512.275C-547.673 -473.615 -494.353 -454.513 -413.552 -408.826C-323.784 -358.395 -468.593 -397.865 -487.594 -350.103C-507.946 -299.161 -387.052 -280.467 -344.057 -247.08C-301.062 -213.693 -428.869 -224.997 -438.051 -189.699C-447.15 -154.123 224.683 -255.358 270.361 -222.925C316.043 -190.491 -521.558 -119.01 -519.426 -58.4193C-517.426 -1.13777 -255.052 -30.8181 -252.285 3.52453C-249.519 37.8658 -296.262 41.9641 -296.262 84.8917" stroke="#EF8613" stroke-width="0.4" stroke-miterlimit="10"/>
<path id="Vector_68" d="M-351.397 -952.804C-389.274 -858.19 -156.823 -817.923 -236.125 -790.787C-377.579 -742.382 -523.558 -746.359 -521.044 -705.051C-517.859 -652.788 -206.146 -582.917 -209.479 -545.548C-212.69 -509.508 -509.463 -550.667 -540.28 -512.274C-570.455 -474.684 -500.171 -454.549 -417.914 -409.071C-326.444 -358.721 -492.967 -399.226 -511.949 -351.866C-532.385 -301.014 -392.222 -280.467 -349.23 -247.079C-306.235 -213.691 -446.078 -225.362 -455.78 -190.064C-465.43 -154.581 234.155 -257.823 279.837 -225.39C325.519 -192.956 -538.834 -120.275 -536.574 -58.6912C-534.445 -0.50537 -258.9 -31.4585 -256.134 2.88415C-253.368 37.2268 -306.081 41.9654 -306.081 84.8931" stroke="#F4880D" stroke-width="0.4" stroke-miterlimit="10"/>
<path id="Vector_69" d="M-362.33 -952.901C-401.204 -858.231 -158.234 -816.191 -239.469 -789.902C-386.252 -742.402 -543.389 -746.679 -540.85 -705.481C-537.634 -653.274 -202.241 -578.89 -203.898 -542.083C-205.52 -505.936 -530.992 -550.151 -562.783 -512.276C-593.026 -475.732 -505.995 -454.588 -422.273 -409.319C-329.105 -359.051 -517.343 -400.592 -536.298 -353.63C-556.82 -302.868 -397.388 -280.467 -354.397 -247.079C-311.402 -213.691 -463.283 -225.726 -473.506 -190.43C-483.707 -155.041 243.631 -260.29 289.313 -227.856C334.995 -195.423 -556.107 -121.541 -553.718 -58.9646C-551.465 0.125556 -262.743 -32.1003 -259.976 2.2423C-257.21 36.5836 -315.893 41.9667 -315.893 84.8929" stroke="#FA8A06" stroke-width="0.4" stroke-miterlimit="10"/>
<path id="Vector_70" d="M-373.262 -952.998C-413.136 -858.273 -159.619 -814.48 -242.813 -789.019C-394.928 -742.464 -563.217 -746.999 -560.658 -705.91C-557.409 -653.758 -198.32 -574.868 -198.32 -538.618C-198.32 -502.367 -552.918 -549.672 -585.29 -512.275C-615.986 -476.816 -511.818 -454.625 -426.643 -409.564C-331.777 -359.377 -541.725 -401.955 -560.658 -355.394C-581.263 -304.721 -402.566 -280.466 -359.575 -247.079C-316.58 -213.692 -480.495 -226.092 -491.243 -190.797C-501.991 -155.5 253.1 -262.758 298.782 -230.324C344.464 -197.891 -573.391 -122.808 -570.87 -59.2396C-568.489 0.75351 -266.596 -32.7437 -263.829 1.59891C-261.063 35.9415 -325.712 41.965 -325.712 84.8926" stroke="#FF8C00" stroke-width="0.4" stroke-miterlimit="10"/>
</g>
<g id="Group_5">
<path id="Vector_71" d="M-60.3454 -950.074C-80.7164 -904.875 -219.498 -860.772 -182.677 -828.06C-145.347 -794.894 16.5687 -770.931 -17.2107 -716.929C-61.7153 -645.79 -341.106 -693.128 -394.679 -639.781C-448.252 -586.434 32.7319 -545.057 -49.624 -481.943C-122.296 -426.251 -375.809 -441.893 -404.105 -401.218C-435.632 -356.287 73.3494 -323.148 -6.39502 -268.33C-76.1614 -220.37 -285.355 -257.615 -316.078 -232.555C-357.035 -199.149 -112.126 -180.396 -141.078 -130.961C-165.812 -88.7246 -356.925 -76.9469 -379.191 -49.445C-414.963 -5.25665 -146.335 41.1262 -337.679 80.5048" stroke="#FFBB00" stroke-width="0.4" stroke-miterlimit="10"/>
<path id="Vector_72" d="M-57.896 -949.905C-78.267 -904.705 -211.309 -860.016 -171.548 -827.806C-131.183 -795.112 24.9807 -769.121 -9.44402 -716.334C-55.7411 -645.343 -336.392 -691.047 -389.965 -637.701C-443.538 -584.356 38.1022 -542.355 -44.3442 -480.333C-116.326 -426.179 -365.492 -441.836 -393.893 -400.802C-425.348 -355.751 78.4329 -320.95 2.63967 -266.738C-62.7944 -219.935 -274.652 -256.542 -305.386 -231.14C-346.849 -196.87 -104.559 -180.34 -133.508 -130.906C-158.242 -88.6693 -351.793 -76.8851 -375.043 -49.2867C-412.83 -4.43384 -136.61 40.2663 -334.35 80.4394" stroke="#FFBF00" stroke-width="0.4" stroke-miterlimit="10"/>
<path id="Vector_73" d="M-55.4471 -949.736C-75.8181 -904.537 -203.12 -859.259 -160.416 -827.552C-117.017 -795.328 33.3657 -767.313 -1.6741 -715.739C-49.8015 -644.898 -331.671 -688.966 -385.244 -635.621C-438.817 -582.274 43.4908 -539.653 -39.0537 -478.722C-110.337 -426.107 -355.163 -441.776 -383.674 -400.387C-415.057 -355.215 83.4969 -318.762 11.6813 -265.148C-49.4506 -219.509 -263.943 -255.47 -294.688 -229.728C-336.649 -194.592 -96.9817 -180.287 -125.931 -130.853C-150.664 -88.6157 -346.661 -76.8274 -370.889 -49.1311C-410.702 -3.61648 -126.882 39.4036 -331.018 80.3725" stroke="#FFC200" stroke-width="0.4" stroke-miterlimit="10"/>
<path id="Vector_74" d="M-52.9979 -949.568C-73.3689 -904.368 -194.927 -858.505 -149.287 -827.299C-102.85 -795.549 41.7172 -765.509 6.09239 -715.146C-43.9068 -644.458 -326.958 -686.888 -380.531 -633.542C-434.104 -580.196 48.8873 -536.95 -33.7742 -477.113C-104.341 -426.032 -344.846 -441.72 -373.462 -399.973C-404.774 -354.681 88.5237 -316.586 20.7159 -263.558C-36.1441 -219.091 -253.236 -254.398 -283.993 -228.316C-326.448 -192.315 -89.4077 -180.235 -118.357 -130.8C-143.09 -88.5637 -341.543 -76.7714 -366.737 -48.9747C-408.593 -2.79956 -117.153 38.5419 -327.69 80.3052" stroke="#FFC600" stroke-width="0.4" stroke-miterlimit="10"/>
<path id="Vector_75" d="M-50.5485 -949.399C-70.9196 -904.199 -186.73 -857.751 -138.158 -827.046C-88.6791 -795.77 50.0386 -763.706 13.8628 -714.551C-38.0459 -644.02 -322.24 -684.808 -375.813 -631.461C-429.386 -578.115 54.3067 -534.242 -28.4869 -475.502C-98.325 -425.955 -334.516 -441.662 -363.246 -399.557C-394.49 -354.144 93.5204 -314.415 29.7543 -261.966C-22.8715 -218.681 -242.522 -253.324 -273.298 -226.903C-316.244 -190.035 -81.8335 -180.181 -110.782 -130.747C-135.516 -88.5102 -336.43 -76.7152 -362.59 -48.8194C-406.502 -1.98646 -107.431 37.6803 -324.365 80.2381" stroke="#FFCA00" stroke-width="0.4" stroke-miterlimit="10"/>
<path id="Vector_76" d="M-48.0996 -949.23C-68.4706 -904.03 -178.534 -856.997 -127.025 -826.792C-74.5011 -795.991 58.3332 -761.907 21.6329 -713.958C-32.2269 -643.586 -317.519 -682.728 -371.092 -629.383C-424.665 -576.036 59.7408 -531.535 -23.2 -473.894C-92.2947 -425.877 -324.192 -441.605 -353.031 -399.144C-384.203 -353.61 98.4789 -312.26 38.7923 -260.377C-9.63319 -218.283 -231.805 -252.252 -262.599 -225.492C-306.028 -187.757 -74.2559 -180.13 -103.209 -130.696C-127.942 -88.4592 -331.328 -76.6629 -358.439 -48.6652C-404.423 -1.17585 -97.7026 36.8163 -321.037 80.1699" stroke="#FFCE00" stroke-width="0.4" stroke-miterlimit="10"/>
<path id="Vector_77" d="M-45.6503 -949.062C-66.0213 -903.862 -170.333 -856.244 -115.896 -826.538C-60.3229 -796.212 66.5941 -760.11 29.3994 -713.363C-26.4568 -643.156 -312.806 -680.649 -366.379 -627.303C-419.952 -573.956 65.1864 -528.823 -17.9204 -472.284C-86.2566 -425.795 -313.874 -441.548 -342.819 -398.729C-373.919 -353.075 103.385 -310.109 47.8231 -258.787C3.55256 -217.892 -221.091 -251.177 -251.912 -224.08C-295.816 -185.477 -66.6894 -180.077 -95.6421 -130.643C-120.376 -88.407 -326.237 -76.6106 -354.295 -48.5098C-402.362 -0.367944 -87.9812 35.9535 -317.716 80.1016" stroke="#FFD100" stroke-width="0.4" stroke-miterlimit="10"/>
<path id="Vector_78" d="M-43.2048 -948.893C-63.5759 -903.693 -162.133 -855.494 -104.771 -826.285C-46.1484 -796.436 74.8211 -758.316 37.166 -712.768C-20.7356 -642.731 -308.092 -678.569 -361.662 -625.222C-415.235 -571.875 70.6585 -526.106 -12.637 -470.672C-80.1958 -425.708 -303.553 -441.488 -332.607 -398.312C-363.635 -352.536 108.242 -307.969 56.8577 -257.194C16.693 -217.506 -210.373 -250.102 -241.22 -222.666C-285.6 -183.196 -59.1228 -180.022 -88.0717 -130.587C-112.805 -88.3495 -321.15 -76.5573 -350.148 -48.3506C-400.313 0.44238 -78.2599 35.0945 -314.391 80.0385" stroke="#FFD500" stroke-width="0.4" stroke-miterlimit="10"/>
<path id="Vector_79" d="M-40.7555 -948.724C-61.1265 -903.524 -153.925 -854.742 -93.6417 -826.031C-31.9701 -796.659 83.0254 -756.528 44.9326 -712.174C-15.0672 -642.314 -303.375 -676.489 -356.948 -623.143C-410.521 -569.797 76.142 -523.388 -7.35357 -469.063C-74.1236 -425.621 -293.227 -441.431 -322.391 -397.898C-353.352 -352.001 113.039 -305.838 65.8961 -255.605C29.792 -217.131 -199.644 -249.028 -230.522 -221.253C-275.37 -180.914 -51.5449 -179.969 -80.4938 -130.535C-105.227 -88.2984 -316.059 -76.5074 -345.997 -48.1949C-398.271 1.24651 -68.5308 34.232 -311.058 79.9704" stroke="#FFD900" stroke-width="0.4" stroke-miterlimit="10"/>
<path id="Vector_80" d="M-38.3061 -948.555C-58.6771 -903.355 -145.716 -853.993 -82.5125 -825.778C-17.7879 -796.885 91.1997 -754.742 52.6993 -711.581C-9.45157 -641.904 -298.661 -674.41 -352.234 -621.065C-405.807 -567.718 81.6482 -520.665 -2.07375 -467.454C-68.0362 -425.531 -282.909 -441.375 -312.183 -397.484C-343.071 -351.467 117.756 -303.716 74.927 -254.015C42.827 -216.761 -188.923 -247.954 -219.834 -219.841C-265.142 -178.632 -43.9782 -179.917 -72.9271 -130.482C-97.6606 -88.246 -310.987 -76.459 -341.853 -48.0393C-396.248 2.0478 -58.8131 33.3693 -307.737 79.9035" stroke="#FFDD00" stroke-width="0.4" stroke-miterlimit="10"/>
<path id="Vector_81" d="M-35.8571 -948.386C-56.2281 -903.186 -137.508 -853.244 -71.38 -825.524C-3.59856 -797.111 99.351 -752.96 60.4732 -710.985C-3.88541 -641.501 -293.94 -672.328 -347.51 -618.983C-401.083 -565.636 87.1918 -517.935 3.2207 -465.842C-61.9153 -425.435 -272.577 -441.314 -301.96 -397.067C-332.777 -350.93 122.405 -301.599 83.9727 -252.423C55.8163 -216.395 -178.186 -246.878 -209.132 -218.428C-254.9 -176.349 -36.3968 -179.862 -65.3457 -130.429C-90.0792 -88.1911 -305.903 -76.411 -337.694 -47.8827C-394.226 2.84747 -49.0769 32.5078 -304.402 79.8364" stroke="#FFE100" stroke-width="0.4" stroke-miterlimit="10"/>
<path id="Vector_82" d="M-33.408 -948.218C-53.7791 -903.018 -129.301 -852.498 -60.2511 -825.271C10.5871 -797.338 107.468 -751.185 68.2396 -710.391C1.61294 -641.11 -289.223 -670.25 -342.796 -616.904C-396.369 -563.557 92.7467 -515.201 8.50013 -464.233C-55.7943 -425.336 -262.26 -441.258 -291.748 -396.653C-322.493 -350.395 126.949 -299.492 93.007 -250.833C68.7339 -216.034 -167.458 -245.804 -198.437 -217.016C-244.658 -174.068 -28.8229 -179.81 -57.7718 -130.375C-82.5053 -88.1391 -300.835 -76.3656 -333.547 -47.7261C-392.222 3.64311 -39.3518 31.6475 -301.077 79.7706" stroke="#FFE400" stroke-width="0.4" stroke-miterlimit="10"/>
<path id="Vector_83" d="M-30.9586 -948.049C-51.3296 -902.849 -121.089 -851.751 -49.122 -825.017C24.773 -797.567 115.563 -749.414 76.0063 -709.798C7.04365 -640.729 -284.51 -668.171 -338.083 -614.826C-391.656 -561.479 98.3283 -512.461 13.7798 -462.624C-49.6541 -425.234 -251.938 -441.201 -281.54 -396.239C-312.217 -349.859 131.383 -297.387 102.038 -249.243C81.5764 -215.674 -156.728 -244.728 -187.749 -215.604C-234.42 -171.785 -21.2562 -179.758 -50.2051 -130.323C-74.9386 -88.0866 -295.774 -76.3211 -329.403 -47.5705C-390.233 4.43644 -29.6341 30.785 -297.756 79.7025" stroke="#FFE800" stroke-width="0.4" stroke-miterlimit="10"/>
<path id="Vector_84" d="M-28.5094 -947.88C-48.8804 -902.68 -112.741 -851.056 -37.9892 -824.764C39.1022 -797.849 123.632 -747.649 83.7765 -709.203C12.4138 -640.359 -279.788 -666.09 -333.361 -612.745C-386.934 -559.398 103.948 -509.712 19.0708 -461.014C-43.4839 -425.124 -241.609 -441.143 -271.316 -395.824C-301.922 -349.323 135.708 -295.281 111.084 -247.652C94.3659 -215.314 -145.984 -243.653 -177.047 -214.191C-224.163 -169.502 -13.6746 -179.705 -42.6272 -130.271C-67.3608 -88.0344 -290.71 -76.2783 -325.248 -47.4165C-388.244 5.22553 -19.9014 29.9208 -294.423 79.6341" stroke="#FFEC00" stroke-width="0.4" stroke-miterlimit="10"/>
<path id="Vector_85" d="M-26.0606 -947.711C-46.4316 -902.511 -104.56 -850.305 -26.8606 -824.511C53.2574 -798.072 131.673 -745.891 91.5465 -708.609C17.7043 -640.006 -275.072 -664.012 -328.645 -610.666C-382.218 -557.319 109.597 -506.953 24.3537 -459.405C-37.3066 -425.01 -231.288 -441.087 -261.105 -395.41C-291.639 -348.789 139.881 -293.175 120.118 -246.062C107.064 -214.95 -135.248 -242.578 -166.352 -212.779C-213.91 -167.218 -6.10468 -179.652 -35.0536 -130.218C-59.7871 -87.982 -285.65 -76.2366 -321.097 -47.2609C-386.271 6.01343 -10.1729 29.0581 -291.095 79.5673" stroke="#FFF000" stroke-width="0.4" stroke-miterlimit="10"/>
<path id="Vector_86" d="M-23.6109 -947.542C-43.982 -902.342 -96.3776 -849.553 -15.7312 -824.256C67.4171 -798.293 139.693 -744.139 99.3134 -708.014C22.9163 -639.667 -270.354 -661.932 -323.927 -608.585C-377.5 -555.238 115.277 -504.185 29.6375 -457.793C-31.1058 -424.888 -220.966 -441.026 -250.892 -394.993C-281.355 -348.251 143.901 -291.058 129.153 -244.471C119.688 -214.576 -124.353 -241.48 -155.66 -211.365C-203.41 -164.9 1.46598 -179.597 -27.4829 -130.162C-52.2165 -87.9258 -280.6 -76.1924 -316.953 -47.1016C-384.312 6.80248 -0.454897 28.1993 -287.77 79.5029" stroke="#FFF400" stroke-width="0.4" stroke-miterlimit="10"/>
<path id="Vector_87" d="M-21.162 -947.374C-41.5331 -902.174 -88.1925 -848.802 -4.60258 -824.003C81.5724 -798.517 147.689 -742.396 107.08 -707.42C28.0446 -639.345 -265.641 -659.851 -319.214 -606.506C-372.787 -553.159 120.99 -501.406 34.9205 -456.184C-24.8906 -424.761 -210.645 -440.97 -240.677 -394.579C-271.071 -347.717 147.75 -288.931 138.191 -242.88C132.236 -214.19 -113.658 -240.413 -144.962 -209.953C-193.221 -162.627 9.04344 -179.545 -19.9055 -130.11C-44.639 -87.8737 -275.543 -76.1551 -312.798 -46.9463C-382.353 7.58477 9.27743 27.3377 -284.438 79.4358" stroke="#FFF700" stroke-width="0.4" stroke-miterlimit="10"/>
<path id="Vector_88" d="M-18.7162 -947.206C-39.0873 -902.006 -80.0142 -848.051 6.52675 -823.751C95.7321 -798.743 155.664 -740.663 114.85 -706.828C33.0906 -639.047 -260.923 -657.773 -314.496 -604.428C-368.069 -551.081 126.749 -498.614 40.2042 -454.575C-18.6521 -424.626 -200.32 -440.913 -230.465 -394.166C-260.787 -347.183 151.407 -286.781 147.226 -241.292C144.697 -213.788 -102.97 -239.345 -134.27 -208.542C-183.043 -160.355 16.6141 -179.494 -12.3348 -130.059C-37.0683 -87.8229 -270.614 -76.1365 -308.651 -46.7924C-380.625 8.32815 18.9992 26.4735 -281.113 79.366" stroke="#FFFB00" stroke-width="0.4" stroke-miterlimit="10"/>
<path id="Vector_89" d="M-16.2672 -947.037C-36.6383 -901.837 -71.8328 -847.3 17.6555 -823.498C109.887 -798.966 163.615 -738.936 122.616 -706.234C38.0341 -638.769 -256.206 -655.695 -309.779 -602.349C-363.352 -549.002 132.549 -495.804 45.4873 -452.966C-12.3991 -424.484 -189.998 -440.856 -220.249 -393.751C-250.5 -346.647 154.86 -284.6 156.26 -239.701C157.083 -213.359 -92.2832 -238.277 -123.579 -207.13C-172.862 -158.081 24.1842 -179.44 -4.76471 -130.007C-29.4983 -87.7691 -265.456 -76.0813 -304.503 -46.6367C-378.474 9.14023 28.724 25.6109 -277.789 79.2992" stroke="#FFFF00" stroke-width="0.4" stroke-miterlimit="10"/>
</g>
</g>
</g>
<g id="banner" filter="url(#filter0_dd_5_2)">
<rect x="-648" y="-58" width="964" height="270" rx="10" fill="url(#paint0_linear_5_2)"/>
<g id="image">
<mask id="mask0_5_2" style="mask-type:luminance" maskUnits="userSpaceOnUse" x="0" y="0" width="211" height="149">
<g id="clip0_30678_115803">
<path id="Vector_90" d="M210.462 0.5H0V148.5H210.462V0.5Z" fill="white"/>
</g>
</mask>
<g mask="url(#mask0_5_2)">
<g id="Group_6">
<path id="Vector_91" d="M105.139 148.5C145.923 148.5 178.985 115.369 178.985 74.5C178.985 33.6309 145.923 0.5 105.139 0.5C64.3544 0.5 31.2924 33.6309 31.2924 74.5C31.2924 115.369 64.3544 148.5 105.139 148.5Z" fill="url(#paint1_linear_5_2)"/>
<path id="Vector_92" d="M55.3108 119.64V119.566C60.3508 119.566 63.4524 115.626 67.1816 112.296C69.8954 109.891 72.9231 107.8 77.2985 107.8C79.2554 107.8 80.9354 107.819 82.3385 107.874H92.64C94.1539 107.874 95.3724 109.428 95.3724 111.352C95.3724 113.276 94.1539 114.83 92.64 114.83H82.9662C81.0093 115.237 79.5139 117.383 79.5139 119.992C79.5139 121.971 80.3816 123.673 81.637 124.561C81.9508 124.672 83.4277 125.172 85.4031 125.838C86.677 126.226 87.877 126.633 89.0216 127.059L89.2616 127.133C93.5077 128.576 98.0862 130.111 98.917 130.352C99.4708 130.389 99.9693 130.352 100.412 130.222L115.662 117.605L118.431 115.052C118.56 114.941 118.708 114.849 118.837 114.756C119.04 114.627 119.243 114.516 119.465 114.423C119.631 114.349 119.815 114.312 120 114.275C120.203 114.238 120.388 114.22 120.591 114.22C120.868 114.22 121.126 114.257 121.385 114.331C123.637 114.571 125.409 116.958 125.409 119.899C125.409 121.453 124.911 122.841 124.099 123.858C123.785 124.284 123.415 124.617 123.028 124.894L121.975 125.875L98.0862 147.982C97.9939 148.019 97.8831 148.075 97.7908 148.13C97.2554 148.371 96.6831 148.519 96.0924 148.519C95.7416 148.519 95.3908 148.463 95.0585 148.389L94.9477 148.352C86.8616 145.725 70.1354 140.305 62.3077 137.844C62.1231 137.752 61.9385 137.659 61.7354 137.567C59.7416 136.919 57.0093 136.161 55.3108 136.161V134.699H55.2924V119.659L55.3108 119.64Z" fill="#F7AD76"/>
<g id="Group_7" filter="url(#filter1_dd_5_2)">
<g id="Mask group">
<mask id="mask1_5_2" style="mask-type:alpha" maskUnits="userSpaceOnUse" x="18" y="9" width="93" height="55">
<g id="Group_8">
<path id="Vector_93" d="M18.3693 19C18.3693 13.894 22.5046 9.75 27.6 9.75H100.874C105.969 9.75 110.105 13.894 110.105 19V54.113C110.105 59.219 105.969 63.363 100.874 63.363H27.6C22.5046 63.363 18.3693 59.219 18.3693 54.113V19Z" fill="#F5F8FF"/>
</g>
</mask>
<g mask="url(#mask1_5_2)">
<g id="Group_9">
<path id="Vector_94" d="M95.3354 9.75H33.1385C24.9816 9.75 18.3693 16.3761 18.3693 24.55V55.1305C18.3693 63.3044 24.9816 69.9305 33.1385 69.9305H95.3354C103.492 69.9305 110.105 63.3044 110.105 55.1305V24.55C110.105 16.3761 103.492 9.75 95.3354 9.75Z" fill="white"/>
<path id="Vector_95" d="M18.3693 19C18.3693 13.894 22.5046 9.75 27.6 9.75H100.874C105.969 9.75 110.105 13.894 110.105 19V54.113C110.105 59.219 105.969 63.363 100.874 63.363H27.6C22.5046 63.363 18.3693 59.219 18.3693 54.113V19Z" fill="white"/>
<path id="Vector_96" opacity="0.8" d="M6.64621 81.1045C1.55083 81.1045 -1.64302 75.573 0.88621 71.133C1.42159 70.1895 2.17852 69.3939 3.1016 68.8019L7.18159 66.212C10.4493 64.14 13.237 61.3465 15.3047 58.0719L21.9693 47.49C22.8185 46.121 23.9077 44.9185 25.1816 43.9195L25.7539 43.457C30.1477 39.979 36.2585 39.683 40.9662 42.6985C42.6647 43.79 44.0862 45.2514 45.1201 46.972L48.1293 51.9485C51.2308 57.073 58.1354 58.294 62.7877 54.52C63.9877 53.558 64.9293 52.3185 65.5754 50.9125L73.5139 33.393C74.4185 31.395 75.84 29.656 77.6308 28.361C82.4862 24.8645 89.1324 25.253 93.5447 29.323L95.3354 30.9694L106.283 44.3265L114.129 55.3155C115.699 57.4985 118.486 58.442 121.034 57.6465C124.394 56.592 127.957 58.553 128.88 61.957L130.265 67.0445C132.222 74.241 126.794 81.3265 119.354 81.3265L6.64621 81.1045Z" fill="#90278E"/>
<path id="Vector_97" d="M16.3385 78.533C13.0524 78.533 11.1693 74.796 13.1262 72.1505C13.5139 71.6325 14.0124 71.207 14.5847 70.9295L18.1662 69.172C20.8062 67.877 23.1324 66.0085 24.9785 63.733L29.7601 57.8315C30.6832 56.703 31.7724 55.7225 33.0278 54.964L33.397 54.742C36.9416 52.559 41.3724 52.3555 45.1016 54.224C46.7262 55.038 48.1478 56.2035 49.2555 57.628L51.1201 60.033C53.9078 63.622 58.9478 64.51 62.7878 62.0865C63.9878 61.328 65.0032 60.292 65.7232 59.0525L71.4093 49.303C72.4247 47.564 73.9016 46.121 75.6555 45.122C79.477 42.976 84.2032 43.235 87.7662 45.8065L89.5016 47.046L98.3632 55.445L104.511 62.142C105.951 63.696 108.111 64.362 110.179 63.8625C113.095 63.1595 116.068 64.769 117.046 67.5995L117.508 68.913C119.188 73.7045 115.625 78.718 110.548 78.718L16.357 78.57L16.3385 78.533Z" fill="#292974"/>
</g>
</g>
</g>
</g>
<g id="Group_10" filter="url(#filter2_dd_5_2)">
<path id="Vector_98" d="M184.523 26.3999H90.3693C85.2713 26.3999 81.1385 30.5413 81.1385 35.6499V91.1499C81.1385 96.2585 85.2713 100.4 90.3693 100.4H184.523C189.62 100.4 193.754 96.2585 193.754 91.1499V35.6499C193.754 30.5413 189.62 26.3999 184.523 26.3999Z" fill="white"/>
</g>
<path id="Vector_99" d="M119.908 42.1249V86.5249C119.908 90.0954 122.806 92.9999 126.369 92.9999C129.932 92.9999 132.831 90.0954 132.831 86.5249V42.1249C132.831 38.5544 129.932 35.6499 126.369 35.6499C122.806 35.6499 119.908 38.5544 119.908 42.1249Z" fill="#00BFF2"/>
<path id="Vector_100" d="M97.7538 56.925V86.525C97.7538 90.0955 100.652 93 104.215 93C107.778 93 110.677 90.0955 110.677 86.525V56.925C110.677 53.3545 107.778 50.45 104.215 50.45C100.652 50.45 97.7538 53.3545 97.7538 56.925Z" fill="url(#paint2_linear_5_2)"/>
<path id="Vector_101" d="M142.062 68.025V86.525C142.062 90.0955 144.96 93 148.523 93C152.086 93 154.985 90.0955 154.985 86.525V68.025C154.985 64.4545 152.086 61.55 148.523 61.55C144.96 61.55 142.062 64.4545 142.062 68.025Z" fill="url(#paint3_linear_5_2)"/>
<path id="Vector_102" d="M164.215 58.775V84.6751C164.215 88.2456 167.114 91.1501 170.677 91.1501C174.24 91.1501 177.139 88.2456 177.139 84.6751V58.775C177.139 55.2045 174.24 52.3 170.677 52.3C167.114 52.3 164.215 55.2045 164.215 58.775Z" fill="#90278E"/>
<path id="Vector_103" d="M55.2923 113.35H44.2154V141.1H55.2923V113.35Z" fill="#292974"/>
</g>
</g>
</g>
</g>
</g>
</g>
<defs>
<filter id="filter0_dd_5_2" x="-648" y="-58" width="964" height="271" filterUnits="userSpaceOnUse" color-interpolation-filters="sRGB">
<feFlood flood-opacity="0" result="BackgroundImageFix"/>
<feColorMatrix in="SourceAlpha" type="matrix" values="0 0 0 0 0 0 0 0 0 0 0 0 0 0 0 0 0 0 127 0" result="hardAlpha"/>
<feMorphology radius="8" operator="erode" in="SourceAlpha" result="effect1_dropShadow_5_2"/>
<feOffset dy="2"/>
<feGaussianBlur stdDeviation="1.5"/>
<feComposite in2="hardAlpha" operator="out"/>
<feColorMatrix type="matrix" values="0 0 0 0 0 0 0 0 0 0 0 0 0 0 0 0 0 0 0.05 0"/>
<feBlend mode="normal" in2="BackgroundImageFix" result="effect1_dropShadow_5_2"/>
<feColorMatrix in="SourceAlpha" type="matrix" values="0 0 0 0 0 0 0 0 0 0 0 0 0 0 0 0 0 0 127 0" result="hardAlpha"/>
<feMorphology radius="5" operator="erode" in="SourceAlpha" result="effect2_dropShadow_5_2"/>
<feOffset dy="3"/>
<feGaussianBlur stdDeviation="1.5"/>
<feComposite in2="hardAlpha" operator="out"/>
<feColorMatrix type="matrix" values="0 0 0 0 0.0117647 0 0 0 0 0.6 0 0 0 0 1 0 0 0 0.05 0"/>
<feBlend mode="normal" in2="effect1_dropShadow_5_2" result="effect2_dropShadow_5_2"/>
<feBlend mode="normal" in="SourceGraphic" in2="effect2_dropShadow_5_2" result="shape"/>
</filter>
<filter id="filter1_dd_5_2" x="6.36926" y="-0.25" width="115.735" height="77.613" filterUnits="userSpaceOnUse" color-interpolation-filters="sRGB">
<feFlood flood-opacity="0" result="BackgroundImageFix"/>
<feColorMatrix in="SourceAlpha" type="matrix" values="0 0 0 0 0 0 0 0 0 0 0 0 0 0 0 0 0 0 127 0" result="hardAlpha"/>
<feOffset dy="4"/>
<feGaussianBlur stdDeviation="5"/>
<feColorMatrix type="matrix" values="0 0 0 0 0.607843 0 0 0 0 0.67451 0 0 0 0 0.737255 0 0 0 0.35 0"/>
<feBlend mode="normal" in2="BackgroundImageFix" result="effect1_dropShadow_5_2"/>
<feColorMatrix in="SourceAlpha" type="matrix" values="0 0 0 0 0 0 0 0 0 0 0 0 0 0 0 0 0 0 127 0" result="hardAlpha"/>
<feOffset dy="2"/>
<feGaussianBlur stdDeviation="6"/>
<feColorMatrix type="matrix" values="0 0 0 0 0.89625 0 0 0 0 0.930414 0 0 0 0 0.995833 0 0 0 0.5 0"/>
<feBlend mode="normal" in2="effect1_dropShadow_5_2" result="effect2_dropShadow_5_2"/>
<feBlend mode="normal" in="SourceGraphic" in2="effect2_dropShadow_5_2" result="shape"/>
</filter>
<filter id="filter2_dd_5_2" x="69.1385" y="16.3999" width="136.615" height="98" filterUnits="userSpaceOnUse" color-interpolation-filters="sRGB">
<feFlood flood-opacity="0" result="BackgroundImageFix"/>
<feColorMatrix in="SourceAlpha" type="matrix" values="0 0 0 0 0 0 0 0 0 0 0 0 0 0 0 0 0 0 127 0" result="hardAlpha"/>
<feOffset dy="4"/>
<feGaussianBlur stdDeviation="5"/>
<feColorMatrix type="matrix" values="0 0 0 0 0.607843 0 0 0 0 0.67451 0 0 0 0 0.737255 0 0 0 0.35 0"/>
<feBlend mode="normal" in2="BackgroundImageFix" result="effect1_dropShadow_5_2"/>
<feColorMatrix in="SourceAlpha" type="matrix" values="0 0 0 0 0 0 0 0 0 0 0 0 0 0 0 0 0 0 127 0" result="hardAlpha"/>
<feOffset dy="2"/>
<feGaussianBlur stdDeviation="6"/>
<feColorMatrix type="matrix" values="0 0 0 0 0.89625 0 0 0 0 0.930414 0 0 0 0 0.995833 0 0 0 0.5 0"/>
<feBlend mode="normal" in2="effect1_dropShadow_5_2" result="effect2_dropShadow_5_2"/>
<feBlend mode="normal" in="SourceGraphic" in2="effect2_dropShadow_5_2" result="shape"/>
</filter>
<linearGradient id="paint0_linear_5_2" x1="-648" y1="-58" x2="316" y2="212" gradientUnits="userSpaceOnUse">
<stop stop-color="#00BFF2"/>
<stop offset="1" stop-color="#1285BB"/>
</linearGradient>
<linearGradient id="paint1_linear_5_2" x1="105.139" y1="148.5" x2="105.139" y2="0.499994" gradientUnits="userSpaceOnUse">
<stop stop-color="#F3F8FF"/>
<stop offset="0.505208" stop-color="#B9D9FF"/>
<stop offset="1" stop-color="#7AAFFF"/>
</linearGradient>
<linearGradient id="paint2_linear_5_2" x1="743.908" y1="376.103" x2="743.908" y2="4305.45" gradientUnits="userSpaceOnUse">
<stop stop-color="#00BFF2"/>
<stop offset="1" stop-color="#009CC6"/>
</linearGradient>
<linearGradient id="paint3_linear_5_2" x1="148.523" y1="61.55" x2="148.523" y2="93.8737" gradientUnits="userSpaceOnUse">
<stop stop-color="#BFDCFF"/>
<stop offset="0.395833" stop-color="#B3D5FF"/>
<stop offset="1" stop-color="#79B6FF"/>
</linearGradient>
<clipPath id="clip0_5_2">
<rect width="1440" height="4944" fill="white" transform="translate(-886 -3087)"/>
</clipPath>
</defs>
</svg>
