<svg width="373" height="220" viewBox="0 0 373 220" fill="none" xmlns="http://www.w3.org/2000/svg">
<path d="M362.397 113.665C376.506 120.969 376.506 132.991 362.565 140.296L234.444 214.521C220.502 221.826 197.658 221.826 183.548 214.521L10.6034 119.555C-3.50634 112.251 -3.50634 100.229 10.4354 92.7718L136.137 21.7499C150.079 14.4454 172.923 14.4454 187.033 21.7499L362.397 113.665Z" fill="url(#paint0_linear_100_5233)"/>
<path fill-rule="evenodd" clip-rule="evenodd" d="M79.3821 156.091C92.9624 127.906 123.554 103.844 173.165 106.458C239.332 109.944 266.171 107.731 298.972 100.807C306.91 99.1306 313.187 95.8641 318.307 91.9707C322.657 94.359 322.367 94.0822 327.101 96.058C318.134 101.823 307.274 107.264 295.732 111.217C260.546 123.268 145.078 109.83 129.07 153.567C124.135 167.05 122.479 173.813 122.288 179.143C106.28 170.95 94.2077 165.423 79.3821 156.091Z" fill="url(#paint1_linear_100_5233)"/>
<path d="M41.0091 124.225L10.9786 107.837L40.3631 123.87L112.029 81.2148L112.675 81.5699L41.0091 124.225Z" fill="white"/>
<path d="M40.3631 123.871L10.9786 107.837L39.7171 123.517L111.383 80.8603L112.029 81.2154L40.3631 123.871Z" fill="white"/>
<path d="M39.7171 123.516L10.9786 107.836L39.0712 123.161L110.737 80.5055L111.383 80.8591L39.7171 123.516Z" fill="white"/>
<path d="M39.0712 123.161L10.9786 107.836L38.4252 122.806L110.089 80.1521L110.737 80.5057L39.0712 123.161Z" fill="white"/>
<path d="M38.4252 122.805L10.9786 107.836L37.7792 122.45L109.443 79.7962L110.092 80.1498L110.089 80.1513L38.4252 122.805Z" fill="white"/>
<path d="M37.7792 122.451L10.9786 107.836L37.1332 122.097L108.797 79.4417L109.446 79.7953L109.443 79.7969L37.7792 122.451Z" fill="white"/>
<path d="M37.1332 122.097L10.9786 107.837L36.4888 121.742L108.153 79.0884L108.8 79.442H108.797L37.1332 122.097Z" fill="white"/>
<path d="M36.4888 121.741L10.9786 107.835L35.8428 121.386L107.507 78.732L108.154 79.0855L108.153 79.0871L36.4888 121.741Z" fill="white"/>
<path d="M35.8428 121.386L10.9786 107.836L35.1968 121.031L106.861 78.3775L107.508 78.7311L107.507 78.7327L35.8428 121.386Z" fill="#FEFFFF"/>
<path d="M35.1968 121.032L10.9786 107.837L34.5508 120.678L106.215 78.0245L106.862 78.3766L106.861 78.3782L35.1968 121.032Z" fill="#FEFFFF"/>
<path d="M34.5508 120.678L10.9786 107.836L33.9049 120.323L105.569 77.6687L106.216 78.0224L106.215 78.0239L34.5508 120.678Z" fill="#FEFFFF"/>
<path d="M33.9049 120.322L10.9786 107.836L33.2589 119.967L104.923 77.3133L105.572 77.6669L105.569 77.6684L33.9049 120.322Z" fill="#FDFEFF"/>
<path d="M33.2589 119.968L10.9786 107.836L32.6129 119.614L104.277 76.9604L104.926 77.3124L104.923 77.314L33.2589 119.968Z" fill="#FDFEFF"/>
<path d="M32.6129 119.614L10.9786 107.836L31.9684 119.259L103.631 76.605L104.28 76.9586L104.277 76.9602L32.6129 119.614Z" fill="#FCFEFF"/>
<path d="M31.9684 119.258L10.9786 107.835L31.3225 118.903L102.985 76.2491L103.634 76.6026L103.631 76.6042L31.9684 119.258Z" fill="#FBFDFE"/>
<path d="M31.3225 118.904L10.9786 107.836L30.6765 118.548L102.341 75.8961L102.988 76.2481L102.985 76.2497L31.3225 118.904Z" fill="#FAFDFE"/>
<path d="M30.6765 118.548L10.9786 107.836L30.0305 118.195L101.695 75.5407L102.344 75.8927L102.341 75.8959L30.6765 118.548Z" fill="#FAFCFE"/>
<path d="M30.0305 118.195L10.9786 107.836L29.3845 117.84L101.049 75.1858L101.698 75.5394L101.695 75.541L30.0305 118.195Z" fill="#FAFCFE"/>
<path d="M29.3845 117.84L10.9786 107.836L28.7385 117.485L100.403 74.8308L101.052 75.1844L101.049 75.186L29.3845 117.84Z" fill="#F9FBFE"/>
<path d="M28.7385 117.483L10.9786 107.835L28.0941 117.128L99.7566 74.476L100.406 74.828L100.403 74.8296L28.7385 117.483Z" fill="#F8FAFD"/>
<path d="M28.0941 117.13L10.9786 107.837L27.4481 116.777L99.1106 74.123L99.7597 74.4749L99.7566 74.4781L28.0941 117.13Z" fill="#F6FBFE"/>
<path d="M27.4481 116.776L10.9786 107.836L26.8021 116.42L98.4646 73.7666L99.1137 74.1202L99.1106 74.1218L27.4481 116.776Z" fill="#F6FAFD"/>
<path d="M26.8021 116.421L10.9786 107.836L26.1561 116.065L97.8186 73.4132L98.4677 73.7652L98.4646 73.7668L26.8021 116.421Z" fill="#F5F9FD"/>
<path d="M26.1561 116.065L10.9786 107.836L25.5102 115.712L97.1727 73.0578L97.8232 73.4098L97.8186 73.4129L26.1561 116.065Z" fill="#F4F8FD"/>
<path d="M25.5102 115.712L10.9786 107.836L24.8642 115.357L96.5267 72.7029L97.1773 73.0565L97.1727 73.0581L25.5102 115.712Z" fill="#F2F8FD"/>
<path d="M24.8642 115.357L10.9786 107.836L24.2182 115.002L95.8807 72.3495L96.5313 72.7015L96.5267 72.7031L24.8642 115.357Z" fill="#F1F7FD"/>
<path d="M24.2182 115.001L10.9786 107.836L23.5737 114.646L95.2347 71.9936L95.8853 72.3456L95.8807 72.3487L24.2182 115.001Z" fill="#F0F6FC"/>
<path d="M23.5737 114.646L10.9786 107.836L22.9278 114.292L94.5887 71.6402L95.2393 71.9906L95.2347 71.9938L23.5737 114.646Z" fill="#EFF5FC"/>
<path d="M22.9278 114.293L10.9786 107.836L22.2818 113.938L93.9427 71.2853L94.5933 71.6373L94.5887 71.6405L22.9278 114.293Z" fill="#EEF4FC"/>
<path d="M22.2818 113.937L10.9786 107.836L21.6358 113.582L93.2968 70.9298L93.9474 71.2819L93.9427 71.285L22.2818 113.937Z" fill="#ECF3FB"/>
<path d="M21.6358 113.583L10.9786 107.837L20.9898 113.229L92.6508 70.5769L93.3029 70.9274L93.2968 70.9305L21.6358 113.583Z" fill="#EAF2FB"/>
<path d="M20.9898 113.229L10.9786 107.836L20.3438 112.873L92.0048 70.2211L92.6569 70.5731L92.6508 70.5763L20.9898 113.229Z" fill="#E7F0FA"/>
<path d="M20.3438 112.874L10.9786 107.837L19.6978 112.519L91.3588 69.8682L92.0109 70.2186L92.0048 70.2218L20.3438 112.874Z" fill="#E6EFFA"/>
<path d="M19.6979 112.519L10.9786 107.836L19.0534 112.163L90.7128 69.5127L91.365 69.8631L91.3588 69.8679L19.6979 112.519Z" fill="#E4EEF9"/>
<path d="M19.0534 112.163L10.9786 107.836L18.4074 111.81L90.0653 69.1588L90.719 69.5077L90.7128 69.5124L19.0534 112.163Z" fill="#E2EDF9"/>
<path d="M18.4074 111.809L10.9786 107.835L17.7614 111.454L89.4193 68.803L90.073 69.1534L90.0653 69.1582L18.4074 111.809Z" fill="#E0ECF9"/>
<path d="M17.7614 111.454L10.9786 107.836L17.1155 111.099L88.7734 68.4501L89.4286 68.7989L89.4193 68.8037L17.7614 111.454Z" fill="#DFEAF8"/>
<path d="M17.1155 111.1L10.9786 107.837L16.4695 110.746L88.1258 68.0956L88.7826 68.4444L88.7734 68.4508L17.1155 111.1Z" fill="#DDE9F8"/>
<path d="M16.4695 110.745L10.9786 107.836L15.8235 110.39L87.4798 67.7411L88.1366 68.0899L88.1258 68.0947L16.4695 110.745Z" fill="#DBE8F7"/>
<path d="M15.8235 110.391L10.9786 107.836L15.1791 110.035L86.8323 67.388L87.4906 67.7352L87.4798 67.7416L15.8235 110.391Z" fill="#D8E6F7"/>
<path d="M15.1791 110.035L10.9786 107.836L14.5331 109.68L86.1848 67.0341L86.8446 67.3797L86.8323 67.3877L15.1791 110.035Z" fill="#D6E5F6"/>
<path d="M14.5331 109.681L10.9786 107.837L82.6442 65.1812L86.1987 67.0253L86.1848 67.0348L14.5331 109.681Z" fill="#D4E4F6"/>
<path d="M12.2798 52.8851L80.9862 12.0753C81.8459 11.56 82.9241 12.2006 82.9241 13.2249V63.5783C82.9241 64.9799 82.1997 66.2737 81.0262 66.9777L12.3198 108.114C11.46 108.629 10.3818 107.989 10.3818 106.965V56.2846C10.3818 54.8829 11.1047 53.5891 12.2798 52.8851Z" fill="white"/>
<mask id="mask0_100_5233" style="mask-type:luminance" maskUnits="userSpaceOnUse" x="10" y="11" width="73" height="98">
<path d="M12.0383 108.102V57.4221C12.0383 56.0204 12.7612 54.7266 13.9363 54.0226L82.6426 13.2127L82.9072 13.1002C82.8211 12.1504 81.809 11.5812 80.9862 12.0743L12.2798 52.8841C11.1047 53.5881 10.3818 54.882 10.3818 56.2836V106.964C10.3818 107.886 11.2539 108.487 12.0553 108.226L12.0383 108.102Z" fill="white"/>
</mask>
<g mask="url(#mask0_100_5233)">
<path d="M12.0383 108.102V57.4221C12.0383 56.0204 12.7612 54.7266 13.9363 54.0226L82.6426 13.2127L82.9072 13.1002C82.8211 12.1504 81.809 11.5812 80.9862 12.0743L12.2798 52.8841C11.1047 53.5881 10.3818 54.882 10.3818 56.2836V106.964C10.3818 107.886 11.2539 108.487 12.0553 108.226L12.0383 108.102Z" fill="#292974"/>
</g>
<mask id="mask1_100_5233" style="mask-type:luminance" maskUnits="userSpaceOnUse" x="15" y="38" width="44" height="35">
<path d="M24.8949 70.0993C27.3897 67.6035 29.0646 63.8109 29.0646 60.6603H27.5035C27.5035 63.3606 25.9839 66.768 23.8075 68.945L24.8949 70.0993ZM19.9301 72.6045C20.856 72.6045 21.8634 72.2953 22.8909 71.6833L22.1111 70.2896C20.8237 71.057 19.6502 71.2012 18.8058 70.6986C17.9629 70.196 17.4969 69.0766 17.4969 67.5449C17.4969 64.0645 19.967 59.6534 22.8909 57.9141C23.8214 57.3607 24.7057 57.1276 25.4486 57.2418L25.6778 55.6498C24.5827 55.4818 23.3492 55.783 22.1111 56.5203C18.7058 58.5467 15.9358 63.4921 15.9358 67.5449C15.9358 69.6759 16.6787 71.29 18.026 72.0924C18.5997 72.4348 19.2426 72.6045 19.9301 72.6045ZM27.4297 59.6693L28.9708 59.4093C28.7493 58.0203 28.1479 56.9373 27.2312 56.2793L26.3392 57.5985C26.9021 58.0044 27.2789 58.7195 27.4297 59.6693ZM49.6269 55.9083C50.5574 55.9083 51.5679 55.6007 52.5891 54.9934C55.5222 53.2477 58.0677 49.2599 58.6414 45.51L57.1002 45.2595C56.5927 48.5686 54.3671 52.0759 51.8093 53.5997C50.602 54.318 49.4792 54.4908 48.6486 54.0864C47.9257 53.7328 47.449 52.9591 47.2705 51.8492L45.7309 52.1108C45.9924 53.7424 46.7906 54.9601 47.9811 55.5404C48.4871 55.7862 49.0409 55.9083 49.6269 55.9083ZM45.6356 50.8534H47.1967C47.1967 48.4497 48.3856 45.4831 50.2267 43.2966L49.047 42.2421C46.9429 44.7426 45.6356 48.0422 45.6356 50.8534ZM57.2033 43.9688H58.7644C58.7644 41.8378 58.0215 40.2221 56.6742 39.4198C55.3268 38.619 53.5996 38.7633 51.8093 39.8289C51.2464 40.165 50.6881 40.5852 50.1544 41.0783L51.1941 42.2786C51.6494 41.8584 52.12 41.5032 52.5891 41.2226C53.8765 40.4568 55.05 40.3125 55.8944 40.8135C56.7388 41.3161 57.2033 42.4372 57.2033 43.9688ZM35.0661 64.1058C35.992 64.1058 36.9994 63.7982 38.0268 63.1861L37.2455 61.7924C35.9597 62.5582 34.7862 62.7041 33.9418 62.2015C33.0974 61.6989 32.6329 60.5794 32.6329 59.0477C32.6329 58.2518 32.759 57.394 33.0082 56.4997L31.5086 56.0558C31.2194 57.0943 31.0718 58.1011 31.0718 59.0477C31.0718 61.1788 31.8147 62.7929 33.162 63.5952C33.7357 63.9361 34.3786 64.1058 35.0661 64.1058ZM38.3052 61.0345C40.8169 58.9225 42.6394 55.1916 42.6394 52.1615C42.6394 50.6299 42.175 49.5104 41.3306 49.0078C40.4862 48.5052 39.3142 48.6511 38.0268 49.4169C36.2273 50.4872 34.5478 52.5754 33.5311 55.0045L32.0977 54.3671C33.242 51.632 35.1676 49.2599 37.2455 48.0232C39.0358 46.9576 40.7646 46.8134 42.1119 47.6141C43.4592 48.4164 44.2006 50.0305 44.2006 52.1615C44.2006 55.6356 42.1365 59.8913 39.2911 62.2808L38.3052 61.0345Z" fill="white"/>
</mask>
<g mask="url(#mask1_100_5233)">
<path d="M24.8949 70.0993C27.3897 67.6035 29.0646 63.8109 29.0646 60.6603H27.5035C27.5035 63.3606 25.9839 66.768 23.8075 68.945L24.8949 70.0993ZM19.9301 72.6045C20.856 72.6045 21.8634 72.2953 22.8909 71.6833L22.1111 70.2896C20.8237 71.057 19.6502 71.2012 18.8058 70.6986C17.9629 70.196 17.4969 69.0766 17.4969 67.5449C17.4969 64.0645 19.967 59.6534 22.8909 57.9141C23.8214 57.3607 24.7057 57.1276 25.4486 57.2418L25.6778 55.6498C24.5827 55.4818 23.3492 55.783 22.1111 56.5203C18.7058 58.5467 15.9358 63.4921 15.9358 67.5449C15.9358 69.6759 16.6787 71.29 18.026 72.0924C18.5997 72.4348 19.2426 72.6045 19.9301 72.6045ZM27.4297 59.6693L28.9708 59.4093C28.7493 58.0203 28.1479 56.9373 27.2312 56.2793L26.3392 57.5985C26.9021 58.0044 27.2789 58.7195 27.4297 59.6693ZM49.6269 55.9083C50.5574 55.9083 51.5679 55.6007 52.5891 54.9934C55.5222 53.2477 58.0677 49.2599 58.6414 45.51L57.1002 45.2595C56.5927 48.5686 54.3671 52.0759 51.8093 53.5997C50.602 54.318 49.4792 54.4908 48.6486 54.0864C47.9257 53.7328 47.449 52.9591 47.2705 51.8492L45.7309 52.1108C45.9924 53.7424 46.7906 54.9601 47.9811 55.5404C48.4871 55.7862 49.0409 55.9083 49.6269 55.9083ZM45.6356 50.8534H47.1967C47.1967 48.4497 48.3856 45.4831 50.2267 43.2966L49.047 42.2421C46.9429 44.7426 45.6356 48.0422 45.6356 50.8534ZM57.2033 43.9688H58.7644C58.7644 41.8378 58.0215 40.2221 56.6742 39.4198C55.3268 38.619 53.4991 38.946 51.8093 39.8289C51.0916 40.2039 50.6881 40.5852 50.1544 41.0783L51.1941 42.2786C51.6494 41.8584 52.12 41.5032 52.5891 41.2226C53.8765 40.4568 55.05 40.3125 55.8944 40.8135C56.7388 41.3161 57.2033 42.4372 57.2033 43.9688ZM35.0661 64.1058C35.992 64.1058 36.9994 63.7982 38.0268 63.1861L37.2455 61.7924C35.9597 62.5582 34.7862 62.7041 33.9418 62.2015C33.0974 61.6989 32.6329 60.5794 32.6329 59.0477C32.6329 58.2518 32.759 57.394 33.0082 56.4997L31.5086 56.0558C31.2194 57.0943 31.0718 58.1011 31.0718 59.0477C31.0718 61.1788 31.8147 62.7929 33.162 63.5952C33.7357 63.9361 34.3786 64.1058 35.0661 64.1058ZM38.3052 61.0345C40.8169 58.9225 42.6394 55.1916 42.6394 52.1615C42.6394 50.6299 42.175 49.5104 41.3306 49.0078C40.4862 48.5052 39.3142 48.6511 38.0268 49.4169C36.2273 50.4872 34.5478 52.5754 33.5311 55.0045L32.0977 54.3671C33.242 51.632 35.1676 49.2599 37.2455 48.0232C39.0358 46.9576 40.7646 46.8134 42.1119 47.6141C43.4592 48.4164 44.2006 50.0305 44.2006 52.1615C44.2006 55.6356 42.1365 59.8913 39.2911 62.2808L38.3052 61.0345Z" fill="#292974"/>
</g>
<path d="M79.0851 43.2265V46.412L17.1461 83.5083V80.3435L79.0851 43.2265Z" fill="#D9DCF2"/>
<path d="M79.0851 51.8567V55.0421L17.1461 92.1384V88.9736L79.0851 51.8567Z" fill="#D9DCF2"/>
<path d="M58.7643 73.2255V76.4109L17.1461 101.2V98.0351L58.7643 73.2255Z" fill="#D9DCF2"/>
<mask id="mask2_100_5233" style="mask-type:luminance" maskUnits="userSpaceOnUse" x="248" y="145" width="46" height="28">
<path d="M293.013 152.529H290.494C289.46 151.34 288.111 150.226 286.442 149.231C277.68 144.016 263.344 144.016 254.582 149.231C252.913 150.226 251.564 151.34 250.531 152.529H248.011V158.664H248.013C247.992 162.117 250.181 165.574 254.582 168.195C263.344 173.41 277.68 173.41 286.442 168.195C290.844 165.574 293.033 162.117 293.011 158.664H293.013V152.529Z" fill="white"/>
</mask>
<g mask="url(#mask2_100_5233)">
<path d="M293.013 152.529H290.494C289.46 151.34 288.111 150.226 286.442 149.231C277.68 144.016 263.344 144.016 254.582 149.231C252.913 150.226 251.564 151.34 250.531 152.529H248.011V158.664H248.013C247.992 162.117 250.181 165.574 254.582 168.195C263.344 173.41 277.68 173.41 286.442 168.195C290.844 165.574 293.033 162.117 293.011 158.664H293.013V152.529Z" fill="url(#paint2_linear_100_5233)"/>
<path d="M293.013 152.529H290.494C289.46 151.34 288.111 150.226 286.442 149.231C277.68 144.016 263.344 144.016 254.582 149.231C252.913 150.226 251.564 151.34 250.531 152.529H248.011V158.664H248.013C247.992 162.117 250.181 165.574 254.582 168.195C263.344 173.41 277.68 173.41 286.442 168.195C290.844 165.574 293.033 162.117 293.011 158.664H293.013V152.529Z" fill="url(#paint3_linear_100_5233)"/>
</g>
<path d="M254.582 143.047C263.344 137.832 277.68 137.832 286.442 143.047C295.205 148.262 295.205 156.794 286.442 162.009C277.68 167.224 263.344 167.224 254.582 162.009C245.821 156.794 245.821 148.262 254.582 143.047Z" fill="white"/>
<path d="M254.582 143.047C263.344 137.832 277.68 137.832 286.442 143.047C295.205 148.262 295.205 156.794 286.442 162.009C277.68 167.224 263.344 167.224 254.582 162.009C245.821 156.794 245.821 148.262 254.582 143.047Z" fill="url(#paint4_linear_100_5233)"/>
<mask id="mask3_100_5233" style="mask-type:luminance" maskUnits="userSpaceOnUse" x="248" y="139" width="23" height="24">
<path d="M270.513 139.136C264.737 139.136 258.963 140.439 254.582 143.047C245.821 148.262 245.821 156.794 254.582 162.009L254.995 162.244L270.513 154.63V139.136Z" fill="white"/>
</mask>
<g mask="url(#mask3_100_5233)">
<path d="M270.513 139.136C264.737 139.136 258.963 140.439 254.582 143.047C245.821 148.262 245.821 156.794 254.582 162.009L254.995 162.244L270.513 154.63V139.136Z" fill="#292974"/>
</g>
<mask id="mask4_100_5233" style="mask-type:luminance" maskUnits="userSpaceOnUse" x="194" y="180" width="45" height="27">
<path d="M238.673 187.821H236.225C235.221 186.666 233.91 185.583 232.288 184.618C223.776 179.552 209.846 179.552 201.333 184.618C199.711 185.583 198.4 186.666 197.397 187.821H194.948V193.783H194.95C194.93 197.138 197.056 200.498 201.333 203.042C209.846 208.11 223.776 208.11 232.288 203.042C236.565 200.498 238.692 197.138 238.671 193.783H238.673V187.821Z" fill="white"/>
</mask>
<g mask="url(#mask4_100_5233)">
<path d="M238.673 187.821H236.225C235.221 186.666 233.91 185.583 232.288 184.618C223.776 179.552 209.846 179.552 201.333 184.618C199.711 185.583 198.4 186.666 197.397 187.821H194.948V193.783H194.95C194.93 197.138 197.056 200.498 201.333 203.042C209.846 208.11 223.776 208.11 232.288 203.042C236.565 200.498 238.692 197.138 238.671 193.783H238.673V187.821Z" fill="url(#paint5_linear_100_5233)"/>
<path d="M238.673 187.821H236.225C235.221 186.666 233.91 185.583 232.288 184.618C223.776 179.552 209.846 179.552 201.333 184.618C199.711 185.583 198.4 186.666 197.397 187.821H194.948V193.783H194.95C194.93 197.138 197.056 200.498 201.333 203.042C209.846 208.11 223.776 208.11 232.288 203.042C236.565 200.498 238.692 197.138 238.671 193.783H238.673V187.821Z" fill="url(#paint6_linear_100_5233)"/>
</g>
<mask id="mask5_100_5233" style="mask-type:luminance" maskUnits="userSpaceOnUse" x="194" y="182" width="12" height="22">
<path d="M201.333 184.619C199.711 185.585 198.4 186.668 197.397 187.822H194.948V193.784H194.95C194.93 197.139 197.056 200.499 201.333 203.044L201.735 203.272V197.263L205.937 182.529C204.288 183.091 202.736 183.785 201.333 184.619Z" fill="white"/>
</mask>
<g mask="url(#mask5_100_5233)">
<path d="M201.333 184.619C199.711 185.585 198.4 186.668 197.397 187.822H194.948V193.784H194.95C194.93 197.139 197.056 200.499 201.333 203.044L201.735 203.272V197.263L205.937 182.529C204.288 183.091 202.736 183.785 201.333 184.619Z" fill="url(#paint7_linear_100_5233)"/>
</g>
<path d="M201.333 178.61C209.846 173.542 223.776 173.542 232.288 178.61C240.802 183.676 240.802 191.967 232.288 197.033C223.776 202.1 209.846 202.1 201.333 197.033C192.82 191.967 192.82 183.676 201.333 178.61Z" fill="white"/>
<path d="M201.333 178.61C209.846 173.542 223.776 173.542 232.288 178.61C240.802 183.676 240.802 191.967 232.288 197.033C223.776 202.1 209.846 202.1 201.333 197.033C192.82 191.967 192.82 183.676 201.333 178.61Z" fill="url(#paint8_linear_100_5233)"/>
<mask id="mask6_100_5233" style="mask-type:luminance" maskUnits="userSpaceOnUse" x="194" y="174" width="23" height="24">
<path d="M216.811 174.811C211.2 174.811 205.589 176.078 201.333 178.611C192.82 183.677 192.82 191.968 201.333 197.034L201.735 197.263L216.811 189.866V174.811Z" fill="white"/>
</mask>
<g mask="url(#mask6_100_5233)">
<path d="M216.811 174.811C211.2 174.811 205.589 176.078 201.333 178.611C192.82 183.677 192.82 191.968 201.333 197.034L201.735 197.263L216.811 189.866V174.811Z" fill="url(#paint9_linear_100_5233)" fill-opacity="0.5"/>
</g>
<mask id="mask7_100_5233" style="mask-type:luminance" maskUnits="userSpaceOnUse" x="194" y="174" width="23" height="16">
<path d="M195.239 189.866H216.811V174.811C211.2 174.811 205.589 176.078 201.333 178.612C196.205 181.662 194.189 185.883 195.239 189.866Z" fill="white"/>
</mask>
<g mask="url(#mask7_100_5233)">
<path d="M195.239 189.866H216.811V174.811C211.2 174.811 205.589 176.078 201.333 178.612C196.205 181.662 194.189 185.883 195.239 189.866Z" fill="#292974"/>
</g>
<mask id="mask8_100_5233" style="mask-type:luminance" maskUnits="userSpaceOnUse" x="302" y="114" width="46" height="28">
<path d="M347.43 121.416H344.9C343.862 120.222 342.507 119.103 340.83 118.104C332.029 112.867 317.629 112.867 308.828 118.106C307.151 119.103 305.796 120.222 304.758 121.416H302.228V127.58H302.23C302.21 131.047 304.408 134.521 308.828 137.152C317.629 142.391 332.029 142.391 340.83 137.152C345.252 134.521 347.45 131.047 347.428 127.58H347.43V121.416Z" fill="white"/>
</mask>
<g mask="url(#mask8_100_5233)">
<path d="M347.43 121.416H344.9C343.862 120.222 342.507 119.103 340.83 118.104C332.029 112.867 317.629 112.867 308.828 118.106C307.151 119.103 305.796 120.222 304.758 121.416H302.228V127.58H302.23C302.21 131.047 304.408 134.521 308.828 137.152C317.629 142.391 332.029 142.391 340.83 137.152C345.252 134.521 347.45 131.047 347.428 127.58H347.43V121.416Z" fill="url(#paint10_linear_100_5233)"/>
<path d="M347.43 121.416H344.9C343.862 120.222 342.507 119.103 340.83 118.104C332.029 112.867 317.629 112.867 308.828 118.106C307.151 119.103 305.796 120.222 304.758 121.416H302.228V127.58H302.23C302.21 131.047 304.408 134.521 308.828 137.152C317.629 142.391 332.029 142.391 340.83 137.152C345.252 134.521 347.45 131.047 347.428 127.58H347.43V121.416Z" fill="url(#paint11_linear_100_5233)"/>
</g>
<path d="M308.828 111.891C317.629 106.654 332.03 106.654 340.83 111.891C349.631 117.13 349.631 125.702 340.83 130.939C332.03 136.178 317.629 136.178 308.828 130.939C300.027 125.702 300.027 117.13 308.828 111.891Z" fill="white"/>
<path d="M308.828 111.891C317.629 106.654 332.03 106.654 340.83 111.891C349.631 117.13 349.631 125.702 340.83 130.939C332.03 136.178 317.629 136.178 308.828 130.939C300.027 125.702 300.027 117.13 308.828 111.891Z" fill="url(#paint12_linear_100_5233)"/>
<mask id="mask9_100_5233" style="mask-type:luminance" maskUnits="userSpaceOnUse" x="337" y="111" width="11" height="27">
<path d="M347.425 121.541V116.191H345.67C344.572 114.626 342.962 113.163 340.83 111.893C334.612 108.192 338.788 122.324 340.83 130.94V137.151C345.141 134.585 347.335 131.221 347.422 127.839L347.425 121.541Z" fill="white"/>
</mask>
<g mask="url(#mask9_100_5233)">
<path d="M347.425 121.541V116.191H345.67C344.572 114.626 342.962 113.163 340.83 111.893C334.612 108.192 338.788 122.324 340.83 130.94V137.151C345.141 134.585 347.335 131.221 347.422 127.839L347.425 121.541Z" fill="#90278E"/>
</g>
<mask id="mask10_100_5233" style="mask-type:luminance" maskUnits="userSpaceOnUse" x="308" y="97" width="33" height="16">
<path d="M340.83 101.442C332.029 96.205 317.629 96.205 308.828 101.442L324.83 112.708L340.83 101.442Z" fill="white"/>
</mask>
<g mask="url(#mask10_100_5233)">
<path d="M340.83 101.442C332.029 96.205 317.629 96.205 308.828 101.442L324.83 112.708L340.83 101.442Z" fill="#00BFF2"/>
</g>
<path d="M308.828 101.442V111.893L324.83 123.158V112.708L308.828 101.442Z" fill="#2A81DD" fill-opacity="0.9"/>
<path d="M308.828 101.442V111.893L324.83 123.158V112.708L308.828 101.442Z" fill="url(#paint13_linear_100_5233)"/>
<path d="M324.83 112.708L340.83 101.442V111.893L324.83 123.158V112.708Z" fill="#1C72CD"/>
<mask id="mask11_100_5233" style="mask-type:luminance" maskUnits="userSpaceOnUse" x="324" y="106" width="24" height="20">
<path d="M340.83 106.668C349.631 111.905 349.631 120.477 340.83 125.716L324.83 117.934L340.83 106.668Z" fill="white"/>
</mask>
<g mask="url(#mask11_100_5233)">
<path d="M340.83 106.668C349.631 111.905 349.631 120.477 340.83 125.716L324.83 117.934L340.83 106.668Z" fill="url(#paint14_linear_100_5233)"/>
</g>
<path d="M324.83 117.932V123.157L340.83 130.939V125.714L324.83 117.932Z" fill="#C64F95"/>
<path d="M210.969 73.4992L87.6184 146.917C85.5912 148.123 83.0549 146.615 83.0549 144.201V73.0791C83.0549 70.6642 85.5912 69.1563 87.6184 70.3629L102.028 78.9394C102.49 79.2137 103.014 79.3596 103.549 79.3596H120.656C121.742 79.3596 122.746 78.7618 123.29 77.7914L130.73 64.5074C131.57 63.0074 133.431 62.4937 134.886 63.3594L142.09 67.6469L149.294 71.9359C150.749 72.8016 152.609 72.2879 153.45 70.7879L160.247 58.6502C161.087 57.1503 162.948 56.6366 164.403 57.5023L170.901 61.3711C171.362 61.6454 171.888 61.7913 172.422 61.7913H190.47C191.003 61.7913 191.528 61.9356 191.991 62.2115L200.418 67.2267C200.881 67.5026 201.405 67.6469 201.939 67.6469H209.448C212.561 67.6469 213.665 71.8946 210.969 73.4992Z" fill="#292974"/>
<path d="M210.969 73.4992L87.6184 146.917C85.5912 148.123 83.0549 146.615 83.0549 144.201V73.0791C83.0549 70.6642 85.5912 69.1563 87.6184 70.3629L102.028 78.9394C102.49 79.2137 103.014 79.3596 103.549 79.3596H120.656C121.742 79.3596 122.746 78.7618 123.29 77.7914L130.73 64.5074C131.57 63.0074 133.431 62.4937 134.886 63.3594L142.09 67.6469L149.294 71.9359C150.749 72.8016 152.609 72.2879 153.45 70.7879L160.247 58.6502C161.087 57.1503 162.948 56.6366 164.403 57.5023L170.901 61.3711C171.362 61.6454 171.888 61.7913 172.422 61.7913H190.47C191.003 61.7913 191.528 61.9356 191.991 62.2115L200.418 67.2267C200.881 67.5026 201.405 67.6469 201.939 67.6469H209.448C212.561 67.6469 213.665 71.8946 210.969 73.4992Z" fill="url(#paint15_linear_100_5233)"/>
<mask id="mask12_100_5233" style="mask-type:luminance" maskUnits="userSpaceOnUse" x="234" y="75" width="51" height="31">
<path d="M284.558 83.9685H281.737C280.581 82.6382 279.07 81.3903 277.202 80.2773C267.391 74.4376 251.338 74.4376 241.527 80.2773C239.658 81.3903 238.148 82.6382 236.989 83.9685H234.169V90.8389H234.172C234.149 94.7045 236.597 98.5765 241.527 101.51C251.338 107.35 267.391 107.35 277.202 101.51C282.13 98.5765 284.58 94.7045 284.557 90.8389H284.558V83.9685Z" fill="white"/>
</mask>
<g mask="url(#mask12_100_5233)">
<path d="M284.558 83.9685H281.737C280.581 82.6382 279.07 81.3903 277.202 80.2773C267.391 74.4376 251.338 74.4376 241.527 80.2773C239.658 81.3903 238.148 82.6382 236.989 83.9685H234.169V90.8389H234.172C234.149 94.7045 236.597 98.5765 241.527 101.51C251.338 107.35 267.391 107.35 277.202 101.51C282.13 98.5765 284.58 94.7045 284.557 90.8389H284.558V83.9685Z" fill="url(#paint16_linear_100_5233)"/>
<path d="M284.558 83.9685H281.737C280.581 82.6382 279.07 81.3903 277.202 80.2773C267.391 74.4376 251.338 74.4376 241.527 80.2773C239.658 81.3903 238.148 82.6382 236.989 83.9685H234.169V90.8389H234.172C234.149 94.7045 236.597 98.5765 241.527 101.51C251.338 107.35 267.391 107.35 277.202 101.51C282.13 98.5765 284.58 94.7045 284.557 90.8389H284.558V83.9685Z" fill="url(#paint17_linear_100_5233)"/>
<path d="M284.558 83.9685H281.737C280.581 82.6382 279.07 81.3903 277.202 80.2773C267.391 74.4376 251.338 74.4376 241.527 80.2773C239.658 81.3903 238.148 82.6382 236.989 83.9685H234.169V90.8389H234.172C234.149 94.7045 236.597 98.5765 241.527 101.51C251.338 107.35 267.391 107.35 277.202 101.51C282.13 98.5765 284.58 94.7045 284.557 90.8389H284.558V83.9685Z" fill="url(#paint18_linear_100_5233)"/>
</g>
<path d="M241.526 73.3531C251.338 67.515 267.39 67.515 277.202 73.3531C287.011 79.1928 287.011 88.7475 277.202 94.5872C267.39 100.425 251.338 100.425 241.526 94.5872C231.717 88.7475 231.717 79.1928 241.526 73.3531Z" fill="url(#paint19_linear_100_5233)"/>
<mask id="mask13_100_5233" style="mask-type:luminance" maskUnits="userSpaceOnUse" x="237" y="70" width="23" height="24">
<path d="M244.152 93.3872C239.99 90.9089 237.698 87.565 237.697 83.9704C237.697 80.3743 239.988 77.0303 244.152 74.5521C248.209 72.1372 253.613 70.8069 259.362 70.8069V72.0627C253.822 72.0627 248.637 73.3327 244.761 75.6398C240.991 77.8834 238.915 80.8421 238.915 83.9704C238.915 87.0972 240.991 90.0543 244.761 92.2979L244.152 93.3872Z" fill="white"/>
</mask>
<g mask="url(#mask13_100_5233)">
<path d="M244.152 93.3872C239.99 90.9089 237.698 87.565 237.697 83.9704C237.697 80.3743 239.988 77.0303 244.152 74.5521C248.209 72.1372 253.613 70.8069 259.362 70.8069V72.0627C253.822 72.0627 248.637 73.3327 244.761 75.6398C240.991 77.8834 238.915 80.8421 238.915 83.9704C238.915 87.0972 240.991 90.0543 244.761 92.2979L244.152 93.3872Z" fill="#90278E"/>
</g>
<path d="M263.968 83.5943L264.041 83.8607C264.128 83.9162 264.256 83.9209 264.417 83.8718C264.579 83.8226 264.742 83.7275 264.908 83.5864C265.073 83.4469 265.179 83.3105 265.228 83.1805L265.17 82.9014C265.082 82.8475 264.954 82.8475 264.783 82.903C264.613 82.9585 264.448 83.0568 264.282 83.1979C264.117 83.339 264.013 83.469 263.968 83.5943ZM265.706 84.0843C265.265 84.4616 264.783 84.7153 264.268 84.8422C263.754 84.9706 263.338 84.9357 263.019 84.736C262.699 84.5409 262.587 84.2428 262.686 83.848C262.782 83.4564 263.05 83.0727 263.488 82.6985C263.927 82.3211 264.408 82.0706 264.926 81.9374C265.443 81.8058 265.863 81.8407 266.182 82.0373C266.5 82.2371 266.612 82.5304 266.515 82.9268C266.418 83.32 266.149 83.7053 265.706 84.0843ZM262.332 89.3674L262.404 89.637C262.492 89.6925 262.619 89.6957 262.781 89.6465C262.944 89.5989 263.105 89.5022 263.272 89.3611C263.436 89.2216 263.545 89.0852 263.591 88.9552L263.533 88.6761C263.445 88.6222 263.316 88.6222 263.147 88.6777C262.978 88.7332 262.812 88.8315 262.646 88.9726C262.481 89.1138 262.376 89.2454 262.332 89.3674ZM264.07 89.859C263.628 90.2363 263.147 90.49 262.633 90.6169C262.118 90.7453 261.701 90.7104 261.383 90.5122C261.063 90.314 260.951 90.0175 261.049 89.6243C261.146 89.2311 261.414 88.8458 261.852 88.4716C262.292 88.0958 262.772 87.8437 263.29 87.7121C263.807 87.5805 264.227 87.6138 264.547 87.812C264.865 88.0118 264.976 88.3067 264.879 88.7015C264.782 89.0947 264.513 89.4816 264.07 89.859ZM270.377 84.3633L258.734 88.7332L257.436 87.9277L269.09 83.5642L270.377 84.3633ZM264.104 80.4628L262.583 81.7598L260.503 80.466L259.185 81.5901C259.409 81.6298 259.62 81.7138 259.822 81.8375C260.329 82.153 260.537 82.6192 260.445 83.2391C260.354 83.8575 259.92 84.4981 259.143 85.1593C258.367 85.8237 257.536 86.2533 256.65 86.4515C255.763 86.6466 255.041 86.5705 254.485 86.2264C253.771 85.7808 253.569 85.0753 253.882 84.1065L255.783 83.3961L255.715 83.7196C255.692 83.848 255.703 84.0446 255.741 84.3078C255.781 84.5694 255.901 84.7645 256.103 84.8882C256.303 85.015 256.572 85.0483 256.909 84.9896C257.244 84.9341 257.587 84.755 257.941 84.4537C258.293 84.1525 258.482 83.8686 258.505 83.6007C258.528 83.3327 258.407 83.1155 258.141 82.949C257.875 82.7841 257.424 82.7143 256.786 82.7397L257.084 81.763L260.924 78.4856L264.104 80.4628ZM255.311 79.5225C255.726 79.3656 256.064 79.1737 256.327 78.9502C256.59 78.7266 256.753 78.5046 256.813 78.2826C256.872 78.059 256.813 77.891 256.632 77.7784C256.301 77.5723 255.634 77.6785 254.632 78.0971L254.523 76.7985C255.34 76.4655 256.043 76.2657 256.629 76.1992C257.216 76.1326 257.736 76.2404 258.19 76.5226C258.645 76.8049 258.828 77.2377 258.742 77.8196C258.654 78.4015 258.239 79.0088 257.496 79.643C257.09 79.9903 256.632 80.2773 256.123 80.5088C255.612 80.7403 254.883 80.9876 253.932 81.2493L251.51 81.9184L253.59 83.209L252.013 84.5552L248.299 82.2466L249.606 81.1319L253.513 80.0743C254.299 79.865 254.895 79.6795 255.311 79.5225Z" fill="#292974"/>
<path d="M157.784 26.3384C159.353 27.2723 161.921 27.2723 163.491 26.3384C165.062 25.4045 165.062 23.8744 163.491 22.9405C161.921 22.0066 159.353 22.0066 157.784 22.9405C156.213 23.8744 156.213 25.4045 157.784 26.3384Z" fill="#F4F5FB"/>
<mask id="mask14_100_5233" style="mask-type:luminance" maskUnits="userSpaceOnUse" x="156" y="22" width="9" height="6">
<path d="M160.637 27.0388C159.603 27.0388 158.568 26.8041 157.784 26.338C156.213 25.4041 156.213 23.874 157.784 22.9401C158.568 22.4723 159.603 22.2392 160.637 22.2392C161.672 22.2392 162.707 22.4723 163.491 22.9401C165.062 23.874 165.062 25.4041 163.491 26.338C162.707 26.8041 161.672 27.0388 160.637 27.0388Z" fill="white"/>
</mask>
<g mask="url(#mask14_100_5233)">
<path d="M160.637 27.0388C159.603 27.0388 158.568 26.8041 157.784 26.338C156.213 25.4041 156.213 23.874 157.784 22.9401C158.568 22.4723 159.603 22.2392 160.637 22.2392C161.672 22.2392 162.707 22.4723 163.491 22.9401C165.062 23.874 165.062 25.4041 163.491 26.338C162.707 26.8041 161.672 27.0388 160.637 27.0388Z" fill="url(#paint20_radial_100_5233)"/>
</g>
<mask id="mask15_100_5233" style="mask-type:luminance" maskUnits="userSpaceOnUse" x="133" y="6" width="52" height="47">
<path d="M184.201 14.9957H181.379C180.222 13.6654 178.712 12.4176 176.843 11.3045C167.032 5.4648 150.979 5.4648 141.168 11.3045C139.299 12.4176 137.789 13.6654 136.632 14.9957H133.811V37.7219H133.813C133.79 41.5876 136.24 45.4596 141.168 48.3929C150.979 54.2326 167.032 54.2326 176.843 48.3929C181.771 45.4596 184.221 41.5876 184.198 37.7219H184.201V14.9957Z" fill="white"/>
</mask>
<g mask="url(#mask15_100_5233)">
<path d="M184.201 14.9957H181.379C180.222 13.6654 178.712 12.4176 176.843 11.3045C167.032 5.4648 150.979 5.4648 141.168 11.3045C139.299 12.4176 137.789 13.6654 136.632 14.9957H133.811V37.7219H133.813C133.79 41.5876 136.24 45.4596 141.168 48.3929C150.979 54.2326 167.032 54.2326 176.843 48.3929C181.771 45.4596 184.221 41.5876 184.198 37.7219H184.201V14.9957Z" fill="url(#paint21_linear_100_5233)"/>
<path d="M184.201 14.9957H181.379C180.222 13.6654 178.712 12.4176 176.843 11.3045C167.032 5.4648 150.979 5.4648 141.168 11.3045C139.299 12.4176 137.789 13.6654 136.632 14.9957H133.811V37.7219H133.813C133.79 41.5876 136.24 45.4596 141.168 48.3929C150.979 54.2326 167.032 54.2326 176.843 48.3929C181.771 45.4596 184.221 41.5876 184.198 37.7219H184.201V14.9957Z" fill="url(#paint22_linear_100_5233)"/>
</g>
<path d="M141.168 4.37843C150.979 -1.45969 167.032 -1.45969 176.843 4.37843C186.653 10.2181 186.653 19.7729 176.843 25.6126C167.032 31.4507 150.979 31.4507 141.168 25.6126C131.358 19.7729 131.358 10.2181 141.168 4.37843Z" fill="white"/>
<mask id="mask16_100_5233" style="mask-type:luminance" maskUnits="userSpaceOnUse" x="137" y="1" width="38" height="24">
<path d="M143.792 24.4138C139.632 21.9355 137.34 18.5915 137.34 14.997C137.34 11.4009 139.632 8.05691 143.792 5.57706C147.851 3.16221 153.254 1.83348 159.005 1.83348C164.76 1.83348 170.163 3.16221 174.218 5.57706L173.609 6.66637C169.736 4.35935 164.548 3.08928 159.005 3.08928C153.463 3.08928 148.277 4.35935 144.401 6.66637C140.633 8.90998 138.558 11.8686 138.558 14.997C138.558 18.1238 140.633 21.0809 144.401 23.3245L143.792 24.4138Z" fill="white"/>
</mask>
<g mask="url(#mask16_100_5233)">
<path d="M143.792 24.4138C139.632 21.9355 137.34 18.5915 137.34 14.997C137.34 11.4009 139.632 8.05691 143.792 5.57706C147.851 3.16221 153.254 1.83348 159.005 1.83348C164.76 1.83348 170.163 3.16221 174.218 5.57706L173.609 6.66637C169.736 4.35935 164.548 3.08928 159.005 3.08928C153.463 3.08928 148.277 4.35935 144.401 6.66637C140.633 8.90998 138.558 11.8686 138.558 14.997C138.558 18.1238 140.633 21.0809 144.401 23.3245L143.792 24.4138Z" fill="#292974"/>
</g>
<path d="M164.042 14.7978L164.116 15.0642C164.206 15.1181 164.334 15.1197 164.496 15.0674C164.657 15.0166 164.817 14.9183 164.98 14.774C165.143 14.6313 165.248 14.4934 165.292 14.3602L165.229 14.0843C165.142 14.032 165.012 14.0336 164.845 14.0922C164.676 14.1493 164.511 14.2508 164.348 14.3951C164.185 14.5394 164.082 14.6725 164.042 14.7978ZM165.788 15.2545C165.351 15.6413 164.875 15.903 164.363 16.0409C163.85 16.1773 163.433 16.1519 163.11 15.9585C162.79 15.765 162.671 15.4717 162.761 15.0753C162.853 14.6821 163.113 14.292 163.547 13.9099C163.979 13.5278 164.454 13.2662 164.971 13.1234C165.486 12.9823 165.907 13.0093 166.227 13.2011C166.549 13.3946 166.666 13.6879 166.577 14.0843C166.484 14.4791 166.223 14.8692 165.788 15.2545ZM162.502 20.5995L162.579 20.8674C162.67 20.9213 162.796 20.9229 162.954 20.8706C163.116 20.8183 163.279 20.72 163.442 20.5773C163.603 20.433 163.71 20.295 163.754 20.165L163.691 19.8891C163.603 19.8368 163.474 19.8384 163.305 19.8971C163.136 19.9541 162.971 20.0556 162.808 20.1999C162.645 20.3426 162.544 20.4774 162.502 20.5995ZM164.249 21.0593C163.813 21.4446 163.339 21.7062 162.827 21.8442C162.313 21.9805 161.893 21.9536 161.57 21.7617C161.25 21.5699 161.132 21.2749 161.223 20.8785C161.315 20.4853 161.575 20.0968 162.009 19.7131C162.441 19.331 162.914 19.0694 163.431 18.9267C163.948 18.7871 164.368 18.8125 164.688 19.0059C165.012 19.1962 165.129 19.4911 165.038 19.8875C164.948 20.2824 164.685 20.674 164.249 21.0593ZM170.462 15.4511L158.894 20.0302L157.584 19.247L169.16 14.6742L170.462 15.4511ZM158.271 11.8518L160.757 9.65417L164.602 11.9517L163.293 13.1092L154.69 17.5203L153.397 16.7481L161.721 12.4337L160.381 11.633L159.382 12.5146L158.271 11.8518ZM159.712 9.03104L158.214 10.355L156.113 9.09921L154.817 10.2472C155.04 10.2836 155.253 10.3613 155.456 10.4834C155.97 10.7894 156.184 11.2509 156.104 11.8724C156.022 12.4924 155.601 13.1409 154.835 13.8179C154.069 14.495 153.245 14.9389 152.365 15.153C151.481 15.3639 150.756 15.302 150.195 14.9659C149.473 14.5362 149.26 13.8322 149.555 12.8586L151.444 12.1134L151.381 12.4385C151.362 12.5669 151.374 12.7651 151.417 13.0267C151.462 13.2883 151.585 13.4802 151.79 13.6007C151.993 13.7212 152.262 13.7513 152.596 13.6895C152.932 13.6245 153.271 13.4405 153.618 13.1329C153.968 12.8253 154.152 12.5383 154.169 12.2704C154.188 12.0024 154.063 11.7852 153.794 11.625C153.523 11.4649 153.071 11.4031 152.436 11.4395L152.717 10.4565L156.501 7.11247L159.712 9.03104Z" fill="#90278E"/>
<path d="M139.507 136.793C140.181 137.141 141.283 137.141 141.957 136.793C142.63 136.446 142.63 135.878 141.957 135.531C141.283 135.183 140.181 135.183 139.507 135.531C138.833 135.878 138.833 136.446 139.507 136.793Z" fill="#F4F5FB"/>
<path d="M156.81 126.853C157.483 127.373 158.586 127.373 159.26 126.853C159.934 126.332 159.934 125.48 159.26 124.958C158.586 124.437 157.483 124.437 156.81 124.958C156.136 125.48 156.136 126.332 156.81 126.853Z" fill="#F4F5FB"/>
<path d="M173.987 116.28C174.492 116.627 175.319 116.627 175.824 116.28C176.33 115.933 176.33 115.364 175.824 115.017C175.319 114.67 174.492 114.67 173.987 115.017C173.481 115.364 173.481 115.933 173.987 116.28Z" fill="#F4F5FB"/>
<path d="M207.854 95.6352C208.528 96.1567 209.63 96.1567 210.304 95.6352C210.978 95.1146 210.978 94.2625 210.304 93.7418C209.63 93.2203 208.528 93.2203 207.854 93.7418C207.18 94.2625 207.18 95.1146 207.854 95.6352Z" fill="#F4F5FB"/>
<path d="M178.439 151.825C179.113 152.346 180.215 152.346 180.889 151.825C181.563 151.304 181.563 150.452 180.889 149.932C180.215 149.41 179.113 149.41 178.439 149.932C177.765 150.452 177.765 151.304 178.439 151.825Z" fill="#F4F5FB"/>
<path d="M195.742 141.253C196.416 141.6 197.518 141.6 198.192 141.253C198.866 140.906 198.866 140.338 198.192 139.99C197.518 139.643 196.416 139.643 195.742 139.99C195.068 140.338 195.068 140.906 195.742 141.253Z" fill="#F4F5FB"/>
<path d="M213.045 130.55C213.719 130.897 214.822 130.897 215.495 130.55C216.169 130.203 216.169 129.635 215.495 129.287C214.822 128.94 213.719 128.94 213.045 129.287C212.371 129.635 212.371 130.203 213.045 130.55Z" fill="#F4F5FB"/>
<path d="M140.889 165.594L140.732 165.503L174.209 145.973L141.441 165.09L141.597 165.181L140.889 165.594Z" fill="white"/>
<path d="M158.627 174.514L142.122 164.882L141.752 165.099L141.597 165.008L174.211 145.974L142.302 164.598L158.961 174.319L158.627 174.514Z" fill="#FEFFFF"/>
<path d="M159.039 174.514L159.038 174.514L142.462 164.725L174.212 145.974L143.165 164.312L159.74 174.1L159.039 174.514Z" fill="#FCFEFF"/>
<path d="M159.411 173.621L159.41 173.62L142.462 163.999L174.206 145.972L143.18 163.592L160.128 173.214L159.411 173.621Z" fill="#FAFCFE"/>
<path d="M160.196 173.621L160.195 173.62L143.327 163.855L174.207 145.972L144.041 163.442L160.909 173.208L160.196 173.621Z" fill="#F9FBFE"/>
<path d="M160.978 172.73L160.977 172.729L144.193 163.136L174.209 145.973L144.904 162.73L161.688 172.324L160.978 172.73Z" fill="#F7FBFE"/>
<path d="M161.755 172.73L161.754 172.729L145.058 162.988L174.21 145.973L145.764 162.577L162.461 172.318L161.755 172.73Z" fill="#F5F9FD"/>
<path d="M162.529 172.73L162.527 172.729L145.923 162.836L174.211 145.973L146.626 162.418L163.231 172.311L162.529 172.73Z" fill="#F2F7FC"/>
<path d="M162.948 171.838L162.947 171.837L145.923 162.122L174.205 145.973L146.643 161.711L163.668 171.427L162.948 171.838Z" fill="#F0F6FC"/>
<path d="M163.725 171.838L163.724 171.837L146.788 161.965L174.206 145.973L147.506 161.548L164.442 171.42L163.725 171.838Z" fill="#F0F5FC"/>
<path d="M164.498 170.947L164.496 170.946L147.653 161.258L174.208 145.974L148.366 160.849L165.209 170.537L164.498 170.947Z" fill="#ECF3FB"/>
<path d="M165.265 170.947L165.263 170.945L148.518 161.096L174.209 145.974L149.228 160.68L165.973 170.529L165.265 170.947Z" fill="#EAF2FB"/>
<path d="M166.027 170.053L166.025 170.052L149.383 160.394L174.211 145.972L150.089 159.986L166.73 169.645L166.027 170.053Z" fill="#E7F0FA"/>
<path d="M166.507 170.053L166.506 170.053L149.383 160.228L174.203 145.972L150.108 159.813L167.232 169.638L166.507 170.053Z" fill="#E5EFFA"/>
<path d="M167.275 169.163L167.273 169.162L150.249 159.535L174.205 145.974L150.97 159.129L167.994 168.756L167.275 169.163Z" fill="#E2EDF9"/>
<path d="M168.035 169.163L168.034 169.162L151.114 159.364L174.206 145.974L151.83 158.95L168.751 168.748L168.035 169.163Z" fill="#E1ECF9"/>
<path d="M168.79 168.27L168.788 168.269L151.979 158.676L174.208 145.972L152.691 158.271L169.5 167.864L168.79 168.27Z" fill="#DEEBF8"/>
<path d="M169.537 168.27L169.535 168.269L152.844 158.499L174.21 145.972L153.551 158.086L170.242 167.856L169.537 168.27Z" fill="#DDE9F8"/>
<path d="M170.275 167.379L170.274 167.379L153.709 157.822L174.212 145.974L154.411 157.419L170.975 166.975L170.275 167.379Z" fill="#DAE7F7"/>
<path d="M170.855 167.379L170.853 167.379L153.709 157.639L174.203 145.974L154.436 157.227L171.579 166.967L170.855 167.379Z" fill="#D8E6F7"/>
<path d="M171.601 166.486L171.6 166.485L154.574 156.968L174.205 145.972L155.295 156.566L172.32 166.083L171.601 166.486Z" fill="#D5E3F6"/>
<path d="M172.338 166.486L172.337 166.485L155.439 156.778L174.207 145.972L156.155 156.368L173.052 166.075L172.338 166.486Z" fill="#D3E2F5"/>
<path d="M173.065 166.486L173.064 166.485L156.305 156.58L174.209 145.972L157.014 156.161L173.774 166.067L173.065 166.486Z" fill="#D0E0F5"/>
<path d="M173.772 165.594L173.77 165.594L157.17 155.921L174.201 145.973L157.873 155.513L174.473 165.185L173.772 165.594Z" fill="#D0DFF4"/>
<path d="M173.771 165.594L173.769 165.594L157.17 155.716L173.498 145.973L157.873 155.298L174.473 165.176L173.771 165.594Z" fill="#CDDDF3"/>
<path d="M174.637 164.703L174.635 164.702L158.035 155.069L173.66 145.973L158.738 154.662L175.338 164.295L174.637 164.703Z" fill="#CBDDF3"/>
<path d="M175.502 164.703L175.5 164.702L158.9 154.855L173.822 145.973L159.603 154.438L176.203 164.286L175.502 164.703Z" fill="#C8DAF2"/>
<path d="M176.367 163.812L176.366 163.812L159.765 154.22L173.984 145.974L160.469 153.815L177.068 163.406L176.367 163.812Z" fill="#C6DAF2"/>
<path d="M177.233 163.812L177.231 163.811L160.63 153.997L174.146 145.974L161.334 153.582L177.933 163.396L177.233 163.812Z" fill="#C4D8F1"/>
<path d="M177.233 162.919L177.23 162.917L160.63 153.372L173.443 145.973L161.333 152.969L177.933 162.514L177.233 162.919Z" fill="#C2D7F1"/>
<path d="M178.098 162.919L178.096 162.917L161.496 153.139L173.605 145.973L162.199 152.726L178.799 162.504L178.098 162.919Z" fill="#C0D4F0"/>
<path d="M178.964 162.027L178.961 162.025L162.361 152.531L173.767 145.973L163.064 152.13L179.664 161.624L178.964 162.027Z" fill="#BED3EF"/>
<path d="M179.829 162.027L179.825 162.025L163.226 152.288L173.929 145.973L163.929 151.877L180.529 161.614L179.829 162.027Z" fill="#BAD0EE"/>
<path d="M180.694 161.136L180.691 161.134L164.091 151.696L174.091 145.974L164.794 151.297L181.394 160.735L180.694 161.136Z" fill="#B8CFEE"/>
<path d="M180.729 161.136L180.726 161.134L164.956 151.441L173.789 145.974L165.625 151.031L181.394 160.724L180.729 161.136Z" fill="#B6CEED"/>
<path d="M181.56 160.243L181.556 160.241L164.956 150.865L173.55 145.973L165.659 150.469L182.259 159.845L181.56 160.243Z" fill="#B3CCED"/>
<path d="M182.425 160.243L182.421 160.241L165.821 150.597L173.713 145.973L166.525 150.19L183.124 159.833L182.425 160.243Z" fill="#B1CAEC"/>
<path d="M183.291 160.243L183.287 160.241L166.687 150.314L173.875 145.973L167.389 149.895L183.99 159.821L183.291 160.243Z" fill="#AFC9EC"/>
<path d="M184.156 159.351L184.152 159.349L167.552 149.761L174.037 145.973L168.255 149.355L184.855 158.943L184.156 159.351Z" fill="#AEC7EB"/>
<path d="M185.022 159.351L185.017 159.348L168.417 149.461L174.199 145.973L169.12 149.043L185.72 158.93L185.022 159.351Z" fill="#ABC6EA"/>
<path d="M185.023 158.46L185.018 158.457L168.417 148.932L173.495 145.974L169.12 148.529L185.72 158.055L185.023 158.46Z" fill="#A9C3E9"/>
<path d="M185.654 158.46L185.648 158.457L169.282 148.615L173.596 145.974L173.854 146.129L169.568 148.706L185.72 158.42L185.654 158.46Z" fill="#A7C2E9"/>
<path d="M186.602 158.46L186.381 158.328L187.07 157.909L187.297 158.045L186.602 158.46ZM174.474 146.082L174.473 146.081L203.032 129.028L174.474 146.082Z" fill="white"/>
<path d="M185.915 158.46L170.147 148.592L174.331 145.974L174.332 145.974L170.824 148.17L186.585 158.033L185.915 158.46Z" fill="#A7C2E9"/>
<path d="M187.297 157.568L187.296 157.567L187.069 157.433L187.758 157.022L187.992 157.159L187.297 157.568ZM174.474 145.801L174.473 145.8L203.031 129.027L174.474 145.801Z" fill="#FEFFFF"/>
<path d="M186.744 157.568L170.147 148.084L173.841 145.973L173.842 145.974L170.86 147.678L187.45 157.157L186.744 157.568Z" fill="#A6C1E8"/>
<path d="M187.992 157.568L187.991 157.567L187.757 157.428L188.446 157.01L188.687 157.153L187.992 157.568ZM174.474 146.044H174.473L203.031 129.027L174.474 146.044Z" fill="#FCFEFF"/>
<path d="M187.61 157.568L171.012 147.74L173.995 145.973H173.996L171.725 147.319L178.09 151.087C178.074 151.358 178.239 151.632 178.586 151.837C178.918 152.034 179.355 152.132 179.792 152.132C179.812 152.132 179.832 152.132 179.853 152.131L188.315 157.142L187.61 157.568Z" fill="#A4C0E8"/>
<path d="M179.604 152.216C179.175 152.216 178.746 152.049 178.421 151.713C178.081 151.362 177.919 150.894 177.935 150.432L179.664 152.215C179.644 152.216 179.624 152.216 179.604 152.216Z" fill="#9CB9E5"/>
<path d="M188.688 156.676L188.686 156.675L188.446 156.535L189.134 156.124L189.383 156.269L188.688 156.676ZM174.474 145.756L174.473 145.755L203.031 129.027L174.474 145.756Z" fill="#FAFCFE"/>
<path d="M188.475 156.676L180.009 151.874C180.378 151.867 180.742 151.793 181.041 151.651L189.181 156.268L188.475 156.676ZM178.245 150.874L171.877 147.263L174.149 145.973L174.151 145.974L172.591 146.859L178.638 150.288C178.389 150.457 178.258 150.664 178.245 150.874Z" fill="#A3C0E8"/>
<path d="M179.571 152.216L177.934 151.091C177.946 150.855 178.068 150.623 178.299 150.432L180.529 151.965C180.252 152.125 179.914 152.208 179.571 152.216Z" fill="#9BB7E4"/>
<path d="M189.382 156.676L189.382 156.675L189.133 156.528L189.823 156.111L190.077 156.263L189.382 156.676ZM174.474 146.006L174.473 146.005L203.03 129.027L174.474 146.006Z" fill="#F9FBFE"/>
<path d="M188.509 156.676L180.773 151.876C180.81 151.856 180.846 151.837 180.88 151.815C181.089 151.685 181.229 151.529 181.3 151.363L189.18 156.252L188.509 156.676ZM178.489 150.459L172.743 146.894L174.225 145.973L174.226 145.974L173.42 146.474L179.317 150.132C179.049 150.176 178.796 150.263 178.588 150.393C178.553 150.414 178.52 150.436 178.489 150.459Z" fill="#A2BFE7"/>
<path d="M180.908 151.325L178.799 149.875C178.827 149.852 178.858 149.829 178.89 149.807C179.082 149.675 179.316 149.586 179.563 149.541L181.394 150.8C181.329 150.97 181.2 151.13 181.007 151.262C180.975 151.285 180.942 151.305 180.908 151.325Z" fill="#9AB8E4"/>
<path d="M190.078 155.784L190.077 155.783L189.822 155.634L190.51 155.224L190.773 155.378L190.078 155.784ZM174.474 145.707L174.473 145.707L203.03 129.027L174.474 145.707Z" fill="#F7FBFE"/>
<path d="M189.375 155.784L181.491 151.116C181.633 150.796 181.493 150.44 181.071 150.19C180.756 150.003 180.34 149.91 179.924 149.91C179.784 149.91 179.643 149.921 179.507 149.942L173.608 146.45L174.414 145.973L174.414 145.974L174.286 146.05L190.046 155.379L189.375 155.784Z" fill="#A1BFE8"/>
<path d="M181.349 151.325L179.664 149.588C179.78 149.557 179.9 149.541 180.019 149.541C180.371 149.541 180.725 149.679 180.992 149.955C181.351 150.325 181.469 150.852 181.349 151.325Z" fill="#99B6E4"/>
<path d="M190.774 155.784L190.772 155.783L190.51 155.627L190.64 155.549L174.473 145.964L203.03 129.027L175.037 145.63L191.468 155.372L190.774 155.784Z" fill="#F5F9FD"/>
<path d="M189.915 155.784L173.608 146.052L173.74 145.973L190.046 155.704L189.915 155.784Z" fill="#9FBEE7"/>
<path d="M191.114 154.892L191.112 154.891L174.473 145.327L202.821 129.027L175.178 144.923L191.817 154.487L191.114 154.892Z" fill="#F2F7FC"/>
<path d="M191.919 154.892L191.917 154.891L175.338 145.176L202.881 129.027L176.041 144.765L192.619 154.481L191.919 154.892Z" fill="#F0F6FC"/>
<path d="M192.721 154.892L192.72 154.891L176.203 145.019L202.943 129.027L176.903 144.602L193.42 154.474L192.721 154.892Z" fill="#F0F5FC"/>
<path d="M193.523 154L193.521 153.999L177.068 144.312L203.007 129.027L177.766 143.902L194.218 153.59L193.523 154Z" fill="#ECF3FB"/>
<path d="M193.797 154L193.796 153.999L177.068 144.15L202.732 129.027L177.777 143.734L194.505 153.583L193.797 154Z" fill="#EAF2FB"/>
<path d="M194.6 153.109L194.599 153.108L177.934 143.45L202.795 129.028L178.64 143.042L195.304 152.7L194.6 153.109Z" fill="#E7F0FA"/>
<path d="M195.4 153.109L195.398 153.108L178.799 143.283L202.86 129.028L179.502 142.868L196.102 152.693L195.4 153.109Z" fill="#E5EFFA"/>
<path d="M196.198 152.216L196.197 152.215L179.664 142.588L202.928 129.027L180.365 142.182L196.896 151.808L196.198 152.216Z" fill="#E2EDF9"/>
<path d="M196.993 152.216L196.991 152.215L180.529 142.416L202.997 129.027L181.226 142.002L197.689 151.801L196.993 152.216Z" fill="#E1ECF9"/>
<path d="M197.786 151.325L197.785 151.324L181.394 141.731L203.07 129.028L182.089 141.326L198.479 150.919L197.786 151.325Z" fill="#DEEBF8"/>
<path d="M198.091 151.325L198.089 151.324L181.394 141.553L202.765 129.028L182.101 141.141L198.796 150.911L198.091 151.325Z" fill="#DDE9F8"/>
<path d="M198.885 150.432L198.884 150.431L182.259 140.875L202.836 129.027L182.964 140.472L199.588 150.028L198.885 150.432Z" fill="#DAE7F7"/>
<path d="M199.677 150.432L199.675 150.432L183.125 140.692L202.909 129.027L183.826 140.28L200.377 150.02L199.677 150.432Z" fill="#D8E6F7"/>
<path d="M200.466 149.54L200.464 149.539L183.99 140.022L202.985 129.027L184.687 139.62L201.162 149.138L200.466 149.54Z" fill="#D5E3F6"/>
<path d="M201.252 149.54L201.25 149.54L184.855 139.832L203.065 129.027L185.55 139.422L201.945 149.13L201.252 149.54Z" fill="#D3E2F5"/>
<path d="M201.587 148.649L201.586 148.648L184.855 139.173L202.729 129.027L185.563 138.773L202.294 148.247L201.587 148.649Z" fill="#D0E0F5"/>
<path d="M202.376 148.649L202.374 148.648L185.72 138.976L202.806 129.027L186.426 138.568L203.079 148.24L202.376 148.649Z" fill="#D0DFF4"/>
<path d="M203.16 148.649L203.158 148.648L186.585 138.77L202.887 129.027L187.287 138.353L203.86 148.23L203.16 148.649Z" fill="#CDDDF3"/>
<path d="M203.941 147.757L203.939 147.756L187.45 138.122L202.971 129.027L188.149 137.715L204.637 147.349L203.941 147.757Z" fill="#CBDDF3"/>
<path d="M204.719 147.757L204.716 147.756L188.316 137.908L203.058 129.027L189.01 137.492L205.411 147.34L204.719 147.757Z" fill="#C8DAF2"/>
<path d="M205.093 146.864L205.091 146.863L188.316 137.272L202.684 129.026L189.026 136.867L195.005 140.285C194.834 140.616 194.976 140.99 195.43 141.25C195.761 141.439 196.196 141.533 196.632 141.533C196.795 141.533 196.959 141.52 197.118 141.493L205.801 146.458L205.093 146.864Z" fill="#C6DAF2"/>
<path d="M196.582 141.514C196.236 141.514 195.892 141.446 195.629 141.311C195.269 141.126 195.157 140.859 195.292 140.622L196.967 141.485C196.841 141.504 196.711 141.514 196.582 141.514Z" fill="#BBCEED"/>
<path d="M205.873 146.864L205.87 146.863L197.231 141.783C197.492 141.737 197.737 141.654 197.943 141.534C197.989 141.506 198.033 141.477 198.073 141.448L206.578 146.448L205.873 146.864ZM195.129 140.546L189.181 137.049L202.769 129.026L189.888 136.634L195.699 140.052C195.648 140.075 195.599 140.1 195.552 140.128C195.347 140.248 195.206 140.393 195.129 140.546Z" fill="#C4D8F1"/>
<path d="M197.09 141.514L195.237 140.24C195.305 140.081 195.429 139.933 195.61 139.808C195.651 139.78 195.694 139.754 195.739 139.73L197.832 141.168C197.797 141.199 197.758 141.228 197.717 141.257C197.536 141.381 197.32 141.466 197.09 141.514Z" fill="#B9CCED"/>
<path d="M206.648 145.972L206.646 145.97L198.187 141.107C198.428 140.932 198.548 140.72 198.548 140.507L207.349 145.567L206.648 145.972ZM195.826 139.749L190.046 136.426L202.859 129.026L190.749 136.022L196.869 139.542H196.869C196.499 139.542 196.129 139.611 195.826 139.749Z" fill="#C2D7F1"/>
<path d="M198.353 141.514L196.102 139.966C196.391 139.808 196.744 139.73 197.096 139.73H197.097L198.697 140.829C198.697 141.072 198.583 141.314 198.353 141.514Z" fill="#B7CBEC"/>
<path d="M207.42 145.972L207.418 145.97L198.666 140.787C198.666 140.533 198.504 140.279 198.179 140.087C197.854 139.894 197.425 139.798 196.997 139.798L190.911 136.193L202.952 129.026L191.611 135.78L208.117 145.557L207.42 145.972Z" fill="#C0D4F0"/>
<path d="M198.697 140.621L196.967 139.729C197.411 139.729 197.855 139.816 198.192 139.989C198.529 140.163 198.697 140.392 198.697 140.621Z" fill="#B4CAEC"/>
<path d="M208.187 145.081L208.184 145.079L191.776 135.584L203.051 129.027L192.471 135.183L208.879 144.678L208.187 145.081Z" fill="#BED3EF"/>
<path d="M208.61 145.081L208.607 145.079L191.776 135.341L202.628 129.027L192.489 134.93L209.32 144.667L208.61 145.081Z" fill="#BAD0EE"/>
<path d="M209.38 144.188L209.377 144.186L192.641 134.748L202.723 129.026L193.35 134.35L210.085 143.788L209.38 144.188Z" fill="#B8CFEE"/>
<path d="M210.145 144.188L210.142 144.186L193.506 134.493L202.823 129.026L194.211 134.084L210.846 143.777L210.145 144.188Z" fill="#B6CEED"/>
<path d="M210.904 143.297L210.901 143.295L194.372 133.919L202.929 129.027L195.072 133.523L211.6 142.899L210.904 143.297Z" fill="#B3CCED"/>
<path d="M211.657 143.297L211.653 143.295L195.237 133.651L203.04 129.027L195.932 133.244L212.349 142.887L211.657 143.297Z" fill="#B1CAEC"/>
<path d="M212.404 142.405L212.4 142.403L196.102 133.097L203.159 129.027L196.793 132.703L213.09 142.01L212.404 142.405Z" fill="#AFC9EC"/>
<path d="M212.901 142.405L212.896 142.403L196.102 132.815L202.662 129.027L196.813 132.41L213.607 141.998L212.901 142.405Z" fill="#AEC7EB"/>
<path d="M213.652 142.405L213.647 142.403L196.967 132.515L202.777 129.027L197.674 132.097L214.353 141.984L213.652 142.405Z" fill="#ABC6EA"/>
<path d="M214.396 141.514L214.39 141.51L197.832 131.985L202.898 129.027L198.533 131.583L215.091 141.108L214.396 141.514Z" fill="#A9C3E9"/>
<path d="M215.132 141.514L215.125 141.51L198.697 131.668L203.028 129.027L219.461 138.873L215.132 141.514Z" fill="#A7C2E9"/>
<path d="M192.641 87.9996L209.575 77.2969L226.094 87.405L209.944 98.1077L192.641 87.9996Z" fill="#557DC8"/>
<path d="M192.641 87.9991V134.645L209.944 144.188V98.0883L192.641 87.9991Z" fill="#4061B6"/>
<path d="M226.094 87.4045L226.382 134.1L209.944 144.188V98.0883L226.094 87.4045Z" fill="#486DBE"/>
<path d="M165.821 112.973L182.902 103.162L199.562 112.973L182.902 122.784L165.821 112.973Z" fill="#F8F9FD"/>
<path d="M165.821 112.973L182.902 103.162L199.562 112.973L182.902 122.784L165.821 112.973Z" fill="url(#paint23_linear_100_5233)"/>
<path d="M165.821 112.973V150.677L182.259 160.243V123.086L165.821 112.973Z" fill="#E3E6F5"/>
<path d="M165.821 112.973V150.677L182.259 160.243V123.086L165.821 112.973Z" fill="url(#paint24_linear_100_5233)"/>
<path d="M199.562 112.973V150.13L182.259 160.243V123.086L199.562 112.973Z" fill="#F0F2FA"/>
<path d="M199.562 112.973V150.13L182.259 160.243V123.086L199.562 112.973Z" fill="url(#paint25_linear_100_5233)"/>
<path d="M137.271 80.4185L154.352 70.1618L171.012 80.4185L154.352 90.6753L137.271 80.4185Z" fill="#6767E6"/>
<path d="M137.271 79.9725V167.537L154.574 177.189V90.1771L137.271 79.9725Z" fill="#292974"/>
<path d="M171.012 79.9725V166.984L154.574 177.189V90.1771L171.012 79.9725Z" fill="#3D3DA4"/>
<defs>
<linearGradient id="paint0_linear_100_5233" x1="186.5" y1="16.2715" x2="186.5" y2="220" gradientUnits="userSpaceOnUse">
<stop stop-color="#F3F8FF"/>
<stop offset="1" stop-color="#C7E0FF"/>
</linearGradient>
<linearGradient id="paint1_linear_100_5233" x1="203.242" y1="91.9707" x2="203.242" y2="179.143" gradientUnits="userSpaceOnUse">
<stop stop-color="#F3F8FF"/>
<stop offset="1" stop-color="#00BFF2"/>
</linearGradient>
<linearGradient id="paint2_linear_100_5233" x1="248.011" y1="158.713" x2="293.013" y2="158.713" gradientUnits="userSpaceOnUse">
<stop stop-color="#54A5FF"/>
<stop offset="0.0912548" stop-color="#54A5FF"/>
<stop offset="1" stop-color="white"/>
</linearGradient>
<linearGradient id="paint3_linear_100_5233" x1="270.512" y1="172.106" x2="270.512" y2="145.32" gradientUnits="userSpaceOnUse">
<stop stop-color="#F3F8FF"/>
<stop offset="1" stop-color="#96C6FF"/>
</linearGradient>
<linearGradient id="paint4_linear_100_5233" x1="297.143" y1="135.449" x2="265.554" y2="191.474" gradientUnits="userSpaceOnUse">
<stop stop-color="#F3F8FF"/>
<stop offset="1" stop-color="#BFDCFF"/>
</linearGradient>
<linearGradient id="paint5_linear_100_5233" x1="194.948" y1="193.83" x2="238.673" y2="193.83" gradientUnits="userSpaceOnUse">
<stop stop-color="#54A5FF"/>
<stop offset="0.0912548" stop-color="#54A5FF"/>
<stop offset="1" stop-color="white"/>
</linearGradient>
<linearGradient id="paint6_linear_100_5233" x1="216.811" y1="206.843" x2="216.811" y2="180.818" gradientUnits="userSpaceOnUse">
<stop stop-color="#F3F8FF"/>
<stop offset="1" stop-color="#96C6FF"/>
</linearGradient>
<linearGradient id="paint7_linear_100_5233" x1="744.379" y1="44.5201" x2="744.379" y2="-1870.99" gradientUnits="userSpaceOnUse">
<stop stop-color="#00BFF2"/>
<stop offset="1" stop-color="#009CC6"/>
</linearGradient>
<linearGradient id="paint8_linear_100_5233" x1="242.686" y1="171.227" x2="211.993" y2="225.662" gradientUnits="userSpaceOnUse">
<stop stop-color="#F3F8FF"/>
<stop offset="1" stop-color="#BFDCFF"/>
</linearGradient>
<linearGradient id="paint9_linear_100_5233" x1="1288.09" y1="25.4292" x2="1288.09" y2="-2047.93" gradientUnits="userSpaceOnUse">
<stop stop-color="#198EE0"/>
<stop offset="1" stop-color="#4E9DE1"/>
</linearGradient>
<linearGradient id="paint10_linear_100_5233" x1="302.228" y1="127.628" x2="347.43" y2="127.628" gradientUnits="userSpaceOnUse">
<stop stop-color="#54A5FF"/>
<stop offset="0.0912548" stop-color="#54A5FF"/>
<stop offset="1" stop-color="white"/>
</linearGradient>
<linearGradient id="paint11_linear_100_5233" x1="324.829" y1="141.081" x2="324.829" y2="114.176" gradientUnits="userSpaceOnUse">
<stop stop-color="#F3F8FF"/>
<stop offset="1" stop-color="#96C6FF"/>
</linearGradient>
<linearGradient id="paint12_linear_100_5233" x1="351.579" y1="104.26" x2="319.847" y2="160.536" gradientUnits="userSpaceOnUse">
<stop stop-color="#F3F8FF"/>
<stop offset="1" stop-color="#BFDCFF"/>
</linearGradient>
<linearGradient id="paint13_linear_100_5233" x1="316.829" y1="124.31" x2="316.829" y2="101.442" gradientUnits="userSpaceOnUse">
<stop stop-color="#F3F8FF"/>
<stop offset="0.619792" stop-color="#8FC2FF"/>
<stop offset="1" stop-color="#5CA6FF" stop-opacity="0.8"/>
</linearGradient>
<linearGradient id="paint14_linear_100_5233" x1="2539.5" y1="-826.667" x2="324.83" y2="-826.667" gradientUnits="userSpaceOnUse">
<stop stop-color="#EB008B"/>
<stop offset="1" stop-color="#FF3CAF"/>
</linearGradient>
<linearGradient id="paint15_linear_100_5233" x1="147.775" y1="152.128" x2="147.775" y2="57.0817" gradientUnits="userSpaceOnUse">
<stop stop-color="#F3F8FF"/>
<stop offset="0.619792" stop-color="#00BFF2"/>
<stop offset="1" stop-color="#00BFF2" stop-opacity="0.8"/>
</linearGradient>
<linearGradient id="paint16_linear_100_5233" x1="234.169" y1="90.8944" x2="284.558" y2="90.8944" gradientUnits="userSpaceOnUse">
<stop stop-color="#9AA1D8"/>
<stop offset="0.0912548" stop-color="#9AA1D8"/>
<stop offset="1" stop-color="white"/>
</linearGradient>
<linearGradient id="paint17_linear_100_5233" x1="234.169" y1="90.8929" x2="284.558" y2="90.8929" gradientUnits="userSpaceOnUse">
<stop stop-color="#54A5FF"/>
<stop offset="0.0912548" stop-color="#54A5FF"/>
<stop offset="1" stop-color="white"/>
</linearGradient>
<linearGradient id="paint18_linear_100_5233" x1="259.363" y1="105.89" x2="259.363" y2="75.8975" gradientUnits="userSpaceOnUse">
<stop stop-color="#F3F8FF"/>
<stop offset="1" stop-color="#96C6FF"/>
</linearGradient>
<linearGradient id="paint19_linear_100_5233" x1="284.559" y1="83.9702" x2="234.169" y2="83.9702" gradientUnits="userSpaceOnUse">
<stop stop-color="#F3F8FF"/>
<stop offset="0.505208" stop-color="white"/>
<stop offset="1" stop-color="#EDF1F4" stop-opacity="0.57"/>
</linearGradient>
<radialGradient id="paint20_radial_100_5233" cx="0" cy="0" r="1" gradientUnits="userSpaceOnUse" gradientTransform="translate(159.469 38.8689) scale(35.5905 18.9761)">
<stop stop-color="#3F5EB4"/>
<stop offset="0.0912548" stop-color="#3F5EB4"/>
<stop offset="1" stop-color="#F5F6FC"/>
</radialGradient>
<linearGradient id="paint21_linear_100_5233" x1="133.811" y1="29.8477" x2="184.201" y2="29.8477" gradientUnits="userSpaceOnUse">
<stop stop-color="#54A5FF"/>
<stop offset="0.0912548" stop-color="#54A5FF"/>
<stop offset="1" stop-color="white"/>
</linearGradient>
<linearGradient id="paint22_linear_100_5233" x1="159.006" y1="52.7727" x2="159.006" y2="6.92473" gradientUnits="userSpaceOnUse">
<stop stop-color="#F3F8FF"/>
<stop offset="1" stop-color="#96C6FF"/>
</linearGradient>
<linearGradient id="paint23_linear_100_5233" x1="202.658" y1="100.461" x2="179.797" y2="141.957" gradientUnits="userSpaceOnUse">
<stop stop-color="#F3F8FF"/>
<stop offset="1" stop-color="#BFDCFF"/>
</linearGradient>
<linearGradient id="paint24_linear_100_5233" x1="174.04" y1="160.243" x2="174.04" y2="112.973" gradientUnits="userSpaceOnUse">
<stop stop-color="#F3F8FF"/>
<stop offset="1" stop-color="#96C6FF"/>
</linearGradient>
<linearGradient id="paint25_linear_100_5233" x1="190.911" y1="160.243" x2="190.911" y2="112.973" gradientUnits="userSpaceOnUse">
<stop stop-color="#F3F8FF"/>
<stop offset="1" stop-color="#96C6FF"/>
</linearGradient>
</defs>
</svg>
