<svg width="140" height="56" viewBox="0 0 140 56" fill="none" xmlns="http://www.w3.org/2000/svg">
<g id="Group">
<g id="Group_2">
<path id="Vector" d="M12.2601 30.9806C13.7725 30.9806 14.9984 29.7546 14.9984 28.2423C14.9984 26.73 13.7725 25.504 12.2601 25.504C10.7478 25.504 9.52185 26.73 9.52185 28.2423C9.52185 29.7546 10.7478 30.9806 12.2601 30.9806Z" fill="#90298D"/>
<path id="Vector_2" d="M17.4702 36.1906C18.9825 36.1906 20.2085 34.9647 20.2085 33.4523C20.2085 31.94 18.9825 30.7141 17.4702 30.7141C15.9579 30.7141 14.7319 31.94 14.7319 33.4523C14.7319 34.9647 15.9579 36.1906 17.4702 36.1906Z" fill="#90298D"/>
<path id="Vector_3" d="M22.7044 41.4249C24.2167 41.4249 25.4426 40.1989 25.4426 38.6866C25.4426 37.1743 24.2167 35.9483 22.7044 35.9483C21.192 35.9483 19.9661 37.1743 19.9661 38.6866C19.9661 40.1989 21.192 41.4249 22.7044 41.4249Z" fill="#602C80"/>
<path id="Vector_4" d="M22.4136 51.021C23.6716 51.021 24.6915 50.0012 24.6915 48.7431C24.6915 47.4851 23.6716 46.4653 22.4136 46.4653C21.1556 46.4653 20.1357 47.4851 20.1357 48.7431C20.1357 50.0012 21.1556 51.021 22.4136 51.021Z" fill="#2D2E73"/>
<path id="Vector_5" d="M17.2278 45.5444C18.2985 45.5444 19.1664 44.6765 19.1664 43.6058C19.1664 42.5352 18.2985 41.6672 17.2278 41.6672C16.1571 41.6672 15.2892 42.5352 15.2892 43.6058C15.2892 44.6765 16.1571 45.5444 17.2278 45.5444Z" fill="#255994"/>
<path id="Vector_6" d="M12.0178 40.0436C12.9011 40.0436 13.6172 39.3276 13.6172 38.4443C13.6172 37.561 12.9011 36.8449 12.0178 36.8449C11.1345 36.8449 10.4185 37.561 10.4185 38.4443C10.4185 39.3276 11.1345 40.0436 12.0178 40.0436Z" fill="#1885BC"/>
<path id="Vector_7" d="M6.832 34.5428C7.52793 34.5428 8.09209 33.9786 8.09209 33.2827C8.09209 32.5868 7.52793 32.0226 6.832 32.0226C6.13606 32.0226 5.5719 32.5868 5.5719 33.2827C5.5719 33.9786 6.13606 34.5428 6.832 34.5428Z" fill="#15BFF1"/>
<path id="Vector_8" d="M17.1793 55.8191C18.1965 55.8191 19.021 54.9945 19.021 53.9774C19.021 52.9603 18.1965 52.1357 17.1793 52.1357C16.1622 52.1357 15.3376 52.9603 15.3376 53.9774C15.3376 54.9945 16.1622 55.8191 17.1793 55.8191Z" fill="#255994"/>
<path id="Vector_9" d="M11.9936 50.391C12.8635 50.391 13.5687 49.6858 13.5687 48.8158C13.5687 47.9459 12.8635 47.2407 11.9936 47.2407C11.1237 47.2407 10.4185 47.9459 10.4185 48.8158C10.4185 49.6858 11.1237 50.391 11.9936 50.391Z" fill="#1885BC"/>
<path id="Vector_10" d="M6.80777 44.9386C7.51708 44.9386 8.0921 44.3636 8.0921 43.6543C8.0921 42.945 7.51708 42.3699 6.80777 42.3699C6.09845 42.3699 5.52344 42.945 5.52344 43.6543C5.52344 44.3636 6.09845 44.9386 6.80777 44.9386Z" fill="#15BFF1"/>
<path id="Vector_11" d="M1.62202 39.5105C2.18412 39.5105 2.63979 39.0548 2.63979 38.4927C2.63979 37.9306 2.18412 37.475 1.62202 37.475C1.05992 37.475 0.604248 37.9306 0.604248 38.4927C0.604248 39.0548 1.05992 39.5105 1.62202 39.5105Z" fill="#15BFF1"/>
<path id="Vector_12" d="M12.2117 9.5105C13.4697 9.5105 14.4896 8.49066 14.4896 7.23263C14.4896 5.9746 13.4697 4.95477 12.2117 4.95477C10.9537 4.95477 9.93384 5.9746 9.93384 7.23263C9.93384 8.49066 10.9537 9.5105 12.2117 9.5105Z" fill="#2D2E73"/>
<path id="Vector_13" d="M17.4216 14.3328C18.4923 14.3328 19.3603 13.4648 19.3603 12.3942C19.3603 11.3235 18.4923 10.4556 17.4216 10.4556C16.351 10.4556 15.483 11.3235 15.483 12.3942C15.483 13.4648 16.351 14.3328 17.4216 14.3328Z" fill="#255994"/>
<path id="Vector_14" d="M22.6075 19.1551C23.4908 19.1551 24.2069 18.439 24.2069 17.5557C24.2069 16.6724 23.4908 15.9564 22.6075 15.9564C21.7242 15.9564 21.0082 16.6724 21.0082 17.5557C21.0082 18.439 21.7242 19.1551 22.6075 19.1551Z" fill="#1885BC"/>
<path id="Vector_15" d="M27.7933 23.9774C28.4892 23.9774 29.0534 23.4132 29.0534 22.7173C29.0534 22.0214 28.4892 21.4572 27.7933 21.4572C27.0974 21.4572 26.5332 22.0214 26.5332 22.7173C26.5332 23.4132 27.0974 23.9774 27.7933 23.9774Z" fill="#15BFF1"/>
<path id="Vector_16" d="M17.4459 3.8643C18.4631 3.8643 19.2876 3.03975 19.2876 2.02262C19.2876 1.00548 18.4631 0.180937 17.4459 0.180937C16.4288 0.180937 15.6042 1.00548 15.6042 2.02262C15.6042 3.03975 16.4288 3.8643 17.4459 3.8643Z" fill="#255994"/>
<path id="Vector_17" d="M22.6318 8.75929C23.5017 8.75929 24.2069 8.05408 24.2069 7.18417C24.2069 6.31425 23.5017 5.60905 22.6318 5.60905C21.7618 5.60905 21.0566 6.31425 21.0566 7.18417C21.0566 8.05408 21.7618 8.75929 22.6318 8.75929Z" fill="#1885BC"/>
<path id="Vector_18" d="M27.8175 13.63C28.5268 13.63 29.1019 13.055 29.1019 12.3457C29.1019 11.6364 28.5268 11.0614 27.8175 11.0614C27.1082 11.0614 26.5332 11.6364 26.5332 12.3457C26.5332 13.055 27.1082 13.63 27.8175 13.63Z" fill="#15BFF1"/>
<path id="Vector_19" d="M33.0032 18.5008C33.5653 18.5008 34.021 18.0451 34.021 17.483C34.021 16.9209 33.5653 16.4653 33.0032 16.4653C32.4411 16.4653 31.9855 16.9209 31.9855 17.483C31.9855 18.0451 32.4411 18.5008 33.0032 18.5008Z" fill="#15BFF1"/>
<path id="Vector_20" d="M12.2117 20.5848C13.724 20.5848 14.95 19.3588 14.95 17.8465C14.95 16.3342 13.724 15.1082 12.2117 15.1082C10.6994 15.1082 9.47339 16.3342 9.47339 17.8465C9.47339 19.3588 10.6994 20.5848 12.2117 20.5848Z" fill="#602C80"/>
<path id="Vector_21" d="M17.4216 25.7948C18.934 25.7948 20.1599 24.5689 20.1599 23.0565C20.1599 21.5442 18.934 20.3183 17.4216 20.3183C15.9093 20.3183 14.6833 21.5442 14.6833 23.0565C14.6833 24.5689 15.9093 25.7948 17.4216 25.7948Z" fill="#90298D"/>
<path id="Vector_22" d="M22.6559 31.0291C24.1682 31.0291 25.3942 29.8031 25.3942 28.2908C25.3942 26.7785 24.1682 25.5525 22.6559 25.5525C21.1436 25.5525 19.9176 26.7785 19.9176 28.2908C19.9176 29.8031 21.1436 31.0291 22.6559 31.0291Z" fill="#90298D"/>
<path id="Vector_23" d="M31.5493 33.2342L28.8837 30.5687C27.9871 29.6721 26.5089 29.6721 25.5881 30.5687C24.6915 31.4653 24.6915 32.9435 25.5881 33.8643L27.139 35.4152C28.6414 36.9176 28.6414 39.3166 27.139 40.8191L25.5881 42.3699C24.6915 43.2666 24.6915 44.7447 25.5881 45.6656C26.4847 46.5622 27.9629 46.5622 28.8837 45.6656L31.5493 43C34.2392 40.2617 34.2392 35.9241 31.5493 33.2342Z" fill="#2D2E73"/>
<path id="Vector_24" d="M5.01454 24.2197L6.15348 25.3586C7.02585 26.231 8.45558 26.231 9.32795 25.3586L9.42488 25.2617C10.2973 24.3893 10.2973 22.9596 9.42488 22.0872L8.52828 21.1906C6.66236 19.3247 6.66236 16.2956 8.52828 14.4297L9.42488 13.5331C10.2973 12.6607 10.2973 11.231 9.42488 10.3586L9.32795 10.2617C8.45558 9.38934 7.02585 9.38934 6.15348 10.2617L5.01454 11.4006C1.45235 14.8901 1.45235 20.6575 5.01454 24.2197Z" fill="#2D2E73"/>
</g>
<g id="Group_3">
<path id="Vector_25" d="M46.56 40.1648C45.1512 40.1648 43.9677 39.883 43.0097 39.3195C42.0516 38.7559 41.319 37.9669 40.8682 36.8962C40.361 35.8255 40.1356 34.5293 40.0792 32.9513L43.7987 32.2187C43.855 33.1204 43.9677 33.9094 44.1368 34.642C44.3058 35.3183 44.5876 35.8818 44.9821 36.2763C45.3766 36.6708 45.8838 36.8398 46.5037 36.8398C47.1799 36.8398 47.6871 36.6144 47.9689 36.2199C48.2507 35.8255 48.4198 35.2619 48.4198 34.642C48.4198 33.6276 48.1943 32.7823 47.7435 32.106C47.2927 31.4298 46.6728 30.8099 45.8838 30.1336L42.897 27.4849C42.0516 26.7523 41.3754 25.9633 40.9245 25.0617C40.4174 24.16 40.1919 23.0892 40.1919 21.7931C40.1919 19.9334 40.7555 18.4681 41.8262 17.4537C42.897 16.4393 44.4186 15.9322 46.2783 15.9322C47.4054 15.9322 48.307 16.1012 49.0397 16.4393C49.7723 16.7775 50.3922 17.2283 50.7867 17.8482C51.2375 18.4681 51.5756 19.1444 51.7447 19.877C51.9701 20.666 52.0828 21.4549 52.1392 22.3003L48.4761 22.9202C48.4198 22.1876 48.3634 21.5113 48.2507 20.9477C48.138 20.3842 47.9126 19.9334 47.5744 19.5952C47.2363 19.2571 46.7855 19.088 46.1656 19.088C45.5457 19.088 45.0385 19.3135 44.7003 19.7079C44.3622 20.1024 44.1931 20.666 44.1931 21.2859C44.1931 22.0748 44.3622 22.7511 44.7003 23.2583C45.0385 23.7655 45.4893 24.329 46.1092 24.8362L49.0397 27.4286C49.9977 28.2175 50.843 29.1756 51.5193 30.3027C52.1955 31.3734 52.5337 32.7259 52.5337 34.3039C52.5337 35.431 52.3083 36.4454 51.8011 37.2907C51.2939 38.1924 50.6176 38.8686 49.7159 39.3195C48.7579 39.9394 47.7435 40.1648 46.56 40.1648Z" fill="#2D2D73"/>
<path id="Vector_26" d="M53.7736 39.8267L58.5074 16.2139H63.1285L67.8623 39.8267H63.8611L62.9031 34.3602H58.7891L57.8311 39.8267H53.7736ZM59.24 31.6552H62.4522L60.8743 21.7367L59.24 31.6552Z" fill="#2D2D73"/>
<path id="Vector_27" d="M76.0337 40.1648C74.2867 40.1648 72.9342 39.8266 71.9761 39.2067C71.0181 38.5868 70.3418 37.6288 69.9473 36.4453C69.5529 35.2619 69.3838 33.853 69.3838 32.2187V16.2703H73.5541V32.7259C73.5541 33.4585 73.6104 34.1348 73.7231 34.811C73.8358 35.4873 74.0612 35.9945 74.3994 36.389C74.7375 36.7835 75.3011 37.0089 76.0337 37.0089C76.7663 37.0089 77.3298 36.7835 77.668 36.389C78.0061 35.9945 78.2315 35.4873 78.3442 34.811C78.4569 34.1348 78.5133 33.4585 78.5133 32.7259V16.2703H82.6836V32.2187C82.6836 33.853 82.5145 35.2619 82.12 36.4453C81.7255 37.6288 81.1056 38.5305 80.1476 39.2067C79.1896 39.8266 77.837 40.1648 76.0337 40.1648Z" fill="#2D2D73"/>
<path id="Vector_28" d="M85.5013 39.8267V16.2139H91.0805C92.9965 16.2139 94.5181 16.4957 95.5889 17.0029C96.6596 17.5101 97.4486 18.3554 97.8994 19.4262C98.3503 20.4969 98.5757 21.9058 98.5757 23.5401V32.1624C98.5757 33.853 98.3503 35.3183 97.8994 36.4454C97.4486 37.5725 96.6596 38.4178 95.6452 38.9813C94.5745 39.5449 93.1093 39.8267 91.3059 39.8267H85.5013ZM89.7843 36.8398H91.0805C92.0949 36.8398 92.7711 36.6708 93.222 36.3326C93.6728 35.9945 93.8982 35.4873 94.0109 34.8111C94.1237 34.1348 94.18 33.3458 94.18 32.3314V23.3146C94.18 22.3566 94.1237 21.624 93.9546 21.0041C93.8419 20.4405 93.5601 19.9897 93.1093 19.7079C92.6584 19.4262 91.9822 19.3134 91.0241 19.3134H89.7843V36.8398Z" fill="#90298D"/>
<path id="Vector_29" d="M99.9846 39.8267L104.718 16.2139H109.34L114.073 39.8267H110.072L109.114 34.3602H105L104.042 39.8267H99.9846ZM105.451 31.6552H108.663L107.085 21.7367L105.451 31.6552Z" fill="#90298D"/>
<path id="Vector_30" d="M117.342 39.8266V19.4261H113.566V16.2703H125.344V19.4261H121.625V39.8266H117.342Z" fill="#90298D"/>
<path id="Vector_31" d="M124.95 39.8267L129.684 16.2139H134.305L139.039 39.8267H135.037L134.079 34.3602H129.965L129.007 39.8267H124.95ZM130.416 31.6552H133.628L132.051 21.7367L130.416 31.6552Z" fill="#90298D"/>
</g>
</g>
</svg>
