<svg width="93" height="19" viewBox="0 0 93 19" fill="none" xmlns="http://www.w3.org/2000/svg">
<path d="M0.768 15.648L2.544 13.44C2.544 13.44 4.296 15.456 6.672 15.456C7.968 15.456 9.12 14.76 9.12 13.44C9.12 10.536 1.104 10.776 1.104 5.472C1.104 2.712 3.504 0.671999 6.792 0.671999C8.784 0.671999 11.856 1.608 11.856 4.032V5.616H9.024V4.848C9.024 4.056 7.896 3.528 6.768 3.528C5.328 3.528 4.272 4.272 4.272 5.352C4.272 8.256 12.288 7.68 12.288 13.272C12.288 15.984 10.2 18.288 6.624 18.288C2.856 18.288 0.768 15.648 0.768 15.648ZM13.9639 14.472C13.9639 10.632 19.2439 10.32 21.2359 10.32H21.6199V10.224C21.6199 8.472 20.9239 7.824 19.3639 7.824C18.8119 7.824 17.7319 7.968 17.7319 8.64V9.288H14.8999V7.992C14.8999 5.712 18.1159 5.472 19.3879 5.472C23.4679 5.472 24.6679 7.608 24.6679 10.344V14.904C24.6679 15.24 24.8599 15.432 25.1959 15.432H26.1559V18H23.4199C22.2919 18 21.8599 17.376 21.8599 16.656C21.8599 16.344 21.8839 16.128 21.8839 16.128H21.8359C21.8359 16.128 20.8999 18.288 18.1399 18.288C15.9559 18.288 13.9639 16.92 13.9639 14.472ZM17.0359 14.328C17.0359 15.144 17.6359 15.912 18.8839 15.912C20.5159 15.912 21.6679 14.184 21.6679 12.696V12.408H21.1399C19.5559 12.408 17.0359 12.624 17.0359 14.328ZM28.5456 13.632V8.88C28.5456 8.52 28.3536 8.352 28.0176 8.352H27.0576V5.76H29.9616C31.0896 5.76 31.5696 6.264 31.5696 7.368V13.008C31.5696 14.496 31.9536 15.504 33.4656 15.504C35.6736 15.504 36.8976 13.56 36.8976 11.376V5.76H39.9456V14.904C39.9456 15.24 40.1376 15.432 40.4736 15.432H41.4336V18H38.6256C37.5696 18 37.0176 17.496 37.0176 16.632V16.296C37.0176 16.008 37.0416 15.744 37.0416 15.744H36.9936C36.4176 17.016 34.8816 18.288 32.7696 18.288C30.1536 18.288 28.5456 16.968 28.5456 13.632ZM42.6743 11.88C42.6743 7.992 45.0023 5.472 48.2422 5.472C50.9063 5.472 51.7703 6.96 51.7703 6.96H51.8183C51.8183 6.96 51.7943 6.648 51.7943 6.24V4.08C51.7943 3.72 51.6023 3.552 51.2663 3.552H50.3063V0.959999H53.2103C54.3383 0.959999 54.8423 1.464 54.8423 2.592V14.904C54.8423 15.24 55.0343 15.432 55.3703 15.432H56.3063V18H53.4983C52.3943 18 51.9863 17.472 51.9863 16.752C51.9863 16.488 51.9863 16.296 51.9863 16.296H51.9383C51.9383 16.296 50.9303 18.288 48.1223 18.288C44.8103 18.288 42.6743 15.672 42.6743 11.88ZM48.7943 15.72C50.3783 15.72 51.8663 14.568 51.8663 11.856C51.8663 9.96 50.8823 8.088 48.8423 8.088C47.1623 8.088 45.7703 9.456 45.7703 11.88C45.7703 14.208 46.9943 15.72 48.7943 15.72ZM57.6279 14.472C57.6279 10.632 62.9079 10.32 64.8999 10.32H65.2839V10.224C65.2839 8.472 64.5879 7.824 63.0279 7.824C62.4759 7.824 61.3959 7.968 61.3959 8.64V9.288H58.5639V7.992C58.5639 5.712 61.7799 5.472 63.0519 5.472C67.1319 5.472 68.3319 7.608 68.3319 10.344V14.904C68.3319 15.24 68.5239 15.432 68.8599 15.432H69.8199V18H67.0839C65.9559 18 65.5239 17.376 65.5239 16.656C65.5239 16.344 65.5479 16.128 65.5479 16.128H65.4999C65.4999 16.128 64.5639 18.288 61.8039 18.288C59.6199 18.288 57.6279 16.92 57.6279 14.472ZM60.6999 14.328C60.6999 15.144 61.2999 15.912 62.5479 15.912C64.1799 15.912 65.3319 14.184 65.3319 12.696V12.408H64.8039C63.2199 12.408 60.6999 12.624 60.6999 14.328ZM72.3056 13.512V8.184H70.7216V5.76H72.3776V2.424H75.3536V5.76H78.1376V8.184H75.3536V13.128C75.3536 15.144 76.9376 15.432 77.7776 15.432C78.1136 15.432 78.3296 15.384 78.3296 15.384V18.048C78.3296 18.048 77.9456 18.12 77.3936 18.12C75.6896 18.12 72.3056 17.616 72.3056 13.512ZM79.8701 14.472C79.8701 10.632 85.1501 10.32 87.1421 10.32H87.5261V10.224C87.5261 8.472 86.8301 7.824 85.2701 7.824C84.7181 7.824 83.6381 7.968 83.6381 8.64V9.288H80.8061V7.992C80.8061 5.712 84.0221 5.472 85.2941 5.472C89.3741 5.472 90.5741 7.608 90.5741 10.344V14.904C90.5741 15.24 90.7661 15.432 91.1021 15.432H92.0621V18H89.3261C88.1981 18 87.7661 17.376 87.7661 16.656C87.7661 16.344 87.7901 16.128 87.7901 16.128H87.7421C87.7421 16.128 86.8061 18.288 84.0461 18.288C81.8621 18.288 79.8701 16.92 79.8701 14.472ZM82.9421 14.328C82.9421 15.144 83.5421 15.912 84.7901 15.912C86.4221 15.912 87.5741 14.184 87.5741 12.696V12.408H87.0461C85.4621 12.408 82.9421 12.624 82.9421 14.328Z" fill="#000080"/>
</svg>
