<?xml version="1.0" encoding="utf-8"?>
<!-- Generator: Adobe Illustrator 24.1.2, SVG Export Plug-In . SVG Version: 6.00 Build 0)  -->
<svg version="1.0" id="Layer_1" xmlns="http://www.w3.org/2000/svg" xmlns:xlink="http://www.w3.org/1999/xlink" x="0px" y="0px"
	 viewBox="0 0 366 247.2" style="enable-background:new 0 0 366 247.2;" xml:space="preserve">
<style type="text/css">
	.st0{fill:#90298D;}
	.st1{fill:#602C80;}
	.st2{fill:#2D2E73;}
	.st3{fill:#255994;}
	.st4{fill:#1885BC;}
	.st5{fill:#15BFF1;}
	.st6{fill:#2D2D73;}
</style>
<g>
	<g>
		<circle class="st0" cx="66.6" cy="124.6" r="11.3"/>
		<circle class="st0" cx="88.1" cy="146.1" r="11.3"/>
		<circle class="st1" cx="109.7" cy="167.7" r="11.3"/>
		<circle class="st2" cx="108.5" cy="209.2" r="9.4"/>
		<circle class="st3" cx="87.1" cy="188" r="8"/>
		<circle class="st4" cx="65.6" cy="166.7" r="6.6"/>
		<circle class="st5" cx="44.2" cy="145.4" r="5.2"/>
		<circle class="st3" cx="86.9" cy="230.8" r="7.6"/>
		<circle class="st4" cx="65.5" cy="209.5" r="6.5"/>
		<circle class="st5" cx="44.1" cy="188.2" r="5.3"/>
		<circle class="st5" cx="22.7" cy="166.9" r="4.2"/>
		<circle class="st2" cx="66.4" cy="37.9" r="9.4"/>
		<circle class="st3" cx="87.9" cy="59.2" r="8"/>
		<circle class="st4" cx="109.3" cy="80.5" r="6.6"/>
		<circle class="st5" cx="130.7" cy="101.8" r="5.2"/>
		<circle class="st3" cx="88" cy="16.4" r="7.6"/>
		<circle class="st4" cx="109.4" cy="37.7" r="6.5"/>
		<circle class="st5" cx="130.8" cy="59" r="5.3"/>
		<circle class="st5" cx="152.2" cy="80.2" r="4.2"/>
		<circle class="st1" cx="66.4" cy="81.7" r="11.3"/>
		<circle class="st0" cx="87.9" cy="103.2" r="11.3"/>
		<circle class="st0" cx="109.5" cy="124.8" r="11.3"/>
		<path class="st2" d="M146.2,145.2l-11-11c-3.7-3.7-9.8-3.7-13.6,0h0c-3.7,3.7-3.7,9.8,0,13.6l6.4,6.4c6.2,6.2,6.2,16.1,0,22.3
			l-6.4,6.4c-3.7,3.7-3.7,9.8,0,13.6l0,0c3.7,3.7,9.8,3.7,13.6,0l11-11C157.3,174.2,157.3,156.3,146.2,145.2z"/>
		<path class="st2" d="M36.7,108l4.7,4.7c3.6,3.6,9.5,3.6,13.1,0l0.4-0.4c3.6-3.6,3.6-9.5,0-13.1l-3.7-3.7c-7.7-7.7-7.7-20.2,0-27.9
			l3.7-3.7c3.6-3.6,3.6-9.5,0-13.1l-0.4-0.4c-3.6-3.6-9.5-3.6-13.1,0l-4.7,4.7C22,69.5,22,93.3,36.7,108z"/>
	</g>
	<g>
		<path class="st6" d="M182.5,152.7c-2.5,0-4.6-0.5-6.3-1.5c-1.7-1-3-2.4-3.8-4.3c-0.9-1.9-1.3-4.2-1.4-7l6.6-1.3
			c0.1,1.6,0.3,3,0.6,4.3c0.3,1.2,0.8,2.2,1.5,2.9c0.7,0.7,1.6,1,2.7,1c1.2,0,2.1-0.4,2.6-1.1c0.5-0.7,0.8-1.7,0.8-2.8
			c0-1.8-0.4-3.3-1.2-4.5c-0.8-1.2-1.9-2.3-3.3-3.5l-5.3-4.7c-1.5-1.3-2.7-2.7-3.5-4.3c-0.9-1.6-1.3-3.5-1.3-5.8
			c0-3.3,1-5.9,2.9-7.7c1.9-1.8,4.6-2.7,7.9-2.7c2,0,3.6,0.3,4.9,0.9c1.3,0.6,2.4,1.4,3.1,2.5c0.8,1.1,1.4,2.3,1.7,3.6
			c0.4,1.4,0.6,2.8,0.7,4.3l-6.5,1.1c-0.1-1.3-0.2-2.5-0.4-3.5c-0.2-1-0.6-1.8-1.2-2.4c-0.6-0.6-1.4-0.9-2.5-0.9
			c-1.1,0-2,0.4-2.6,1.1c-0.6,0.7-0.9,1.7-0.9,2.8c0,1.4,0.3,2.6,0.9,3.5c0.6,0.9,1.4,1.9,2.5,2.8l5.2,4.6c1.7,1.4,3.2,3.1,4.4,5.1
			c1.2,1.9,1.8,4.3,1.8,7.1c0,2-0.4,3.8-1.3,5.3c-0.9,1.6-2.1,2.8-3.7,3.6C186.4,152.3,184.6,152.7,182.5,152.7z"/>
		<path class="st6" d="M195.3,152.1l8.4-41.9h8.2l8.4,41.9h-7.1l-1.7-9.7h-7.3l-1.7,9.7H195.3z M205,137.6h5.7l-2.8-17.6L205,137.6z
			"/>
		<path class="st6" d="M234.8,152.7c-3.1,0-5.5-0.6-7.2-1.7s-2.9-2.8-3.6-4.9c-0.7-2.1-1-4.6-1-7.5v-28.3h7.4v29.2
			c0,1.3,0.1,2.5,0.3,3.7c0.2,1.2,0.6,2.1,1.2,2.8c0.6,0.7,1.6,1.1,2.9,1.1c1.3,0,2.3-0.4,2.9-1.1c0.6-0.7,1-1.6,1.2-2.8
			c0.2-1.2,0.3-2.4,0.3-3.7v-29.2h7.4v28.3c0,2.9-0.3,5.4-1,7.5c-0.7,2.1-1.8,3.7-3.5,4.9C240.4,152.1,238,152.7,234.8,152.7z"/>
		<path class="st0" d="M251.6,152.1v-41.9h9.9c3.4,0,6.1,0.5,8,1.4c1.9,0.9,3.3,2.4,4.1,4.3c0.8,1.9,1.2,4.4,1.2,7.3v15.3
			c0,3-0.4,5.6-1.2,7.6c-0.8,2-2.2,3.5-4,4.5c-1.9,1-4.5,1.5-7.7,1.5H251.6z M259.2,146.8h2.3c1.8,0,3-0.3,3.8-0.9
			c0.8-0.6,1.2-1.5,1.4-2.7c0.2-1.2,0.3-2.6,0.3-4.4v-16c0-1.7-0.1-3-0.4-4.1c-0.2-1-0.7-1.8-1.5-2.3c-0.8-0.5-2-0.7-3.7-0.7h-2.2
			V146.8z"/>
		<path class="st0" d="M277.3,152.1l8.4-41.9h8.2l8.4,41.9h-7.1l-1.7-9.7h-7.3l-1.7,9.7H277.3z M287,137.6h5.7l-2.8-17.6L287,137.6z
			"/>
		<path class="st0" d="M308.1,152.1v-36.2h-6.7v-5.6h20.9v5.6h-6.6v36.2H308.1z"/>
		<path class="st0" d="M321.6,152.1l8.4-41.9h8.2l8.4,41.9h-7.1l-1.7-9.7h-7.3l-1.7,9.7H321.6z M331.3,137.6h5.7l-2.8-17.6
			L331.3,137.6z"/>
	</g>
</g>
</svg>
