<svg width="80" height="80" viewBox="0 0 80 80" fill="none" xmlns="http://www.w3.org/2000/svg">
<g id="name=data, type=Default">
<path id="Ellipse 39" d="M12.5 41.25C10.4289 41.25 8.72672 42.935 8.97462 44.9912C9.80765 51.9008 12.9311 58.3753 17.9029 63.3471C23.7634 69.2076 31.712 72.5 40 72.5C48.288 72.5 56.2365 69.2076 62.0971 63.3471C67.0688 58.3753 70.1923 51.9009 71.0253 44.9912C71.2732 42.935 69.571 41.25 67.5 41.25L12.5 41.25Z" fill="#90278E"/>
<path id="Ellipse 41" d="M40 17.5C53.1168 17.5 63.75 28.1332 63.75 41.25C63.75 54.3668 53.1168 65 40 65C26.8832 65 16.25 54.3668 16.25 41.25C16.25 28.1332 26.8832 17.5 40 17.5Z" fill="url(#paint0_linear_1085_15130)"/>
<g id="Union">
<path d="M32.5 38.125C32.5 37.7798 32.2202 37.5 31.875 37.5C31.5298 37.5 31.25 37.7798 31.25 38.125V47.875C31.25 48.2202 31.5298 48.5 31.875 48.5C32.2202 48.5 32.5 48.2202 32.5 47.875L32.5 38.125Z" fill="white"/>
<path d="M32.5 50.875C32.5 50.5298 32.2202 50.25 31.875 50.25C31.5298 50.25 31.25 50.5298 31.25 50.875V52.375C31.25 52.7202 31.5298 53 31.875 53C32.2202 53 32.5 52.7202 32.5 52.375L32.5 50.875Z" fill="white"/>
<path d="M48.125 38.25C48.4702 38.25 48.75 38.5298 48.75 38.875V46.375C48.75 46.7202 48.4702 47 48.125 47C47.7798 47 47.5 46.7202 47.5 46.375V38.875C47.5 38.5298 47.7798 38.25 48.125 38.25Z" fill="white"/>
<path d="M48.75 49.375C48.75 49.0298 48.4702 48.75 48.125 48.75C47.7798 48.75 47.5 49.0298 47.5 49.375V52.375C47.5 52.7202 47.7798 53 48.125 53C48.4702 53 48.75 52.7202 48.75 52.375V49.375Z" fill="white"/>
<path d="M40 41.25C40.3452 41.25 40.625 41.5298 40.625 41.875V50.875C40.625 51.2202 40.3452 51.5 40 51.5C39.6548 51.5 39.375 51.2202 39.375 50.875V41.875C39.375 41.5298 39.6548 41.25 40 41.25Z" fill="white"/>
<path d="M40.625 53.875C40.625 53.5298 40.3452 53.25 40 53.25C39.6548 53.25 39.375 53.5298 39.375 53.875V56.875C39.375 57.2202 39.6548 57.5 40 57.5C40.3452 57.5 40.625 57.2202 40.625 56.875V53.875Z" fill="white"/>
</g>
<path id="Ellipse 42" d="M21.2501 13.2813C21.2501 12.591 20.6875 12.022 20.0045 12.1221C19.3044 12.2246 18.618 12.4135 17.9614 12.6855C16.9187 13.1173 15.9714 13.7504 15.1734 14.5484C14.3754 15.3464 13.7423 16.2937 13.3105 17.3364C13.0385 17.993 12.8496 18.6794 12.7471 19.3795C12.647 20.0625 13.216 20.6251 13.9063 20.6251L20.0001 20.6251C20.6904 20.6251 21.2501 20.0654 21.2501 19.3751V13.2813Z" fill="url(#paint1_linear_1085_15130)"/>
<path id="Ellipse 43" d="M17.3438 9.37506C17.3438 8.6847 16.7813 8.11575 16.0982 8.21581C15.3981 8.31837 14.7118 8.50723 14.0551 8.77922C13.0125 9.2111 12.0651 9.84411 11.2671 10.6421C10.4691 11.4401 9.8361 12.3875 9.40422 13.4301C9.13223 14.0868 8.94337 14.7731 8.84081 15.4732C8.74075 16.1563 9.3097 16.7188 10.0001 16.7188L16.0938 16.7188C16.7842 16.7188 17.3438 16.1592 17.3438 15.4688V9.37506Z" fill="url(#paint2_linear_1085_15130)"/>
<path id="Rectangle 5" d="M26.25 20.2402L39.9898 28.1729V44.0383L26.25 36.1056V20.2402Z" fill="#292974"/>
<path id="Rectangle 6" d="M40 44.0383L53.7398 36.1056V20.2402L40 28.1729V44.0383Z" fill="#0F65E6"/>
<path id="Rectangle 7" d="M40 12.3076L53.75 20.2403L40 28.173L26.25 20.2403L40 12.3076Z" fill="#00BFF2"/>
<g id="Vector">
<path d="M65 17.5C65 16.4645 65.8395 15.625 66.875 15.625C67.9105 15.625 68.75 16.4645 68.75 17.5C68.75 18.5355 67.9105 19.375 66.875 19.375C65.8395 19.375 65 18.5355 65 17.5Z" fill="#90278E"/>
<path d="M65 11.25C65 10.2145 65.8395 9.375 66.875 9.375C67.9105 9.375 68.75 10.2145 68.75 11.25C68.75 12.2855 67.9105 13.125 66.875 13.125C65.8395 13.125 65 12.2855 65 11.25Z" fill="#00BFF2"/>
<path d="M58.75 11.25C58.75 10.2145 59.5895 9.375 60.625 9.375C61.6605 9.375 62.5 10.2145 62.5 11.25C62.5 12.2855 61.6605 13.125 60.625 13.125C59.5895 13.125 58.75 12.2855 58.75 11.25Z" fill="#292974"/>
</g>
</g>
<defs>
<linearGradient id="paint0_linear_1085_15130" x1="40" y1="17.5" x2="40" y2="65" gradientUnits="userSpaceOnUse">
<stop stop-color="#F3F8FF"/>
<stop offset="1" stop-color="#96C6FF"/>
</linearGradient>
<linearGradient id="paint1_linear_1085_15130" x1="22.0313" y1="21.797" x2="10.3126" y2="9.42716" gradientUnits="userSpaceOnUse">
<stop stop-color="#F3F8FF"/>
<stop offset="1" stop-color="#BFDCFF"/>
</linearGradient>
<linearGradient id="paint2_linear_1085_15130" x1="18.1251" y1="17.8907" x2="6.40633" y2="5.52091" gradientUnits="userSpaceOnUse">
<stop stop-color="#F3F8FF"/>
<stop offset="1" stop-color="#BFDCFF"/>
</linearGradient>
</defs>
</svg>
