<svg width="80" height="80" viewBox="0 0 80 80" fill="none" xmlns="http://www.w3.org/2000/svg">
<path d="M22.9862 56.5699C17.9039 47.1805 19.3304 35.2011 27.2657 27.2657C35.2011 19.3304 47.1805 17.9039 56.5699 22.9862C55.456 20.9284 54.0295 18.995 52.2904 17.2559C42.6159 7.58137 26.9304 7.58137 17.2559 17.2559C7.58137 26.9304 7.58137 42.6159 17.2559 52.2904C18.995 54.0295 20.9284 55.456 22.9862 56.5699Z" fill="#1285BB"/>
<path d="M22.9862 56.57C32.3755 61.6524 44.355 60.2258 52.2904 52.2905C60.2257 44.3551 61.6522 32.3757 56.5699 22.9863C58.6277 24.1002 60.5611 25.5267 62.3002 27.2658C71.9747 36.9404 71.9747 52.6258 62.3002 62.3003C52.6257 71.9748 36.9402 71.9748 27.2657 62.3003C25.5266 60.5612 24.1001 58.6278 22.9862 56.57Z" fill="#00BFF2"/>
<path d="M52.2904 27.2657C45.4047 20.38 35.474 18.3951 26.8328 21.3111C25.6551 21.7084 24.5218 20.4575 25.2902 19.4806C25.8965 18.7098 26.555 17.9666 27.2657 17.2559C36.9402 7.58137 52.6257 7.58137 62.3002 17.2559C66.8705 21.8262 69.2817 27.7379 69.534 33.7236C69.5912 35.0817 67.6954 35.2482 67.1052 34.0238C65.9278 31.5811 64.3261 29.2916 62.3002 27.2657C61.5895 26.555 60.8463 25.8965 60.0755 25.2902C59.0986 24.5218 57.8475 25.6548 58.2449 26.8324C58.9994 29.0682 59.4258 31.3903 59.5241 33.7237C59.5814 35.0818 57.6855 35.2482 57.0953 34.0238C55.9179 31.5811 54.3162 29.2916 52.2904 27.2657Z" fill="url(#paint0_linear_1085_15178)"/>
<path d="M22.4608 45.5324C21.8706 44.3079 19.9748 44.4743 20.032 45.8324C20.1303 48.1658 20.5567 50.4879 21.3112 52.7237C21.7086 53.9013 20.4575 55.0343 19.4806 54.2659C18.7098 53.6596 17.9666 53.0011 17.2559 52.2904C15.23 50.2645 13.6284 47.975 12.4509 45.5323C11.8607 44.3079 9.96491 44.4744 10.0221 45.8325C10.2744 51.8183 12.6856 57.73 17.2559 62.3002C26.9304 71.9747 42.6159 71.9747 52.2904 62.3002C53.0011 61.5895 53.6596 60.8464 54.2659 60.0755C55.0343 59.0986 53.901 57.8477 52.7234 58.2451C44.0822 61.161 34.1515 59.1761 27.2658 52.2904C25.2399 50.2645 23.6382 47.975 22.4608 45.5324Z" fill="url(#paint1_linear_1085_15178)"/>
<path d="M30 64.375L25.625 60" stroke="url(#paint2_linear_1085_15178)" stroke-width="2" stroke-linecap="round"/>
<path d="M35.625 64.375L31.25 60" stroke="url(#paint3_linear_1085_15178)" stroke-width="2" stroke-linecap="round"/>
<circle cx="40" cy="40" r="8.125" fill="#90278E"/>
<path d="M64.375 40.625C64.375 41.3154 63.8154 41.875 63.125 41.875C62.4346 41.875 61.875 41.3154 61.875 40.625C61.875 39.9346 62.4346 39.375 63.125 39.375C63.8154 39.375 64.375 39.9346 64.375 40.625Z" fill="url(#paint4_linear_1085_15178)"/>
<path d="M64.375 44.375C64.375 45.0654 63.8154 45.625 63.125 45.625C62.4346 45.625 61.875 45.0654 61.875 44.375C61.875 43.6846 62.4346 43.125 63.125 43.125C63.8154 43.125 64.375 43.6846 64.375 44.375Z" fill="url(#paint5_linear_1085_15178)"/>
<path d="M63.125 49.375C63.8154 49.375 64.375 48.8154 64.375 48.125C64.375 47.4346 63.8154 46.875 63.125 46.875C62.4346 46.875 61.875 47.4346 61.875 48.125C61.875 48.8154 62.4346 49.375 63.125 49.375Z" fill="url(#paint6_linear_1085_15178)"/>
<path d="M15 38.75C15 38.0596 15.5596 37.5 16.25 37.5C16.9404 37.5 17.5 38.0596 17.5 38.75C17.5 39.4404 16.9404 40 16.25 40C15.5596 40 15 39.4404 15 38.75Z" fill="url(#paint7_linear_1085_15178)"/>
<path d="M15 35C15 34.3096 15.5596 33.75 16.25 33.75C16.9404 33.75 17.5 34.3096 17.5 35C17.5 35.6904 16.9404 36.25 16.25 36.25C15.5596 36.25 15 35.6904 15 35Z" fill="url(#paint8_linear_1085_15178)"/>
<path d="M16.25 30C15.5596 30 15 30.5596 15 31.25C15 31.9404 15.5596 32.5 16.25 32.5C16.9404 32.5 17.5 31.9404 17.5 31.25C17.5 30.5596 16.9404 30 16.25 30Z" fill="url(#paint9_linear_1085_15178)"/>
<path d="M55.9004 10.75C56.4725 9.75 57.9025 9.75 58.4746 10.75L61.0487 15.25C61.6207 16.25 60.9057 17.5 59.7616 17.5H54.6134C53.4693 17.5 52.7543 16.25 53.3263 15.25L55.9004 10.75Z" fill="url(#paint10_linear_1085_15178)"/>
<defs>
<linearGradient id="paint0_linear_1085_15178" x1="69.5561" y1="24.889" x2="22.9862" y2="24.889" gradientUnits="userSpaceOnUse">
<stop stop-color="#EEF5FF"/>
<stop offset="1" stop-color="#97C7FF"/>
</linearGradient>
<linearGradient id="paint1_linear_1085_15178" x1="56.5699" y1="54.6671" x2="10" y2="54.6671" gradientUnits="userSpaceOnUse">
<stop stop-color="#97C7FF"/>
<stop offset="1" stop-color="#EEF5FF"/>
</linearGradient>
<linearGradient id="paint2_linear_1085_15178" x1="27.8125" y1="60" x2="27.8125" y2="64.375" gradientUnits="userSpaceOnUse">
<stop stop-color="#C5DEFF"/>
<stop offset="1" stop-color="#82BBFF"/>
</linearGradient>
<linearGradient id="paint3_linear_1085_15178" x1="33.4375" y1="60" x2="33.4375" y2="64.375" gradientUnits="userSpaceOnUse">
<stop stop-color="#C5DEFF"/>
<stop offset="1" stop-color="#82BBFF"/>
</linearGradient>
<linearGradient id="paint4_linear_1085_15178" x1="64.375" y1="38.75" x2="59.4096" y2="40.0649" gradientUnits="userSpaceOnUse">
<stop stop-color="#F3F8FF"/>
<stop offset="1" stop-color="#96C6FF"/>
</linearGradient>
<linearGradient id="paint5_linear_1085_15178" x1="64.375" y1="38.75" x2="59.4096" y2="40.0649" gradientUnits="userSpaceOnUse">
<stop stop-color="#F3F8FF"/>
<stop offset="1" stop-color="#96C6FF"/>
</linearGradient>
<linearGradient id="paint6_linear_1085_15178" x1="64.375" y1="38.75" x2="59.4096" y2="40.0649" gradientUnits="userSpaceOnUse">
<stop stop-color="#F3F8FF"/>
<stop offset="1" stop-color="#96C6FF"/>
</linearGradient>
<linearGradient id="paint7_linear_1085_15178" x1="15" y1="40.625" x2="19.9654" y2="39.3101" gradientUnits="userSpaceOnUse">
<stop stop-color="#F3F8FF"/>
<stop offset="1" stop-color="#96C6FF"/>
</linearGradient>
<linearGradient id="paint8_linear_1085_15178" x1="15" y1="40.625" x2="19.9654" y2="39.3101" gradientUnits="userSpaceOnUse">
<stop stop-color="#F3F8FF"/>
<stop offset="1" stop-color="#96C6FF"/>
</linearGradient>
<linearGradient id="paint9_linear_1085_15178" x1="15" y1="40.625" x2="19.9654" y2="39.3101" gradientUnits="userSpaceOnUse">
<stop stop-color="#F3F8FF"/>
<stop offset="1" stop-color="#96C6FF"/>
</linearGradient>
<linearGradient id="paint10_linear_1085_15178" x1="59.6875" y1="10" x2="53.125" y2="17.5" gradientUnits="userSpaceOnUse">
<stop stop-color="#D8E9FF"/>
<stop offset="1" stop-color="#99C8FF"/>
</linearGradient>
</defs>
</svg>
