<svg xmlns="http://www.w3.org/2000/svg" viewBox="0 0 147.62 24.78"><defs><style>.cls-1,.cls-2{fill:#fff;}.cls-2{fill-rule:evenodd;}</style></defs><title>лого кт белый</title><g id="Слой_2" data-name="Слой 2"><g id="Слой_1-2" data-name="Слой 1"><path class="cls-1" d="M31.38,22.83v-7.7h3.79a2,2,0,0,1,2.19,2A1.73,1.73,0,0,1,36,18.86a1.88,1.88,0,0,1,1.49,1.89,2,2,0,0,1-2.24,2.08ZM36,17.32a1,1,0,0,0-1.09-1H32.73v2h2.16a1,1,0,0,0,1.09-1m.15,3.25A1.07,1.07,0,0,0,35,19.5H32.73v2.14H35a1,1,0,0,0,1.18-1.07"/><path class="cls-1" d="M42.59,22.83v-.74a2.67,2.67,0,0,1-2,.88,1.59,1.59,0,0,1-1.79-1.77V17.25H40v3.51c0,.87.44,1.13,1.12,1.13a1.85,1.85,0,0,0,1.43-.72V17.25H43.8v5.58Z"/><path class="cls-1" d="M44.89,22.1l.55-.88a2.88,2.88,0,0,0,1.9.79c.72,0,1.09-.31,1.09-.75,0-1.1-3.37-.31-3.37-2.45,0-.91.79-1.7,2.2-1.7a3.21,3.21,0,0,1,2.17.79l-.51.85a2.26,2.26,0,0,0-1.65-.67c-.64,0-1,.29-1,.68,0,1,3.37.26,3.37,2.48,0,1-.82,1.73-2.32,1.73a3.37,3.37,0,0,1-2.39-.87"/><path class="cls-1" d="M50.67,15.82a.76.76,0,1,1,.75.75.76.76,0,0,1-.75-.75m.15,1.43H52v5.58H50.82Z"/><path class="cls-1" d="M57.37,22.83V19.34c0-.86-.44-1.15-1.12-1.15a1.85,1.85,0,0,0-1.43.75v3.89H53.61V17.25h1.21V18a2.62,2.62,0,0,1,2-.9,1.61,1.61,0,0,1,1.8,1.79v3.93Z"/><path class="cls-1" d="M59.81,20a2.82,2.82,0,0,1,2.83-2.92,2.77,2.77,0,0,1,2.75,3v.29H61.08A1.69,1.69,0,0,0,62.86,22a2.37,2.37,0,0,0,1.58-.61l.55.8a3.24,3.24,0,0,1-2.26.81A2.81,2.81,0,0,1,59.81,20m2.83-1.92a1.53,1.53,0,0,0-1.57,1.47h3.14a1.49,1.49,0,0,0-1.57-1.47"/><path class="cls-1" d="M66.1,22.1l.55-.88a2.88,2.88,0,0,0,1.9.79c.73,0,1.1-.31,1.1-.75,0-1.1-3.38-.31-3.38-2.45,0-.91.79-1.7,2.2-1.7a3.21,3.21,0,0,1,2.17.79l-.51.85a2.25,2.25,0,0,0-1.65-.67c-.64,0-1,.29-1,.68,0,1,3.37.26,3.37,2.48,0,1-.82,1.73-2.32,1.73a3.37,3.37,0,0,1-2.39-.87"/><path class="cls-1" d="M71.55,22.1l.56-.88A2.83,2.83,0,0,0,74,22c.73,0,1.1-.31,1.1-.75,0-1.1-3.38-.31-3.38-2.45,0-.91.79-1.7,2.2-1.7a3.19,3.19,0,0,1,2.17.79l-.51.85a2.25,2.25,0,0,0-1.65-.67c-.63,0-1,.29-1,.68,0,1,3.37.26,3.37,2.48,0,1-.82,1.73-2.32,1.73a3.39,3.39,0,0,1-2.39-.87"/><polygon class="cls-1" points="36.77 11.28 34.37 7.83 33.75 8.6 33.75 11.28 31.38 11.28 31.38 2.1 33.75 2.1 33.75 5.87 36.57 2.1 39.48 2.1 35.92 6.4 39.68 11.28 36.77 11.28"/><path class="cls-1" d="M47.16,11.28,46.7,10H43.09l-.46,1.32H40L43.4,2.1h3l3.47,9.18ZM44.89,4.44,43.72,7.9h2.34Z"/><polygon class="cls-1" points="50.13 11.28 50.13 9.4 54.04 4.17 50.13 4.17 50.13 2.1 57.16 2.1 57.16 3.99 53.24 9.22 57.26 9.22 57.26 11.28 50.13 11.28"/><path class="cls-1" d="M64.83,11.28,64.38,10H60.76l-.45,1.32H57.62L61.08,2.1h3l3.47,9.18ZM62.56,4.44,61.39,7.9h2.34Z"/><polygon class="cls-1" points="73.36 11.28 70.95 7.83 70.33 8.6 70.33 11.28 67.97 11.28 67.97 2.1 70.33 2.1 70.33 5.87 73.15 2.1 76.07 2.1 72.51 6.4 76.26 11.28 73.36 11.28"/><polygon class="cls-1" points="83.3 11.28 83.3 7.59 79.49 7.59 79.49 11.28 77.12 11.28 77.12 2.1 79.49 2.1 79.49 5.53 83.3 5.53 83.3 2.1 85.67 2.1 85.67 11.28 83.3 11.28"/><polygon class="cls-1" points="89.21 11.28 89.21 4.17 86.64 4.17 86.64 2.1 94.14 2.1 94.14 4.17 91.58 4.17 91.58 11.28 89.21 11.28"/><polygon class="cls-1" points="95.03 11.28 95.03 2.1 101.76 2.1 101.76 4.17 97.4 4.17 97.4 5.6 101.67 5.6 101.67 7.66 97.4 7.66 97.4 9.22 101.76 9.22 101.76 11.28 95.03 11.28"/><polygon class="cls-1" points="102.88 11.28 102.88 2.1 105.25 2.1 105.25 9.22 108.94 9.22 108.94 11.28 102.88 11.28"/><polygon class="cls-1" points="109.8 11.28 109.8 2.1 116.53 2.1 116.53 4.17 112.17 4.17 112.17 5.6 116.44 5.6 116.44 7.66 112.17 7.66 112.17 9.22 116.53 9.22 116.53 11.28 109.8 11.28"/><path class="cls-1" d="M117.24,6.7a4.69,4.69,0,0,1,5-4.75,4.22,4.22,0,0,1,4,2.47l-2,1a2.22,2.22,0,0,0-2-1.34,2.54,2.54,0,0,0-2.56,2.66,2.54,2.54,0,0,0,2.56,2.66,2.22,2.22,0,0,0,2-1.34l2,1a4.25,4.25,0,0,1-4,2.47,4.7,4.7,0,0,1-5-4.75"/><path class="cls-1" d="M126.6,6.7a4.91,4.91,0,0,1,9.81,0,4.91,4.91,0,0,1-9.81,0m7.4,0a2.5,2.5,0,1,0-5,0,2.5,2.5,0,1,0,5,0"/><polygon class="cls-1" points="145.25 11.28 145.25 5.31 142.93 11.28 141.88 11.28 139.57 5.31 139.57 11.28 137.2 11.28 137.2 2.1 140.49 2.1 142.41 7.08 144.33 2.1 147.62 2.1 147.62 11.28 145.25 11.28"/><path class="cls-2" d="M13.87,24.7a13.55,13.55,0,0,1-1.43.08,12.49,12.49,0,0,1-6.13-1.61c1.2.28,2.88.64,2.85.3-.28-1-3.69-2.25-5.53-2.35-.29-.29-.56-.59-.82-.9C6.66,20.78,11,22,13.87,24.7m5.67-2.15a12.16,12.16,0,0,1-5,2.05,2.7,2.7,0,0,0-1.18-1.66l.62-.23C12.34,21.27,9.07,18.31,1.1,17L.89,17l-.32-.9H.74c9.54.58,13,2.91,18.8,6.46m3.65-3.92A12.77,12.77,0,0,1,20,22.21,5.76,5.76,0,0,0,18,20.06l.43-.43A30.52,30.52,0,0,0,0,12.85q0-.45,0-.9c10.18.19,17.08,2.62,23.16,6.67h0m1.66-5.26a12.26,12.26,0,0,1-1.54,5.05l0,0s0-.06,0-.07a5.33,5.33,0,0,0-2.49-2.56l.31-.89C18.26,12.2,11,8.33.56,8.72l.32-.9c10.68-.34,18.05,1.78,24,5.55M23.76,7.24a12.31,12.31,0,0,1,1.13,5.15q0,.4,0,.81a5.19,5.19,0,0,0-3.25-3.14l-.1-.74C18.9,7.25,11.67,3.76,2.79,4.59a11.75,11.75,0,0,1,.81-.9c8.48-.89,16.7,1,20.16,3.55M12.45,0a12.48,12.48,0,0,1,11,6.63,8.13,8.13,0,0,0-4.35-2.89C17.46,1.68,10.78.24,6.31,1.62A12.24,12.24,0,0,1,12.45,0"/></g></g></svg>